<?xml version="1.0" encoding="UTF-8"?>
<svg id="_レイヤー_1" data-name=" レイヤー 1" xmlns="http://www.w3.org/2000/svg" viewBox="0 0 110.8 126.6">
  <defs>
    <style>
      .cls-1 {
        fill: #fff;
      }

      .cls-2 {
        fill: #333330;
      }

      .cls-3 {
        fill: #ccc;
      }

      .cls-4 {
        fill: #d83523;
      }

      .cls-5 {
        fill: #898880;
      }

      .cls-6 {
        fill: #fbfbf9;
        stroke: #b0afa7;
        stroke-width: .8px;
      }

      .cls-7, .cls-8, .cls-9, .cls-10 {
        fill: none;
      }

      .cls-7, .cls-10 {
        stroke: #e7211a;
        stroke-width: .5px;
      }

      .cls-8 {
        stroke: #d8d6cf;
        stroke-dasharray: 0 0 0 0 0 0 3 3;
        stroke-width: .4px;
      }

      .cls-9 {
        stroke: #e7e6df;
        stroke-dasharray: 0 0 0 0 0 0 2 4;
        stroke-width: .3px;
      }

      .cls-10 {
        stroke-miterlimit: 10;
      }
    </style>
  </defs>
  <g id="_枠_あ" data-name=" 枠 あ">
    <line class="cls-9" x1=".4" y1=".4" x2="110.4" y2="110.4"/>
    <path class="cls-6" d="M3.4,.4H107.4c1.7,0,3,1.3,3,3V107.4c0,1.7-1.3,3-3,3H3.4c-1.7,0-3-1.3-3-3V3.4c0-1.7,1.3-3,3-3Z"/>
    <line class="cls-8" x1="55.4" y1=".4" x2="55.4" y2="110.4"/>
    <line class="cls-8" x1=".4" y1="55.4" x2="110.4" y2="55.4"/>
  </g>
  <g id="_あ" data-name=" あ">
    <g>
      <circle class="cls-4" cx="29.8" cy="40" r="5.3"/>
      <path class="cls-1" d="M30.7,43.6h-1.4v-4.9h-1.7v-.9c.4,0,.7,0,.9-.1,.3-.1,.5-.2,.7-.4,.1-.1,.2-.3,.3-.5,0-.1,.1-.2,.1-.3h1.2v7.1s-.1,0-.1,0Z"/>
    </g>
    <g>
      <circle class="cls-4" cx="53.1" cy="16.3" r="5.3"/>
      <path class="cls-1" d="M53.8,13.7c-.2-.2-.4-.3-.8-.3s-.7,.2-.9,.5c-.1,.2-.1,.5-.2,.9h-1.4c0-.6,.1-1.1,.3-1.5,.4-.7,1-1.1,2-1.1,.7,0,1.3,.2,1.8,.6,.4,.4,.7,1,.7,1.6,0,.5-.2,1-.5,1.4-.2,.3-.5,.6-1,.9l-.4,.5c-.3,.2-.6,.4-.7,.5s-.3,.3-.3,.4h3v1.2h-4.8c0-.5,.1-1,.3-1.4,.2-.5,.7-1,1.4-1.5,.6-.5,1.1-.8,1.2-1,.3-.3,.4-.6,.4-1,.1-.2,0-.5-.1-.7Z"/>
    </g>
    <g>
      <circle class="cls-4" cx="73.5" cy="42.4" r="5.3"/>
      <path class="cls-1" d="M72.7,40.2c-.2,.2-.2,.5-.2,.8h-1.3c0-.4,.1-.7,.2-1s.3-.5,.5-.8c.2-.2,.4-.3,.6-.4s.6-.1,.9-.1c.7,0,1.2,.2,1.6,.5,.4,.4,.6,.8,.6,1.4,0,.4-.1,.8-.4,1.1-.2,.2-.3,.3-.5,.4,.1,0,.3,.1,.5,.3,.4,.3,.5,.8,.5,1.3,0,.6-.2,1.1-.6,1.6s-1,.7-1.8,.7c-1,0-1.7-.3-2.1-1-.2-.3-.3-.8-.3-1.4h1.5c0,.3,0,.5,.1,.7,.2,.3,.5,.5,.9,.5,.3,0,.5-.1,.7-.3s.3-.5,.3-.8c0-.5-.2-.8-.6-.9-.2-.1-.6-.1-1-.1v-1c.5,0,.8-.1,.9-.1,.3-.1,.5-.4,.5-.8,0-.3-.1-.5-.2-.7s-.4-.3-.7-.3c-.2,.1-.5,.2-.6,.4Z"/>
    </g>
    <path class="cls-5" d="M74.4,29.6h1.1l1.2,1.8,1.2-1.8h1.1l-1.8,2.5,1.8,2.7h-1.1l-1.3-2-1.3,2h-1.1l1.8-2.7s-1.6-2.5-1.6-2.5Z"/>
    <path class="cls-5" d="M52,81.2h1.1l1.2,1.8,1.2-1.8h1.1l-1.8,2.5,1.8,2.7h-1.1l-1.3-2-1.3,2h-1.1l1.8-2.7s-1.6-2.5-1.6-2.5Z"/>
    <path class="cls-5" d="M61.5,89.7c2,0,3.6,1.6,3.6,3.6s-1.6,3.6-3.6,3.6-3.6-1.6-3.6-3.6,1.6-3.6,3.6-3.6Z"/>
  </g>
  <path class="cls-3" d="M64,49.2c0-1.4-.3-2.6-.7-3.5-.1-.2-.2-.5-.2-.6,0-.6,.3-1,1-1,.2,0,.6,.1,.9,.3,1.7,1.1,3.4,3.1,3.8,4.3,.1,.2,.2,.6,.2,1,11.2,.8,18.9,8.1,18.9,18.3,0,13.5-14.1,19-23.1,21.1-.3,.1-.4,.1-.6,.1-.7,0-1.3-.3-1.3-1,0-.5,.4-1,1.4-1.5,9.6-3.9,17.9-9.9,17.9-21.4,0-9.2-8.2-12.6-13.8-13-3.8,9.8-9.4,15.8-12.1,18.6-.5,.6-1.1,1-1.6,1.5,.3,1.5,.8,3,1.3,4.7,.2,.6,.2,1,.2,1.4,0,1.2-.6,1.8-1.4,1.8-1.5,0-2.5-.8-3.3-3.5-.1-.3-.2-.8-.4-1.4-5,4.2-9.9,7.1-14.5,7.1h-.3c-1.6-.1-2.6-1.7-3.1-3.1s-.7-2.5-1-3.3c-.2-.6-.3-1.3-.6-2.5-.2-.7-.3-1.4-.3-2.2,0-1.4,.5-3,1.5-4.6,3.5-5.1,9.8-9.6,16.2-12.6,.2-4.6,.7-8.9,1.3-13.2-2.6,.5-6.4,1-8.6,1.4-.5,.1-.6,.1-1,.1-.8,0-1.6-.2-2-.4-2-1.4-3-2.6-3-3.1,0-.2,.2-.5,.7-.5,2.2,0,3.5-.1,4.4-.2,2.9-.4,7.3-1,10.1-1.5,.4-2.2,.7-4.3,1-6.3,.2-.8,.2-1.7,.2-2.6,0-2.3-.6-3.7-.6-4.2s.2-.8,.8-.8c1.2,0,3.7,1.8,5.4,4.2,.3,.4,.4,.9,.4,1.3,0,.6-.2,1.1-.6,1.6-.7,1-1,1.8-1.4,3.1-.2,.9-.4,1.6-.6,2.5,2.3-.6,5.6-1.3,7.7-1.9,1-.3,2.4-1.4,3-1.7,.6-.2,1.6-.6,2.5-.6,.4,0,1.2,.2,1.8,.3,1.6,.5,2.3,1,2.3,2.1,0,.9-.4,1.4-1.6,1.8-4.8,1.4-11.3,3.1-16.6,4.3-.8,3.5-1.4,7.7-1.7,12.5,4-1.4,7.7-2.4,10.9-2.9v-.3h.2Zm-15.1,9.3c-5.5,3.4-10.4,7.8-12.9,11.4-.8,1.2-1,2.5-1,3.4,0,.8,.2,2.1,.6,3,.6,1.8,1.8,2.9,2.7,2.9s2-.3,3.4-1.2c2.5-1.5,5.4-3.7,8.5-6.3-.8-4.4-1.2-8.9-1.3-13.2Zm4.1-.2c0,3,.2,6.5,.6,9.8,3.8-4,7.5-9.6,9.8-15.5-3.6,.6-7.4,1.9-10.4,3.5v2.2Z"/>
  <polyline class="cls-7" points="37.9 36.1 62.3 30.8 58.4 29.5"/>
  <path class="cls-10" d="M71.5,49.4s-5.5,13.3-7.7,16.9c-2.2,3.7-5,5.6-5,5.6l4.5-1.8"/>
  <path class="cls-10" d="M39.4,84.4s-5.4,1.9-7.4,0-4.5-9.5-3.8-13.3,3.2-7.2,5.4-9.3c2.1-2.1,8-5.4,8-5.4l-5,.8"/>
  <path class="cls-2" d="M57.3,120.8c0-.2,0-.4-.1-.5v-.1c0-.1,0-.2,.1-.2h.1c.3,.2,.5,.5,.6,.6v.1c1.7,.1,2.8,1.2,2.8,2.7,0,2-2.1,2.9-3.5,3.2h-.1c-.1,0-.2,0-.2-.1s.1-.2,.2-.2c1.4-.6,2.7-1.5,2.7-3.2,0-1.4-1.2-1.9-2.1-1.9-.6,1.5-1.4,2.4-1.8,2.8-.1,.1-.2,.2-.2,.2,0,.2,.1,.5,.2,.7v.2c0,.2-.1,.3-.2,.3-.2,0-.4-.1-.5-.5,0,0,0-.1-.1-.2-.7,.6-1.5,1.1-2.2,1.1h0c-.2,0-.4-.3-.5-.5s-.1-.4-.1-.5,0-.2-.1-.4v-.3c0-.2,.1-.5,.2-.7,.5-.8,1.5-1.4,2.4-1.9,0-.7,.1-1.3,.2-2-.4,.1-1,.2-1.3,.2h-.2c-.1,0-.2,0-.3-.1-.3-.2-.4-.4-.4-.5,0,0,0-.1,.1-.1h.7c.4-.1,1.1-.1,1.5-.2,.1-.3,.1-.6,.2-.9v-.4c0-.3-.1-.6-.1-.6,0-.07,.03-.1,.1-.1,.2,0,.6,.3,.8,.6,0,.1,.1,.1,.1,.2s0,.2-.1,.2c-.1,.1-.2,.3-.2,.5,0,.1-.1,.2-.1,.4,.3-.1,.8-.2,1.2-.3,.2,0,.4-.2,.5-.3,.1,0,.2-.1,.4-.1h.3c.2,.1,.3,.2,.3,.3s-.1,.2-.2,.3c-.7,.2-1.7,.5-2.5,.6-.1,.5-.2,1.2-.3,1.9,.7,0,1.2-.1,1.7-.3h0Zm-2.3,1.4c-.8,.5-1.6,1.2-1.9,1.7-.1,.2-.1,.4-.1,.5s0,.3,.1,.4c.1,.3,.3,.4,.4,.4s.3,0,.5-.2c.4-.2,.8-.6,1.3-.9-.2-.6-.3-1.2-.3-1.9Zm.7,0c0,.4,0,1,.1,1.5,.6-.6,1.1-1.4,1.5-2.3-.5,.1-1.1,.3-1.6,.5v.3Z"/>
</svg>