<?xml version="1.0" encoding="UTF-8"?>
<svg id="_レイヤー_1" data-name=" レイヤー 1" xmlns="http://www.w3.org/2000/svg" viewBox="0 0 110.8 129">
  <defs>
    <style>
      .cls-1 {
        fill: #fff;
      }

      .cls-2 {
        fill: #333330;
      }

      .cls-3 {
        fill: #ccc;
      }

      .cls-4 {
        fill: #d83523;
      }

      .cls-5 {
        fill: #898880;
      }

      .cls-6 {
        fill: #fbfbf9;
        stroke: #b0afa7;
        stroke-width: .8px;
      }

      .cls-7 {
        stroke: #e7211a;
        stroke-width: .5px;
      }

      .cls-7, .cls-8 {
        fill: none;
      }

      .cls-8 {
        stroke: #d8d6cf;
        stroke-dasharray: 0 0 0 0 0 0 3 3;
        stroke-width: .4px;
      }
    </style>
  </defs>
  <path class="cls-6" d="M3.4,.4H107.4c1.7,0,3,1.3,3,3V107.4c0,1.7-1.3,3-3,3H3.4c-1.7,0-3-1.3-3-3V3.4c0-1.7,1.3-3,3-3Z"/>
  <line class="cls-8" x1="55.4" y1=".4" x2="55.4" y2="110.4"/>
  <line class="cls-8" x1=".4" y1="55.4" x2="110.4" y2="55.4"/>
  <path class="cls-3" d="M55.9,34.7c2.5-.7,3.2-1,3.9-1.4s1.4-.6,2.3-.6c2,0,4.3,1,4.3,2.4,0,1.1-.5,1.5-2.2,2-4,1.1-9.3,2.4-14.2,3.5-1.8,5.2-3.1,10.2-4,14.2-1,4.6-1.4,7.8-1.4,8.7,0,.3,.1,.4,.2,.4s.5-.1,1.1-.3c3-1.1,8.5-3,10.5-3.6,2.8-.9,8.6-2,12.7-2,7.4,0,12.2,4.8,12.2,10.4,0,9.9-13.2,17.5-25.4,18.5-.6,0-1.2-.4-1.2-1,0-.4,.3-.8,1-1,8.6-2.9,19.8-7.9,19.8-17.6,0-5-3.4-6.5-7.4-6.5-5,0-12.7,3.8-17.7,6.6-1.6,.9-2.8,1.7-4.2,2.7-.3,.2-.8,.5-1.4,.5-.8,0-2.4-1-3.4-2.3-1-1.4-1.3-2.2-1.3-3.4,0-.8,.2-1.4,.6-2.7,1-6.6,2.3-12.8,4.2-20.8-4.2,.8-8.3,1.6-11.6,2.1-.4,.1-.6,.1-.8,.1-.4,0-1-.1-1.5-.6-1.6-1.3-2.7-2.7-2.7-3.3,0-.4,.2-.6,.6-.6,1.8,0,3.8-.1,5.9-.3,3.2-.3,7.9-1.1,11.6-1.8,.7-2.4,1.8-5.8,2.4-8.4,.4-1.8,.7-3.8,.7-5.2,0-1-.3-1.7-.3-2.2s.4-.9,1-.9c1,0,2.9,1,4.2,2.3,1.1,1,1.7,1.9,1.7,2.7,0,.6-.2,1.2-.6,1.9-.5,.9-1.3,2.9-1.7,3.8-.5,1.2-1.5,3.8-2,4.9,1.6-.6,3.2-1,4.1-1.2h0Z"/>
  <path class="cls-2" d="M56.1,121c.4-.1,.5-.2,.6-.2,.1-.1,.2-.1,.3-.1,.3,0,.6,.2,.6,.4s-.1,.2-.3,.3c-.6,.2-1.4,.4-2.1,.5-.3,.8-.5,1.5-.6,2.1-.1,.7-.2,1.2-.2,1.3v.1h.2c.4-.2,1.3-.4,1.6-.5,.4-.1,1.3-.3,1.9-.3,1.1,0,1.8,.7,1.8,1.6,0,1.5-2,2.6-3.8,2.8-.1,0-.2-.1-.2-.1,0-.07,.07-.13,.2-.2,1.3-.4,3-1.2,3-2.6,0-.8-.5-1-1.1-1-.7,0-1.9,.6-2.7,1-.2,.1-.4,.3-.6,.4,0,0-.1,.1-.2,.1s-.4-.1-.5-.3-.2-.3-.2-.5c0-.1,0-.2,.1-.4,.1-1,.3-1.9,.6-3.1-.6,.1-1.2,.2-1.7,.3h-.1c-.07,0-.13-.03-.2-.1-.2-.2-.4-.4-.4-.5s0-.1,.1-.1h.9c.5,0,1.2-.2,1.7-.3,.1-.4,.3-.9,.4-1.3,.1-.3,.1-.6,.1-.8v-.3c0-.1,.1-.1,.1-.1,.1,0,.4,.2,.6,.3,.2,.2,.3,.3,.3,.4s0,.2-.1,.3c-.1,.1-.2,.4-.3,.6s-.2,.6-.3,.7c.1-.3,.4-.4,.5-.4Z"/>
  <g id="_ち" data-name=" ち">
    <g>
      <circle class="cls-4" cx="21.9" cy="41" r="5.3"/>
      <path class="cls-1" d="M22.8,44.5h-1.4v-4.9h-1.7v-.9c.4,0,.7,0,.9-.1,.3-.1,.5-.2,.7-.4,.1-.1,.2-.3,.3-.5,0-.1,.1-.2,.1-.3h1.2v7.1s-.1,0-.1,0Z"/>
    </g>
    <g>
      <circle class="cls-4" cx="54" cy="12.8" r="5.3"/>
      <path class="cls-1" d="M54.6,10.2c-.2-.2-.4-.3-.7-.3-.4,0-.7,.2-.9,.5-.1,.2-.1,.5-.2,.9h-1.4c0-.6,.1-1.1,.3-1.5,.4-.7,1-1.1,2-1.1,.7,0,1.3,.2,1.8,.6,.4,.4,.7,1,.7,1.6,0,.5-.2,1-.5,1.4-.2,.3-.5,.6-1,.9l-.6,.4c-.3,.2-.6,.4-.7,.5s-.2,.2-.3,.4h3.1v1.2h-4.8c0-.5,.1-1,.3-1.4,.2-.5,.7-1,1.4-1.5,.6-.5,1.1-.8,1.2-1,.3-.3,.4-.6,.4-1,.2-.1,.1-.4-.1-.6Z"/>
    </g>
    <path class="cls-5" d="M66.7,31.2h1.1l1.2,1.8,1.2-1.8h1.1l-1.8,2.5,1.8,2.7h-1.1l-1.3-2-1.3,2h-1.1l1.8-2.7s-1.6-2.5-1.6-2.5Z"/>
    <path class="cls-5" d="M49.9,83.2c2,0,3.6,1.6,3.6,3.6s-1.6,3.6-3.6,3.6-3.6-1.6-3.6-3.6,1.6-3.6,3.6-3.6Z"/>
  </g>
  <polyline class="cls-7" points="31.9 36.5 44.2 35 39.1 33.5"/>
  <path class="cls-7" d="M38.1,72.3l-1.1,5s8-5,9.9-6.1c1.9-1.2,6.8-3.8,6.8-3.8l-2.1,3.1"/>
  <path class="cls-7" d="M70.2,56.9s7.6-.4,10.3,3.6,2.7,7.9,2.3,9.9c-.7,3.4-2.2,5.7-3.1,6.9-.9,1.2-3.1,3.1-3.1,3.1l4.3-1.1"/>
</svg>