<?xml version="1.0" encoding="UTF-8"?>
<svg id="_レイヤー_1" data-name=" レイヤー 1" xmlns="http://www.w3.org/2000/svg" viewBox="0 0 110.8 128.7">
  <defs>
    <style>
      .cls-1 {
        fill: #fff;
      }

      .cls-2 {
        fill: #333330;
      }

      .cls-3 {
        fill: #ccc;
      }

      .cls-4 {
        fill: #d83523;
      }

      .cls-5 {
        fill: #898880;
      }

      .cls-6 {
        fill: #fbfbf9;
        stroke: #b0afa7;
        stroke-width: .8px;
      }

      .cls-7 {
        stroke: #e7211a;
        stroke-width: .5px;
      }

      .cls-7, .cls-8 {
        fill: none;
      }

      .cls-8 {
        stroke: #d8d6cf;
        stroke-dasharray: 0 0 0 0 0 0 3 3;
        stroke-width: .4px;
      }
    </style>
  </defs>
  <path class="cls-6" d="M3.4,.4H107.4c1.7,0,3,1.3,3,3V107.4c0,1.7-1.3,3-3,3H3.4c-1.7,0-3-1.3-3-3V3.4c0-1.7,1.3-3,3-3Z"/>
  <line class="cls-8" x1="55.4" y1=".4" x2="55.4" y2="110.4"/>
  <line class="cls-8" x1=".4" y1="55.4" x2="110.4" y2="55.4"/>
  <path class="cls-3" d="M40.3,84.6c0,1.8-.6,2.7-2.1,2.7-1.3,0-1.9-.7-2.6-1.8-1.8-3.5-3.7-9.4-3.7-20.2,0-11.6,1-18.7,3.3-30.4,.6-3,.9-4.9,.9-6.5,0-1-.1-1.6-.1-2,0-.6,.3-.9,.8-.9,1,0,2.7,2,4.2,5.1,.3,.6,.5,1.3,.5,2,0,.6-.1,1.1-.4,1.8-.4,1-1.2,3.1-2.2,6.2-1.7,6.2-3,16.5-3,22.5,0,6.4,.6,11.4,1.1,13.6,.1,.3,.2,.6,.4,.6s.3-.2,.5-.5c1-2,1.8-3.8,2.9-5.9,.2-.5,.4-.6,.8-.6,.5,0,1,.5,1,1,0,.13-.03,.3-.1,.5-.8,3-1.3,5.4-1.8,8-.4,1.8-.4,3-.4,4.8Zm35.2-35.2c0,5.8,.1,11.5,.2,16,0,2.1,0,4.3-.1,6.3,4.6,1.7,8.9,3.5,10.7,4.5,1.9,1.1,2.7,1.7,2.7,3.4,0,1.4-1.1,2.1-2.4,2.1-.6,0-1.2-.2-1.9-.5-2.2-1.2-6.2-3.3-10.1-5-1.8,4.7-5.9,6.6-11.6,6.6-5,0-11.1-2.7-11.1-7.2,0-2.9,3.8-6.8,9.5-6.8,3,0,6.5,.8,9.7,1.6,0-10.7-.1-19.2-.3-26.6-4.4,.6-8.9,1.4-12.8,2-1,.2-1.8,.4-2.6,.4-.4,0-.8-.1-1-.2-2.5-.9-3.6-1.6-3.6-1.8,0-.4,.3-.7,1-.9,5.2-1,12.6-2.3,19-3.3-.2-1.7-.2-3.3-.2-5-.1-3.6-.4-6.2-1.7-7.6-.5-.5-.6-1-.6-1.3,0-.4,.6-.7,1.2-.7,.8,0,3.6,.8,4.8,1.6,1.5,1,2.2,2.1,2.2,3,0,.2-.1,.5-.2,.7-.2,.6-.6,1.8-.6,4.1-.1,1.4-.1,2.9-.2,4.4,.6-.1,1.2-.1,1.8-.2,.9-.2,2.4-.3,3-.6,.7-.3,1-.3,1.8-.3,1.4,0,2.2,.1,3.4,.6,1.3,.6,1.8,1.4,1.8,2.2,0,1.2-.7,1.5-2,1.6-1.7,.2-4.2,.2-5.7,.2-1.4,.1-2.8,.3-4.2,.4v6.3h.1Zm-7.7,24.1c-3.3-1.1-5.7-1.9-7.4-1.9-3,0-5.4,2.6-5.4,4.6,0,1.8,2.2,3,5.8,3,4.4,0,7.1-1.1,8.5-3,.4-.6,.7-1.2,.9-1.8-.8-.4-1.6-.7-2.4-.9Z"/>
  <path class="cls-2" d="M54.1,128.3c0,.3-.1,.4-.3,.4s-.3-.1-.4-.3c-.3-.5-.6-1.4-.6-3,0-1.7,.1-2.8,.5-4.6,.1-.5,.1-.7,.1-1v-.3c0-.07,.03-.1,.1-.1,.1,0,.4,.3,.6,.8,0,.1,.1,.2,.1,.3s0,.2-.1,.3c-.1,.1-.2,.5-.3,.9-.3,.9-.5,2.5-.5,3.4,0,1,.1,1.7,.2,2,0,0,0,.1,.1,.1l.1-.1c.1-.3,.3-.6,.4-.9,0-.1,.1-.1,.1-.1,.1,0,.1,.1,.1,.2v.1c-.1,.5-.2,.8-.3,1.2,.1,.2,.1,.4,.1,.7Zm5.2-5.3v3.3c.7,.3,1.3,.5,1.6,.7s.4,.3,.4,.5-.2,.3-.4,.3c-.1,0-.2,0-.3-.1-.3-.2-.9-.5-1.5-.8-.3,.7-.9,1-1.7,1s-1.7-.4-1.7-1.1c0-.4,.6-1,1.4-1,.4,0,1,.1,1.5,.2v-4c-.7,.1-1.3,.2-1.9,.3-.1,0-.3,.1-.4,.1h-.2c-.4-.1-.5-.2-.5-.3s0-.1,.2-.1c.8-.2,1.9-.3,2.8-.5v-.7c0-.5-.1-.9-.3-1.1-.07-.07-.1-.13-.1-.2,0-.1,.1-.1,.2-.1s.5,.1,.7,.2,.3,.3,.3,.5v.1c0,.1-.1,.3-.1,.6v.7h.3c.1,0,.4,0,.5-.1h.3c.2,0,.3,0,.5,.1s.3,.2,.3,.3c0,.2-.1,.2-.3,.2h-.9c-.2,0-.4,0-.6,.1v.9h-.1Zm-1.1,3.6c-.5-.2-.9-.3-1.1-.3-.5,0-.8,.4-.8,.7s.3,.5,.9,.5c.7,0,1.1-.2,1.3-.5,.1-.1,.1-.2,.1-.3-.2,0-.3-.1-.4-.1Z"/>
  <g id="_は" data-name=" は">
    <g>
      <circle class="cls-4" cx="35.9" cy="19.4" r="5.3"/>
      <path class="cls-1" d="M36.7,23h-1.4v-4.9h-1.7v-.9c.4,0,.7,0,.9-.1,.3-.1,.5-.2,.7-.4,.1-.1,.2-.3,.3-.5,0-.1,.1-.2,.1-.3h1.2v7.1h-.1Z"/>
    </g>
    <g>
      <circle class="cls-4" cx="51.1" cy="36.5" r="5.3"/>
      <path class="cls-1" d="M51.8,34c-.2-.2-.4-.3-.7-.3-.4,0-.7,.2-.9,.5-.1,.2-.1,.5-.2,.9h-1.4c0-.6,.1-1.1,.3-1.5,.4-.7,1-1.1,2-1.1,.7,0,1.3,.2,1.8,.6,.4,.4,.7,1,.7,1.6,0,.5-.2,1-.5,1.4-.2,.3-.5,.6-1,.9l-.5,.4c-.3,.2-.6,.4-.7,.5s-.3,.3-.3,.5h3v1.2h-4.8c0-.5,.1-1,.3-1.4,.2-.5,.7-1,1.4-1.5,.6-.5,1.1-.8,1.2-1,.3-.3,.4-.6,.4-1,.1-.3,0-.5-.1-.7Z"/>
    </g>
    <g>
      <circle class="cls-4" cx="71.9" cy="17.7" r="5.3"/>
      <path class="cls-1" d="M71.1,15.5c-.2,.2-.2,.5-.2,.8h-1.3c0-.4,.1-.7,.2-1s.3-.5,.5-.8c.2-.2,.4-.3,.6-.4s.6-.1,.9-.1c.7,0,1.2,.2,1.6,.5,.4,.4,.6,.8,.6,1.4,0,.4-.1,.8-.4,1.1-.2,.2-.3,.3-.5,.4,.1,0,.3,.1,.5,.3,.4,.3,.5,.8,.5,1.3,0,.6-.2,1.1-.6,1.6s-1,.7-1.8,.7c-1,0-1.7-.3-2.1-1-.2-.3-.3-.8-.3-1.4h1.4c0,.3,0,.5,.1,.7,.2,.3,.5,.5,.9,.5,.3,0,.5-.1,.7-.3s.3-.5,.3-.8c0-.5-.2-.8-.6-.9-.2-.1-.6-.1-1-.1v-1c.5,0,.8-.1,.9-.1,.3-.1,.5-.4,.5-.8,0-.3-.1-.5-.2-.7s-.4-.3-.7-.3c-.1,.1-.3,.2-.5,.4Z"/>
    </g>
    <path class="cls-5" d="M90.2,80.2h1.1l1.2,1.8,1.2-1.8h1.1l-1.8,2.5,1.8,2.7h-1.1l-1.3-2-1.3,2h-1.1l1.8-2.7s-1.6-2.5-1.6-2.5Z"/>
    <path class="cls-5" d="M88.4,38.7h1.1l1.2,1.8,1.2-1.8h1.1l-1.8,2.5,1.8,2.7h-1.1l-1.3-2-1.3,2h-1.1l1.8-2.7s-1.6-2.5-1.6-2.5Z"/>
    <path class="cls-5" d="M36.4,93.4l1.4,4.3,1.5-4.3h1l-2,5.2h-.9l-2-5.2h1Z"/>
  </g>
  <path class="cls-7" d="M74.2,79.2s-1.1,4.9-12.8,4.7-10.8-9.4-10.8-9.4c0,0,.5-7.2,8.4-7.1s10.2,1.3,10.2,1.3l-2.7-2"/>
</svg>