<?xml version="1.0" encoding="UTF-8"?>
<svg id="_レイヤー_1" data-name=" レイヤー 1" xmlns="http://www.w3.org/2000/svg" viewBox="0 0 110.8 125.8">
  <defs>
    <style>
      .cls-1 {
        fill: #fff;
      }

      .cls-2 {
        fill: #333330;
      }

      .cls-3 {
        fill: #ccc;
      }

      .cls-4 {
        fill: #d83523;
      }

      .cls-5 {
        fill: #898880;
      }

      .cls-6 {
        fill: #fbfbf9;
        stroke: #b0afa7;
        stroke-width: .8px;
      }

      .cls-7 {
        fill: none;
        stroke: #d8d6cf;
        stroke-dasharray: 0 0 0 0 0 0 3 3;
        stroke-width: .4px;
      }
    </style>
  </defs>
  <g id="_枠_い" data-name=" 枠 い">
    <path class="cls-6" d="M3.4,.4H107.4c1.7,0,3,1.3,3,3V107.4c0,1.7-1.3,3-3,3H3.4c-1.7,0-3-1.3-3-3V3.4c0-1.7,1.3-3,3-3Z"/>
    <line class="cls-7" x1="55.4" y1=".4" x2="55.4" y2="110.4"/>
    <line class="cls-7" x1=".4" y1="55.4" x2="110.4" y2="55.4"/>
  </g>
  <g id="_い" data-name=" い">
    <g>
      <circle class="cls-4" cx="25.6" cy="29.5" r="5.3"/>
      <path class="cls-1" d="M26.9,33.1h-1.4v-4.9h-1.7v-.9c.4,0,.7,0,.9-.1,.3-.1,.5-.2,.7-.4,.1-.1,.2-.3,.3-.5,0-.1,.1-.2,.1-.3h1.2v7.1h-.1Z"/>
    </g>
    <g>
      <circle class="cls-4" cx="66.6" cy="33.1" r="5.3"/>
      <path class="cls-1" d="M67.3,30.4c-.2-.2-.4-.3-.7-.3-.4,0-.7,.2-.9,.5-.1,.2-.1,.5-.2,.9h-1.4c0-.6,.1-1.1,.3-1.5,.4-.7,1-1.1,2-1.1,.7,0,1.3,.2,1.8,.6,.4,.4,.7,1,.7,1.6,0,.5-.2,1-.5,1.4-.2,.3-.5,.6-1,.9l-.6,.4c-.3,.2-.6,.4-.7,.5s-.2,.2-.3,.4h3.1v1.2h-4.8c0-.5,.1-1,.3-1.4,.2-.5,.7-1,1.4-1.5,.6-.5,1.1-.8,1.2-1,.3-.3,.4-.6,.4-1,.1-.1,.1-.4-.1-.6Z"/>
    </g>
    <path class="cls-5" d="M80.8,67.7h1.1l1.2,1.8,1.2-1.8h1.1l-1.8,2.5,1.8,2.7h-1l-1.3-2-1.3,2h-1.1l1.8-2.7s-1.7-2.5-1.7-2.5Z"/>
    <path class="cls-5" d="M42.3,83l-2.1,5.4h-.8l-2-5.5h.9l1.1,3.2c.2,.5,.3,1,.4,1.4h0c.1-.4,.3-.9,.4-1.4l1.1-3.2h1s0,.1,0,.1Z"/>
  </g>
  <path class="cls-3" d="M36.5,73.6c.4,.6,.8,.8,1.2,.8,.5,0,1-.3,1.4-.8,1-1.1,2.1-2.6,2.8-4,.2-.5,.6-.8,.9-.8,.2,0,.5,.4,.5,1s-.5,4.4-.9,6.5c-.2,1.1-.3,1.8-.4,3.5-.1,1.1-.7,2.2-2,2.2-1.5,0-3.4-1.5-5-3.4-1.8-2.1-3.8-5.4-5.4-10.2-1.7-5.2-2.8-15.3-3-26.2-.2-3.4-.7-3.9-.7-4.6,0-.6,.4-1,1-1,1,0,3.3,2.2,4.5,4.1,.5,.8,.8,1.8,.8,2.8,0,.6-.3,1.8-.3,5.3,0,1.9,.1,4.5,.4,7.7,.2,4.9,1.6,13,4.2,17.1Zm32.7-33.8c0-.6,.5-1,.9-1,.2,0,.6,.1,1,.3,4.1,2.4,7,5.1,9.8,9.3,2.7,4.2,4.5,10.2,4.5,14.4,0,2.2-1,3.8-2.6,3.8-1.9,0-2.6-1-3.4-5-1.3-7.4-3.8-14.6-9.8-21.1-.3-.2-.4-.4-.4-.7Z"/>
  <path class="cls-2" d="M54.2,124.5c.07,.07,.13,.1,.2,.1s.13-.03,.2-.1c.2-.2,.3-.4,.4-.6,0-.1,.1-.1,.1-.1,0,0,.1,.1,.1,.2s-.1,.7-.1,1c0,.2,0,.3-.1,.5,0,.2-.1,.3-.3,.3s-.5-.2-.8-.5-.6-.8-.8-1.5c-.3-.8-.4-2.3-.5-3.9,0-.5-.1-.6-.1-.7s.1-.2,.1-.2c.1,0,.5,.3,.7,.6,.1,.1,.1,.3,.1,.4v.8c0,.3,0,.7,.1,1.2,.1,.7,.3,1.9,.7,2.5Zm4.9-5.1c0-.1,.1-.1,.1-.1h.2c.6,.4,1,.8,1.5,1.4,.4,.6,.7,1.5,.7,2.2,0,.3-.1,.6-.4,.6s-.4-.1-.5-.8c-.2-1.1-.6-2.2-1.5-3.2-.07,0-.1-.03-.1-.1Z"/>
</svg>