<?xml version="1.0" encoding="UTF-8"?>
<svg id="_レイヤー_1" data-name=" レイヤー 1" xmlns="http://www.w3.org/2000/svg" viewBox="0 0 110.8 126.3">
  <defs>
    <style>
      .cls-1 {
        fill: #fff;
      }

      .cls-2 {
        fill: #333330;
      }

      .cls-3 {
        fill: #ccc;
      }

      .cls-4 {
        fill: #d83523;
      }

      .cls-5 {
        fill: #898880;
      }

      .cls-6 {
        fill: #fbfbf9;
        stroke: #b0afa7;
        stroke-width: .8px;
      }

      .cls-7 {
        stroke: #e7211a;
        stroke-width: .5px;
      }

      .cls-7, .cls-8 {
        fill: none;
      }

      .cls-8 {
        stroke: #d8d6cf;
        stroke-dasharray: 0 0 0 0 0 0 3 3;
        stroke-width: .4px;
      }
    </style>
  </defs>
  <g id="_枠_か" data-name=" 枠 か">
    <path class="cls-6" d="M3.4,.4H107.4c1.7,0,3,1.3,3,3V107.4c0,1.7-1.3,3-3,3H3.4c-1.7,0-3-1.3-3-3V3.4c0-1.7,1.3-3,3-3Z"/>
    <line class="cls-8" x1="55.4" y1=".4" x2="55.4" y2="110.4"/>
    <line class="cls-8" x1=".4" y1="55.4" x2="110.4" y2="55.4"/>
  </g>
  <path class="cls-2" d="M53.3,123.8c-.2,.3-.3,.4-.4,.4s-.2-.1-.2-.2c-.1-.1-.1-.2-.1-.4s.1-.3,.3-.6c.4-.6,1-1.5,1.6-2.7-.3,.1-.6,.2-.9,.3-.1,0-.3,.1-.4,.1s-.2,.1-.3,.1-.2,0-.3-.1c-.2-.1-.5-.4-.5-.5s0-.1,.2-.1,.7-.1,1-.2c.4-.1,.9-.2,1.4-.3,.3-.8,.6-1.5,.7-2.1v-.7c0-.07,.03-.1,.1-.1,.2,0,.5,.2,.7,.4,.1,.1,.2,.3,.2,.3,0,.1,0,.2-.1,.3-.1,.2-.2,.4-.4,.7-.1,.3-.3,.7-.5,1,.3-.1,.5-.1,.7-.1,.4,0,.7,.1,.9,.4,.3,.3,.4,.8,.4,1.4,0,.8-.2,1.6-.4,2.4-.2,.6-.5,1.1-.8,1.6-.3,.4-.5,.7-.8,.9-.2,.1-.4,.3-.6,.3-.1,0-.3-.1-.3-.3-.1-.3-.3-.7-.4-1.1v-.1c0-.07,.03-.1,.1-.1q.1,0,.1,.1c.3,.3,.6,.5,.7,.5s.2,0,.2-.1c.3-.4,.7-1.1,1-1.8,.3-.8,.5-1.6,.5-2.3s-.2-1.2-.7-1.2c-.2,0-.6,.1-.9,.2-.4,1.3-1.1,2.6-1.8,3.7h0Zm7.6-3.2c.4,.3,1.1,1.2,1.1,1.8,0,.3-.1,.4-.4,.4-.2,0-.3-.1-.5-.3-.3-.5-.6-1-.9-1.4-.4-.5-.7-.9-1.2-1.3-.1,0-.1-.1-.1-.1,0-.1,.1-.1,.2-.1,0,0,.1,0,.2,.1,.6,0,1,.3,1.6,.9Z"/>
  <g id="_か" data-name=" か">
    <g>
      <circle class="cls-4" cx="22.4" cy="47" r="5.3"/>
      <path class="cls-1" d="M23.3,50.5h-1.4v-4.9h-1.7v-.9c.4,0,.7,0,.9-.1,.3-.1,.5-.2,.7-.4,.1-.1,.2-.3,.3-.5,0-.1,.1-.2,.1-.3h1.2v7.1s-.1,0-.1,0Z"/>
    </g>
    <g>
      <circle class="cls-4" cx="55.4" cy="16.7" r="5.3"/>
      <path class="cls-1" d="M56.1,14.1c-.2-.2-.4-.3-.7-.3-.4,0-.7,.2-.9,.5-.1,.2-.1,.5-.2,.9h-1.4c0-.6,.1-1.1,.3-1.5,.4-.7,1-1.1,2-1.1,.7,0,1.3,.2,1.8,.6,.4,.4,.7,1,.7,1.6,0,.5-.2,1-.5,1.4-.2,.3-.5,.6-1,.9l-.6,.4c-.3,.2-.6,.4-.7,.5s-.2,.2-.3,.4h3.1v1.2h-4.8c0-.5,.1-1,.3-1.4,.2-.5,.7-1,1.4-1.5,.6-.5,1.1-.8,1.2-1,.3-.3,.4-.6,.4-1,.1-.2,.1-.4-.1-.6Z"/>
    </g>
    <g>
      <circle class="cls-4" cx="70.8" cy="33.6" r="5.3"/>
      <path class="cls-1" d="M70,31.4c-.2,.2-.2,.5-.2,.8h-1.3c0-.4,.1-.7,.2-1s.3-.5,.5-.8c.2-.2,.4-.3,.6-.4s.6-.1,.9-.1c.7,0,1.2,.2,1.6,.5,.4,.4,.6,.8,.6,1.4,0,.4-.1,.8-.4,1.1-.2,.2-.3,.3-.5,.4,.1,0,.3,.1,.5,.3,.4,.3,.5,.8,.5,1.3,0,.6-.2,1.1-.6,1.6s-1,.7-1.8,.7c-1,0-1.7-.3-2.1-1-.2-.3-.3-.8-.3-1.4h1.4c0,.3,0,.5,.1,.7,.2,.3,.5,.5,.9,.5,.3,0,.5-.1,.7-.3s.3-.5,.3-.8c0-.5-.2-.8-.6-.9-.2-.1-.6-.1-1-.1v-1c.5,0,.8-.1,.9-.1,.3-.1,.5-.4,.5-.8,0-.3-.1-.5-.2-.7s-.4-.3-.7-.3c-.1,.1-.4,.2-.5,.4Z"/>
    </g>
    <path class="cls-5" d="M29.2,71.1h1.1l1.2,1.8,1.2-1.8h1.1l-1.8,2.5,1.8,2.7h-1.1l-1.3-2-1.3,2h-1.1l1.8-2.7-1.6-2.5Z"/>
    <path class="cls-5" d="M47.1,87.2l1.4,4.3,1.5-4.3h1l-2,5.2h-.9l-1.9-5.2h.9Z"/>
    <path class="cls-5" d="M92.9,62.6h1.1l1.2,1.8,1.2-1.8h1.1l-1.8,2.5,1.8,2.7h-1.1l-1.3-2-1.3,2h-1.1l1.8-2.7s-1.6-2.5-1.6-2.5Z"/>
  </g>
  <path class="cls-3" d="M37.3,68c-1.3,2-1.7,2.7-2.6,2.7-.6,0-1.2-.4-1.6-1-.4-.6-.7-1.3-.7-2.4,0-1.4,.6-2.2,2-4,2.9-3.8,6.8-10,10.7-18-2.2,.7-4.3,1.4-6.2,2.2-.7,.2-1.7,.6-2.4,.9-.6,.2-1,.4-1.8,.4-.6,0-1.1-.2-1.8-.5-1.3-.6-3.3-2.6-3.3-3.1,0-.4,.3-.6,1-.6,1.5-.1,4.6-.6,6.7-1,2.6-.6,6.2-1.3,9.6-2.1,2.2-5.1,4.2-10.2,5-13.8,.1-.6,.2-1.2,.2-1.8,0-1.3-.3-2.1-.3-2.7,0-.4,.2-.6,.6-.6,1.2,0,3,1.1,4.5,2.6,.9,1,1.4,1.7,1.4,2.3s-.2,1.1-.7,1.8c-.6,1-1.6,2.8-2.4,4.6-1,2.1-2,4.4-3,6.6,1.8-.4,3.4-.5,4.8-.5,2.8,0,4.6,.9,6.2,2.6,1.9,2.2,2.7,5.4,2.7,9.5,0,5.6-1,10.9-2.8,15.7-1.4,3.8-3.2,7.4-5.3,10.6-1.7,2.6-3.4,4.6-5.1,5.8-1.3,.9-2.9,1.7-3.8,1.7-.8,0-1.7-.5-2.3-1.9-.9-1.9-2.1-5-2.9-7.1-.1-.2-.2-.4-.2-.7,0-.6,.3-.9,.8-.9,.2,0,.6,.1,.9,.4,2.1,2.1,4.1,3.4,4.8,3.4,.6,0,1.1-.2,1.5-.6,2.3-2.8,5-7.4,6.7-12.3,1.9-5,3.2-10.6,3.2-15.4,0-4.4-1.4-7.8-4.6-7.8-1.6,0-3.8,.4-6.2,1-4.1,8.1-8.9,17-13.3,24Zm50.5-21.2c2.4,2.2,7.1,8.3,7.1,11.8,0,2-.9,2.9-2.4,2.9-1.2,0-2.3-.8-3.2-2.2-1.8-3.2-3.8-6.6-6-9.4-2.5-3.3-4.6-6.1-7.7-9-.4-.3-.6-.6-.6-1,0-.6,.6-.9,1.3-.9,.3,0,.7,.1,1.4,.4,3.5,1.5,6.1,3.5,10.1,7.4Z"/>
  <path class="cls-7" d="M54.2,38.9s6.1-1.4,9.5,2.2c3.4,3.6,4.2,9.4,3.4,15.3s-2.7,12.1-2.7,12.1l2.3-2.6"/>
</svg>