<?xml version="1.0" encoding="UTF-8"?>
<svg id="_レイヤー_1" data-name=" レイヤー 1" xmlns="http://www.w3.org/2000/svg" viewBox="0 0 110.8 125.9">
  <defs>
    <style>
      .cls-1 {
        fill: #fff;
      }

      .cls-2 {
        fill: #333330;
      }

      .cls-3 {
        fill: #ccc;
      }

      .cls-4 {
        fill: #d83523;
      }

      .cls-5 {
        fill: #898880;
      }

      .cls-6 {
        fill: #fbfbf9;
        stroke: #b0afa7;
        stroke-width: .8px;
      }

      .cls-7 {
        fill: none;
        stroke: #d8d6cf;
        stroke-dasharray: 0 0 0 0 0 0 3 3;
        stroke-width: .4px;
      }
    </style>
  </defs>
  <g id="_枠_こ" data-name=" 枠 こ">
    <path class="cls-6" d="M3.4,.4H107.4c1.7,0,3,1.3,3,3V107.4c0,1.7-1.3,3-3,3H3.4c-1.7,0-3-1.3-3-3V3.4c0-1.7,1.3-3,3-3Z"/>
    <line class="cls-7" x1="55.4" y1=".4" x2="55.4" y2="110.4"/>
    <line class="cls-7" x1=".4" y1="55.4" x2="110.4" y2="55.4"/>
  </g>
  <path class="cls-3" d="M38,66c.5,4.8,5.7,9.4,18.8,9.4,5,0,8.4-.6,11-1.1,1.1-.2,2.2-.4,3.3-.4,1,0,1.8,.2,2.6,.6,1.4,.7,1.7,1.5,1.7,2.5,0,1.4-.7,2.3-2.4,2.6-5.5,1-10.4,1.3-13.4,1.3-16.1,0-23.4-6-23.9-14.2,0-.7,0-1.8,.1-2.6s.6-1,1.1-1,1,.3,1,.8,0,1.1,.1,2.1Zm3.7-31.6c-.8,0-1.4-.2-2.1-.6-1.6-1-3-2.6-3-3.2,0-.4,.6-.6,1.5-.7,4.2-.2,7.5-.3,11.9-.3,10,0,17,1.2,20.3,3,1.2,.6,1.8,1.5,1.8,2.3,0,1.1-1,2.2-2.8,2.7-1.9,.5-5.6,1.9-8.6,3-.2,.1-.5,.2-.6,.2-.4,0-.6-.2-.6-.6,0-.2,.2-.6,.5-1,1.4-1.4,2.6-2.6,3.6-3.4,.2-.2,.4-.4,.4-.6s-.2-.3-.8-.5c-2.1-.5-6.2-.7-10.7-.7-3,0-6.9,.2-9.5,.3-.6,0-1,.1-1.3,.1Z"/>
  <g id="_こ" data-name=" こ">
    <g>
      <circle class="cls-4" cx="29.7" cy="29.5" r="5.3"/>
      <path class="cls-1" d="M30.5,33h-1.4v-4.9h-1.7v-.9c.4,0,.7,0,.9-.1,.3-.1,.5-.2,.7-.4,.1-.1,.2-.3,.3-.5,0-.1,.1-.2,.1-.3h1.2v7.1h-.1Z"/>
    </g>
    <g>
      <circle class="cls-4" cx="29.7" cy="62" r="5.3"/>
      <path class="cls-1" d="M30.3,59.3c-.2-.2-.4-.3-.7-.3-.4,0-.7,.2-.9,.5-.1,.2-.1,.5-.2,.9h-1.4c0-.6,.1-1.1,.3-1.5,.4-.7,1-1.1,2-1.1,.7,0,1.3,.2,1.8,.6,.4,.4,.7,1,.7,1.6,0,.5-.2,1-.5,1.4-.2,.3-.5,.6-1,.9l-.6,.4c-.3,.2-.6,.4-.7,.5s-.2,.2-.3,.4h3.1v1.2h-4.8c0-.5,.1-1,.3-1.4,.2-.5,.7-1,1.4-1.5,.6-.5,1.1-.8,1.2-1,.3-.3,.4-.6,.4-1,.2-.1,.1-.4-.1-.6Z"/>
    </g>
    <path class="cls-5" d="M74.2,31.8l1.4,4.3,1.5-4.3h1l-2,5.2h-.9l-1.9-5.2h.9Z"/>
    <path class="cls-5" d="M76.7,74.3h1.1l1.2,1.8,1.2-1.8h1.1l-1.8,2.5,1.8,2.7h-1.1l-1.3-2-1.3,2h-1.1l1.8-2.7s-1.6-2.5-1.6-2.5Z"/>
  </g>
  <path class="cls-2" d="M53.1,123.7c.1,.7,.9,1.4,2.8,1.4,.7,0,1.3-.1,1.6-.2,.2,0,.3-.1,.5-.1,.1,0,.3,0,.4,.1,.2,.1,.3,.2,.3,.4s-.1,.3-.4,.4c-.8,.2-1.6,.2-2,.2-2.4,0-3.5-.9-3.6-2.1v-.4c0-.1,.1-.2,.2-.2s.1,0,.2,.1c0,0,0,.4,0,.4Zm.6-4.8c-.1,0-.2,0-.3-.1-.2-.1-.5-.4-.5-.5s.1-.1,.2-.1h1.8c1.5,0,2.6,.2,3,.4,.2,.1,.3,.2,.3,.3,0,.2-.2,.3-.4,.4-.3,.1-.8,.3-1.3,.4h-.1c-.07,0-.1-.03-.1-.1q0-.1,.1-.1c.2-.2,.4-.4,.5-.5l.1-.1-.1-.1c-.3-.1-.9-.1-1.6-.1h-1.4c-.1,.2-.2,.2-.2,.2h0Z"/>
</svg>