<?xml version="1.0" encoding="UTF-8"?>
<svg id="_レイヤー_1" data-name=" レイヤー 1" xmlns="http://www.w3.org/2000/svg" viewBox="0 0 110.8 125.2">
  <defs>
    <style>
      .cls-1 {
        fill: #fff;
      }

      .cls-2 {
        fill: #333330;
      }

      .cls-3 {
        fill: #ccc;
      }

      .cls-4 {
        fill: #d83523;
      }

      .cls-5 {
        fill: #898880;
      }

      .cls-6 {
        fill: #fbfbf9;
        stroke: #b0afa7;
        stroke-width: .8px;
      }

      .cls-7 {
        stroke: #e7211a;
        stroke-width: .5px;
      }

      .cls-7, .cls-8 {
        fill: none;
      }

      .cls-8 {
        stroke: #d8d6cf;
        stroke-dasharray: 0 0 0 0 0 0 3 3;
        stroke-width: .4px;
      }
    </style>
  </defs>
  <path class="cls-6" d="M3.4,.4H107.4c1.7,0,3,1.3,3,3V107.4c0,1.7-1.3,3-3,3H3.4c-1.7,0-3-1.3-3-3V3.4c0-1.7,1.3-3,3-3Z"/>
  <line class="cls-8" x1="55.4" y1=".4" x2="55.4" y2="110.4"/>
  <line class="cls-8" x1=".4" y1="55.4" x2="110.4" y2="55.4"/>
  <path class="cls-2" d="M52.7,119.2v1.5c.3,0,.6-.1,.8-.2,.2,0,.4-.1,.5-.2,.1,0,.2-.1,.3-.1h.1c.3,.1,.5,.2,.5,.4,0,.1-.1,.2-.3,.3-.6,.1-1.2,.3-1.9,.3v2.4c.8,.2,1.6,.5,2.2,.7,.4,.2,.5,.3,.5,.5s-.1,.3-.3,.3c-.1,0-.5-.2-1.1-.4-.4-.2-.9-.4-1.4-.6-.1,.2-.2,.3-.2,.4-.3,.4-1,.7-1.7,.7-.9,0-1.7-.6-1.7-1,0-.6,1-1.1,1.8-1.1,.4,0,.8,.1,1.3,.2v-2.2c-.6,.1-1.2,.1-1.4,.1-.3,0-.5,0-.7-.1s-.5-.4-.5-.5,0-.1,.1-.1h.1c.2,.1,.5,.1,.8,.1h.1c.5,0,1-.1,1.5-.1,0-.7,0-1.4-.1-2-.6,.1-1.3,.2-1.9,.3-.1,0-.2,0-.3,.1h-.2c-.1,0-.2,0-.2-.1-.2-.1-.4-.3-.4-.4,0,0,.1-.1,.2-.1,.9-.2,1.9-.3,2.9-.4,0-.8,0-1.3-.1-1.6v-.2c0-.07,.03-.1,.1-.1,.1,0,.4,.1,.6,.2,.2,.1,.3,.2,.3,.3s0,.1-.1,.2c-.1,.3-.1,.6-.2,1.1,.4,0,.7-.1,1.1-.1,.2,0,.3,0,.5-.1h.4c.3,.1,.5,.2,.5,.4s-.2,.2-.3,.2h-.9c-.3,0-.7,0-1.2,.1v.9h-.1Zm-1.6,4.6c-.3-.1-.5-.1-.7-.1-.4,0-.9,.4-.9,.7,0,.2,.5,.5,1.1,.5s1.1-.3,1.4-.9c-.4-.1-.7-.2-.9-.2Z"/>
  <g id="_ま" data-name=" ま">
    <g>
      <circle class="cls-4" cx="26.4" cy="40.5" r="5.3"/>
      <path class="cls-1" d="M27.3,44h-1.4v-4.9h-1.7v-.9c.4,0,.7,0,.9-.1,.3-.1,.5-.2,.7-.4,.1-.1,.2-.3,.3-.5,0-.1,.1-.2,.1-.3h1.2v7.1s-.1,0-.1,0Z"/>
    </g>
    <g>
      <circle class="cls-4" cx="28.8" cy="56.7" r="5.3"/>
      <path class="cls-1" d="M29.5,54.2c-.2-.2-.4-.3-.7-.3-.4,0-.7,.2-.9,.5-.1,.2-.1,.5-.2,.9h-1.3c0-.6,.1-1.1,.3-1.5,.4-.7,1-1.1,2-1.1,.7,0,1.3,.2,1.8,.6,.4,.4,.7,1,.7,1.6,0,.5-.2,1-.5,1.4-.2,.3-.5,.6-1,.9l-.6,.4c-.3,.2-.6,.4-.7,.5s-.2,.2-.3,.4h3.1v1.2h-4.8c0-.5,.1-1,.3-1.4,.2-.5,.7-1,1.4-1.5,.6-.5,1.1-.8,1.2-1,.3-.3,.4-.6,.4-1,0-.2,0-.5-.2-.6Z"/>
    </g>
    <g>
      <circle class="cls-4" cx="56.4" cy="16.1" r="5.3"/>
      <path class="cls-1" d="M55.5,13.9c-.2,.2-.2,.5-.2,.8h-1.3c0-.4,.1-.7,.2-1,.1-.3,.3-.5,.5-.8,.2-.2,.4-.3,.6-.4s.6-.1,.9-.1c.7,0,1.2,.2,1.6,.5,.4,.4,.6,.8,.6,1.4,0,.4-.1,.8-.4,1.1-.2,.2-.3,.3-.5,.4,.1,0,.3,.1,.5,.3,.4,.3,.5,.8,.5,1.3,0,.6-.2,1.1-.6,1.6s-1,.7-1.8,.7c-1,0-1.7-.3-2.1-1-.2-.3-.3-.8-.3-1.4h1.4c0,.3,0,.5,.1,.7,.2,.3,.5,.5,.9,.5,.3,0,.5-.1,.7-.3,.2-.2,.3-.5,.3-.8,0-.5-.2-.8-.6-.9-.2-.1-.6-.1-1-.1v-1c.5,0,.8-.1,.9-.1,.3-.1,.5-.4,.5-.8,0-.3-.1-.5-.2-.7s-.4-.3-.7-.3c-.1,.1-.3,.2-.5,.4Z"/>
    </g>
    <path class="cls-5" d="M77.7,50.2h1.1l1.2,1.8,1.2-1.8h1.1l-1.8,2.5,1.9,2.7h-1.1l-1.3-2-1.3,2h-1.1l1.8-2.7s-1.7-2.5-1.7-2.5Z"/>
    <path class="cls-5" d="M80.3,82.1h1.1l1.2,1.8,1.2-1.8h1.1l-1.8,2.5,1.8,2.7h-1.1l-1.3-2-1.3,2h-1.1l1.8-2.7s-1.6-2.5-1.6-2.5Z"/>
    <path class="cls-5" d="M78.2,33.4h1.1l1.2,1.8,1.2-1.8h1.1l-1.8,2.5,1.8,2.7h-1.1l-1.3-2-1.3,2h-1.1l1.8-2.7s-1.6-2.5-1.6-2.5Z"/>
  </g>
  <g>
    <path class="cls-3" d="M59.4,42.8c0,3.1,.1,6.9,.2,10.9,2-.3,3.9-.8,5.5-1.1,1.1-.2,2.6-.8,3.7-1.4,.6-.3,1.4-.5,2.2-.5,.3,0,.6,0,1,.1,1.9,.4,3.2,1.5,3.2,2.6,0,.8-.6,1.5-2.1,1.9-4.2,1-8.6,1.8-13.4,2.5,.1,5,.2,9.9,.2,13.7,0,1.2-.1,2.4-.2,3.4,5.4,1.5,11,3.6,15.4,5.2,3,1.1,3.4,2.3,3.4,3.5,0,1.5-1,2.5-2.3,2.5-.9,0-3.8-1.4-7.7-3-2.9-1.2-6.2-2.6-9.8-3.9-.5,1.4-1.1,2.5-1.5,3-2,2.8-6.9,5-11.8,5-6.3,0-12.2-4.5-12.2-7.3,0-4.5,7.4-7.6,12.7-7.6,2.6,0,5.8,.6,9.4,1.4,.2-2.4,.3-5.3,.3-7,0-2.4,0-5.2-.1-8.4-4.6,.5-8.6,.7-10.2,.7-2.1,0-3.4-.1-5.3-1-1.8-1-3.2-2.6-3.2-3.3,0-.6,.3-.8,.8-.8,.2,0,.4,0,.7,.2,1.8,.8,3.4,1,5.6,1h.9c3.6-.1,7.3-.4,10.6-.8-.2-4.7-.2-9.7-.4-14.1-4.5,.6-9.3,1.4-13.5,2-.6,.1-1.3,.2-2.3,.6-.3,.1-.8,.2-1.3,.2-.6,0-1.1-.1-1.8-.4-1.6-.8-2.8-2.2-2.8-2.7,0-.3,.4-.5,1.2-.6,6.2-1.1,13.5-2.2,20.4-3-.2-5.8,.2-9.4-.7-11.7-.2-.4-.2-.9-.2-1.4s.2-.6,.8-.6c.8,0,2.6,.7,4.2,1.8,1.4,1,2.1,1.6,2.1,2.3,0,.4-.2,.9-.5,1.4-.6,1.9-1,4.6-1.1,7.7,2.7-.2,5.2-.5,7.5-.7,1.3-.1,2.3-.3,3.2-.6,.5-.2,.7-.2,1-.2,.6,0,1.5,.1,2,.2,2.2,.6,3.2,1.5,3.2,3,0,1.2-1.3,1.4-2.4,1.4-1,0-2.9,.1-6.4,.2-2.5,.1-5.2,.3-8.2,.6v3.1h0Zm-11,32.9c-1.8-.4-3.6-.5-5-.5-3,0-6.5,2.8-6.5,5.3,0,1.8,3.4,3.6,7.6,3.6s8.2-2.2,9.8-6.6c-2.2-.8-4.3-1.5-5.9-1.8Z"/>
    <path class="cls-7" d="M58.1,82.9s-2.2,5.1-12.1,5.4c-9.9,.2-11.9-4.6-11.9-4.6l1.2,3.1"/>
  </g>
</svg>