<?xml version="1.0" encoding="UTF-8"?>
<svg id="_レイヤー_1" data-name=" レイヤー 1" xmlns="http://www.w3.org/2000/svg" viewBox="0 0 110.8 128.8">
  <defs>
    <style>
      .cls-1 {
        fill: #fff;
      }

      .cls-2 {
        fill: #333330;
      }

      .cls-3 {
        fill: #ccc;
      }

      .cls-4 {
        fill: #d83523;
      }

      .cls-5 {
        fill: #898880;
      }

      .cls-6 {
        fill: #fbfbf9;
        stroke: #b0afa7;
        stroke-width: .8px;
      }

      .cls-7 {
        stroke: #e7211a;
        stroke-width: .5px;
      }

      .cls-7, .cls-8 {
        fill: none;
      }

      .cls-8 {
        stroke: #d8d6cf;
        stroke-dasharray: 0 0 0 0 0 0 3 3;
        stroke-width: .4px;
      }
    </style>
  </defs>
  <path class="cls-6" d="M3.4,.4H107.4c1.7,0,3,1.3,3,3V107.4c0,1.7-1.3,3-3,3H3.4c-1.7,0-3-1.3-3-3V3.4c0-1.7,1.3-3,3-3Z"/>
  <line class="cls-8" x1="55.4" y1=".4" x2="55.4" y2="110.4"/>
  <line class="cls-8" x1=".4" y1="55.4" x2="110.4" y2="55.4"/>
  <path class="cls-2" d="M57.3,120.2c-.6,.1-1.4,.3-2.1,.5h-.2c-.1,0-.2,0-.3-.1-.3-.2-.4-.5-.4-.5,0-.07,.03-.1,.1-.1,.1,0,.3,.1,.5,.1h.3c.6,0,1.2-.1,1.6-.2,.3-.1,.4-.1,.5-.3,.07-.07,.13-.1,.2-.1,.1,0,.4,.1,.7,.3,.07,.07,.1,.13,.1,.2,0,.1,0,.2-.1,.2-.1,.1-.2,.4-.4,.7-.6,1.3-1.2,2.4-1.7,3.3,.9,0,2.1,.1,3.3,.3,.2-.7,.3-.9,.3-1.2v-.4c0-.1,0-.3-.1-.3v-.1c0-.1,.1-.1,.2-.1s.5,.2,.7,.5c.1,.1,.2,.2,.2,.3s0,.1-.1,.2c-.1,.2-.2,.4-.3,.8-.1,.2-.1,.3-.2,.5,.5,.1,.9,.2,1.3,.3,.4,.1,.5,.3,.5,.5s-.1,.3-.3,.3c-.1,0-.2,0-.3-.1-.5-.2-.9-.3-1.4-.4-.2,.5-.4,1-.7,1.5-.5,.9-1,1.5-1.8,2h-.1s-.2,0-.2-.1c0,0,0-.1,.1-.2,.4-.4,.9-1.1,1.2-1.7s.6-1.2,.8-1.7c-1.1-.2-2.2-.4-3.4-.4-.7,1.1-1.4,1.9-2,2.4-.3,.2-.5,.4-.8,.4-.5,0-.9-.7-.9-1.3,0-.4,0-.6,.2-.9,.3-.4,.6-.6,1.4-.8,.3-.1,.9-.2,1.7-.2,.6-1,1.2-2.2,1.9-4.1h0Zm-3.9,4.9c-.4,.2-.6,.4-.6,.7s0,.6,.2,.9c.1,.1,.2,.1,.2,.1,.1,0,.2-.1,.4-.2,.5-.4,1.1-1.2,1.5-1.9-.6,0-1.2,.2-1.7,.4Z"/>
  <g id="_み" data-name=" み">
    <g>
      <circle class="cls-4" cx="32.1" cy="30.8" r="5.2"/>
      <path class="cls-1" d="M32.9,34.3h-1.4v-4.9h-1.6v-.9c.4,0,.7,0,.9-.1,.3-.1,.5-.2,.7-.4,.1-.1,.2-.3,.3-.5,0-.1,.1-.2,.1-.3h1.1v7.1h-.1Z"/>
    </g>
    <g>
      <circle class="cls-4" cx="81.2" cy="40.5" r="5.2"/>
      <path class="cls-1" d="M81.9,37.8c-.2-.2-.4-.3-.7-.3-.4,0-.7,.2-.9,.5-.1,.2-.1,.5-.2,.9h-1.3c0-.6,.1-1.1,.3-1.4,.4-.7,1-1,2-1,.7,0,1.3,.2,1.8,.6,.4,.4,.7,1,.7,1.6,0,.5-.2,1-.5,1.4-.2,.3-.5,.6-1,.9l-.6,.4c-.3,.2-.6,.4-.7,.5s-.2,.2-.3,.4h3.1v1.2h-4.8c0-.5,.1-1,.3-1.4,.2-.5,.7-1,1.4-1.5,.6-.5,1-.8,1.2-1,.3-.3,.4-.6,.4-1,.1-.3,0-.6-.2-.8Z"/>
    </g>
    <path class="cls-5" d="M62.8,88.1c2,0,3.6,1.6,3.6,3.6s-1.6,3.6-3.6,3.6-3.6-1.6-3.6-3.6c0-2.1,1.6-3.6,3.6-3.6Z"/>
    <path class="cls-5" d="M91,63.3h1.1l1.2,1.8,1.2-1.8h1.1l-1.8,2.5,1.8,2.7h-1.1l-1.3-2-1.3,2h-1.1l1.8-2.7s-1.6-2.5-1.6-2.5Z"/>
  </g>
  <g>
    <path class="cls-3" d="M58.6,30.7c-3.8,.6-9.1,1.7-13.9,3-.5,.2-.8,.2-1.1,.2-.6,0-1.1-.2-1.7-.7-1.8-1.4-2.6-3.1-2.6-3.6s.3-.7,.9-.7,1.7,.4,3.5,.4c.6,0,1.2,0,2-.1,3.7-.3,8.2-.9,10.7-1.5,1.7-.4,2.6-1,3.3-1.8,.4-.5,.6-.6,1.1-.6,.8,0,2.5,.6,4.4,2.2,.6,.5,.7,1,.7,1.5,0,.6-.3,1.2-.6,1.5-.8,.7-1.4,2.4-2.5,4.5-4.2,8.7-7.8,15.8-11.3,21.8,5.8,0,13.7,.8,21.9,2.2,1.3-4.4,1.7-6.1,2-7.7,.2-1,.3-1.8,.3-2.6,0-1-.2-1.7-.4-2.2-.2-.4-.3-.6-.3-.8,0-.5,.4-.9,1-.9,.9,0,3.4,1.6,4.8,3,.9,.9,1,1.6,1,2.2s-.2,.9-.5,1.4c-.7,1.1-1.1,2.8-2,5.1-.5,1.2-.8,2.3-1.2,3.3,3,.6,6,1.3,8.6,2.2,2.4,.8,3.4,2.2,3.4,3.2,0,1.3-.7,2.2-2,2.2-.5,0-1-.2-1.8-.4-3.1-1-6.3-2.2-9.5-3-1.4,3.5-2.8,6.5-4.7,10.2-3.3,6.1-6.7,10.1-11.8,13.4-.2,.2-.5,.2-.9,.2s-1-.3-1-1c0-.3,.2-.6,.6-1,2.9-2.9,5.8-7.3,7.9-11.4,2.1-3.9,3.8-8.1,5.2-11.6-7.2-1.6-14.7-2.7-22.5-2.9-4.6,7.3-9.6,12.9-13.3,15.8-2,1.6-3.4,2.5-5.4,2.5-3.4,0-6.1-4.6-6.1-8.8,0-2.5,.1-3.7,1.4-5.8,1.8-2.5,4.1-4.1,9-5.4,2.2-.6,6.1-1.1,11.1-1.4,3.1-5.5,7.6-13.7,12.3-26.1h0Zm-26.3,32.5c-3,1.3-4,2.6-4,4.7s.2,4.2,1.5,6.1c.5,.6,1,.9,1.5,.9,.7,0,1.6-.5,2.6-1.4,3.2-2.8,7.4-8.2,10.2-13-4.4,.2-8.7,1.2-11.8,2.7Z"/>
    <polyline class="cls-7" points="67 26.2 70.9 25.6 60.9 44 64.4 41.2"/>
    <path class="cls-7" d="M45.7,68.5s-8.6,10.9-13.6,11.6-8.2-6.8-8.2-6.8v3.2"/>
  </g>
</svg>