<?xml version="1.0" encoding="UTF-8"?>
<svg id="_レイヤー_1" data-name=" レイヤー 1" xmlns="http://www.w3.org/2000/svg" viewBox="0 0 110.8 128.4">
  <defs>
    <style>
      .cls-1 {
        fill: #fff;
      }

      .cls-2 {
        fill: #333330;
      }

      .cls-3 {
        fill: #ccc;
      }

      .cls-4 {
        fill: #d83523;
      }

      .cls-5 {
        fill: #898880;
      }

      .cls-6 {
        fill: #fbfbf9;
        stroke: #b0afa7;
        stroke-width: .8px;
      }

      .cls-7 {
        stroke: #e7211a;
        stroke-width: .5px;
      }

      .cls-7, .cls-8 {
        fill: none;
      }

      .cls-8 {
        stroke: #d8d6cf;
        stroke-dasharray: 0 0 0 0 0 0 3 3;
        stroke-width: .4px;
      }
    </style>
  </defs>
  <path class="cls-6" d="M3.4,.4H107.4c1.7,0,3,1.3,3,3V107.4c0,1.7-1.3,3-3,3H3.4c-1.7,0-3-1.3-3-3V3.4c0-1.7,1.3-3,3-3Z"/>
  <line class="cls-8" x1="55.4" y1=".4" x2="55.4" y2="110.4"/>
  <line class="cls-8" x1=".4" y1="55.4" x2="110.4" y2="55.4"/>
  <path class="cls-3" d="M52.9,25.9c0-.7,.3-1.1,1-1.1,1,0,2.9,1.6,4.3,4.1,.5,.8,.8,1.4,.8,2.3,0,1.2-1.4,1.6-2.6,3.8-4.5,7.9-12.7,23-20.3,37,3.5-3.7,9.1-9.3,13.1-13.4,1-1.1,1.4-1.6,1.8-2.7,.2-.7,.9-1.5,1.4-1.5,1.6,0,3,.7,3.8,1.4,.4,.3,.6,.9,.6,1.5,0,.8-.2,1.4-.3,2.2-.3,2.4-.6,5.1-.6,7.4,0,7.4,2.2,14.4,9.9,14.4s18.1-8.7,21.5-26.3c.1-.6,.7-1,1.3-1,.5,0,1,.4,1,1.2,0,.13-.03,.5-.1,1.1-1.9,20.8-12.6,29.1-22.5,29.1-6.2,0-11.9-2.7-14.3-9.2-1.6-4.2-2.1-8.9-2.1-14.2v-1.4c-5.8,6.4-11.3,12.3-15.3,17.4-1.8,2.2-2.6,3.2-3.5,4.6-.6,.8-1.1,1.6-2,1.6-.5,0-1.3-.6-1.7-1.1-1.1-1.3-1.4-1.9-1.4-2.5s.4-.9,1.3-2.2c.6-.9,3-5,7.2-13,5.2-10.2,9.1-18.2,11.8-23.8,2.4-5,3.8-7.8,4.5-9.7,.6-1.8,1.1-3.1,1.1-5.4v-.6s.3,0,.3,0Z"/>
  <path class="cls-2" d="M55.7,119.5c0-.1,0-.2,.2-.2,.1,0,.4,.2,.6,.6,.1,.1,.1,.2,.1,.3,0,.2-.2,.2-.4,.6-.7,1.2-1.9,3.4-3,5.5,.5-.6,1.4-1.4,2-2,.1-.2,.2-.2,.3-.4,0-.1,.1-.2,.2-.2,.2,0,.4,.1,.6,.2,.1,0,.1,.1,.1,.2v.3c0,.4-.1,.8-.1,1.1,0,1.1,.3,2.2,1.5,2.2s2.7-1.3,3.2-3.9c0-.1,.1-.2,.2-.2s.2,.1,.2,.2v.2c-.3,3.1-1.9,4.4-3.4,4.4-.9,0-1.8-.4-2.1-1.4-.2-.6-.3-1.3-.3-2.1v-.2c-.9,1-1.7,1.8-2.3,2.6-.3,.3-.4,.5-.5,.7-.1,.1-.2,.2-.3,.2s-.2-.1-.3-.2c-.2-.2-.2-.3-.2-.4s.1-.1,.2-.3c.1-.1,.4-.7,1.1-2,.8-1.5,1.4-2.7,1.8-3.6,.4-.7,.6-1.2,.7-1.5-.2-.1-.1-.3-.1-.7h0Z"/>
  <g>
    <g id="_ん" data-name=" ん">
      <g>
        <circle class="cls-4" cx="49.3" cy="18.7" r="5.2"/>
        <path class="cls-1" d="M50.2,22.2h-1.4v-4.8h-1.6v-1c.4,0,.7,0,.9-.1,.3-.1,.5-.2,.7-.4,.1-.1,.2-.3,.3-.5,0-.1,.1-.2,.1-.3h1.1v7.1h-.1Z"/>
      </g>
      <path class="cls-5" d="M88.4,44.3c2,0,3.6,1.6,3.6,3.6s-1.6,3.6-3.6,3.6-3.6-1.6-3.6-3.6,1.6-3.6,3.6-3.6Z"/>
    </g>
    <polyline class="cls-7" points="28.1 85.4 26.6 90.7 38.6 76.8 37.5 80.4"/>
    <polyline class="cls-7" points="56.6 54 60.6 50.5 57.9 66.3 60.2 63"/>
    <path class="cls-7" d="M57.8,85s5.4,3.6,12.4,2.5c6.9-1.2,11.6-5.4,13.4-7.6,1.7-2.2,3.8-6.1,3.8-6.1l-.6,4.3"/>
  </g>
</svg>