<?xml version="1.0" encoding="UTF-8"?>
<svg id="_レイヤー_1" data-name=" レイヤー 1" xmlns="http://www.w3.org/2000/svg" viewBox="0 0 110.8 128.7">
  <defs>
    <style>
      .cls-1 {
        fill: #fff;
      }

      .cls-2 {
        fill: #333330;
      }

      .cls-3 {
        fill: #ccc;
      }

      .cls-4 {
        fill: #d83523;
      }

      .cls-5 {
        fill: #898880;
      }

      .cls-6 {
        fill: #fbfbf9;
        stroke: #b0afa7;
        stroke-width: .8px;
      }

      .cls-7 {
        stroke: #e7211a;
        stroke-width: .5px;
      }

      .cls-7, .cls-8 {
        fill: none;
      }

      .cls-8 {
        stroke: #d8d6cf;
        stroke-dasharray: 0 0 0 0 0 0 3 3;
        stroke-width: .4px;
      }
    </style>
  </defs>
  <path class="cls-6" d="M3.4,.4H107.4c1.7,0,3,1.3,3,3V107.4c0,1.7-1.3,3-3,3H3.4c-1.7,0-3-1.3-3-3V3.4c0-1.7,1.3-3,3-3Z"/>
  <line class="cls-8" x1="55.4" y1=".4" x2="55.4" y2="110.4"/>
  <line class="cls-8" x1=".4" y1="55.4" x2="110.4" y2="55.4"/>
  <path class="cls-3" d="M45.6,83c0,3.8-1,4.4-1.9,4.4-1.2,0-1.8-.7-2.2-2.1-.5-1.4-.6-2.7-.6-3.7s.2-1.7,.2-2.2c.2-1,.2-1.6,.2-2.9,.1-4.1,.2-8.3,.3-12.6-.4,.6-.9,1.3-1.4,1.9-1.3,1.7-3.4,4-4.4,5.4-1.1,1.8-1.8,2.3-2.3,2.3-.6,0-1.5-.6-2.2-1.1-1.1-.9-1.9-2.1-1.9-2.5,0-.6,.3-1.3,.8-1.9,.7-1,1.3-1.9,1.7-2.6,3.6-5.4,8.2-13.4,10.4-17.8,0-.9,.1-1.8,.1-2.7-1.6,.7-4.6,2.1-8.7,4.1-.7,.3-1.4,.6-2.2,.6-.3,0-1-.2-1.6-.5-1.4-.7-2.3-1.4-2.3-1.8,0-.3,.2-.6,.7-.7,.8-.2,1.5-.2,2.8-.7,3.3-1.2,7.8-3,11.4-4.5,.1-3.2,.2-6,.3-8.9,.1-1.4,.1-1.8,.1-2.5,0-2.1-.2-4.3-.9-5.4-.2-.3-.2-.5-.2-.6,0-.4,.3-.7,.9-.7,.8,0,2.1,.6,4.2,2.5,1.2,1.1,1.6,2.1,1.6,3,0,.5-.1,.8-.2,1-.4,.6-.8,1.6-.9,2.5-.2,2.3-.5,4.8-.7,7.4,1.1-.5,1.7-.7,2.2-.7,.3,0,.7,.2,1.1,.4,.6,.4,1.4,1.1,1.4,2,0,.4-.2,.8-.9,1.3-.7,.6-2.1,2.2-2.6,3-.6,1-1.1,1.7-1.9,2.8-.1,1.6-.2,3.4-.2,5.2,2.6-2.9,4.9-5.2,6.7-7,7.3-6.8,14.4-12.8,22.3-12.8,5.4,0,7.8,5,8.7,11.5,.3,2.2,.4,5.2,.4,8.6,0,4.9-.2,10.3-.5,13.7-.1,1.6-.3,2.7-.7,3.9,3.7,1.8,6.8,3.9,8.6,5.8,.6,.6,.9,1.4,.9,2.1,0,1.4-1,2.2-2.2,2.2-.7,0-1.6-.3-2.5-1.2-1.7-1.4-4.2-3.1-6.9-4.8-2.5,3.4-6.8,5.3-13.4,5.3-5,0-8.8-3.2-8.8-7,0-3.4,3.8-6.7,9-6.7,3.2,0,7,1,10.6,2.2,.4-3.3,.7-9.7,.7-16.5,0-4.6-.1-9.4-.6-11.6-.8-3.5-2.6-5-5-5-1.6,0-3.4,.6-5.5,1.8-5.4,3-14.3,11.2-22.2,20.6-.1,5.6-.2,11.8-.2,17.7v6.5h.4Zm-3.6-28.5c-3.8,5.2-8.1,11.4-8.2,11.6s-.2,.2-.2,.4,.1,.2,.2,.2,.5-.2,1-.8c2.6-2.8,5-5.4,7-7.7,.1-.8,.2-2.2,.2-3.7Zm27,15.9c-1-.3-1.8-.4-2.9-.4-1.4,0-2.9,1.2-3.7,2.6-.5,.9-.8,1.9-.8,2.7,0,.9,.4,1.4,1.5,1.8,1.3,.6,2.8,.8,4.5,.8,2.2,0,4.6-.6,6.8-1.8,.7-.4,1.7-1.3,2.4-2.5-2.7-1.4-5.7-2.6-7.8-3.2Z"/>
  <path class="cls-2" d="M54.8,128c0,.6-.1,.7-.3,.7s-.3-.1-.3-.3c-.1-.2-.1-.4-.1-.6v-2.6c-.1,.1-.1,.2-.2,.3-.2,.3-.5,.6-.7,.8-.2,.3-.3,.3-.3,.3-.1,0-.2-.1-.3-.2-.2-.1-.3-.3-.3-.4s0-.2,.1-.3,.2-.3,.3-.4c.5-.8,1.2-2,1.6-2.7v-.4c-.2,.1-.7,.3-1.3,.6-.1,0-.2,.1-.3,.1,0,0-.1,0-.2-.1-.2-.1-.3-.2-.3-.3,0,0,0-.1,.1-.1s.2,0,.4-.1c.5-.2,1.2-.5,1.7-.7v-1.7c0-.3,0-.6-.1-.8v-.1c0-.07,.03-.1,.1-.1,.1,0,.3,.1,.6,.4,.2,.2,.2,.3,.2,.5v.2c-.1,.1-.1,.2-.1,.4,0,.3-.1,.7-.1,1.1,.2-.1,.3-.1,.3-.1,0,0,.1,0,.2,.1s.2,.2,.2,.3,0,.1-.1,.2-.3,.3-.4,.4c-.1,.1-.2,.3-.3,.4v.8c.4-.4,.7-.8,1-1,1.1-1,2.2-1.9,3.3-1.9,.8,0,1.2,.7,1.3,1.7,0,.3,.1,.8,.1,1.3,0,.7,0,1.5-.1,2.1,0,.2,0,.4-.1,.6,.6,.3,1,.6,1.3,.9,.1,.1,.1,.2,.1,.3,0,.2-.2,.3-.3,.3s-.2,0-.4-.2c-.3-.2-.6-.5-1-.7-.4,.5-1,.8-2,.8-.8,0-1.3-.5-1.3-1s.6-1,1.4-1c.5,0,1.1,.1,1.6,.3,.1-.5,.1-1.5,.1-2.5,0-.7,0-1.4-.1-1.7-.1-.5-.4-.8-.7-.8-.2,0-.5,.1-.8,.3-.8,.4-2.1,1.7-3.3,3.1v3.5h-.2Zm-.5-4.2c-.6,.8-1.2,1.7-1.2,1.7v.1h0s.1,0,.2-.1c.4-.4,.7-.8,1.1-1.2-.1-.1-.1-.3-.1-.5Zm4,2.4c-.1,0-.3-.1-.4-.1-.2,0-.4,.2-.6,.4-.1,.1-.1,.3-.1,.4s.1,.2,.2,.3c.2,.1,.4,.1,.7,.1s.7-.1,1-.3c.1-.1,.3-.2,.4-.4-.4-.2-.8-.4-1.2-.4Z"/>
  <g id="_ね" data-name=" ね">
    <g>
      <circle class="cls-4" cx="44" cy="14.2" r="5.3"/>
      <path class="cls-1" d="M44.9,17.8h-1.4v-4.9h-1.7v-.9c.4,0,.7,0,.9-.1,.3-.1,.5-.2,.7-.4,.1-.1,.2-.3,.3-.5,0-.1,.1-.2,.1-.3h1.2v7.1h-.1Z"/>
    </g>
    <g>
      <circle class="cls-4" cx="20.4" cy="47.2" r="5.3"/>
      <path class="cls-1" d="M21.1,44.5c-.2-.2-.4-.3-.7-.3-.4,0-.7,.2-.9,.5-.1,.2-.1,.5-.2,.9h-1.4c0-.6,.1-1.1,.3-1.5,.4-.7,1-1.1,2-1.1,.7,0,1.3,.2,1.8,.6,.4,.4,.7,1,.7,1.6,0,.5-.2,1-.5,1.4-.2,.3-.5,.6-1,.9l-.6,.4c-.3,.2-.6,.4-.7,.5s-.2,.2-.3,.4h3.1v1.2h-4.8c0-.5,.1-1,.3-1.4,.2-.5,.7-1,1.4-1.5,.6-.5,1.1-.8,1.2-1,.3-.3,.4-.6,.4-1,.1-.1,0-.4-.1-.6Z"/>
    </g>
    <path class="cls-5" d="M93,80.2h1.1l1.3,1.8,1.2-1.9h1.1l-1.7,2.6,1.9,2.6h-1.1l-1.4-1.9-1.2,2h-1.1l1.8-2.7s-1.9-2.5-1.9-2.5Z"/>
    <path class="cls-5" d="M41.3,89.4h1.1l1.2,1.8,1.2-1.8h1.1l-1.8,2.5,1.8,2.7h-1.1l-1.3-2-1.3,2h-1.1l1.8-2.7s-1.6-2.5-1.6-2.5Z"/>
  </g>
  <path class="cls-7" d="M51.3,38.7l6.4-1.6s-5.9,6.2-7.2,7.3l-3.9,3.9,2.4-1.2"/>
  <polyline class="cls-7" points="31 74.5 28.7 80.6 40.4 66.9 39.2 69.9"/>
  <path class="cls-7" d="M67.3,34.5s6.4-2.5,9.9-1.4,5.2,3,6.2,5.8,1.5,7.9,1.6,9.7c.1,1.9,0,4.5,0,4.5l1.5-3.9"/>
  <path class="cls-7" d="M77.5,80.2s-3.5,1.9-9.6,2.1-9.1-3.3-9.5-4.1c-1-1.7-1.8-4.5-.4-7.6,1.4-3.1,5.8-4.2,7.9-4.3,2-.1,4.7-.1,6.9,.6,2.3,.7,4,1.4,4,1.4l-2.4-2.3"/>
</svg>