<?xml version="1.0" encoding="UTF-8"?>
<svg id="_レイヤー_1" data-name=" レイヤー 1" xmlns="http://www.w3.org/2000/svg" viewBox="0 0 110.8 128.5">
  <defs>
    <style>
      .cls-1 {
        fill: #fff;
      }

      .cls-2 {
        fill: #333330;
      }

      .cls-3 {
        fill: #ccc;
      }

      .cls-4 {
        fill: #d83523;
      }

      .cls-5 {
        fill: #898880;
      }

      .cls-6 {
        fill: #fbfbf9;
        stroke: #b0afa7;
        stroke-width: .8px;
      }

      .cls-7 {
        fill: none;
        stroke: #d8d6cf;
        stroke-dasharray: 0 0 0 0 0 0 3 3;
        stroke-width: .4px;
      }
    </style>
  </defs>
  <path class="cls-6" d="M3.4,.4H107.4c1.7,0,3,1.3,3,3V107.4c0,1.7-1.3,3-3,3H3.4c-1.7,0-3-1.3-3-3V3.4c0-1.7,1.3-3,3-3Z"/>
  <line class="cls-7" x1="55.4" y1=".4" x2="55.4" y2="110.4"/>
  <line class="cls-7" x1=".4" y1="55.4" x2="110.4" y2="55.4"/>
  <path class="cls-3" d="M36.8,25.6c0-.6,.3-1.2,.8-1.2,.6,0,2.2,1.8,3.4,3.7,1.1,1.9,1.4,2.9,1.4,3.7s-.2,1.6-.7,2.7c-.7,1.4-1.4,4.2-2.1,6.5-1.8,7.2-3.4,16.7-3.4,25.1,0,3.9,.2,8.7,.8,11.4,.1,.4,.3,.7,.6,.7,.2,0,.5-.2,.7-.6,1.4-2.4,2.7-4.9,4.1-7.1,.2-.4,.6-.6,.9-.6s.6,.2,.6,.6c0,.2,0,.3-.1,.6-.7,2.6-2.1,8-3.4,12.3-.6,1.5-1,2.8-2.2,2.8-1,0-2.3-.9-2.9-2.2-1.8-4.3-3.4-8.2-3.4-21.6,0-7.5,2.1-19.3,3.6-26.6,1-4.2,1.2-7.4,1.2-9.4v-.8h.1Zm36.9,19.8c-.2,.2-.6,.2-.8,.2s-.5-.2-.5-.4,.1-.3,.3-.6c1.4-1.6,2.6-3.1,3.7-4.8-5,.6-9,1.4-14.2,2.5-2.8,.6-5.7,1-7.2,1-.5,0-1-.3-1-.6,0-.2,.2-.4,.3-.6,1.3-1.1,3.1-2.1,5.8-3.1,3.9-1.4,8.9-2.6,13.7-3.2,2.1-.3,4.8-.5,6.2-.5,3,0,4.2,.9,4.2,3,0,.6-.6,1.4-1.9,2-2.5,1.3-6,3.4-8.6,5.1h0Zm-17.4,18.8c.2,0,.5,.2,.6,.5,.8,1.6,1.9,3,4.2,4.6,3.6,2.4,8.5,3.3,12.6,3.3,1.3,0,2.7-.1,4.3-.2,1.2-.1,2.5-.2,3.4-.2,3.2,0,4.6,1.2,4.6,2.8,0,1.4-.5,2-1.8,2.4-1.4,.4-3.4,.8-6.6,.8-1.2,0-2.5,0-4-.2-7.4-.6-11.3-2.6-14.4-5.5-1.8-1.7-3.8-4.9-3.8-7.4,.2-.5,.5-.9,.9-.9h0Z"/>
  <path class="cls-2" d="M53.5,119.4c0-.1,0-.2,.1-.2s.3,.3,.5,.6,.2,.4,.2,.6,0,.2-.1,.4-.2,.6-.3,1c-.3,1.1-.5,2.5-.5,3.8,0,.6,0,1.3,.1,1.7,0,.07,.03,.1,.1,.1q.1,0,.1-.1c.2-.4,.4-.7,.6-1.1,0-.1,.1-.1,.1-.1,0,0,.1,0,.1,.1v.1c-.1,.4-.3,1.2-.5,1.8-.1,.2-.1,.4-.3,.4s-.3-.1-.4-.3c-.3-.6-.5-1.2-.5-3.2,0-1.1,.3-2.9,.5-4,.1-.6,.2-1.1,.2-1.4v-.2h0Zm5.6,3h-.1s-.1,0-.1-.1v-.1c.2-.2,.4-.5,.6-.7-.7,.1-1.4,.2-2.1,.4-.4,.1-.9,.2-1.1,.2-.07,0-.1-.03-.1-.1v-.1c.2-.2,.5-.3,.9-.5,.6-.2,1.3-.4,2.1-.5,.3,0,.7-.1,.9-.1,.5,0,.6,.1,.6,.4,0,.1-.1,.2-.3,.3-.4,.3-.9,.7-1.3,.9h0Zm-2.6,2.8h0c.2,.3,.4,.5,.7,.8,.5,.4,1.3,.5,1.9,.5h1.1c.5,0,.7,.2,.7,.4s-.1,.3-.3,.4-.5,.1-1,.1h-.6c-1.1-.1-1.7-.4-2.2-.8-.3-.3-.6-.7-.6-1.1,.1-.2,.2-.3,.3-.3Z"/>
  <g id="_に" data-name=" に">
    <g>
      <circle class="cls-4" cx="37.3" cy="16.1" r="5.3"/>
      <path class="cls-1" d="M38.2,19.6h-1.4v-4.9h-1.7v-.9c.4,0,.7,0,.9-.1,.3-.1,.5-.2,.7-.4,.1-.1,.2-.3,.3-.5,0-.1,.1-.2,.1-.3h1.2v7.1h-.1Z"/>
    </g>
    <g>
      <circle class="cls-4" cx="60.7" cy="30.1" r="5.3"/>
      <path class="cls-1" d="M61.4,27.5c-.2-.2-.4-.3-.7-.3-.4,0-.7,.2-.9,.5-.1,.2-.1,.5-.2,.9h-1.4c0-.6,.1-1.1,.3-1.5,.4-.7,1-1.1,2-1.1,.7,0,1.3,.2,1.8,.6,.4,.4,.7,1,.7,1.6,0,.5-.2,1-.5,1.4-.2,.3-.5,.6-1,.9l-.6,.4c-.3,.2-.6,.4-.7,.5s-.2,.2-.3,.4h3.1v1.2h-4.8c0-.5,.1-1,.3-1.4,.2-.5,.7-1,1.4-1.5,.6-.5,1.1-.8,1.2-1,.3-.3,.4-.6,.4-1,.1-.1,.1-.4-.1-.6Z"/>
    </g>
    <g>
      <circle class="cls-4" cx="48.8" cy="62.2" r="5.3"/>
      <path class="cls-1" d="M47.9,60c-.2,.2-.2,.5-.2,.8h-1.3c0-.4,.1-.7,.2-1,.1-.3,.3-.5,.5-.8,.2-.2,.4-.3,.6-.4s.6-.1,.9-.1c.7,0,1.2,.2,1.6,.5,.4,.4,.6,.8,.6,1.4,0,.4-.1,.8-.4,1.1-.2,.2-.3,.3-.5,.4,.1,0,.3,.1,.5,.3,.4,.3,.5,.8,.5,1.3,0,.6-.2,1.1-.6,1.6-.4,.5-1,.7-1.8,.7-1,0-1.7-.3-2.1-1-.2-.3-.3-.8-.3-1.4h1.4c0,.3,0,.5,.1,.7,.2,.3,.5,.5,.9,.5,.3,0,.5-.1,.7-.3,.2-.2,.3-.5,.3-.8,0-.5-.2-.8-.6-.9-.2-.1-.6-.1-1-.1v-1c.5,0,.8-.1,.9-.1,.3-.1,.5-.4,.5-.8,0-.3-.1-.5-.2-.7s-.4-.3-.7-.3c-.1,.1-.3,.2-.5,.4Z"/>
    </g>
    <path class="cls-5" d="M87.6,72.7h1.1l1.2,1.8,1.2-1.8h1.1l-1.8,2.5,1.8,2.7h-1.1l-1.3-2-1.3,2h-1.1l1.8-2.7s-1.6-2.5-1.6-2.5Z"/>
    <path class="cls-5" d="M35.5,88.3l1.4,4.3,1.5-4.3h1l-2,5.2h-1l-1.9-5.2h1Z"/>
    <path class="cls-5" d="M86.8,36.1l1.4,4.3,1.5-4.3h1l-2,5.2h-.9l-1.9-5.2h.9Z"/>
  </g>
</svg>