<?xml version="1.0" encoding="UTF-8"?>
<svg id="_レイヤー_1" data-name=" レイヤー 1" xmlns="http://www.w3.org/2000/svg" viewBox="0 0 110.8 128.1">
  <defs>
    <style>
      .cls-1 {
        fill: #fff;
      }

      .cls-2 {
        fill: #333330;
      }

      .cls-3 {
        fill: #ccc;
      }

      .cls-4 {
        fill: #d83523;
      }

      .cls-5 {
        fill: #898880;
      }

      .cls-6 {
        fill: #fbfbf9;
        stroke: #b0afa7;
        stroke-width: .8px;
      }

      .cls-7 {
        stroke: #e7211a;
        stroke-width: .5px;
      }

      .cls-7, .cls-8 {
        fill: none;
      }

      .cls-8 {
        stroke: #d8d6cf;
        stroke-dasharray: 0 0 0 0 0 0 3 3;
        stroke-width: .4px;
      }
    </style>
  </defs>
  <path class="cls-6" d="M3.4,.4H107.4c1.7,0,3,1.3,3,3V107.4c0,1.7-1.3,3-3,3H3.4c-1.7,0-3-1.3-3-3V3.4c0-1.7,1.3-3,3-3Z"/>
  <line class="cls-8" x1="55.4" y1=".4" x2="55.4" y2="110.4"/>
  <line class="cls-8" x1=".4" y1="55.4" x2="110.4" y2="55.4"/>
  <path class="cls-3" d="M55.7,34.4c0-1.3-.3-2.6-1.3-4.2-.1-.2-.2-.4-.2-.6,0-.5,.5-1,1-1,1.1,0,3.4,1.4,4.6,2.6,1,1,1.2,1.5,1.2,2.3,0,.6-.2,1.3-.3,2.2-.3,1.9-.8,3.8-1.4,5.8,2.2-.5,4.8-.7,7.2-.7,13.6,0,19.8,9.9,19.8,19.8,0,5.2-1.3,9.4-3.6,13.2,2.8,1.7,5.5,3.6,7,4.9,.8,.7,1.2,1.5,1.2,2.2,0,1-.8,2.2-2.2,2.2-.8,0-1.6-.3-2.3-.9-2-1.8-4.5-3.6-6.6-5.1-2.9,3.1-7,4.4-11.4,4.4-4.9,0-10.6-2.6-10.6-7.5,0-3.2,3.5-6.2,9-6.2,3.8,0,7.3,1.1,11.8,3.6,1.4-3.2,2.4-7.3,2.4-11.4,0-10.2-5-16.7-16.1-16.7-2.1,0-4.4,.4-6.7,1-2.9,8.6-7.8,18.2-13.8,25.6,.6,1.8,1.4,3.8,2.6,6.1,.3,.7,.4,1.3,.4,1.9,0,1.2-.7,2.3-2.1,2.3-.8,0-1.5-.5-2.2-1.6-.6-1.2-1.4-2.6-2.2-4.6-2.6,3-5.3,5.3-8.3,7.1-.7,.5-1.7,.8-2.6,.8-1.2,0-2.4-.6-2.9-1.8-1-2.4-1.6-4.6-2.1-6.5-.5-2.1-.9-3.8-1.1-4.5-.2-.6-.3-1.3-.3-1.8,0-1,.3-1.9,1-3.1,2.7-4.5,7-8.5,10.5-11.2-.3-1.8-.6-3.5-.9-5.1-.8-4.2-1-7.1-1.5-10.3-.1-.4-.1-.6-.1-.8,0-.5,.2-.6,.5-.6,.2,0,.4,.1,.6,.2,1.3,1,2.4,2.5,3.3,4.1,.6,1.2,.7,2.7,.9,4.1,.3,1.8,.6,3.7,1,5.8,4.2-2.7,9.3-5.5,14.9-7.5,1.4-3.3,1.9-7.1,1.9-8.5h0Zm-17.9,29.4c-.6-1.9-1.1-4.1-1.5-6.2-3.4,3-6.6,6.5-8.2,9.9-.3,.7-.5,1.5-.5,2.6,0,2.1,1,4.6,2.4,6.2,.7,.9,1.4,1.3,2,1.3,.5,0,.9-.2,1.4-.6,1.9-1.4,4.4-3.9,6.5-6.6-.8-2.4-1.4-4.6-2.1-6.6Zm2.2-9.3c.6,2.2,1.1,4.6,1.8,6.8,.3,1.3,.9,2.9,1.4,4.7,4.2-6.5,7.6-13.2,9.8-19.4-5,2.2-9.7,5.3-13,7.9Zm30.9,17.3c-1.4-.6-3.5-1.4-5.2-1.4-2.6,0-4.8,2.4-4.8,4.3,0,3.3,3.2,3.9,6.4,3.9s6.2-1.2,9-3.8c-1.9-1.2-3.3-2-5.4-3Z"/>
  <path class="cls-2" d="M57,120.8c0-.2,0-.4-.2-.6v-.1c0-.1,.1-.1,.2-.1,.2,0,.5,.2,.7,.4s.2,.2,.2,.3v.3c0,.3-.1,.6-.2,.9,.3-.1,.7-.1,1.1-.1,2,0,3,1.5,3,3,0,.8-.2,1.4-.5,2,.4,.3,.8,.5,1,.7,.1,.1,.2,.2,.2,.3,0,.2-.1,.3-.3,.3-.1,0-.2,0-.3-.1-.3-.3-.7-.5-1-.8-.4,.5-1.1,.7-1.7,.7-.7,0-1.6-.4-1.6-1.1,0-.5,.5-.9,1.4-.9,.6,0,1.1,.2,1.8,.5,.2-.5,.4-1.1,.4-1.7,0-1.5-.8-2.5-2.4-2.5-.3,0-.7,.1-1,.2-.4,1.3-1.2,2.7-2.1,3.8,.1,.3,.2,.6,.4,.9,0,.1,.1,.2,.1,.3,0,.2-.1,.3-.3,.3-.1,0-.2-.1-.3-.2-.1-.2-.2-.4-.3-.7-.4,.4-.8,.8-1.2,1.1-.1,.1-.3,.1-.4,.1-.2,0-.4-.1-.4-.3-.2-.4-.2-.7-.3-1s-.1-.6-.2-.7v-.3c0-.1,0-.3,.1-.5,.4-.7,1.1-1.3,1.6-1.7,0-.3-.1-.5-.1-.8-.1-.6-.2-1.1-.2-1.5v-.1c0-.07,.03-.1,.1-.1h.1c.2,.1,.4,.4,.5,.6s.1,.4,.1,.6c0,.3,.1,.6,.2,.9,.6-.4,1.4-.8,2.2-1.1-.4-.5-.4-1-.4-1.2h0Zm-2.6,4.4c-.1-.3-.2-.6-.2-.9-.5,.5-1,1-1.2,1.5,0,.1-.1,.2-.1,.4,0,.3,.2,.7,.4,.9,.1,.1,.2,.2,.3,.2s.1,0,.2-.1c.3-.2,.7-.6,1-1-.3-.4-.4-.7-.4-1Zm.3-1.4c.1,.3,.2,.7,.3,1,0,.2,.1,.4,.2,.7,.6-1,1.1-2,1.5-2.9-.8,.3-1.5,.8-2,1.2Zm4.6,2.6c-.2-.1-.5-.2-.8-.2-.4,0-.7,.4-.7,.6,0,.5,.5,.6,1,.6s.9-.2,1.3-.6c-.3-.2-.5-.3-.8-.4Z"/>
  <g id="_ぬ" data-name=" ぬ">
    <g>
      <circle class="cls-4" cx="31.8" cy="27.9" r="5.3"/>
      <path class="cls-1" d="M32.7,31.4h-1.4v-4.9h-1.7v-.9c.4,0,.7,0,.9-.1,.3-.1,.5-.2,.7-.4,.1-.1,.2-.3,.3-.5,0-.1,.1-.2,.1-.3h1.2v7.1s-.1,0-.1,0Z"/>
    </g>
    <g>
      <circle class="cls-4" cx="58.6" cy="19.5" r="5.3"/>
      <path class="cls-1" d="M59.2,16.9c-.2-.2-.4-.3-.7-.3-.4,0-.7,.2-.9,.5-.1,.2-.1,.5-.2,.9h-1.4c0-.6,.1-1.1,.3-1.5,.4-.7,1-1.1,2-1.1,.7,0,1.3,.2,1.8,.6,.4,.4,.7,1,.7,1.6,0,.5-.2,1-.5,1.4-.2,.3-.5,.6-1,.9l-.6,.4c-.3,.2-.6,.4-.7,.5s-.2,.2-.3,.4h3.1v1.2h-4.8c0-.5,.1-1,.3-1.4,.2-.5,.7-1,1.4-1.5,.6-.5,1.1-.8,1.2-1,.3-.3,.4-.6,.4-1,.2-.1,.1-.4-.1-.6Z"/>
    </g>
    <path class="cls-5" d="M92.4,80.2h1.1l1.2,1.8,1.2-1.8h1.1l-1.8,2.5,1.8,2.7h-1.1l-1.3-2-1.3,2h-1.1l1.8-2.7s-1.6-2.5-1.6-2.5Z"/>
    <path class="cls-5" d="M45.3,82.8h1.1l1.2,1.8,1.2-1.8h1.1l-1.8,2.5,1.8,2.7h-1.1l-1.3-2-1.3,2h-1.1l1.8-2.7s-1.6-2.5-1.6-2.5Z"/>
  </g>
  <path class="cls-7" d="M40.3,77.6s-5.2,5.4-8.9,5.8c-3.6,.4-5.8-1.6-6.6-3.3-.8-1.7-3.8-12.5-3-14.5s6.6-8.4,6.6-8.4l-2.9,1.4"/>
  <path class="cls-7" d="M75.1,82.1s-5.2,1.4-10.2,.6c-6-.9-8.3-5.2-8.6-7.3-.3-2,.3-5.4,3.9-7.3,1.8-1,5.2-1.4,7.2-1.4,4.2,0,9.8,2.3,9.2,2.3l-2.6-2.3"/>
</svg>