<?xml version="1.0" encoding="UTF-8"?>
<svg id="_レイヤー_1" data-name=" レイヤー 1" xmlns="http://www.w3.org/2000/svg" viewBox="0 0 110.8 128.8">
  <defs>
    <style>
      .cls-1 {
        fill: #fff;
      }

      .cls-2 {
        fill: #333330;
      }

      .cls-3 {
        fill: #ccc;
      }

      .cls-4 {
        fill: #d83523;
      }

      .cls-5 {
        fill: #898880;
      }

      .cls-6 {
        fill: #fbfbf9;
        stroke: #b0afa7;
        stroke-width: .8px;
      }

      .cls-7 {
        stroke: #e7211a;
        stroke-width: .5px;
      }

      .cls-7, .cls-8 {
        fill: none;
      }

      .cls-8 {
        stroke: #d8d6cf;
        stroke-dasharray: 0 0 0 0 0 0 3 3;
        stroke-width: .4px;
      }
    </style>
  </defs>
  <path class="cls-6" d="M3.4,.4H107.4c1.7,0,3,1.3,3,3V107.4c0,1.7-1.3,3-3,3H3.4c-1.7,0-3-1.3-3-3V3.4c0-1.7,1.3-3,3-3Z"/>
  <line class="cls-8" x1="55.4" y1=".4" x2="55.4" y2="110.4"/>
  <line class="cls-8" x1=".4" y1="55.4" x2="110.4" y2="55.4"/>
  <path class="cls-2" d="M53.4,125.5c1.3-.6,2.3-1.1,3.5-1.1,1.3,0,2.2,.8,2.2,1.7,0,1-1,1.8-1.7,2.1-.8,.3-1.8,.6-2.4,.6-.1,0-.2,0-.2-.1s0-.1,.1-.1c.5-.1,1.5-.5,2-.8,.7-.5,1.3-1.1,1.3-1.8s-.4-1.1-1.2-1.1c-1,0-1.8,.5-2.5,.9-.3,.2-.5,.3-.7,.5-.1,.1-.2,.1-.3,.1-.2,0-.5-.2-.7-.4-.1-.1-.1-.2-.1-.3v-.7c0-.5,0-1,.2-1.6,.2-.7,.5-1.5,.7-1.8l.1-.1c.1,0,.1,.1,.1,.3s0,.3-.1,.5c-.3,1-.3,2-.3,3v.2h0Zm1-4.6s0-.1,0,0c.5-.4,.7-.6,.7-.7v-.1c-.2-.3-.4-.5-.7-.8l-.1-.1c0-.1,.1-.1,.1-.1h.2c.4,.1,.8,.3,1.2,.6,.3,.3,.4,.5,.4,.8,0,.2-.2,.3-.3,.3h-.7c-.1,0-.3,.1-.5,.1h-.1c-.1,.1-.2,.1-.2,0Z"/>
  <g id="_ら" data-name=" ら">
    <g>
      <circle class="cls-4" cx="40.6" cy="17.5" r="5.2"/>
      <path class="cls-1" d="M41.5,21h-1.4v-4.8h-1.7v-.9c.4,0,.7,0,.9-.1,.3-.1,.5-.2,.7-.4,.1-.1,.2-.3,.3-.5,0-.1,.1-.2,.1-.3h1.1s0,7,0,7Z"/>
    </g>
    <g>
      <circle class="cls-4" cx="32.9" cy="35.7" r="5.2"/>
      <path class="cls-1" d="M33.6,33.1c-.2-.2-.4-.3-.7-.3-.4,0-.7,.2-.9,.5-.1,.2-.1,.5-.2,.9h-1.3c0-.6,.1-1.1,.3-1.4,.4-.7,1-1,2-1,.7,0,1.3,.2,1.8,.6,.4,.4,.7,1,.7,1.6,0,.5-.2,1-.5,1.4-.2,.3-.5,.6-1,.9l-.6,.4c-.3,.2-.6,.4-.7,.5-.1,.1-.2,.2-.3,.4h3.1v1.2h-4.8c0-.5,.1-1,.3-1.4,.2-.5,.7-1,1.4-1.5,.6-.5,1-.8,1.2-1,.3-.3,.4-.6,.4-1,.1-.4,0-.6-.2-.8Z"/>
    </g>
    <path class="cls-5" d="M44.6,87.5c2,0,3.6,1.6,3.6,3.6s-1.6,3.6-3.6,3.6-3.6-1.6-3.6-3.6,1.7-3.6,3.6-3.6Z"/>
    <path class="cls-5" d="M65.6,33.3l-2,5.4h-.8l-2-5.4h.9l1.1,3.1c.2,.5,.3,.9,.4,1.4h0c.1-.4,.3-.9,.4-1.4l1.1-3.1s.9,0,.9,0Z"/>
  </g>
  <g>
    <path class="cls-3" d="M39.2,66.1c8.5-3.9,15.3-7.3,23.7-7.3,8.9,0,14.4,5.5,14.4,11.4,0,6.9-6.9,11.7-11.5,13.7-5.1,2.2-12,4.2-16.2,4.2-.7,0-1.2-.3-1.2-.9,0-.4,.3-.8,1-1,3.4-.8,10-3.4,13.1-5.4,4.7-3,8.6-7.3,8.6-12.1s-2.7-7-7.7-7c-6.6,0-12.1,3-16.9,6.1-1.7,1-3.2,2-4.6,3.1-.6,.4-1.1,.7-1.9,.7-1.3,0-3.6-1.2-4.6-2.7-.4-.6-.6-1.1-.6-1.8,0-.6,.2-1.3,.2-2.2,0-.8-.1-1.7-.1-2.6,0-3.1,.3-6.6,1-11,1-5,3-9.8,4.5-11.8,.4-.6,.6-.9,1-.9s.7,.4,.7,2.2c0,1-.2,2.1-.6,3.4-1.8,6.7-2.3,13.3-2.3,20.2,0,0,0,1.7,0,1.7Zm7-30.8c0-.2,.1-.4,.4-.6,3-2.1,4.2-3.2,4.2-3.8,0-.2-.1-.4-.2-.7-1.2-2.1-2.5-3.4-4.8-5.1-.3-.2-.4-.5-.4-.6,0-.4,.6-.8,1-.8,.5,0,1,.1,1.4,.2,2.4,.5,5.1,1.9,7.7,4.2,2.1,2.1,2.6,3.6,2.6,5.1,0,1.4-1,1.8-2.2,1.8-1,0-1.5-.1-1.9-.1-.7,0-1.5,.1-2.5,.3-.9,.2-2.2,.6-3.6,.9-.3,.1-.4,.1-.6,.1-.6-.2-1.1-.5-1.1-.9Z"/>
    <path class="cls-7" d="M36.8,72.9v5.3s6.9-6.3,9.4-8,5.7-3.5,5.7-3.5l-2.1,3.1"/>
    <path class="cls-7" d="M72.9,60s5.8,2,6.3,8.2-3.8,11.6-3.8,11.6l3.2-1.5"/>
  </g>
</svg>