<?xml version="1.0" encoding="UTF-8"?>
<svg id="_レイヤー_1" data-name=" レイヤー 1" xmlns="http://www.w3.org/2000/svg" viewBox="0 0 110.8 128.8">
  <defs>
    <style>
      .cls-1 {
        fill: #fff;
      }

      .cls-2 {
        fill: #333330;
      }

      .cls-3 {
        fill: #ccc;
      }

      .cls-4 {
        fill: #d83523;
      }

      .cls-5 {
        fill: #898880;
      }

      .cls-6 {
        fill: #fbfbf9;
        stroke: #b0afa7;
        stroke-width: .8px;
      }

      .cls-7 {
        stroke: #e7211a;
        stroke-width: .5px;
      }

      .cls-7, .cls-8 {
        fill: none;
      }

      .cls-8 {
        stroke: #d8d6cf;
        stroke-dasharray: 0 0 0 0 0 0 3 3;
        stroke-width: .4px;
      }
    </style>
  </defs>
  <path class="cls-6" d="M3.4,.4H107.4c1.7,0,3,1.3,3,3V107.4c0,1.7-1.3,3-3,3H3.4c-1.7,0-3-1.3-3-3V3.4c0-1.7,1.3-3,3-3Z"/>
  <line class="cls-8" x1="55.4" y1=".4" x2="55.4" y2="110.4"/>
  <line class="cls-8" x1=".4" y1="55.4" x2="110.4" y2="55.4"/>
  <path class="cls-3" d="M45.3,84c0,3.4-1,4.2-2,4.2-1.2,0-1.8-.6-2.3-2.1-.6-1.6-1-3-1-4.3,0-.6,.1-1.1,.2-1.7,.2-.8,.5-2.6,.5-4.9,.1-3.9,.2-7.9,.4-12.5-1.4,1.1-2.6,2.2-4.1,3.5-1.2,1.1-2.7,2.2-6.9,5.8-.6,.5-1.1,.7-1.7,.7-.5,0-.8-.1-1.6-1.2-1-1.4-1.2-1.8-1.2-2.3s.2-1,.9-1.4c1.8-1.4,3.4-3,4.8-5,3.7-5.4,8.4-12.5,10.9-17.7,.1-1,.1-2,.2-2.9-2.6,.9-5.4,2-9,3.5-.6,.2-1,.4-1.4,.4s-.9-.2-1.5-.5c-.8-.4-2.9-2-2.9-2.6,0-.4,.3-.8,.9-.8,1.2,0,2.5-.1,4.8-.7,2.8-.8,6.3-2,9.4-3.2,.2-3.4,.6-8.4,.6-10.8,0-2-.1-3.8-.6-4.6-.2-.3-.2-.6-.2-.9,0-.4,.3-.7,.9-.7s3.2,1,4.7,2.1c.8,.6,1.1,1.3,1.1,1.9,0,.5-.2,1-.4,1.4-.4,1-.6,2-1,4.4-.5,3.2-.6,4.3-.7,5,.4-.2,.7-.2,1-.2,.9,0,1.7,.5,2.7,1.8,.4,.6,.6,1,.6,1.1,0,.5-.4,.9-1,1.4-.7,.6-2.2,2.5-2.7,3.4-.7,1-1.2,1.8-1.6,2.6-.2,1.2-.2,2.2-.2,3.5-.1,1.3-.1,2.6-.2,4.2,8.7-7,17.1-13.7,24.1-19.1,1.4-1.1,2.4-2.2,3.2-3.8,.6-1.1,1.5-1.4,2.4-1.4,1.4,0,2.8,.9,3.4,1.4,.6,.4,.7,1,.7,1.7,0,.6-.2,1.2-.3,1.8-.3,1.3-.5,3.5-.7,6.4-.3,3.4-.4,7.6-.4,11.9,0,6.2,.2,12.5,.7,16.2,.4,3,1,4.7,2,5.8s2.3,1.5,3.4,1.5c3.5,0,7.6-2,10.3-4.7,.5-.5,.9-.6,1.2-.6,.5,0,.9,.3,.9,.8,0,.3-.2,.6-.4,1-2.8,4.2-7.1,7.7-12.2,7.7s-8.6-2.8-9.6-9.5c-1-6.6-1.3-13.3-1.3-19.9,0-4.8,.2-9.6,.2-14.2,0-.6-.2-1-.5-1-.2,0-.3,.1-.6,.3-8.4,7-16.7,13.8-26.8,22.4-.2,4.1-.2,8.5-.2,12.9,0,3.8,.1,7.8,.2,11.6v.9s-.1,0-.1,0Zm-11.1-21.4c-.5,.6-.6,.6-.6,.8s.1,.2,.2,.2,.2-.1,.9-.6c1.8-1.5,4.2-3.4,6.6-5.4,.1-1.7,.2-3.4,.3-5-2.4,3.5-5.1,7.3-7.4,10Z"/>
  <path class="cls-2" d="M55.1,128.2c0,.5-.2,.6-.3,.6-.2,0-.3-.1-.3-.3-.1-.2-.2-.4-.2-.6v-.3c0-.1,.1-.4,.1-.7,0-.6,0-1.2,.1-1.9-.2,.2-.4,.3-.6,.5s-.4,.3-1,.9c-.1,.1-.2,.1-.3,.1s-.1,0-.2-.2c-.2-.2-.2-.3-.2-.3,0-.1,0-.2,.1-.2,.3-.2,.5-.4,.7-.7,.6-.8,1.3-1.9,1.6-2.7v-.4c-.4,.1-.8,.3-1.3,.5-.1,0-.2,.1-.2,.1-.07,0-.13-.03-.2-.1-.1-.1-.4-.3-.4-.4s0-.1,.1-.1c.2,0,.4,0,.7-.1,.4-.1,.9-.3,1.4-.5,0-.5,.1-1.3,.1-1.6s0-.6-.1-.7v-.1c0-.07,.03-.1,.1-.1,.1,0,.5,.1,.7,.3,.1,.1,.2,.2,.2,.3s0,.1-.1,.2-.1,.3-.2,.7c-.1,.5-.1,.6-.1,.8h.2c.1,0,.3,.1,.4,.3,.07,.07,.1,.13,.1,.2,0,.1-.1,.1-.2,.2-.1,.1-.3,.4-.4,.5-.1,.2-.2,.3-.2,.4v1.1c1.3-1.1,2.6-2.1,3.6-2.9,.2-.2,.4-.3,.5-.6,.1-.2,.2-.2,.4-.2s.4,.1,.5,.2,.1,.2,.1,.3v.3c0,.2-.1,.5-.1,1s-.1,1.1-.1,1.8c0,.9,0,1.9,.1,2.4,.1,.4,.2,.7,.3,.9,.2,.2,.3,.2,.5,.2,.5,0,1.1-.3,1.5-.7,.07-.07,.13-.1,.2-.1s.1,.03,.1,.1q0,.1-.1,.2c-.4,.6-1.1,1.2-1.8,1.2s-1.3-.4-1.4-1.4c-.2-1-.2-2-.2-3v-2.1c0-.07-.03-.1-.1-.1h-.1c-1.3,1.1-2.5,2.1-4,3.4v3.4h0Zm-1.7-3.2l-.1,.1h0c.07,0,.1-.03,.1-.1,.4-.2,.7-.5,1.1-.7v-.8c-.3,.5-.7,1.1-1.1,1.5Z"/>
  <g>
    <g id="_れ" data-name=" れ">
      <g>
        <circle class="cls-4" cx="42.8" cy="15.2" r="5.2"/>
        <path class="cls-1" d="M43.7,18.7h-1.4v-4.8h-1.6v-.9c.4,0,.7,0,.9-.1,.3-.1,.5-.2,.7-.4,.1-.1,.2-.3,.3-.5,0-.1,.1-.2,.1-.3h1.1v7h-.1Z"/>
      </g>
      <g>
        <circle class="cls-4" cx="21.9" cy="43.3" r="5.2"/>
        <path class="cls-1" d="M22.6,40.7c-.2-.2-.4-.3-.7-.3-.4,0-.7,.2-.9,.5-.1,.2-.1,.5-.2,.9h-1.3c0-.6,.1-1.1,.3-1.4,.4-.7,1-1,2-1,.7,0,1.3,.2,1.8,.6,.4,.4,.7,1,.7,1.6,0,.5-.2,1-.5,1.4-.2,.3-.5,.6-1,.9l-.6,.4c-.3,.2-.6,.4-.7,.5s-.2,.2-.3,.4h3.1v1.2h-4.8c0-.5,.1-1,.3-1.4,.2-.5,.7-1,1.4-1.5,.6-.5,1-.8,1.2-1,.3-.3,.4-.6,.4-1,.1-.4,0-.6-.2-.8Z"/>
      </g>
      <path class="cls-5" d="M100.6,72.4c2,0,3.6,1.6,3.6,3.6s-1.6,3.6-3.6,3.6-3.6-1.6-3.6-3.6,1.6-3.6,3.6-3.6Z"/>
      <path class="cls-5" d="M40.1,90.9h1.1l1.2,1.8,1.2-1.8h1.1l-1.8,2.5,1.8,2.7h-1.1l-1.3-2-1.3,2h-1.1l1.8-2.7s-1.6-2.5-1.6-2.5Z"/>
    </g>
    <polyline class="cls-7" points="51.6 36.9 57.1 34.9 47.4 45.8 50.4 44.3"/>
    <polyline class="cls-7" points="26.1 73.7 23.1 78.2 36.6 68.4 34.7 71.7"/>
    <polyline class="cls-7" points="79.6 29.2 82.1 27.3 80 47.2 81.8 43.3"/>
    <path class="cls-7" d="M72.6,73.3s2.6,8.1,7,9,8.6-.8,8.6-.8l-1.8,1.9"/>
  </g>
</svg>