<?xml version="1.0" encoding="UTF-8"?>
<svg id="_レイヤー_1" data-name=" レイヤー 1" xmlns="http://www.w3.org/2000/svg" viewBox="0 0 110.8 128.4">
  <defs>
    <style>
      .cls-1 {
        fill: #fff;
      }

      .cls-2 {
        fill: #333330;
      }

      .cls-3 {
        fill: #ccc;
      }

      .cls-4 {
        fill: #d83523;
      }

      .cls-5 {
        fill: #898880;
      }

      .cls-6 {
        fill: #fbfbf9;
        stroke: #b0afa7;
        stroke-width: .8px;
      }

      .cls-7 {
        stroke: #e7211a;
        stroke-width: .5px;
      }

      .cls-7, .cls-8 {
        fill: none;
      }

      .cls-8 {
        stroke: #d8d6cf;
        stroke-dasharray: 0 0 0 0 0 0 3 3;
        stroke-width: .4px;
      }
    </style>
  </defs>
  <path class="cls-6" d="M3.4,.4H107.4c1.7,0,3,1.3,3,3V107.4c0,1.7-1.3,3-3,3H3.4c-1.7,0-3-1.3-3-3V3.4c0-1.7,1.3-3,3-3Z"/>
  <line class="cls-8" x1="55.4" y1=".4" x2="55.4" y2="110.4"/>
  <line class="cls-8" x1=".4" y1="55.4" x2="110.4" y2="55.4"/>
  <path class="cls-3" d="M36.6,32c0-3.1-.6-4.4-1.4-5.8-.1-.2-.2-.3-.2-.5,0-.5,.3-.9,.9-.9s2.4,.8,4,1.8c2.5,1.6,3.3,2.8,3.3,4.1,0,.6-.2,1.1-.5,1.6-.7,1.3-.7,2.4-1,5.4-.9,7.8-2.1,21-2.1,28.3s.6,11.8,3,14.1c2.2,2,4.6,2.6,7.8,2.6,7,0,16.6-5.1,23.6-15.8,.4-.7,.8-.9,1.2-.9,.6,0,1,.6,1,1.2,0,.2-.1,.5-.2,.8-5.3,12.2-14.5,19.2-23.8,19.2-6.4,0-9.3-1.5-12.3-4.3-3.4-3.3-5.3-7-5.3-16.4,0-6.4,1.2-22.1,1.8-32.8,0,0,.2-1.7,.2-1.7Z"/>
  <path class="cls-2" d="M53.2,120.2c0-.5-.1-.7-.2-.9v-.1c0-.07,.03-.1,.1-.1,.1,0,.4,.1,.6,.3,.4,.2,.5,.4,.5,.6,0,.1,0,.2-.1,.2-.1,.2-.1,.4-.2,.8-.1,1.2-.3,3.2-.3,4.2,0,1.1,.1,1.8,.5,2.1,.3,.3,.7,.4,1.2,.4,1,0,2.5-.8,3.5-2.4,.07-.07,.13-.1,.2-.1,.1,0,.2,.1,.2,.2v.1c-.8,1.8-2.2,2.9-3.6,2.9-1,0-1.4-.2-1.8-.6-.5-.5-.8-1-.8-2.5,0-1,.2-3.3,.3-4.9,0,0-.1-.2-.1-.2Z"/>
  <g id="_し" data-name=" し">
    <g>
      <circle class="cls-4" cx="34.8" cy="17.2" r="5.3"/>
      <path class="cls-1" d="M35.7,20.7h-1.4v-4.9h-1.7v-.9c.4,0,.7,0,.9-.1,.3-.1,.5-.2,.7-.4,.1-.1,.2-.3,.3-.5,0-.1,.1-.2,.1-.3h1.2v7.1h-.1Z"/>
    </g>
    <path class="cls-5" d="M81.3,64.7c2,0,3.6,1.6,3.6,3.6s-1.6,3.6-3.6,3.6-3.6-1.6-3.6-3.6,1.6-3.6,3.6-3.6Z"/>
  </g>
  <path class="cls-7" d="M32.5,67.4s-2.1,12.9,6.7,18.1c8.8,5.2,17.1,4,21.4,2.4,4.3-1.5,7.5-5,7.5-5l-1.5,3.5"/>
</svg>