<?xml version="1.0" encoding="UTF-8"?>
<svg id="_レイヤー_1" data-name=" レイヤー 1" xmlns="http://www.w3.org/2000/svg" viewBox="0 0 110.8 128.8">
  <defs>
    <style>
      .cls-1 {
        fill: #fff;
      }

      .cls-2 {
        fill: #333330;
      }

      .cls-3 {
        fill: #ccc;
      }

      .cls-4 {
        fill: #d83523;
      }

      .cls-5 {
        fill: #898880;
      }

      .cls-6 {
        fill: #fbfbf9;
        stroke: #b0afa7;
        stroke-width: .8px;
      }

      .cls-7 {
        stroke: #e7211a;
        stroke-width: .5px;
      }

      .cls-7, .cls-8 {
        fill: none;
      }

      .cls-8 {
        stroke: #d8d6cf;
        stroke-dasharray: 0 0 0 0 0 0 3 3;
        stroke-width: .4px;
      }
    </style>
  </defs>
  <path class="cls-6" d="M3.4,.4H107.4c1.7,0,3,1.3,3,3V107.4c0,1.7-1.3,3-3,3H3.4c-1.7,0-3-1.3-3-3V3.4c0-1.7,1.3-3,3-3Z"/>
  <line class="cls-8" x1="55.4" y1=".4" x2="55.4" y2="110.4"/>
  <line class="cls-8" x1=".4" y1="55.4" x2="110.4" y2="55.4"/>
  <path class="cls-3" d="M69.7,45.2c3-1.4,6-2.7,8.4-2.7,1,0,1.8,.2,2.6,1,.7,.6,1.3,1.7,1.3,2.4,0,.6-.5,1.2-2.1,1.5-1.9,.4-4.3,1.1-5.7,1.8-11.7,5.4-17.1,11.8-17.1,20,0,3.6,1.7,7.1,5.8,9.8,1,.6,3,1.3,4.1,2,2.1,1.5,2.7,2.3,2.7,4.2,0,1-.8,1.8-2.1,1.8-.9,0-1.9-.2-3.3-1-8.4-4.2-11.1-10.1-11.1-16,0-8.6,5-15.6,11.7-20.4-9,1.8-19.5,3.9-28.2,5.8-1.5,.3-3.8,.9-5.9,1.5-.6,.2-1.1,.3-1.5,.3-.6,0-1-.2-1.4-.9-1-1.9-1.3-3.3-1.3-3.8,0-.6,.4-.6,1.1-.7,1.8-.2,5.4-1.5,9.1-4.2,7.4-5.2,15.4-12.4,22.4-19.6,.5-.5,.8-.9,.8-1s-.1-.2-.2-.2-1.3,.3-1.8,.5c-3.4,1-9.4,2.6-12.3,3.5-1.3,.4-2.2,.8-3.2,1.1-.6,.2-1,.3-1.5,.3-.6,0-1-.2-1.7-.7-2-1.8-3-3.4-3-3.8s.3-.6,.9-.6,1,.1,2.1,.1,2.4-.1,3.8-.3c4.1-.6,9.8-1.6,15.3-2.7,1.8-.3,3.4-.8,4.8-2.2,.2-.2,.7-.3,1.1-.3,.5,0,1.4,.5,2.8,1.8s1.9,2.5,1.9,2.9-.2,.7-.7,1.1c-2.2,1.7-5,4-6.5,5.2-7.1,5.8-16.4,13-25.6,18.9,11.4-2.3,23.3-4.6,33.5-6.4h0Z"/>
  <path class="cls-2" d="M58.5,122.5c.5-.2,.9-.4,1.3-.4,.2,0,.3,0,.4,.1,.1,.1,.2,.3,.2,.4s-.1,.2-.3,.2c-.3,.1-.6,.2-.9,.3-1.8,.8-2.6,1.8-2.6,3,0,.5,.3,1.1,.9,1.5,.2,.1,.5,.2,.6,.3,.3,.2,.4,.3,.4,.6,0,.1-.1,.3-.3,.3-.1,0-.3,0-.5-.1-1.3-.6-1.7-1.5-1.7-2.4,0-1.3,.8-2.3,1.8-3.1-1.4,.3-2.9,.6-4.2,.9-.2,0-.6,.1-.9,.2h-.2c-.1,0-.2,0-.2-.1-.1-.3-.2-.5-.2-.6s.1-.1,.2-.1c.3,0,.8-.2,1.4-.6,1.1-.8,2.3-1.9,3.4-2.9,.07-.07,.1-.13,.1-.2h0s-.2,0-.3,.1c-.5,.1-1.4,.4-1.8,.5-.2,.1-.3,.1-.5,.2h-.2c-.1,0-.2,0-.3-.1-.3-.3-.4-.5-.4-.6s0-.1,.1-.1h.9c.6-.1,1.5-.2,2.3-.4,.3,0,.5-.1,.7-.3h.2c.1,0,.2,.1,.4,.3s.3,.4,.3,.4c0,.07-.03,.13-.1,.2-.3,.3-.7,.6-1,.8-1.1,.9-2.5,1.9-3.8,2.8,1.5-.4,3.3-.8,4.8-1.1Z"/>
  <g id="_そ" data-name=" そ">
    <g>
      <circle class="cls-4" cx="29.6" cy="28.6" r="5.3"/>
      <path class="cls-1" d="M31,32.1h-1.4v-4.9h-1.7v-.9c.4,0,.7,0,.9-.1,.3-.1,.5-.2,.7-.4,.1-.1,.2-.3,.3-.5,0-.1,.1-.2,.1-.3h1.2v7.1h-.1Z"/>
    </g>
    <path class="cls-5" d="M70.8,83.3h1.1l1.2,1.8,1.2-1.8h1.1l-1.8,2.5,1.8,2.7h-1l-1.3-2-1.3,2h-1.1l1.8-2.7s-1.7-2.5-1.7-2.5Z"/>
  </g>
  <path class="cls-7" d="M70,22.8c.3-.1,6.7-.8,6.7-.8l-13.7,11.9,4.8-1.8"/>
  <polyline class="cls-7" points="25.3 56.7 19.9 61.9 44 56.7 40.5 59.3"/>
  <path class="cls-7" d="M83.4,46.1l9.3-.1s-15.1,4.1-18.7,5.8c-3.5,1.8-6.4,3.3-8.6,5.3-2.7,2.4-4.4,6.6-4.4,6.6l3.2-2.7"/>
</svg>