<?xml version="1.0" encoding="UTF-8"?>
<svg id="_レイヤー_1" data-name=" レイヤー 1" xmlns="http://www.w3.org/2000/svg" viewBox="0 0 110.8 127.9">
  <defs>
    <style>
      .cls-1 {
        fill: #fff;
      }

      .cls-2 {
        fill: #333330;
      }

      .cls-3 {
        fill: #ccc;
      }

      .cls-4 {
        fill: #d83523;
      }

      .cls-5 {
        fill: #898880;
      }

      .cls-6 {
        fill: #fbfbf9;
        stroke: #b0afa7;
        stroke-width: .8px;
      }

      .cls-7 {
        stroke: #e7211a;
        stroke-width: .5px;
      }

      .cls-7, .cls-8 {
        fill: none;
      }

      .cls-8 {
        stroke: #d8d6cf;
        stroke-dasharray: 0 0 0 0 0 0 3 3;
        stroke-width: .4px;
      }
    </style>
  </defs>
  <path class="cls-6" d="M3.4,.4H107.4c1.7,0,3,1.3,3,3V107.4c0,1.7-1.3,3-3,3H3.4c-1.7,0-3-1.3-3-3V3.4c0-1.7,1.3-3,3-3Z"/>
  <line class="cls-8" x1="55.4" y1=".4" x2="55.4" y2="110.4"/>
  <line class="cls-8" x1=".4" y1="55.4" x2="110.4" y2="55.4"/>
  <path class="cls-3" d="M66.4,36.3c2.6-1.6,3.7-2.4,3.9-3.4,.2-.6,.3-1,.9-1,.8,0,3.2,1.4,4.1,2.6,.9,1,1.6,2.1,1.6,2.9,0,1-1,1.5-1.9,1.8-.7,.2-1.4,.5-2.3,.9-10,4.4-17.2,8.1-24.2,13-7.5,5.3-10.3,10.1-10.3,15.1,0,5.3,5,8,17.8,8,2.4,0,6.2-.3,9-.6,.7-.1,1.1-.2,2.4-.5,.9-.2,1.4-.3,2.1-.3,.6,0,1.2,.1,2.1,.2,1.4,.3,2.6,1.4,2.6,3,0,1-.6,2.1-2.6,2.4-3.8,.8-11,1-14.2,1-18.2,0-22.6-6.1-22.6-13.2,0-5.6,2.8-11.1,10.2-17.5-3.4-6.2-5.8-10.8-8.2-14.1-2.2-3.2-2.9-4.2-5.4-5.5-.4-.2-.6-.6-.6-1,0-.7,.5-1.2,1.3-1.3,.6-.1,1-.1,1.6-.1,1.1,0,2.2,.1,3.4,.3s1.9,.7,2.2,1.3c.3,.5,.7,1.1,1.4,2.2,2.7,4.8,5.3,10.1,7.8,15.3,5.2-3.7,13-8.6,17.9-11.5Z"/>
  <path class="cls-2" d="M58,121.2c.4-.2,.6-.4,.6-.5s0-.2,.1-.2,.5,.2,.6,.4c.1,.2,.2,.3,.2,.4s-.1,.2-.3,.3c-.1,0-.2,.1-.3,.1-1.5,.7-2.6,1.2-3.6,1.9-1.1,.8-1.5,1.5-1.5,2.3s.8,1.2,2.7,1.2c.4,0,.9,0,1.3-.1,.1,0,.2,0,.4-.1h.6c.2,0,.4,.2,.4,.5,0,.1-.1,.3-.4,.4-.6,.1-1.7,.1-2.1,.1-2.7,0-3.4-.9-3.4-2,0-.8,.4-1.7,1.5-2.6-.5-.9-.9-1.6-1.2-2.1s-.4-.6-.8-.8c-.1,0-.1-.1-.1-.2s.1-.2,.2-.2h.7c.2,0,.3,.1,.3,.2s.1,.2,.2,.3c.4,.7,.8,1.5,1.2,2.3,.8-.4,2-1.1,2.7-1.6h0Z"/>
  <g>
    <circle class="cls-4" cx="25.2" cy="25.7" r="5.3"/>
    <path class="cls-1" d="M26.1,29.2h-1.4v-4.9h-1.7v-.9c.4,0,.7,0,.9-.1,.3-.1,.5-.2,.7-.4,.1-.1,.2-.3,.3-.5,0-.1,.1-.2,.1-.3h1.2v7.1s-.1,0-.1,0Z"/>
  </g>
  <g>
    <circle class="cls-4" cx="83.4" cy="33.5" r="5.3"/>
    <path class="cls-1" d="M84,30.8c-.2-.2-.4-.3-.7-.3-.4,0-.7,.2-.9,.5-.1,.2-.1,.5-.2,.9h-1.4c0-.6,.1-1.1,.3-1.5,.4-.7,1-1.1,2-1.1,.7,0,1.3,.2,1.8,.6,.4,.4,.7,1,.7,1.6,0,.5-.2,1-.5,1.4-.2,.3-.5,.6-1,.9l-.6,.4c-.3,.2-.6,.4-.7,.5s-.2,.2-.3,.4h3.1v1.2h-4.8c0-.5,.1-1,.3-1.4,.2-.5,.7-1,1.4-1.5,.6-.5,1.1-.8,1.2-1,.3-.3,.4-.6,.4-1,.2-.2,.1-.4-.1-.6Z"/>
  </g>
  <path class="cls-5" d="M75.4,75.9h1.1l1.2,1.8,1.2-1.8h1.1l-1.8,2.5,1.8,2.7h-1.1l-1.3-2-1.3,2h-1.1l1.8-2.7s-1.6-2.5-1.6-2.5Z"/>
  <path class="cls-5" d="M36.8,47h1.1l1.2,1.8,1.2-1.8h1.1l-1.8,2.5,1.8,2.7h-1.1l-1.3-2-1.3,2h-1.1l1.8-2.7s-1.6-2.5-1.6-2.5Z"/>
  <path class="cls-7" d="M55.4,50.4s-10.7,7.9-13,11c-1.9,2.6-2.7,4.7-2.4,6.6s.9,3.8,4.5,5c4.3,1.4,9.3,1.4,9.3,1.4l-2.8-1.7"/>
</svg>