<?xml version="1.0" encoding="UTF-8"?>
<svg id="_レイヤー_1" data-name=" レイヤー 1" xmlns="http://www.w3.org/2000/svg" viewBox="0 0 110.8 127.34">
  <defs>
    <style>
      .cls-1 {
        fill: #fff;
      }

      .cls-2 {
        fill: #333330;
      }

      .cls-3 {
        fill: #ccc;
      }

      .cls-4 {
        fill: #d83523;
      }

      .cls-5 {
        fill: #898880;
      }

      .cls-6 {
        fill: #fbfbf9;
        stroke: #b0afa7;
        stroke-width: .8px;
      }

      .cls-7 {
        stroke: #e7211a;
        stroke-width: .5px;
      }

      .cls-7, .cls-8 {
        fill: none;
      }

      .cls-8 {
        stroke: #d8d6cf;
        stroke-dasharray: 0 0 0 0 0 0 3 3;
        stroke-width: .4px;
      }
    </style>
  </defs>
  <path class="cls-6" d="M3.4,.4H107.4c1.7,0,3,1.3,3,3V107.4c0,1.7-1.3,3-3,3H3.4c-1.7,0-3-1.3-3-3V3.4c0-1.7,1.3-3,3-3Z"/>
  <line class="cls-8" x1="55.4" y1=".4" x2="55.4" y2="110.4"/>
  <line class="cls-8" x1=".4" y1="55.4" x2="110.4" y2="55.4"/>
  <path class="cls-3" d="M55.9,73.5c0-.6,.3-.8,1-1,12.2-4.6,22.7-12.6,22.7-22.4,0-7.5-3.5-11.9-14.2-11.9-8.6,0-18.2,3.6-29.4,8-1.4,.6-2.5,1-4.5,1.7-.4,.2-.8,.2-1.3,.2-.7,0-1.4-.2-2.2-.7-2.6-1.8-3.9-3.8-3.9-4.6,0-.5,.3-.6,1.1-.6,2.6,0,6.6-.7,9.1-1.4,13.7-3.5,24.4-6.2,32.3-6.2,14.3,0,19.1,9,19.1,15.4,0,10.4-9.3,20.4-27.6,24.3-.3,.1-.6,.2-1,.2-.7,0-1.2-.5-1.2-1Z"/>
  <path class="cls-2" d="M56.7,127.3c0-.07,.07-.13,.2-.2,1.8-.7,3.4-1.9,3.4-3.4,0-1.1-.5-1.8-2.1-1.8-1.3,0-2.7,.5-4.4,1.2-.2,.1-.4,.1-.7,.3h-.2c-.1,0-.2,0-.3-.1-.4-.3-.6-.6-.6-.7s0-.1,.2-.1c.4,0,1-.1,1.4-.2,2.1-.5,3.7-.9,4.8-.9,2.1,0,2.9,1.4,2.9,2.3,0,1.6-1.4,3.1-4.1,3.6h-.2c-.2,.1-.3,0-.3,0Z"/>
  <g id="_つ" data-name=" つ">
    <g>
      <circle class="cls-4" cx="17" cy="45.2" r="5.3"/>
      <path class="cls-1" d="M18,48.7h-1.4v-4.9h-1.7v-.9c.4,0,.7,0,.9-.1,.3-.1,.5-.2,.7-.4,.1-.1,.2-.3,.3-.5,0-.1,.1-.2,.1-.3h1.2v7.1s-.1,0-.1,0Z"/>
    </g>
    <path class="cls-5" d="M59.4,75.7c2,0,3.6,1.6,3.6,3.6s-1.6,3.6-3.6,3.6-3.6-1.6-3.6-3.6c0-2.1,1.6-3.6,3.6-3.6Z"/>
  </g>
  <path class="cls-7" d="M59.3,33.3s10.7-2.1,17.5,.8c7.2,3.1,9.6,7.1,10.7,11.1s0,10.1-1.1,12.5-3.9,6.4-3.9,6.4l3.9-2.1"/>
</svg>