<?xml version="1.0" encoding="UTF-8"?>
<svg id="_レイヤー_1" data-name=" レイヤー 1" xmlns="http://www.w3.org/2000/svg" viewBox="0 0 110.8 126.8">
  <defs>
    <style>
      .cls-1 {
        fill: #fff;
      }

      .cls-2 {
        fill: #333330;
      }

      .cls-3 {
        fill: #ccc;
      }

      .cls-4 {
        fill: #d83523;
      }

      .cls-5 {
        fill: #898880;
      }

      .cls-6 {
        fill: #fbfbf9;
        stroke: #b0afa7;
        stroke-width: .8px;
      }

      .cls-7 {
        stroke: #e7211a;
        stroke-width: .5px;
      }

      .cls-7, .cls-8 {
        fill: none;
      }

      .cls-8 {
        stroke: #d8d6cf;
        stroke-dasharray: 0 0 0 0 0 0 3 3;
        stroke-width: .4px;
      }
    </style>
  </defs>
  <g id="_枠_う" data-name=" 枠 う">
    <path class="cls-6" d="M3.4,.4H107.4c1.7,0,3,1.3,3,3V107.4c0,1.7-1.3,3-3,3H3.4c-1.7,0-3-1.3-3-3V3.4c0-1.7,1.3-3,3-3Z"/>
    <line class="cls-8" x1="55.4" y1=".4" x2="55.4" y2="110.4"/>
    <line class="cls-8" x1=".4" y1="55.4" x2="110.4" y2="55.4"/>
  </g>
  <g id="_う" data-name=" う">
    <g>
      <circle class="cls-4" cx="43.9" cy="18.4" r="5.3"/>
      <path class="cls-1" d="M44.8,21.9h-1.4v-4.9h-1.7v-.9c.4,0,.7,0,.9-.1,.3-.1,.5-.2,.7-.4,.1-.1,.2-.3,.3-.5,0-.1,.1-.2,.1-.3h1.2v7.1h-.1Z"/>
    </g>
    <g>
      <circle class="cls-4" cx="25.6" cy="47.7" r="5.3"/>
      <path class="cls-1" d="M26.3,45c-.2-.2-.4-.3-.7-.3-.4,0-.7,.2-.9,.5-.1,.2-.1,.5-.2,.9h-1.4c0-.6,.1-1.1,.3-1.5,.4-.7,1-1.1,2-1.1,.7,0,1.3,.2,1.8,.6,.4,.4,.7,1,.7,1.6,0,.5-.2,1-.5,1.4-.2,.3-.5,.6-1,.9l-.6,.4c-.3,.2-.6,.4-.7,.5s-.2,.2-.3,.4h3.1v1.2h-4.8c0-.5,.1-1,.3-1.4,.2-.5,.7-1,1.4-1.5,.6-.5,1.1-.8,1.2-1,.3-.3,.4-.6,.4-1,.2-.1,.1-.4-.1-.6Z"/>
    </g>
    <path class="cls-5" d="M66,30.9h1.1l1.2,1.8,1.2-1.8h1.1l-1.8,2.5,1.8,2.7h-1.1l-1.3-2-1.3,2h-1.1l1.8-2.7s-1.6-2.5-1.6-2.5Z"/>
    <path class="cls-5" d="M50.8,88.4c2,0,3.6,1.6,3.6,3.6s-1.6,3.6-3.6,3.6-3.6-1.6-3.6-3.6,1.7-3.6,3.6-3.6Z"/>
  </g>
  <path class="cls-3" d="M35.7,45.5c1.1-.2,2.9-.7,6-1.8,7.8-2.6,11.9-3.8,16.6-3.8,9.6,0,12.1,7.4,12.1,18,0,15.6-9.4,25.2-16.7,29.5-.4,.2-.7,.3-1,.3-.5,0-.8-.4-.8-.8,0-.2,.1-.5,.4-.8,8.2-7.8,12.3-18.2,12.3-28.4,0-10.7-1.7-15-6.3-15-3.3,0-6.6,1.3-13.5,4.6-3,1.5-4.8,3.4-6.1,3.4-1.8-.1-4.1-1.4-5.7-3.3-.2-.3-.3-.6-.3-.8,0-.5,.3-.8,.8-.8,.5-.1,1.3-.1,2.2-.3Zm26-21.3c2.8,1.4,4.4,3.3,4.4,5.3,0,1.4-.6,2.7-2.2,2.7-1.2,0-3-1.1-4.5-2.4-3.2-2.7-6.3-4.9-8.9-6.9-.6-.4-.8-.7-.8-1,0-.5,.3-.9,.8-.9,.2,0,.8,.1,1.3,.2,2.8,.5,6.4,1.3,9.9,3Z"/>
  <path class="cls-7" d="M38.6,41.9s16.9-4.3,21.3-3.8c4.9,.6,8.5,2.5,10.1,6,2.1,4.8,2.5,13.1,2.1,17.1-.7,6.6-2.7,10.5-2.7,10.5l2.7-2.9"/>
  <path class="cls-2" d="M52.8,120.6c.2,0,.4-.1,.9-.3,1.2-.4,1.8-.6,2.5-.6,1.4,0,1.8,1.1,1.8,2.7,0,2.3-1.4,3.8-2.5,4.4h-.2c-.1,0-.1-.1-.1-.1,0,0,0-.1,.1-.1,1.2-1.2,1.8-2.7,1.8-4.3s-.3-2.3-.9-2.3c-.5,0-1,.2-2,.7-.5,.2-.7,.5-.9,.5-.3,0-.6-.2-.9-.5v-.1c0-.07,.03-.1,.1-.1,0,.1,.1,.1,.3,.1Zm3.9-3.2c.4,.2,.7,.5,.7,.8,0,.2-.1,.4-.3,.4s-.5-.2-.7-.4c-.5-.4-.9-.7-1.3-1-.07-.07-.1-.13-.1-.2s.03-.1,.1-.1h.2c.3,.1,.8,.2,1.4,.5Z"/>
</svg>