<?xml version="1.0" encoding="UTF-8"?>
<svg id="_レイヤー_1" data-name=" レイヤー 1" xmlns="http://www.w3.org/2000/svg" viewBox="0 0 110.8 128.8">
  <defs>
    <style>
      .cls-1 {
        fill: #fff;
      }

      .cls-2 {
        fill: #333330;
      }

      .cls-3 {
        fill: #ccc;
      }

      .cls-4 {
        fill: #d83523;
      }

      .cls-5 {
        fill: #898880;
      }

      .cls-6 {
        fill: #fbfbf9;
        stroke: #b0afa7;
        stroke-width: .8px;
      }

      .cls-7 {
        stroke: #e7211a;
        stroke-width: .5px;
      }

      .cls-7, .cls-8 {
        fill: none;
      }

      .cls-8 {
        stroke: #d8d6cf;
        stroke-dasharray: 0 0 0 0 0 0 3 3;
        stroke-width: .4px;
      }
    </style>
  </defs>
  <path class="cls-6" d="M3.4,.4H107.4c1.7,0,3,1.3,3,3V107.4c0,1.7-1.3,3-3,3H3.4c-1.7,0-3-1.3-3-3V3.4c0-1.7,1.3-3,3-3Z"/>
  <line class="cls-8" x1="55.4" y1=".4" x2="55.4" y2="110.4"/>
  <line class="cls-8" x1=".4" y1="55.4" x2="110.4" y2="55.4"/>
  <path class="cls-2" d="M54.8,120.5c0,.1,0,.3,.1,.6,.1,.3,.2,.6,.3,1,.6-.2,1.1-.4,1.6-.5,1-.3,1.9-.5,2.7-.5,1.5,0,2.3,.7,2.3,1.9,0,1.3-1.4,1.9-2.4,1.9-.9,0-1.5-.3-2.1-.8v-.1s0-.1,.1-.1h.1c.4,.2,.9,.3,1.6,.3,1.2,0,1.9-.7,1.9-1.6,0-.8-.7-1.2-1.4-1.2-.9,0-2,.4-2.9,.7-.6,.2-.9,.3-1.4,.5,.5,1.8,1.1,4.1,1.6,5.6v.3c0,.2-.1,.3-.3,.3s-.3-.2-.4-.3c-.1-.1-.2-.4-.2-.5,0-.2-.1-.4-.1-.6-.4-1.6-.8-3.2-1.2-4.6-.5,.2-.9,.3-1.2,.5-.1,.1-.3,.1-.4,.2-.1,.1-.2,.1-.3,.1h-.2c-.3-.2-.6-.4-.6-.6,0,0,0-.1,.1-.1,.3,0,.6-.1,.9-.2,.4-.1,.9-.3,1.5-.5-.2-.6-.3-1.1-.5-1.5-.1-.4-.2-.6-.4-.9v-.1c0-.1,.1-.1,.2-.1,.3,0,.5,.1,.7,.2,.3,.2,.4,.3,.4,.5v.2h-.1Zm2.3-.3c.1,0,.1-.1,.1-.1,0-.2-.2-.5-.3-.7v-.1c0-.07,.03-.1,.1-.1h.1c.4,.1,.7,.5,.8,.7s.2,.5,.2,.6c0,.2-.1,.3-.2,.4-.1,0-.1,.1-.2,.1h-.1c-.3-.1-.8-.3-.9-.4l-.1-.1s0-.1,.2-.1c0,0,.3-.2,.3-.2Z"/>
  <g id="_や" data-name=" や">
    <g>
      <circle class="cls-4" cx="15.9" cy="53.8" r="5.2"/>
      <path class="cls-1" d="M16.8,57.3h-1.4v-4.9h-1.6v-.9c.4,0,.7,0,.9-.1,.3-.1,.5-.2,.7-.4,.1-.1,.2-.3,.3-.5,0-.1,.1-.2,.1-.3h1.1v7.1s-.1,0-.1,0Z"/>
    </g>
    <g>
      <circle class="cls-4" cx="58.9" cy="16.2" r="5.2"/>
      <path class="cls-1" d="M59.6,13.5c-.2-.2-.4-.3-.7-.3-.4,0-.7,.2-.9,.5-.1,.2-.1,.5-.2,.9h-1.3c0-.6,.1-1.1,.3-1.4,.4-.7,1-1,2-1,.7,0,1.3,.2,1.8,.6,.4,.4,.7,1,.7,1.6,0,.5-.2,1-.5,1.4-.2,.3-.5,.6-1,.9l-.6,.4c-.3,.2-.6,.4-.7,.5s-.2,.2-.3,.4h3.1v1.2h-4.8c0-.5,.1-1,.3-1.4,.2-.5,.7-1,1.4-1.5,.6-.5,1-.8,1.2-1,.3-.3,.4-.6,.4-1,.1-.3,0-.6-.2-.8Z"/>
    </g>
    <g>
      <circle class="cls-4" cx="32.1" cy="21.4" r="5.2"/>
      <path class="cls-1" d="M31.2,19.2c-.2,.2-.2,.5-.2,.8h-1.3c0-.3,.1-.7,.2-1s.3-.5,.5-.8c.2-.2,.4-.3,.6-.4s.6-.1,.9-.1c.7,0,1.2,.2,1.6,.5,.4,.3,.6,.8,.6,1.4,0,.4-.1,.8-.4,1-.2,.2-.3,.3-.5,.4,.1,0,.3,.1,.5,.3,.4,.3,.5,.8,.5,1.3,0,.6-.2,1.1-.6,1.6-.4,.4-1,.7-1.8,.7-1,0-1.7-.3-2.1-1-.2-.3-.3-.8-.3-1.4h1.4c0,.3,0,.5,.1,.7,.2,.3,.5,.5,.9,.5,.3,0,.5-.1,.7-.3s.3-.5,.3-.8c0-.5-.2-.8-.6-.9-.2-.1-.5-.1-1-.1v-1c.4,0,.8,0,.9-.1,.3-.1,.5-.4,.5-.8,0-.3-.1-.5-.2-.7-.2-.2-.4-.3-.7-.3-.1,.2-.3,.3-.5,.5Z"/>
    </g>
    <path class="cls-5" d="M49.4,90.3h1.1l1.2,1.8,1.2-1.8h1.1l-1.8,2.5,1.8,2.7h-1.1l-1.3-2-1.3,2h-1.1l1.8-2.7s-1.6-2.5-1.6-2.5Z"/>
    <path class="cls-5" d="M62.9,47.2c2,0,3.6,1.6,3.6,3.6s-1.6,3.6-3.6,3.6-3.6-1.6-3.6-3.6c0-2.1,1.6-3.6,3.6-3.6Z"/>
    <path class="cls-5" d="M70.5,28.7l-2,5.4h-.8l-2-5.4h.9l1.1,3.1c.2,.5,.3,.9,.4,1.4h0c.1-.4,.3-.9,.4-1.4l1.1-3.1s.9,0,.9,0Z"/>
  </g>
  <g>
    <path class="cls-3" d="M43.3,32.6c0,.8,.2,1.8,.6,3.7,.4,1.9,1.1,4.3,1.7,6.9,4.3-1.4,7.4-2.5,10.6-3.4,6.6-1.9,12.5-3.4,18.1-3.4,9.8,0,15.6,4.9,15.6,12.5,0,8.6-9,12.8-16,12.8-5.9,0-10.3-1.7-13.8-5.2-.2-.2-.3-.4-.3-.6,0-.3,.2-.5,.6-.5,.2,0,.5,.1,.9,.2,2.7,1.3,6,2.1,10.7,2.1,8,0,12.6-4.5,12.6-10.6,0-5.1-4.7-7.7-9.6-7.7-6.1,0-13.3,2.6-19,4.6-4.2,1.4-5.9,2.1-9.3,3.4,3.1,11.9,7.5,27.5,10.4,37.6,.2,.9,.3,1.6,.3,2.2,0,1.6-.7,2.2-1.9,2.2s-2.2-1.2-2.9-2.2c-.6-1-1.2-2.6-1.4-3.3-.3-1.4-.5-2.8-.8-4.2-2.7-10.9-5.5-21.5-8.1-30.8-3.3,1.3-5.8,2.3-8.1,3.3-1,.4-1.7,.8-2.7,1.4-.6,.4-1.2,.5-1.8,.5-.5,0-1-.1-1.4-.3-2-1.1-3.8-2.9-3.8-3.7,0-.3,.3-.6,1-.7,1.8-.2,4-.8,6-1.4,2.7-.8,6-1.8,9.8-3.2-1-3.7-2.1-7.1-3-10.1-.8-2.7-1.4-4-2.9-5.8-.2-.3-.3-.5-.3-.7,0-.6,.5-.9,1.2-.9,1.7,0,3.2,.5,4.6,1.1,2.2,1,2.6,2.2,2.6,3.4v.8h-.2Zm15.6-2c.7,0,1-.4,1-1,0-1.2-1.1-3.6-1.9-5-.2-.4-.3-.7-.3-1,0-.4,.3-.7,.8-.7,.2,0,.3,0,.6,.1,2.4,.9,4.4,3.3,5.2,4.6,.8,1.4,1,3.1,1,3.9,0,1.4-.6,2.2-1.3,2.6-.4,.2-.9,.4-1.4,.4-.3,0-.6-.1-.8-.2-2.2-.7-5.3-2.1-5.9-2.6-.2-.2-.4-.4-.4-.6,0-.3,.3-.6,1.1-.6l2.3,.1h0Z"/>
    <path class="cls-7" d="M78.4,34.1s9.3,.6,12,10c2.6,9.4-3.3,14-3.3,14l3-1.3"/>
  </g>
</svg>