<?xml version="1.0" encoding="UTF-8"?>
<svg id="_レイヤー_1" data-name=" レイヤー 1" xmlns="http://www.w3.org/2000/svg" viewBox="0 0 110.8 128.4">
  <defs>
    <style>
      .cls-1 {
        fill: #fff;
      }

      .cls-2 {
        fill: #333330;
      }

      .cls-3 {
        fill: #ccc;
      }

      .cls-4 {
        fill: #d83523;
      }

      .cls-5 {
        fill: #898880;
      }

      .cls-6 {
        fill: #fbfbf9;
        stroke: #b0afa7;
        stroke-width: .8px;
      }

      .cls-7 {
        stroke: #e7211a;
        stroke-width: .5px;
      }

      .cls-7, .cls-8 {
        fill: none;
      }

      .cls-8 {
        stroke: #d8d6cf;
        stroke-dasharray: 0 0 0 0 0 0 3 3;
        stroke-width: .4px;
      }
    </style>
  </defs>
  <path class="cls-6" d="M3.4,.4H107.4c1.7,0,3,1.3,3,3V107.4c0,1.7-1.3,3-3,3H3.4c-1.7,0-3-1.3-3-3V3.4c0-1.7,1.3-3,3-3Z"/>
  <line class="cls-8" x1="55.4" y1=".4" x2="55.4" y2="110.4"/>
  <line class="cls-8" x1=".4" y1="55.4" x2="110.4" y2="55.4"/>
  <path class="cls-2" d="M56.1,122.9c0,1.2,.1,2.3,.1,2.8v.7c1.2,.4,2.4,.7,3.1,1,.3,.1,.3,.3,.3,.4,0,.2-.2,.4-.4,.4h-.2c-1.2-.5-2.2-.8-3-1.1l-.3,.6c-.4,.5-1.1,.7-1.9,.7-.9,0-1.8-.7-1.8-1.2,0-.8,1.1-1.2,1.9-1.2,.4,0,1,.1,1.6,.2,0-1.2,0-2.5-.1-3.5,0-.9-.1-1.6-.1-2,0-.7-.1-1.1-.2-1.4v-.1c0-.1,.1-.1,.2-.1,.2,0,.5,.2,.7,.4,.2,.2,.3,.3,.3,.4s0,.2-.1,.2c-.1,.1-.1,.2-.1,.5v1h.5c.2,0,.6-.1,1-.3,.2-.1,.3-.1,.4-.2,.2-.1,.3-.1,.4-.1s.2,0,.3,.1c.2,.1,.3,.2,.3,.3s-.1,.2-.2,.3c-.4,.1-1.2,.3-1.7,.4-.2,0-.3,.1-.4,.1h-.3c-.07,0-.13-.03-.2-.1,0,0-.1,.8-.1,.8Zm-1.2,3.8c-.5-.1-.8-.3-1.2-.3-.6,0-1,.4-1,.9,0,.4,.6,.6,1.2,.6,.9,0,1.4-.4,1.6-1.1-.2,0-.4,0-.6-.1Z"/>
  <g id="_よ" data-name=" よ">
    <g>
      <circle class="cls-4" cx="45.3" cy="43.2" r="5.2"/>
      <path class="cls-1" d="M46.2,46.7h-1.4v-4.8h-1.6v-.9c.4,0,.7,0,.9-.1,.3-.1,.5-.2,.7-.4,.1-.1,.2-.3,.3-.5,0-.1,.1-.2,.1-.3h1.1v7h-.1Z"/>
    </g>
    <g>
      <circle class="cls-4" cx="53.4" cy="16.2" r="5.2"/>
      <path class="cls-1" d="M54.1,13.5c-.2-.2-.4-.3-.7-.3-.4,0-.7,.2-.9,.5-.1,.2-.1,.5-.2,.9h-1.3c0-.6,.1-1.1,.3-1.4,.4-.7,1-1,2-1,.7,0,1.3,.2,1.8,.6,.4,.4,.7,1,.7,1.6,0,.5-.2,1-.5,1.4-.2,.3-.5,.6-1,.9l-.6,.4c-.3,.2-.6,.4-.7,.5s-.2,.2-.3,.4h3.1v1.2h-4.8c0-.5,.1-1,.3-1.4,.2-.5,.7-1,1.4-1.5,.6-.5,1-.8,1.2-1,.3-.3,.4-.6,.4-1,.1-.3,0-.6-.2-.8Z"/>
    </g>
    <path class="cls-5" d="M82.7,81.7h1.1l1.2,1.8,1.2-1.8h1.1l-1.8,2.5,1.8,2.7h-1.1l-1.3-2-1.3,2h-1.1l1.8-2.7s-1.6-2.5-1.6-2.5Z"/>
    <path class="cls-5" d="M79,36.1h1.1l1.2,1.8,1.2-1.8h1.1l-1.8,2.5,1.8,2.7h-1.1l-1.3-2-1.3,2h-1.1l1.8-2.7s-1.6-2.5-1.6-2.5Z"/>
  </g>
  <g>
    <path class="cls-3" d="M58.2,49c.2,8,.6,15.1,.6,18.6,0,1.7-.1,3.2-.2,4.6,7.9,2.4,15.9,4.9,20.7,6.7,1.7,.7,2.3,1.8,2.3,2.9,0,1.4-1.1,2.6-2.4,2.6-.5,0-1-.1-1.2-.2-8.2-3.1-14.8-5.4-20.1-7.4-.4,1.5-1,2.8-1.8,3.8-2.8,3.5-7.1,5-13,5s-12.2-4.5-12.2-8c0-5.2,7.1-8.1,12.5-8.1,2.9,0,6.6,.7,10.7,1.6,0-8.1-.3-16.6-.6-23.6-.2-5.7-.5-10.4-.6-13-.1-4.4-.6-7.6-1.4-9.4-.2-.3-.2-.6-.2-.7,0-.6,.5-.9,1-.9,1,0,3.2,1.2,4.7,2.6s1.8,2.2,1.8,2.9c0,.5-.2,1.1-.5,1.4-.5,.6-.7,1.1-.7,3.3s.1,4.5,.1,6.9h.8c.8,0,1.6-.1,2.7-.3,1.4-.2,4.2-1,6.5-1.7,1-.4,2-.7,2.6-1,1-.6,1.8-.9,2.6-.9,.6,0,1.3,.2,2.1,.5,1.5,.6,2.2,1.4,2.2,2.3,0,.7-.6,1.4-1.6,1.8-2.9,.9-8.3,2.1-11.6,2.9-1,.2-1.9,.4-2.7,.4-.6,0-1.2-.1-1.8-.2-.4-.1-1-.3-1.6-.6,0,0,.3,5.2,.3,5.2Zm-8.1,25.2c-3.3-1-5.4-1.8-8.3-1.8-3.8,0-7,3-7,5.8,0,2.4,3.7,4.2,7.8,4.2,5.8,0,9.6-2.4,11-7-1.1-.4-2-.7-3.5-1.2Z"/>
    <path class="cls-7" d="M56.6,82.9s-2.1,4.1-12.6,4.4c-9.7,.2-13.9-6.3-14.3-7.5s-1.2-4.2,1.6-7.2c2.1-2.3,6.1-4.4,10.2-4.5,3.1-.1,7.5,1,7.5,1l-3.1-2.1"/>
  </g>
</svg>