<?xml version="1.0" encoding="UTF-8"?>
<svg id="_レイヤー_1" data-name=" レイヤー 1" xmlns="http://www.w3.org/2000/svg" viewBox="0 0 110.8 129">
  <defs>
    <style>
      .cls-1 {
        fill: #fff;
      }

      .cls-2 {
        fill: #333330;
      }

      .cls-3 {
        fill: #ccc;
      }

      .cls-4 {
        fill: #d83523;
      }

      .cls-5 {
        fill: #898880;
      }

      .cls-6 {
        fill: #fbfbf9;
        stroke: #b0afa7;
        stroke-width: .8px;
      }

      .cls-7 {
        stroke: #e7211a;
        stroke-width: .5px;
      }

      .cls-7, .cls-8 {
        fill: none;
      }

      .cls-8 {
        stroke: #d8d6cf;
        stroke-dasharray: 0 0 0 0 0 0 3 3;
        stroke-width: .4px;
      }
    </style>
  </defs>
  <path class="cls-6" d="M3.4,.4H107.4c1.7,0,3,1.3,3,3V107.4c0,1.7-1.3,3-3,3H3.4c-1.7,0-3-1.3-3-3V3.4c0-1.7,1.3-3,3-3Z"/>
  <line class="cls-8" x1="55.4" y1=".4" x2="55.4" y2="110.4"/>
  <line class="cls-8" x1=".4" y1="55.4" x2="110.4" y2="55.4"/>
  <path class="cls-2" d="M58,121.4c-1.4,.2-2.7,1.1-3.5,3-.3,.6-.4,1.2-.4,1.5v.9c0,.1,0,.2-.1,.3,0,.1-.1,.1-.2,.1-.2,0-.4-.1-.5-.4-.4-1-.6-2.7-.6-3.8v-1.7c0-.1,0-.2,.1-.2s.3,.2,.5,.7c.1,.2,.1,.3,.1,.4v1.4c0,.5,0,1.2,.2,1.9,.6-2.6,2.5-4.2,4.5-4.4v-.3c0-.8-.1-1-.4-1.4v-.1c0-.1,.1-.1,.2-.1s.4,.1,.7,.3c.2,.2,.3,.4,.3,.6v1.1c2,.1,2.4,1.8,2.4,2.7,0,2.1-1.4,3.6-3.2,3.7-.3,.5-.6,1-1,1.4h-.1c-.1,0-.2,0-.2-.1v-.1c.3-.4,.5-.8,.7-1.3-.5-.2-1.3-.7-1.4-1.8v-.1c0-.1,.1-.1,.1-.1,0,0,.1,0,.1,.1,.3,.7,.7,1.3,1.4,1.4,.1-.4,.2-.9,.3-1.7,.1-.8,.2-2,.2-3.1v-.8h-.2Zm2.4,2.1c0-1.2-.4-2-1.7-2.1,0,1.1-.1,2.4-.2,3-.1,.8-.3,1.8-.5,2.4,1.7-.3,2.4-2,2.4-3.3Z"/>
  <g>
    <circle class="cls-4" cx="28.6" cy="29.8" r="5.2"/>
    <path class="cls-1" d="M29.5,33.3h-1.4v-4.8h-1.7v-.9c.4,0,.7,0,.9-.1,.3-.1,.5-.2,.7-.4,.1-.1,.2-.3,.3-.5,0-.1,.1-.2,.1-.3h1.1s0,7,0,7Z"/>
  </g>
  <g>
    <circle class="cls-4" cx="64" cy="16.2" r="5.2"/>
    <path class="cls-1" d="M64.8,13.5c-.2-.2-.4-.3-.7-.3-.4,0-.7,.2-.9,.5-.1,.2-.1,.5-.2,.9h-1.3c0-.6,.1-1.1,.3-1.4,.4-.7,1-1,2-1,.7,0,1.3,.2,1.8,.6,.4,.4,.7,1,.7,1.6,0,.5-.2,1-.5,1.4-.2,.3-.5,.6-1,.9l-.6,.4c-.3,.2-.6,.4-.7,.5-.1,.1-.2,.2-.3,.4h3.1v1.2h-4.8c0-.5,.1-1,.3-1.4,.2-.5,.7-1,1.4-1.5,.6-.5,1-.8,1.2-1,.3-.3,.4-.6,.4-1,0-.3-.1-.6-.2-.8Z"/>
  </g>
  <path class="cls-5" d="M50.9,56.6c2,0,3.6,1.6,3.6,3.6s-1.6,3.6-3.6,3.6-3.6-1.6-3.6-3.6,1.7-3.6,3.6-3.6Z"/>
  <path class="cls-5" d="M52,87c2,0,3.6,1.6,3.6,3.6s-1.6,3.6-3.6,3.6-3.6-1.6-3.6-3.6,1.6-3.6,3.6-3.6Z"/>
  <g>
    <g>
      <path class="cls-3" d="M64.5,38.8c-9.3,1.4-18,7.6-23.7,19.8-1.8,3.9-2.7,7.8-2.9,9.8-.2,2.2-.3,3.8-.3,5.9,0,1-.1,1.6-.5,2.1-.3,.4-1,.7-1.5,.7-1.3,0-2.4-.9-3.2-2.7-3-6.7-3.8-17.9-3.8-25.6,0-1.5,0-2.9,.1-4.1,.1-1,.1-2.2,.1-3.5,0-2.9-.2-3.7-.2-4.1,0-.6,.2-1,.7-1,.6,0,2.1,1.4,3.6,4.6,.5,1,.6,1.9,.6,2.6,0,.6-.2,1.9-.3,2.9-.2,1.8-.3,2.8-.3,6.5,0,3.4,.2,8,1.2,12.6,4.1-17.1,16.8-27.9,30.3-29.5v-2.2c-.1-5.3-.4-6.8-2.6-9.4-.2-.2-.2-.5-.2-.7,0-.4,.4-.8,1-.8s2.8,.4,4.7,2.1c1.6,1.4,2.3,2.6,2.3,4v7c13,.8,15.8,11.7,15.8,18.3,0,14.3-9,24.2-21.4,24.5-1.8,3.6-4,6.6-7,9.4-.2,.2-.4,.2-.6,.2-.6,0-1-.3-1-1,0-.2,.1-.4,.2-.6,1.7-2.4,3.3-5.2,4.5-8.6-3.4-1.2-8.5-4.8-9.6-11.9-.07-.4-.1-.67-.1-.8,0-.6,.4-1,.8-1,.2,0,.5,.1,.6,.6,1.7,5,4.6,8.6,9.4,9.4,.8-2.7,1.5-5.7,2.2-11,.7-5.5,1-13.4,1-20.8v-3.7s.1,0,.1,0Zm16.1,14c0-8.2-2.6-13.6-11-14.2-.1,7.6-.6,15.8-1,20.1-.6,5.4-1.7,11.8-3,15.7,10.5-1.6,15-13.2,15-21.6Z"/>
      <path class="cls-7" d="M36.1,78.9l2,6.5s2.6-17.8,3.4-20.7c.8-3.1,4.5-12.4,4.5-12.4l-.7,4.3"/>
    </g>
    <path class="cls-7" d="M61.3,35s11.7-3.2,18.8,2.5c7.1,5.8,7.5,13.4,7,19.4s-3.2,14-7.6,17.9c-4.4,4-9.4,4.5-9.4,4.5l5,.4"/>
  </g>
</svg>