<?xml version="1.0" encoding="UTF-8"?>
<svg id="_レイヤー_1" data-name=" レイヤー 1" xmlns="http://www.w3.org/2000/svg" viewBox="0 0 110.8 128.5">
  <defs>
    <style>
      .cls-1 {
        fill: #fff;
      }

      .cls-2 {
        fill: #333330;
      }

      .cls-3 {
        fill: #ccc;
      }

      .cls-4 {
        fill: #d83523;
      }

      .cls-5 {
        fill: #898880;
      }

      .cls-6 {
        fill: #fbfbf9;
        stroke: #b0afa7;
        stroke-width: .8px;
      }

      .cls-7 {
        stroke: #d8d6cf;
        stroke-dasharray: 0 0 0 0 0 0 3 3;
        stroke-width: .4px;
      }

      .cls-7, .cls-8 {
        fill: none;
      }

      .cls-8 {
        stroke: #e7211a;
        stroke-miterlimit: 10;
      }
    </style>
  </defs>
  <path class="cls-6" d="M3.4,.4H107.4c1.7,0,3,1.3,3,3V107.4c0,1.7-1.3,3-3,3H3.4c-1.7,0-3-1.3-3-3V3.4c0-1.7,1.3-3,3-3Z"/>
  <line class="cls-7" x1="55.4" y1=".4" x2="55.4" y2="110.4"/>
  <line class="cls-7" x1=".4" y1="55.4" x2="110.4" y2="55.4"/>
  <path class="cls-3" d="M30,34.8c2.8-.1,4.7-.2,6.2-.4,15.3-1.8,28.4-3,41.4-3.7,1.4-.1,2.6-.3,3-.6,.3-.2,.7-.2,1.3-.2,.7,0,2.6,.9,4.4,2.6,1.4,1.4,1.9,1.9,1.9,2.8,0,.6-.5,1.1-1,1.4-1,.6-2.6,1.7-3.1,2.2-4.7,4.2-11.5,9.8-17,12.4-.2,.1-.3,.1-.5,.1-.6,0-1.1-.4-1.1-1,0-.3,.2-.6,.7-1.1,4.6-4.1,9.8-9.4,12.3-13.1,.3-.5,.4-.8,.4-1,0-.3-.2-.5-.8-.5-13.2,.6-26.2,2-36.4,3.7-3,.5-4.8,.7-6.9,1.3-.7,.2-1,.3-1.4,.3-.5,0-.9-.2-1.3-.5-1.9-1.7-3-3.1-3-3.8,0-.5,.3-.9,.9-.9Zm23.4,9.1c0-.6,.5-1,1.3-1,.6,0,3.4,.8,4.7,1.6,2.1,1.4,2.6,2.1,2.6,3.1,0,.3-.1,.6-.2,1-.5,1.4-.8,2.8-1,4.3-1.2,6.8-3,12.6-5.4,17.8-3,6.3-6.7,11.5-12.1,16-.3,.2-.6,.3-.9,.3-.5,0-.9-.6-.9-1,0-.2,.1-.5,.3-.8,4-5.1,7.4-11.4,9.6-17.6,1.8-4.9,3-9.8,3.5-14.1,.2-1.4,.3-2.7,.3-3.8,0-2.2-.4-3.8-1.4-5-.3-.1-.4-.5-.4-.8h0Z"/>
  <path class="cls-2" d="M52.2,120.7c.4,0,.7,0,.9-.1,2.3-.3,4.3-.4,6.2-.6,.2,0,.4,0,.5-.1h.2c.1,0,.4,.1,.7,.4,.2,.2,.3,.3,.3,.4s-.1,.2-.2,.2c-.2,.1-.4,.3-.5,.3-.7,.6-1.7,1.5-2.6,1.9h-.1c-.1,0-.2-.1-.2-.1,0,0,0-.1,.1-.2,.7-.6,1.5-1.4,1.8-2,0-.1,.1-.1,.1-.2,0,0,0-.1-.1-.1-2,.1-3.9,.3-5.5,.6-.5,.1-.7,.1-1,.2h-.2c-.07,0-.13-.03-.2-.1-.3-.3-.4-.5-.4-.6,.07,.07,.13,.1,.2,.1h0Zm3.5,1.3c0-.1,.1-.1,.2-.1s.5,.1,.7,.2c.3,.2,.4,.3,.4,.5v.2c-.1,.2-.1,.4-.2,.6-.2,1-.4,1.9-.8,2.7-.5,.9-1,1.7-1.8,2.4h-.1c-.1,0-.1-.1-.1-.2v-.1c.6-.8,1.1-1.7,1.4-2.6,.3-.7,.4-1.5,.5-2.1v-.6c0-.3-.1-.6-.2-.7,0,0,0-.2,0-.2Z"/>
  <g id="_ア" data-name=" ア">
    <g>
      <circle class="cls-4" cx="21.3" cy="37.4" r="5.3"/>
      <path class="cls-1" d="M22.3,41h-1.4v-4.9h-1.7v-.9c.4,0,.7,0,.9-.1,.3-.1,.5-.2,.7-.4,.1-.1,.2-.3,.3-.5,0-.1,.1-.2,.1-.3h1.2v7.1s-.1,0-.1,0Z"/>
    </g>
    <g>
      <circle class="cls-4" cx="47.1" cy="47.1" r="5.3"/>
      <path class="cls-1" d="M47.9,44.4c-.2-.2-.4-.3-.7-.3-.4,0-.7,.2-.9,.5-.1,.2-.1,.5-.2,.9h-1.4c0-.6,.1-1.1,.3-1.5,.4-.7,1-1.1,2-1.1,.7,0,1.3,.2,1.8,.6,.4,.4,.7,1,.7,1.6,0,.5-.2,1-.5,1.4-.2,.3-.5,.6-1,.9l-.6,.4c-.3,.2-.6,.4-.7,.5s-.2,.2-.3,.4h3.1v1.2h-4.8c0-.5,.1-1,.3-1.4,.2-.5,.7-1,1.4-1.5,.6-.5,1.1-.8,1.2-1,.3-.3,.4-.6,.4-1,.1-.2,0-.4-.1-.6Z"/>
    </g>
    <path class="cls-5" d="M69.4,52.4c2,0,3.6,1.6,3.6,3.6s-1.6,3.6-3.6,3.6-3.6-1.6-3.6-3.6,1.6-3.6,3.6-3.6Z"/>
    <path class="cls-5" d="M38.6,87.4c2,0,3.6,1.6,3.6,3.6s-1.6,3.6-3.6,3.6-3.6-1.6-3.6-3.6,1.6-3.6,3.6-3.6Z"/>
  </g>
  <path class="cls-8" d="M70.4,27.6l26.6-1s-3.2,5.7-4.7,7.6-5.7,7.5-5.7,7.5"/>
</svg>