<?xml version="1.0" encoding="UTF-8"?>
<svg id="_レイヤー_1" data-name=" レイヤー 1" xmlns="http://www.w3.org/2000/svg" viewBox="0 0 110.8 128.6">
  <defs>
    <style>
      .cls-1 {
        fill: #fff;
      }

      .cls-2 {
        fill: #333330;
      }

      .cls-3 {
        fill: #ccc;
      }

      .cls-4 {
        fill: #d83523;
      }

      .cls-5 {
        fill: #898880;
      }

      .cls-6 {
        fill: #fbfbf9;
        stroke: #b0afa7;
        stroke-width: .8px;
      }

      .cls-7 {
        stroke: #e7211a;
        stroke-width: .5px;
      }

      .cls-7, .cls-8 {
        fill: none;
      }

      .cls-8 {
        stroke: #d8d6cf;
        stroke-dasharray: 0 0 0 0 0 0 3 3;
        stroke-width: .4px;
      }
    </style>
  </defs>
  <path class="cls-6" d="M3.4,.4H107.4c1.7,0,3,1.3,3,3V107.4c0,1.7-1.3,3-3,3H3.4c-1.7,0-3-1.3-3-3V3.4c0-1.7,1.3-3,3-3Z"/>
  <line class="cls-8" x1="55.4" y1=".4" x2="55.4" y2="110.4"/>
  <line class="cls-8" x1=".4" y1="55.4" x2="110.4" y2="55.4"/>
  <path class="cls-3" d="M85.7,50.6c-6.8,0-15.2,.4-23.6,1-1,13.7-4.2,23.9-15.8,33-.3,.2-.6,.3-.9,.3-.7,0-1.5-.5-1.5-1.1,0-.2,.2-.6,.5-.9,8.6-8.6,11.6-18.6,12.6-30.9-7.4,.6-14.6,1.5-20.5,2.6-1.2,.2-2.7,.6-3.7,.8-.3,.1-.6,.2-.8,.2-.6,0-1-.2-1.5-.6-1.5-1.1-2.9-3-2.9-3.5,0-.3,.3-.6,1.1-.6,1.8,0,5-.2,7.7-.6,6.3-.7,13.7-1.5,20.8-2.2,.1-2.6,.1-5,.1-7.8,0-1.4-.1-4.5-.6-6-5.8,2.3-11,4-17,5.4-.4,.1-.8,.2-1,.2-.8,0-1.2-.4-1.2-.9,0-.4,.3-.9,.8-1,9.1-3,17.8-7.5,24.2-11.9,1.2-.8,1.8-1.8,1.8-2.6,0-.6-.2-1.1-.2-1.5,0-.6,.3-.9,1-.9,1,0,2.7,.7,5.2,2.6,1,.8,1.8,1.7,1.8,2.5,0,.6-.6,1.1-1.2,1.4-1.1,.6-2.3,1.3-3.1,1.7-3.9,1.9-5.7,2.8-8.2,3.8,1.1,.6,1.9,1.4,2.8,2.3,.5,.5,.8,1.2,.8,2,0,.4,0,.7-.2,1.1-.3,.8-.3,2.2-.4,4.6-.1,1.5-.1,3-.2,4.5,4.6-.4,9-.9,12.6-1.2,3.4-.3,5-.5,6.2-.9,.6-.2,1.3-.3,2.1-.3,.6,0,1,0,1.6,.2,1.7,.4,3,1.1,3.9,2,.6,.5,.8,1.1,.8,1.8,0,1.1-.8,1.7-2.1,1.7h-1.8s0-.3,0-.3Z"/>
  <path class="cls-2" d="M60.7,123.6c-1,0-2.3,.1-3.5,.1-.2,2.1-.6,3.6-2.4,4.9h-.1c-.1,0-.2-.1-.2-.2,0,0,0-.1,.1-.1,1.3-1.3,1.7-2.8,1.9-4.6-1.1,.1-2.2,.2-3.1,.4-.2,0-.4,.1-.6,.1h-.1c-.07,0-.13-.03-.2-.1-.2-.2-.4-.4-.4-.5,0,0,0-.1,.2-.1,.3,0,.7,0,1.2-.1,.9-.1,2.1-.2,3.1-.3v-1.2c0-.2,0-.7-.1-.9-.9,.3-1.6,.6-2.6,.8h-.1c-.1,0-.2-.1-.2-.1,0-.07,.03-.13,.1-.2,1.4-.5,2.7-1.1,3.6-1.8,.2-.1,.3-.3,.3-.4v-.2c0-.07,.03-.1,.1-.1,.2,0,.4,.1,.8,.4,.2,.1,.3,.3,.3,.4s-.1,.2-.2,.2c-.2,.1-.3,.2-.5,.3-.6,.3-.9,.4-1.2,.6,.2,.1,.3,.2,.4,.3,.1,.1,.1,.2,.1,.3v.2c0,.1,0,.3-.1,.7v.7c.7-.1,1.4-.1,1.9-.2,.5,0,.7-.1,.9-.1h.5c.3,.1,.4,.2,.6,.3,.1,.1,.1,.2,.1,.3,0,.2-.1,.3-.3,.3h-.3v-.1h0Z"/>
  <g id="_チ" data-name=" チ">
    <g id="_チ-2" data-name=" チ-2">
      <g>
        <circle class="cls-4" cx="75.1" cy="17.5" r="5.3"/>
        <path class="cls-1" d="M76,21h-1.4v-4.9h-1.7v-.9c.4,0,.7,0,.9-.1,.3-.1,.5-.2,.7-.4,.1-.1,.2-.3,.3-.5,0-.1,.1-.2,.1-.3h1.2v7.1h-.1Z"/>
      </g>
      <g>
        <circle class="cls-4" cx="20.6" cy="53.6" r="5.3"/>
        <path class="cls-1" d="M21.3,50.9c-.2-.2-.4-.3-.7-.3-.4,0-.7,.2-.9,.5-.1,.2-.1,.5-.2,.9h-1.4c0-.6,.1-1.1,.3-1.5,.4-.7,1-1.1,2-1.1,.7,0,1.3,.2,1.8,.6,.4,.4,.7,1,.7,1.6,0,.5-.2,1-.5,1.4-.2,.3-.5,.6-1,.9l-.6,.4c-.3,.2-.6,.4-.7,.5s-.2,.2-.3,.4h3.1v1.2h-4.8c0-.5,.1-1,.3-1.4,.2-.5,.7-1,1.4-1.5,.6-.5,1.1-.8,1.2-1,.3-.3,.4-.6,.4-1,.2-.1,.1-.4-.1-.6Z"/>
      </g>
      <g>
        <circle class="cls-4" cx="70.4" cy="34.3" r="5.3"/>
        <path class="cls-1" d="M69.6,32.1c-.2,.2-.2,.5-.2,.8h-1.3c0-.4,.1-.7,.2-1s.3-.5,.5-.8c.2-.2,.4-.3,.6-.4s.6-.1,.9-.1c.7,0,1.2,.2,1.6,.5,.4,.4,.6,.8,.6,1.4,0,.4-.1,.8-.4,1.1-.2,.2-.3,.3-.5,.4,.1,0,.3,.1,.5,.3,.4,.3,.5,.8,.5,1.3,0,.6-.2,1.1-.6,1.6s-1,.7-1.8,.7c-1,0-1.7-.3-2.1-1-.2-.3-.3-.8-.3-1.4h1.4c0,.3,0,.5,.1,.7,.2,.3,.5,.5,.9,.5,.3,0,.5-.1,.7-.3s.3-.5,.3-.8c0-.5-.2-.8-.6-.9-.2-.1-.6-.1-1-.1v-1c.5,0,.8-.1,.9-.1,.3-.1,.5-.4,.5-.8,0-.3-.1-.5-.2-.7s-.4-.3-.7-.3c-.2,0-.4,.1-.5,.4Z"/>
      </g>
      <path class="cls-5" d="M39.3,83.5c2,0,3.6,1.6,3.6,3.6s-1.6,3.6-3.6,3.6-3.6-1.6-3.6-3.6,1.7-3.6,3.6-3.6Z"/>
      <path class="cls-5" d="M32.7,35.5c2,0,3.6,1.6,3.6,3.6s-1.6,3.6-3.6,3.6-3.6-1.6-3.6-3.6,1.7-3.6,3.6-3.6Z"/>
      <path class="cls-5" d="M90.6,45.9h1.1l1.2,1.8,1.2-1.8h1.1l-1.8,2.5,1.8,2.7h-1.1l-1.3-2-1.3,2h-1.1l1.8-2.7s-1.6-2.5-1.6-2.5Z"/>
      <path class="cls-7" d="M64,33.8s.2,7.9,0,12.4-.6,10.7-1.2,14.1-.7,3.4-.7,3.4l3-4.8"/>
    </g>
    <path class="cls-7" d="M60.8,20.8s.2,.1-3.8,2.6-7,3.9-7,3.9l2.9-3.9"/>
  </g>
</svg>