<?xml version="1.0" encoding="UTF-8"?>
<svg id="_レイヤー_1" data-name=" レイヤー 1" xmlns="http://www.w3.org/2000/svg" viewBox="0 0 110.8 127.1">
  <defs>
    <style>
      .cls-1 {
        fill: #fff;
      }

      .cls-2 {
        fill: #333330;
      }

      .cls-3 {
        fill: #ccc;
      }

      .cls-4 {
        fill: #d83523;
      }

      .cls-5 {
        fill: #898880;
      }

      .cls-6 {
        stroke: #b0afa7;
        stroke-width: .8px;
      }

      .cls-6, .cls-7, .cls-8 {
        fill: none;
      }

      .cls-7 {
        stroke: #e7211a;
        stroke-width: .5px;
      }

      .cls-8 {
        stroke: #d8d6cf;
        stroke-dasharray: 0 0 0 0 0 0 3 3;
        stroke-width: .4px;
      }
    </style>
  </defs>
  <path class="cls-6" d="M3.4,.4H107.4c1.7,0,3,1.3,3,3V107.4c0,1.7-1.3,3-3,3H3.4c-1.7,0-3-1.3-3-3V3.4c0-1.7,1.3-3,3-3Z"/>
  <line class="cls-8" x1="55.4" y1=".4" x2="55.4" y2="110.4"/>
  <line class="cls-8" x1=".4" y1="55.4" x2="110.4" y2="55.4"/>
  <path class="cls-3" d="M58.5,43.2c-.2,7.3-.3,18-.5,24.4,5.4-.3,11-.6,15.8-.6h2.2c1.7,0,3.2-.3,4.2-.6,.4-.2,1-.2,1.6-.2,1.4,0,3.2,.9,4.6,1.9,1.1,.9,1.4,1.3,1.4,2.7-.1,1-.9,1.4-2.5,1.4-.2,0-.3,0-1.3-.1-5.7-.4-10.6-.6-15-.6-5,0-9.4,.2-13.5,.5-6.2,.4-14.3,1.3-18.6,1.7-2.9,.3-5,.7-6.3,1.1-.6,.2-1.2,.4-1.8,.4-.5,0-1-.2-1.5-.6-1.1-.8-2.9-3.1-2.9-3.7,0-.3,.2-.6,1-.6,2.2-.2,4.8-.3,9.4-.8,5.3-.6,11.6-1.2,18-1.6,.1-6.9,.2-13.8,.2-19.3v-3.8c0-1-.2-2.4-.6-3.6-3.8,.3-8.8,.8-13.4,1.2-.8,.1-.9,.1-1,.1-.5,0-.8-.1-1.2-.5-1.5-1.4-2.6-3.2-2.6-3.8,0-.3,.3-.4,.9-.4h.6c1,.1,2.1,.2,3.1,.2,1.9,0,4.1-.2,7-.4,9.1-.8,16.4-1.7,20.5-2.3,1.8-.2,3.7-1.2,4.9-1.2,1.7,0,3,.2,4.2,.9,1,.6,1.4,1.2,1.4,2,0,1.6-1,1.8-3.7,2.1-4,.3-9.5,1-15,1.6,.4,.4,.4,1,.4,1.7v.8h0Z"/>
  <path class="cls-2" d="M57.1,122.1c0,1.1,0,2.7-.1,3.7,.8,0,1.6-.1,2.4-.1h.3c.3,0,.5,0,.6-.1h.2c.2,0,.5,.1,.7,.3,.2,.1,.2,.2,.2,.4s-.1,.2-.4,.2h-.2c-.9-.1-1.6-.1-2.2-.1-.7,0-1.4,0-2,.1-.9,.1-2.1,.2-2.8,.3-.4,0-.8,.1-.9,.2-.1,0-.2,.1-.3,.1s-.1,0-.2-.1c-.2-.1-.4-.5-.4-.6,0,0,0-.1,.2-.1,.3,0,.7,0,1.4-.1,.8-.1,1.7-.2,2.7-.2v-3.5c0-.2,0-.4-.1-.5-.6,0-1.3,.1-2,.2h-.2c-.07,0-.13-.03-.2-.1-.2-.2-.4-.5-.4-.6,0,0,0-.1,.1-.1h.6c.3,0,.6,0,1-.1,1.4-.1,2.5-.3,3.1-.3,.3,0,.6-.2,.7-.2,.3,0,.4,0,.6,.1s.2,.2,.2,.3c0,.2-.2,.3-.6,.3-.6,0-1.4,.1-2.3,.2,.1,.1,.1,.2,.1,.3v.1h.2Z"/>
  <g id="_エ" data-name=" エ">
    <g>
      <circle class="cls-4" cx="27.7" cy="39.5" r="5.3"/>
      <path class="cls-1" d="M28.6,43.1h-1.4v-4.9h-1.7v-.9c.4,0,.7,0,.9-.1,.3-.1,.5-.2,.7-.4,.1-.1,.2-.3,.3-.5,0-.1,.1-.2,.1-.3h1.2v7.1s-.1,0-.1,0Z"/>
    </g>
    <g>
      <circle class="cls-4" cx="57.7" cy="29" r="5.3"/>
      <path class="cls-1" d="M58.4,26.4c-.2-.2-.4-.3-.7-.3-.4,0-.7,.2-.9,.5-.1,.2-.1,.5-.2,.9h-1.4c0-.6,.1-1.1,.3-1.5,.4-.7,1-1.1,2-1.1,.7,0,1.3,.2,1.8,.6,.4,.4,.7,1,.7,1.6,0,.5-.2,1-.5,1.4-.2,.3-.5,.6-1,.9l-.6,.4c-.3,.2-.6,.4-.7,.5s-.2,.2-.3,.4h3.1v1.2h-4.8c0-.5,.1-1,.3-1.4,.2-.5,.7-1,1.4-1.5,.6-.5,1.1-.8,1.2-1,.3-.3,.4-.6,.4-1,.1-.2,0-.4-.1-.6Z"/>
    </g>
    <g>
      <circle class="cls-4" cx="18.4" cy="73.4" r="5.3"/>
      <path class="cls-1" d="M17.6,71.2c-.2,.2-.2,.5-.2,.8h-1.3c0-.4,.1-.7,.2-1s.3-.5,.5-.8c.2-.2,.4-.3,.6-.4,.3-.1,.6-.1,.9-.1,.7,0,1.2,.2,1.6,.5,.4,.4,.6,.8,.6,1.4,0,.4-.1,.8-.4,1.1-.2,.2-.3,.3-.5,.4,.1,0,.3,.1,.5,.3,.4,.3,.5,.8,.5,1.3,0,.6-.2,1.1-.6,1.6s-1,.7-1.8,.7c-1,0-1.7-.3-2.1-1-.2-.3-.3-.8-.3-1.4h1.4c0,.3,0,.5,.1,.7,.2,.3,.5,.5,.9,.5,.3,0,.5-.1,.7-.3s.3-.5,.3-.8c0-.5-.2-.8-.6-.9-.2-.1-.6-.1-1-.1v-1c.5,0,.8-.1,.9-.1,.3-.1,.5-.4,.5-.8,0-.3-.1-.5-.2-.7-.2-.2-.4-.3-.7-.3-.1,.1-.4,.2-.5,.4Z"/>
    </g>
    <path class="cls-5" d="M88.6,68.2h1.1l1.2,1.8,1.2-1.8h1.1l-1.8,2.5,1.8,2.7h-1.1l-1.3-2-1.3,2h-1.1l1.8-2.7s-1.6-2.5-1.6-2.5Z"/>
    <path class="cls-5" d="M59.6,60.7h1.1l1.2,1.8,1.2-1.8h1.1l-1.8,2.5,1.8,2.7h-1.1l-1.3-2-1.3,2h-1.1l1.8-2.7s-1.6-2.5-1.6-2.5Z"/>
    <path class="cls-5" d="M77.8,33.5h1.1l1.2,1.8,1.2-1.8h1.1l-1.8,2.5,1.8,2.7h-1l-1.3-2-1.3,2h-1.1l1.8-2.7s-1.7-2.5-1.7-2.5Z"/>
    <polyline class="cls-7" points="59.4 34.6 59.4 52.4 61.1 48"/>
  </g>
</svg>