<?xml version="1.0" encoding="UTF-8"?>
<svg id="_レイヤー_1" data-name=" レイヤー 1" xmlns="http://www.w3.org/2000/svg" viewBox="0 0 110.8 126.7">
  <defs>
    <style>
      .cls-1 {
        fill: #fff;
      }

      .cls-2 {
        fill: #333330;
      }

      .cls-3 {
        fill: #ccc;
      }

      .cls-4 {
        fill: #d83523;
      }

      .cls-5 {
        fill: #898880;
      }

      .cls-6 {
        fill: #fbfbf9;
        stroke: #b0afa7;
        stroke-width: .8px;
      }

      .cls-7 {
        fill: none;
        stroke: #d8d6cf;
        stroke-dasharray: 0 0 0 0 0 0 3 3;
        stroke-width: .4px;
      }
    </style>
  </defs>
  <path class="cls-6" d="M3.4,.4H107.4c1.7,0,3,1.3,3,3V107.4c0,1.7-1.3,3-3,3H3.4c-1.7,0-3-1.3-3-3V3.4c0-1.7,1.3-3,3-3Z"/>
  <line class="cls-7" x1="55.4" y1=".4" x2="55.4" y2="110.4"/>
  <line class="cls-7" x1=".4" y1="55.4" x2="110.4" y2="55.4"/>
  <path class="cls-3" d="M38.5,45.4c0-.4,.4-.6,.9-.6,1,0,2.6,.6,5.4,2.6,1.2,.9,1.6,1.6,1.6,2.3,0,.6-.3,1.2-.7,1.8-.6,1-1.4,2.7-1.9,3.7-4.6,8.4-11.2,16.3-19.6,21.2-.3,.2-.6,.2-.9,.2-.6,0-1-.5-1-1.1,0-.2,.1-.5,.4-.8,7.4-6.6,12.2-13.7,15.5-21.2,.5-1.2,1-2.9,1-4.5,0-.9-.2-1.8-.5-2.5-.1-.3-.2-.7-.2-1.1Zm23.5-2.9c0-.6,.5-1,1.2-1,.4,0,.8,.2,1.4,.5,8.6,5,17.6,16.5,22.1,25.6,.8,1.7,1.2,3,1.2,4,0,2-1.4,3.4-3.2,3.4-1.6,0-2.6-1.6-3.7-4-4.2-9.6-12.2-21.7-18.5-27.4-.4-.5-.5-.8-.5-1.1Z"/>
  <path class="cls-2" d="M54.3,122c0-.1,.1-.1,.1-.1,.2,0,.4,.1,.8,.4,.2,.1,.2,.2,.2,.3s0,.2-.1,.3c-.1,.1-.2,.4-.3,.6-.7,1.3-1.7,2.4-2.9,3.2h-.1c-.1,0-.1-.1-.1-.2,0,0,0-.1,.1-.1,1.1-1,1.8-2.1,2.3-3.2,.1-.2,.1-.4,.1-.7,0-.1,0-.3-.1-.4v-.1h0Zm3.5-.5c0-.1,.1-.2,.2-.2s.1,0,.2,.1c1.3,.8,2.6,2.5,3.3,3.8,.1,.3,.2,.4,.2,.6,0,.3-.2,.5-.5,.5-.2,0-.4-.2-.6-.6-.6-1.4-1.8-3.2-2.8-4.1-.67-.6-.67-.63,0-.1Z"/>
  <g id="_ハ" data-name=" ハ">
    <g>
      <circle class="cls-4" cx="38.8" cy="35.9" r="5.3"/>
      <path class="cls-1" d="M39.7,39.5h-1.4v-4.9h-1.7v-.9c.4,0,.7,0,.9-.1,.3-.1,.5-.2,.7-.4,.1-.1,.2-.3,.3-.5,0-.1,.1-.2,.1-.3h1.2v7.1s-.1,0-.1,0Z"/>
    </g>
    <g>
      <circle class="cls-4" cx="61.5" cy="33.6" r="5.3"/>
      <path class="cls-1" d="M62.2,30.9c-.2-.2-.4-.3-.7-.3-.4,0-.7,.2-.9,.5-.1,.2-.1,.5-.2,.9h-1.4c0-.6,.1-1.1,.3-1.5,.4-.7,1-1.1,2-1.1,.7,0,1.3,.2,1.8,.6,.4,.4,.7,1,.7,1.6,0,.5-.2,1-.5,1.4-.2,.3-.5,.6-1,.9l-.6,.4c-.3,.2-.6,.4-.7,.5s-.2,.2-.3,.4h3.1v1.2h-4.8c0-.5,.1-1,.3-1.4,.2-.5,.7-1,1.4-1.5,.6-.5,1.1-.8,1.2-1,.3-.3,.4-.6,.4-1,.2-.1,.1-.4-.1-.6Z"/>
    </g>
    <path class="cls-5" d="M17.7,75.3c2,0,3.6,1.6,3.6,3.6s-1.6,3.6-3.6,3.6-3.6-1.6-3.6-3.6,1.6-3.6,3.6-3.6Z"/>
    <path class="cls-5" d="M86.3,76.7h1.1l1.2,1.8,1.2-1.8h1.1l-1.8,2.5,1.8,2.7h-1.1l-1.3-2-1.3,2h-1.1l1.8-2.7s-1.6-2.5-1.6-2.5Z"/>
  </g>
</svg>