<?xml version="1.0" encoding="UTF-8"?>
<svg id="_レイヤー_1" data-name=" レイヤー 1" xmlns="http://www.w3.org/2000/svg" viewBox="0 0 110.8 126.2">
  <defs>
    <style>
      .cls-1 {
        fill: #fff;
      }

      .cls-2 {
        fill: #333330;
      }

      .cls-3 {
        fill: #ccc;
      }

      .cls-4 {
        fill: #d83523;
      }

      .cls-5 {
        fill: #898880;
      }

      .cls-6 {
        fill: #fbfbf9;
        stroke: #b0afa7;
        stroke-width: .8px;
      }

      .cls-7 {
        stroke: #e7211a;
        stroke-width: .5px;
      }

      .cls-7, .cls-8 {
        fill: none;
      }

      .cls-8 {
        stroke: #d8d6cf;
        stroke-dasharray: 0 0 0 0 0 0 3 3;
        stroke-width: .4px;
      }
    </style>
  </defs>
  <path class="cls-6" d="M3.4,.4H107.4c1.7,0,3,1.3,3,3V107.4c0,1.7-1.3,3-3,3H3.4c-1.7,0-3-1.3-3-3V3.4c0-1.7,1.3-3,3-3Z"/>
  <line class="cls-8" x1="55.4" y1=".4" x2="55.4" y2="110.4"/>
  <line class="cls-8" x1=".4" y1="55.4" x2="110.4" y2="55.4"/>
  <path class="cls-3" d="M33.3,61.3c-1,1-1.6,1.2-2.2,1.2-.3,0-.7-.1-1.2-.3-3-1.5-4.5-3.2-4.5-3.8,0-.7,.2-1,1.3-1.2,1.4-.2,3.2-1,5.1-2.3,3.2-2.3,9-6.5,15-11.6,1-.8,1.9-1.5,3.4-1.5,1.4,0,2.7,.7,5.3,2.6,8.8,6.2,20.4,13.9,33.8,22.6,1.7,1.2,2.2,1.8,2.2,3.4,0,1.8-1,3-2.6,3-.8,0-1.8-.2-2.8-.9-12.5-9-24-17.4-34.4-24.9-.6-.5-1-.7-1.4-.7-.3,0-.6,.2-1,.5-5.5,4.5-10,8.3-15.2,13l-.8,.9h0Z"/>
  <path class="cls-2" d="M53.2,124.3c-.2,.1-.2,.2-.3,.2h-.2c-.4-.2-.7-.5-.7-.6s0-.1,.2-.2c.2,0,.5-.1,.8-.3,.5-.3,1.4-1,2.3-1.7,.1-.1,.3-.2,.5-.2s.4,.1,.8,.4c1.3,.9,3.1,2.1,5.1,3.4,.3,.2,.3,.3,.3,.5,0,.3-.2,.4-.4,.4-.1,0-.3,0-.4-.1-1.9-1.4-3.6-2.6-5.2-3.7-.1-.1-.2-.1-.2-.1,0,0-.1,0-.1,.1-.8,.7-1.5,1.2-2.3,1.9h-.2Z"/>
  <g id="_へ" data-name=" へ">
    <g>
      <circle class="cls-4" cx="21.9" cy="64.1" r="5.2"/>
      <path class="cls-1" d="M22.8,67.6h-1.4v-4.8h-1.6v-.9c.4,0,.7,0,.9-.1,.3-.1,.5-.2,.7-.4,.1-.1,.2-.3,.3-.5,0-.1,.1-.2,.1-.3h1.1v7h-.1Z"/>
    </g>
    <path class="cls-5" d="M92.7,71.6h1.1l1.2,1.8,1.2-1.8h1.1l-1.8,2.5,1.8,2.7h-1.1l-1.3-2-1.3,2h-1.1l1.8-2.7s-1.6-2.5-1.6-2.5Z"/>
    <polyline class="cls-7" points="34.4 46.3 49 35.1 68.2 48.4 65.7 42.7"/>
  </g>
</svg>