<?xml version="1.0" encoding="UTF-8"?>
<svg id="_レイヤー_1" data-name=" レイヤー 1" xmlns="http://www.w3.org/2000/svg" viewBox="0 0 110.8 127.7">
  <defs>
    <style>
      .cls-1 {
        fill: #fff;
      }

      .cls-2 {
        fill: #333330;
      }

      .cls-3 {
        fill: #ccc;
      }

      .cls-4 {
        fill: #d83523;
      }

      .cls-5 {
        fill: #898880;
      }

      .cls-6 {
        fill: #fbfbf9;
        stroke: #b0afa7;
        stroke-width: .8px;
      }

      .cls-7 {
        stroke: #e7211a;
        stroke-width: .5px;
      }

      .cls-7, .cls-8 {
        fill: none;
      }

      .cls-8 {
        stroke: #d8d6cf;
        stroke-dasharray: 0 0 0 0 0 0 3 3;
        stroke-width: .4px;
      }
    </style>
  </defs>
  <path class="cls-6" d="M3.4,.4H107.4c1.7,0,3,1.3,3,3V107.4c0,1.7-1.3,3-3,3H3.4c-1.7,0-3-1.3-3-3V3.4c0-1.7,1.3-3,3-3Z"/>
  <line class="cls-8" x1="55.4" y1=".4" x2="55.4" y2="110.4"/>
  <line class="cls-8" x1=".4" y1="55.4" x2="110.4" y2="55.4"/>
  <path class="cls-3" d="M40.5,68.3c.1,7.2,3.1,9.5,9.3,10,1.6,.1,3.2,.2,4.7,.2,3.7,0,7-.2,9.7-.6,1.6-.2,3.4-.6,4.9-1,.7-.2,1.5-.6,2.6-.6,.4,0,.8,0,1.4,.2,3,.7,4.1,2.3,4.1,3.7,0,1.1-1.4,1.8-3,1.9-6.6,.7-12.6,1.1-18.2,1.1-2.7,0-5.4-.1-7.8-.3-8.9-.9-12.3-6.6-12.4-13.8,0-2.6-.1-5.3-.1-7.8,0-7.5,.2-14.3,.2-20.6,0-4.4-.1-7.1-1.4-9.3-.3-.6-.5-1-.5-1.4,0-.6,.6-1,1.4-1,1,0,4.2,1.4,5.9,2.6,1,.8,1.3,1.2,1.3,2.3,0,.5-.2,1.2-.6,1.8-.2,.6-.6,1.7-.6,3-.2,4.6-.5,9.4-.6,13.4,9.6-1.7,16.5-3.2,21.4-4.6,1.4-.5,3-1.1,4.1-1.8,.6-.3,1.8-.6,2.7-.6,1,0,1.8,.2,2.6,.5,1.8,.6,2.7,1.4,2.7,2.8,0,.9-.7,1.8-4.2,2.6-7.1,1.7-19.8,3.8-23.5,4.3-1.9,.3-3.3,.5-4.2,.5-.7,0-1.3-.1-1.7-.3-.2,4.5-.2,8.6-.2,12.8Z"/>
  <path class="cls-2" d="M53.9,125.4c0,1.1,.5,1.4,1.4,1.5h.7c.6,0,1,0,1.5-.1,.2,0,.5-.1,.7-.1,.1,0,.2-.1,.4-.1h.2c.5,.1,.6,.3,.6,.6,0,.2-.2,.3-.4,.3-1,.1-1.9,.2-2.7,.2h-1.2c-1.3-.1-1.8-1-1.9-2.1v-4.3c0-.7,0-1.1-.2-1.4,0-.1-.1-.1-.1-.2s.1-.2,.2-.2c.2,0,.6,.2,.9,.4,.2,.1,.2,.2,.2,.3s0,.2-.1,.3c0,.1-.1,.3-.1,.5,0,.7-.1,1.4-.1,2,1.4-.3,2.5-.5,3.2-.7,.2-.1,.4-.2,.6-.3,.1,0,.3-.1,.4-.1,.2,0,.3,0,.4,.1,.3,.1,.4,.2,.4,.4,0,.1-.1,.3-.6,.4-1.1,.3-3,.6-3.5,.6-.3,0-.5,.1-.6,.1h-.3v1.9h0Z"/>
  <g id="_ヒ" data-name=" ヒ">
    <g>
      <circle class="cls-4" cx="76" cy="38.1" r="5.3"/>
      <path class="cls-1" d="M76.9,41.6h-1.5v-4.9h-1.7v-.9c.4,0,.7,0,.9-.1,.3-.1,.5-.2,.7-.4,.1-.1,.2-.3,.3-.5,0-.1,.1-.2,.1-.3h1.2v7.1Z"/>
    </g>
    <g>
      <circle class="cls-4" cx="36.9" cy="23" r="5.3"/>
      <path class="cls-1" d="M37.6,20.3c-.2-.2-.4-.3-.7-.3-.4,0-.7,.2-.9,.5-.1,.2-.1,.5-.2,.9h-1.4c0-.6,.1-1.1,.3-1.5,.4-.7,1-1.1,2-1.1,.7,0,1.3,.2,1.8,.6,.4,.4,.7,1,.7,1.6,0,.5-.2,1-.5,1.4-.2,.3-.5,.6-1,.9l-.6,.4c-.3,.2-.6,.4-.7,.5s-.2,.2-.3,.4h3.1v1.2h-4.8c0-.5,.1-1,.3-1.4,.2-.5,.7-1,1.4-1.5,.6-.5,1.1-.8,1.2-1,.3-.3,.4-.6,.4-1,.1-.1,0-.4-.1-.6Z"/>
    </g>
    <path class="cls-5" d="M30.3,50.8c2,0,3.6,1.6,3.6,3.6s-1.6,3.6-3.6,3.6-3.6-1.6-3.6-3.6,1.7-3.6,3.6-3.6Z"/>
    <path class="cls-5" d="M79.6,76.7h1.1l1.2,1.8,1.2-1.8h1.1l-1.8,2.5,1.8,2.7h-1.1l-1.3-2-1.3,2h-1.1l1.8-2.7s-1.6-2.5-1.6-2.5Z"/>
    <path class="cls-7" d="M33.3,65s-.5,11.1,.5,13.8c.9,2.7,1.6,4.4,6,5.9s9.9,2,9.9,2l-3.6-2"/>
    <polyline class="cls-7" points="67.4 42.2 47.7 48.4 51.5 45.1"/>
  </g>
</svg>