<?xml version="1.0" encoding="UTF-8"?>
<svg id="_レイヤー_1" data-name=" レイヤー 1" xmlns="http://www.w3.org/2000/svg" viewBox="0 0 110.8 128.5">
  <defs>
    <style>
      .cls-1 {
        fill: #fff;
      }

      .cls-2 {
        fill: #333330;
      }

      .cls-3 {
        fill: #ccc;
      }

      .cls-4 {
        fill: #d83523;
      }

      .cls-5 {
        fill: #898880;
      }

      .cls-6 {
        fill: #fbfbf9;
        stroke: #b0afa7;
        stroke-width: .8px;
      }

      .cls-7 {
        stroke: #d8d6cf;
        stroke-dasharray: 0 0 0 0 0 0 3 3;
        stroke-width: .4px;
      }

      .cls-7, .cls-8 {
        fill: none;
      }

      .cls-8 {
        stroke: #e7211a;
        stroke-miterlimit: 10;
        stroke-width: .5px;
      }
    </style>
  </defs>
  <path class="cls-6" d="M3.4,.4H107.4c1.7,0,3,1.3,3,3V107.4c0,1.7-1.3,3-3,3H3.4c-1.7,0-3-1.3-3-3V3.4c0-1.7,1.3-3,3-3Z"/>
  <line class="cls-7" x1="55.4" y1=".4" x2="55.4" y2="110.4"/>
  <line class="cls-7" x1=".4" y1="55.4" x2="110.4" y2="55.4"/>
  <path class="cls-3" d="M55.6,40.1c4.9-.6,9.4-1.1,14.4-1.8,1.5-.2,2.3-.6,2.9-.9,.4-.2,.8-.3,1.2-.3,1,0,2.4,.6,4.3,2.7,1,1.1,1.6,2.2,1.6,2.9,0,.5-.2,1-.6,1.4-.6,.7-.9,1.5-1.2,3-2.5,11-5.9,21.1-10.2,29.8-.7,1.4-2.3,4.7-3.7,6.3-.7,.9-1.8,2.5-2.8,2.5-.7,0-1.5-.4-2.2-1.2-1.4-1.9-3.4-4.7-5.1-8.2-.2-.3-.2-.6-.2-.7,0-.4,.2-.6,.6-.6,.2,0,.4,.1,.6,.2,1.7,1,2.8,1.9,4.3,2.7,.4,.2,.8,.3,1.1,.3,.7,0,1.2-.5,1.7-1.4,5-9.3,9.3-23,10.6-32.6,.2-1,.2-1.8,.2-2,0-.4-.2-.6-.9-.6-6.2,.5-11.9,1.2-18,2.1-5.4,14.6-11.7,26.8-23.5,36.9-.3,.3-.7,.4-1,.4-.6,0-1-.5-1-1,0-.3,.2-.6,.4-1,8.3-9.8,14.5-20.9,19.3-34.5-4.6,.6-8.8,1.3-11.8,1.8-1.1,.2-2.6,.5-3.1,.6-.2,.1-.5,.2-.9,.2-.3,0-.8-.1-1.3-.5-1.3-1-2.3-3-2.3-3.5,0-.2,.2-.5,.4-.5,.3,0,.7,.1,2.2,.1,1,0,1.7-.1,2.6-.2,4.8-.6,11.1-1.4,15.6-1.9,.9-2.8,1.8-5.8,2.6-9,.4-1.5,.6-2.7,.6-3.9,0-.9-.2-1.8-.4-2.6-.1-.3-.2-.6-.2-.9,0-.6,.3-.9,.9-.9,1,0,4.1,1.5,5.9,3.4,.6,.6,.8,1.2,.8,1.7s-.2,.9-.5,1.3c-1,1.1-1.3,2.1-2.1,4.3l-1.8,6.1h0Z"/>
  <path class="cls-2" d="M56,121.6c.7-.1,1.4-.2,2.2-.3,.2,0,.3-.1,.4-.1h.2c.2,0,.4,.1,.6,.4,.2,.2,.2,.3,.2,.4s0,.1-.1,.2-.1,.2-.2,.5c-.4,1.7-.9,3.2-1.5,4.5-.1,.2-.3,.7-.6,.9-.1,.1-.3,.4-.4,.4s-.2-.1-.3-.2c-.2-.3-.5-.7-.8-1.2v-.1c0-.07,.03-.1,.1-.1h.1c.3,.2,.4,.3,.6,.4h.2c.1,0,.2-.1,.3-.2,.7-1.4,1.4-3.4,1.6-4.9v-.3c0-.07-.03-.1-.1-.1-.9,.1-1.8,.2-2.7,.3-.8,2.2-1.8,4-3.5,5.5,0,0-.1,.1-.2,.1s-.1-.1-.1-.1c0,0,0-.1,.1-.1,1.2-1.5,2.2-3.1,2.9-5.2-.7,.1-1.3,.2-1.8,.3-.2,0-.4,.1-.5,.1h-.1s-.1,0-.2-.1c-.2-.2-.3-.4-.3-.5,0,0,0-.1,.1-.1h.7c.7-.1,1.7-.2,2.3-.3,.1-.4,.3-.9,.4-1.3,.1-.2,.1-.4,.1-.6,0-.1,0-.3-.1-.4v-.1c0-.07,.03-.1,.1-.1,.2,0,.6,.2,.9,.5,.1,.1,.1,.2,.1,.3s0,.1-.1,.2c-.1,.2-.2,.3-.3,.6,0,0-.3,.8-.3,.8Z"/>
  <g id="_カ" data-name=" カ">
    <path class="cls-5" d="M25.3,78.8c2,0,3.6,1.6,3.6,3.6s-1.6,3.6-3.6,3.6-3.6-1.6-3.6-3.6,1.7-3.6,3.6-3.6Z"/>
    <g>
      <circle class="cls-4" cx="22.6" cy="44.3" r="5.3"/>
      <path class="cls-1" d="M23.4,47.8h-1.4v-4.9h-1.7v-.9c.4,0,.7,0,.9-.1,.3-.1,.5-.2,.7-.4,.1-.1,.2-.3,.3-.5,0-.1,.1-.2,.1-.3h1.1v7.1Z"/>
    </g>
    <g>
      <circle class="cls-4" cx="60.7" cy="19.5" r="5.3"/>
      <path class="cls-1" d="M61.4,16.9c-.2-.2-.4-.3-.7-.3-.4,0-.7,.2-.9,.5-.1,.2-.1,.5-.2,.9h-1.4c0-.6,.1-1.1,.3-1.5,.4-.7,1-1.1,2-1.1,.7,0,1.3,.2,1.8,.6,.4,.4,.7,1,.7,1.6,0,.5-.2,1-.5,1.4-.2,.3-.5,.6-1,.9l-.6,.4c-.3,.2-.6,.4-.7,.5s-.2,.2-.3,.4h3.1v1.2h-4.8c0-.5,.1-1,.3-1.4,.2-.5,.7-1,1.4-1.5,.6-.5,1.1-.8,1.2-1,.3-.3,.4-.6,.4-1,.1-.2,.1-.4-.1-.6Z"/>
    </g>
    <path class="cls-5" d="M60.2,86.9l1.4,4.3,1.5-4.3h1l-2,5.2h-.9l-1.9-5.2s.9,0,.9,0Z"/>
  </g>
  <path class="cls-8" d="M66,35.2l19.4-1.1s-1.5,8.3-1.9,9.5-1.1,4.3-1.1,4.3"/>
</svg>