<?xml version="1.0" encoding="UTF-8"?>
<svg id="_レイヤー_1" data-name=" レイヤー 1" xmlns="http://www.w3.org/2000/svg" viewBox="0 0 110.8 127.6">
  <defs>
    <style>
      .cls-1 {
        fill: #fff;
      }

      .cls-2 {
        fill: #333330;
      }

      .cls-3 {
        fill: #ccc;
      }

      .cls-4 {
        fill: #d83523;
      }

      .cls-5 {
        fill: #898880;
      }

      .cls-6 {
        fill: #fbfbf9;
        stroke: #b0afa7;
        stroke-width: .8px;
      }

      .cls-7 {
        stroke: #e7211a;
        stroke-width: .5px;
      }

      .cls-7, .cls-8 {
        fill: none;
      }

      .cls-8 {
        stroke: #d8d6cf;
        stroke-dasharray: 0 0 0 0 0 0 3 3;
        stroke-width: .4px;
      }
    </style>
  </defs>
  <path class="cls-6" d="M3.4,.4H107.4c1.7,0,3,1.3,3,3V107.4c0,1.7-1.3,3-3,3H3.4c-1.7,0-3-1.3-3-3V3.4c0-1.7,1.3-3,3-3Z"/>
  <line class="cls-8" x1="55.4" y1=".4" x2="55.4" y2="110.4"/>
  <line class="cls-8" x1=".4" y1="55.4" x2="110.4" y2="55.4"/>
  <path class="cls-3" d="M71.4,40c0-.5-.1-.6-.8-.6-10.8,.6-22.7,2.1-29.1,3-2,.3-5.2,1-6.2,1-.6,0-1-.1-1.9-1-1.2-1.2-2.4-2.7-2.4-3.6,0-.4,.3-.6,1.1-.6,1.8,0,3.8-.1,6.6-.3,9-.8,21-2.2,29.2-3,1.1-.1,2.6-.2,3.1-.6,.4-.2,.6-.3,1-.3,1,0,2.2,.5,4.2,1.5,1.7,.9,2.6,1.8,2.6,2.4s-.3,1.4-.6,1.9c-.4,.7-.9,2.5-1,3.8-.9,7.4-2.6,19-4.2,27.2,.6,.2,1.2,.4,1.7,.9,.8,.7,1.4,1.9,1.4,2.6,0,1.1-1.4,1.5-2.8,1.5h-3.1c-8.2,0-20.6,.9-30.4,1.9-1.1,.1-2.7,.5-3.7,.7-.3,.1-.6,.2-1,.2s-1-.2-1.6-.7c-1.8-1.4-2.9-2.8-2.9-3.4,0-.3,.2-.6,.8-.6,1.5,0,2.6-.1,4.6-.3,11.8-1.2,24.9-2.2,31.8-2.6,1.7-11.5,2.8-18.9,3.4-30.7v-.3h.2Z"/>
  <path class="cls-2" d="M58.4,121.6c0-.07-.03-.1-.1-.1-1.6,.1-3.4,.3-4.4,.5-.3,0-.8,.1-.9,.1s-.2,0-.3-.1c-.2-.2-.4-.4-.4-.5s0-.1,.2-.1h1c1.3-.1,3.2-.3,4.4-.4,.2,0,.4,0,.5-.1h.2c.1,0,.3,.1,.6,.2s.4,.3,.4,.4,0,.2-.1,.3c-.1,.1-.1,.4-.2,.6-.1,1.1-.4,2.8-.6,4.1,.1,0,.2,.1,.3,.1,.1,.1,.2,.3,.2,.4,0,.2-.2,.2-.4,.2h-.5c-1.2,0-3.1,.1-4.6,.3-.2,0-.4,.1-.6,.1h-.1c-.07,0-.13-.03-.2-.1-.3-.2-.4-.4-.4-.5,0,0,0-.1,.1-.1h.7c1.8-.2,3.7-.3,4.8-.4,.1-2,.3-3.1,.4-4.9h0Z"/>
  <g id="_コ" data-name=" コ">
    <g>
      <circle class="cls-4" cx="23.4" cy="40.6" r="5.3"/>
      <path class="cls-1" d="M24.3,44.1h-1.4v-4.9h-1.7v-.9c.4,0,.7,0,.9-.1,.3-.1,.5-.2,.7-.4,.1-.1,.2-.3,.3-.5,0-.1,.1-.2,.1-.3h1.2v7.1s-.1,0-.1,0Z"/>
    </g>
    <g>
      <circle class="cls-4" cx="23.4" cy="75.8" r="5.3"/>
      <path class="cls-1" d="M24.1,73.1c-.2-.2-.4-.3-.7-.3-.4,0-.7,.2-.9,.5-.1,.2-.1,.5-.2,.9h-1.4c0-.6,.1-1.1,.3-1.5,.4-.7,1-1.1,2-1.1,.7,0,1.3,.2,1.8,.6,.4,.4,.7,1,.7,1.6,0,.5-.2,1-.5,1.4-.2,.3-.5,.6-1,.9l-.6,.4c-.3,.2-.6,.4-.7,.5s-.2,.2-.3,.4h3.1v1.2h-4.8c0-.5,.1-1,.3-1.4,.2-.5,.7-1,1.4-1.5,.6-.5,1.1-.8,1.2-1,.3-.3,.4-.6,.4-1,.2-.1,.1-.4-.1-.6Z"/>
    </g>
    <path class="cls-5" d="M75.7,75.5h1.1l1.2,1.8,1.2-1.8h1.1l-1.8,2.5,1.8,2.7h-1.1l-1.3-2-1.3,2h-1.1l1.8-2.7s-1.6-2.5-1.6-2.5Z"/>
    <path class="cls-5" d="M62.3,65.2h1.1l1.2,1.8,1.2-1.8h1.1l-1.8,2.5,1.8,2.7h-1.1l-1.3-2-1.3,2h-1.1l1.8-2.7s-1.6-2.5-1.6-2.5Z"/>
  </g>
  <polyline class="cls-7" points="59.5 32.5 81.9 31.8 79.2 46.5 81.9 42.2"/>
</svg>