<?xml version="1.0" encoding="UTF-8"?>
<svg id="_レイヤー_1" data-name=" レイヤー 1" xmlns="http://www.w3.org/2000/svg" viewBox="0 0 110.8 128.3">
  <defs>
    <style>
      .cls-1 {
        fill: #fff;
      }

      .cls-2 {
        fill: #333330;
      }

      .cls-3 {
        fill: #ccc;
      }

      .cls-4 {
        fill: #d83523;
      }

      .cls-5 {
        fill: #898880;
      }

      .cls-6 {
        fill: #fbfbf9;
        stroke: #b0afa7;
        stroke-width: .8px;
      }

      .cls-7 {
        fill: none;
        stroke: #d8d6cf;
        stroke-dasharray: 0 0 0 0 0 0 3 3;
        stroke-width: .4px;
      }
    </style>
  </defs>
  <path class="cls-6" d="M3.4,.4H107.4c1.7,0,3,1.3,3,3V107.4c0,1.7-1.3,3-3,3H3.4c-1.7,0-3-1.3-3-3V3.4c0-1.7,1.3-3,3-3Z"/>
  <line class="cls-7" x1="55.4" y1=".4" x2="55.4" y2="110.4"/>
  <line class="cls-7" x1=".4" y1="55.4" x2="110.4" y2="55.4"/>
  <path class="cls-3" d="M41.1,48.4c-.6-.4-1-1-1-1.4,0-.6,.5-1.2,1.2-1.2,.13,0,.27,.03,.4,.1,4.2,1,9.4,3.4,13.9,5.8,3.1-5.4,5.7-11.1,7.9-17,.5-1.4,.7-2.6,.7-3.6,0-.8-.2-1.7-.5-2.5-.3-.7-.5-1.2-.5-1.4,0-.7,.6-1.1,1.3-1.1,.6,0,2.6,.7,5.5,3,1.3,1,1.8,1.8,1.8,2.6,0,.9-.4,1.3-1,2-.8,1-1.8,3.4-2.8,5.7-2.5,5-4.9,10.1-7.8,14.9,2.8,1.7,5.5,3.8,7.4,5.6,1.8,1.6,2.4,3.1,2.4,4.3,0,1.4-.8,2.6-2.3,2.6-1,0-2.1-.6-3.4-1.8-1.8-1.5-5.2-4.6-7-6.2-6.6,9.7-15.4,18.6-27.1,25.3-.3,.2-.5,.2-.7,.2-.7,0-1.1-.6-1.1-1s.2-.7,.6-1c9.6-7.8,18.2-17,24.2-26.6-3.1-2-7.1-4.5-12.1-7.3h0Z"/>
  <path class="cls-2" d="M53.6,122.9c-.07-.07-.1-.13-.1-.2,0-.1,.1-.2,.2-.2h.1c.6,.2,1.4,.5,2.1,.9,.5-.8,.9-1.7,1.2-2.5,.1-.2,.1-.4,.1-.5s0-.3-.1-.4c0-.1-.1-.2-.1-.2,0-.1,.1-.2,.2-.2s.4,.1,.8,.5c.2,.2,.3,.3,.3,.4s-.1,.2-.2,.3-.3,.5-.4,.9c-.4,.8-.7,1.5-1.2,2.2,.4,.3,.8,.6,1.1,.8,.3,.2,.4,.5,.4,.6,0,.2-.1,.4-.3,.4-.1,0-.3-.1-.5-.3-.3-.2-.8-.7-1.1-.9-1,1.5-2.3,2.8-4.1,3.8h-.1c-.1,0-.2-.1-.2-.2s0-.1,.1-.1c1.4-1.2,2.7-2.5,3.6-4-.4-.3-1-.7-1.8-1.1h0Z"/>
  <g id="_メ" data-name=" メ">
    <path class="cls-5" d="M23.5,83.3c2,0,3.6,1.6,3.6,3.6s-1.6,3.6-3.6,3.6-3.6-1.6-3.6-3.6c.1-2,1.7-3.6,3.6-3.6Z"/>
    <g>
      <circle class="cls-4" cx="69.8" cy="20.2" r="5.3"/>
      <path class="cls-1" d="M70.7,23.7h-1.4v-4.9h-1.7v-.9c.4,0,.7,0,.9-.1,.3-.1,.5-.2,.7-.4,.1-.1,.2-.3,.3-.5,0-.1,.1-.2,.1-.3h1.2v7.1s-.1,0-.1,0Z"/>
    </g>
    <g>
      <circle class="cls-4" cx="34.2" cy="44.3" r="5.3"/>
      <path class="cls-1" d="M34.8,41.6c-.2-.2-.4-.3-.7-.3-.4,0-.7,.2-.9,.5-.1,.2-.1,.5-.2,.9h-1.4c0-.6,.1-1.1,.3-1.5,.4-.7,1-1.1,2-1.1,.7,0,1.3,.2,1.8,.6,.4,.4,.7,1,.7,1.6,0,.5-.2,1-.5,1.4-.2,.3-.5,.6-1,.9l-.6,.4c-.3,.2-.6,.4-.7,.5s-.2,.2-.3,.4h3.1v1.2h-4.8c0-.5,.1-1,.3-1.4,.2-.5,.7-1,1.4-1.5,.6-.5,1.1-.8,1.2-1,.3-.3,.4-.6,.4-1,.2-.1,.1-.4-.1-.6Z"/>
    </g>
    <path class="cls-5" d="M69.9,66.5h1.1l1.2,1.8,1.2-1.8h1.1l-1.8,2.5,1.8,2.7h-1.1l-1.3-2-1.3,2h-1.1l1.8-2.7s-1.6-2.5-1.6-2.5Z"/>
  </g>
</svg>