<?xml version="1.0" encoding="UTF-8"?>
<svg id="_レイヤー_1" data-name=" レイヤー 1" xmlns="http://www.w3.org/2000/svg" viewBox="0 0 110.8 127.8">
  <defs>
    <style>
      .cls-1 {
        fill: #fff;
      }

      .cls-2 {
        fill: #333330;
      }

      .cls-3 {
        fill: #ccc;
      }

      .cls-4 {
        fill: #d83523;
      }

      .cls-5 {
        fill: #898880;
      }

      .cls-6 {
        fill: #fbfbf9;
        stroke: #b0afa7;
        stroke-width: .8px;
      }

      .cls-7 {
        stroke: #e7211a;
        stroke-width: .5px;
      }

      .cls-7, .cls-8 {
        fill: none;
      }

      .cls-8 {
        stroke: #d8d6cf;
        stroke-dasharray: 0 0 0 0 0 0 3 3;
        stroke-width: .4px;
      }
    </style>
  </defs>
  <path class="cls-6" d="M3.4,.4H107.4c1.7,0,3,1.3,3,3V107.4c0,1.7-1.3,3-3,3H3.4c-1.7,0-3-1.3-3-3V3.4c0-1.7,1.3-3,3-3Z"/>
  <line class="cls-8" x1="55.4" y1=".4" x2="55.4" y2="110.4"/>
  <line class="cls-8" x1=".4" y1="55.4" x2="110.4" y2="55.4"/>
  <path class="cls-3" d="M46.6,57.6c-5.5,.8-10.2,1.5-12.2,1.9-2.5,.4-3.4,.7-4.4,1-.6,.2-1.1,.3-1.5,.3-.5,0-.8-.1-1.2-.4-1.4-1.1-2.9-3.4-2.9-3.8,0-.2,.1-.5,.7-.6,2-.2,3.9-.3,5.5-.6,2.6-.4,9.4-1.4,16-2.2,.1-3.1,.1-6.1,.1-10.7,0-1.4,0-3.1-.3-4.5-2.2,.3-6,.9-9,1.4-.4,.1-.6,.1-.8,.1-.6,0-1-.2-1.6-.6-1.7-1.4-2.4-2.4-2.4-2.8,0-.3,.2-.5,.6-.6,3.6-.4,11.8-1.5,16.3-2.3,3.6-.6,8.2-1.5,10.9-2.1,1.5-.3,2.4-.9,3.4-1.3,.6-.2,1.4-.4,1.9-.4,1.3,0,2.6,.4,3.5,1,1.1,.7,1.4,1.5,1.4,2.5,0,1.3-1.3,1.4-3.7,1.8-5.7,.8-11,1.7-15.9,2.6,.4,.2,.7,.5,1,.7,.6,.5,.7,1.1,.7,1.7,0,.4,0,.6-.2,1-.4,1-.5,1.6-.6,4-.1,2.7-.1,5.3-.2,7.8,8-1,15.4-1.8,21-2.4,1.7-.2,2.9-.4,3.6-.8,.7-.4,1.4-.6,1.9-.6,.6,0,1.3,.2,2,.5,3.2,1.1,4.3,2.1,4.3,3.5,0,1.3-1,1.8-2.6,1.8-6.2,.1-13.7,.5-21.8,1.3-2.9,.3-5.8,.6-8.5,1-.1,3.7-.2,10.6-.2,12.2,0,4.7,1.8,6.1,6.1,6.4,.6,.1,1.2,.1,1.8,.1,1.6,0,3.3-.2,4.7-.3,1.9-.2,3.3-.4,4.6-.8,.5-.2,1.2-.2,2.1-.2,.7,0,1.6,.1,2.4,.3,2.7,.7,3.3,1.8,3.3,3.4,0,1.5-1.7,2.1-4.7,2.3-3.3,.2-5.9,.5-9,.5-2,0-4.2-.1-6.7-.4-5.5-.6-9.4-3.6-9.4-10.3v-12.4h0Z"/>
  <path class="cls-2" d="M55.3,124.2c-.8,.1-1.5,.2-1.8,.3-.4,.1-.5,.1-.7,.2h-.2c-.07,0-.13-.03-.2-.1-.2-.2-.4-.5-.4-.6,0,0,0-.1,.1-.1,.3,0,.6,0,.8-.1,.4-.1,1.4-.2,2.4-.3v-2.3c-.3,0-.9,.1-1.4,.2h-.1c-.1,0-.2,0-.2-.1-.3-.2-.4-.4-.4-.4,0,0,0-.1,.1-.1,.5-.1,1.8-.2,2.4-.3,.5-.1,1.2-.2,1.6-.3,.2,0,.4-.1,.5-.2,.1,0,.2-.1,.3-.1,.2,0,.4,.1,.5,.2,.2,.1,.2,.2,.2,.4s-.2,.2-.6,.3c-.9,.1-1.7,.3-2.4,.4,.1,0,.1,.1,.1,.1,.1,.1,.1,.2,.1,.3v.2c-.07,.13-.1,.33-.1,.6v1.2c1.2-.2,2.3-.3,3.1-.4,.3,0,.4-.1,.5-.1,.1-.1,.2-.1,.3-.1s.2,0,.3,.1c.5,.2,.6,.3,.6,.5s-.1,.3-.4,.3c-.9,0-2.1,.1-3.3,.2-.4,0-.9,.1-1.3,.1v1.8c0,.7,.3,.9,.9,1h1c.3,0,.5-.1,.7-.1h.7c.4,.1,.5,.3,.5,.5s-.3,.3-.7,.3c-.5,0-.9,.1-1.3,.1-.3,0-.6,0-1-.1-.8-.1-1.4-.5-1.4-1.5v-2h.2Z"/>
  <g id="_モ" data-name=" モ">
    <g>
      <circle class="cls-4" cx="25.1" cy="37.4" r="5.3"/>
      <path class="cls-1" d="M26,40.9h-1.4v-4.9h-1.7v-.9c.4,0,.7,0,.9-.1,.3-.1,.5-.2,.7-.4,.1-.1,.2-.3,.3-.5,0-.1,.1-.2,.1-.3h1.2v7.1s-.1,0-.1,0Z"/>
    </g>
    <g>
      <circle class="cls-4" cx="16.9" cy="58.4" r="5.3"/>
      <path class="cls-1" d="M17.6,55.7c-.2-.2-.4-.3-.7-.3-.4,0-.7,.2-.9,.5-.1,.2-.1,.5-.2,.9h-1.4c0-.6,.1-1.1,.3-1.5,.4-.7,1-1.1,2-1.1,.7,0,1.3,.2,1.8,.6,.4,.4,.7,1,.7,1.6,0,.5-.2,1-.5,1.4-.2,.3-.5,.6-1,.9l-.6,.4c-.3,.2-.6,.4-.7,.5s-.2,.2-.3,.4h3.1v1.2h-4.8c0-.5,.1-1,.3-1.4,.2-.5,.7-1,1.4-1.5,.6-.5,1.1-.8,1.2-1,.3-.3,.4-.6,.4-1,.1-.1,.1-.4-.1-.6Z"/>
    </g>
    <g>
      <circle class="cls-4" cx="59.9" cy="42.7" r="5.3"/>
      <path class="cls-1" d="M59.1,40.4c-.2,.2-.2,.5-.2,.8h-1.3c0-.4,.1-.7,.2-1,.1-.3,.3-.5,.5-.8,.2-.2,.4-.3,.6-.4s.6-.1,.9-.1c.7,0,1.2,.2,1.6,.5,.4,.4,.6,.8,.6,1.4,0,.4-.1,.8-.4,1.1-.2,.2-.3,.3-.5,.4,.1,0,.3,.1,.5,.3,.4,.3,.5,.8,.5,1.3,0,.6-.2,1.1-.6,1.6-.4,.5-1,.7-1.8,.7-1,0-1.7-.3-2.1-1-.2-.3-.3-.8-.3-1.4h1.4c0,.3,0,.5,.1,.7,.2,.3,.5,.5,.9,.5,.3,0,.5-.1,.7-.3s.3-.5,.3-.8c0-.5-.2-.8-.6-.9-.2-.1-.6-.1-1-.1v-1c.5,0,.8-.1,.9-.1,.3-.1,.5-.4,.5-.8,0-.3-.1-.5-.2-.7-.2-.2-.4-.3-.7-.3-.1,.1-.3,.2-.5,.4Z"/>
    </g>
    <path class="cls-5" d="M73,30h1.1l1.2,1.8,1.2-1.8h1.1l-1.8,2.5,1.8,2.7h-1.1l-1.3-2-1.3,2h-1.1l1.8-2.7s-1.6-2.5-1.6-2.5Z"/>
    <path class="cls-5" d="M86.4,48.9h1.1l1.2,1.8,1.2-1.8h1.1l-1.8,2.5,1.8,2.7h-1.1l-1.3-2-1.3,2h-1.1l1.8-2.7s-1.6-2.5-1.6-2.5Z"/>
    <path class="cls-5" d="M78.5,74.5h1.1l1.2,1.8,1.2-1.8h1.1l-1.8,2.5,1.8,2.7h-1.1l-1.3-2-1.3,2h-1l1.8-2.7s-1.7-2.5-1.7-2.5Z"/>
    <path class="cls-7" d="M41.2,63.7s-.5,11.1,.5,13.8c.9,2.7,1.6,4.4,6,5.9s9.9,2,9.9,2l-3.6-2"/>
    <polyline class="cls-7" points="35.9 31.4 61.2 28.2 55.4 26.4"/>
  </g>
</svg>