<?xml version="1.0" encoding="UTF-8"?>
<svg id="_レイヤー_1" data-name=" レイヤー 1" xmlns="http://www.w3.org/2000/svg" viewBox="0 0 110.8 127.6">
  <defs>
    <style>
      .cls-1 {
        fill: #fff;
      }

      .cls-2 {
        fill: #333330;
      }

      .cls-3 {
        fill: #ccc;
      }

      .cls-4 {
        fill: #d83523;
      }

      .cls-5 {
        fill: #898880;
      }

      .cls-6 {
        fill: #fbfbf9;
        stroke: #b0afa7;
        stroke-width: .8px;
      }

      .cls-7 {
        stroke: #e7211a;
        stroke-width: .5px;
      }

      .cls-7, .cls-8 {
        fill: none;
      }

      .cls-8 {
        stroke: #d8d6cf;
        stroke-dasharray: 0 0 0 0 0 0 3 3;
        stroke-width: .4px;
      }
    </style>
  </defs>
  <path class="cls-6" d="M3.4,.4H107.4c1.7,0,3,1.3,3,3V107.4c0,1.7-1.3,3-3,3H3.4c-1.7,0-3-1.3-3-3V3.4c0-1.7,1.3-3,3-3Z"/>
  <line class="cls-8" x1="55.4" y1=".4" x2="55.4" y2="110.4"/>
  <line class="cls-8" x1=".4" y1="55.4" x2="110.4" y2="55.4"/>
  <path class="cls-3" d="M41.2,79c-2,.4-3.4,.9-4.2,1.3-.3,.2-.6,.2-.8,.2-.6,0-1-.3-1.6-.9-1.3-1.4-2.6-4-2.6-4.4,0-.5,.5-.9,1.2-1.1,1.6-.5,3-1.4,4-3.1,6.4-10.5,12.1-20.3,17.2-32.2,1.2-2.8,1.8-5.4,1.8-8,0-1.1,.2-1.8,1.2-1.8,.7,0,2.6,1.1,4.2,2.5,1.8,1.5,2.5,2.5,2.5,3.3,0,.5-.2,1-.7,1.5-.9,1-2.6,3.6-3.7,5.4-5.7,9.9-13.2,22.3-19.3,32.1,13.2-1.5,25.4-3.4,36.7-5-2.5-4.6-5.6-9.6-9-14.2-.2-.2-.2-.5-.2-.8,0-.6,.6-1,1.2-1,.2,0,.6,.2,.8,.3,5.8,4.1,10.6,10,15,16.7,2.1,3.2,2.6,5.6,2.6,7.3,0,2.1-1,3.3-3,3.3-1.4,0-2.6-1.1-3.5-3.6-.7-1.7-1.6-3.6-2.6-5.5-11.7,2.7-24.5,5.3-37.2,7.7Z"/>
  <path class="cls-2" d="M53.3,127.4c-.3,.1-.5,.1-.6,.2h-.1c-.1,0-.2,0-.2-.1-.2-.2-.4-.6-.4-.7s.1-.1,.2-.2c.2-.1,.4-.2,.6-.5,1-1.6,1.8-3,2.6-4.8,.2-.4,.3-.8,.3-1.2,0-.2,0-.3,.2-.3,.1,0,.4,.2,.6,.4,.3,.2,.4,.4,.4,.5s0,.1-.1,.2c-.1,.2-.4,.5-.6,.8-.9,1.5-2,3.3-2.9,4.8,2-.2,3.8-.5,5.5-.8-.4-.7-.8-1.4-1.4-2.1v-.1c0-.1,.1-.2,.2-.2h.1c.9,.6,1.6,1.5,2.2,2.5,.3,.5,.4,.8,.4,1.1s-.2,.5-.4,.5-.4-.2-.5-.5-.2-.5-.4-.8c-1.9,.6-3.8,1-5.7,1.3Z"/>
  <g id="_ム" data-name=" ム">
    <path class="cls-5" d="M74.5,73.1c2,0,3.6,1.6,3.6,3.6s-1.6,3.6-3.6,3.6-3.6-1.6-3.6-3.6,1.6-3.6,3.6-3.6Z"/>
    <g>
      <circle class="cls-4" cx="60.7" cy="22.9" r="5.3"/>
      <path class="cls-1" d="M61.6,26.4h-1.4v-4.9h-1.7v-.9c.4,0,.7,0,.9-.1,.3-.1,.5-.2,.7-.4,.1-.1,.2-.3,.3-.5,0-.1,.1-.2,.1-.3h1.2v7.1s-.1,0-.1,0Z"/>
    </g>
    <g>
      <circle class="cls-4" cx="70.5" cy="46.7" r="5.3"/>
      <path class="cls-1" d="M71.2,44c-.2-.2-.4-.3-.7-.3-.4,0-.7,.2-.9,.5-.1,.2-.1,.5-.2,.9h-1.4c0-.6,.1-1.1,.3-1.5,.4-.7,1-1.1,2-1.1,.7,0,1.3,.2,1.8,.6,.4,.4,.7,1,.7,1.6,0,.5-.2,1-.5,1.4-.2,.3-.5,.6-1,.9l-.6,.4c-.3,.2-.6,.4-.7,.5s-.2,.2-.3,.4h3.1v1.2h-4.8c0-.5,.1-1,.3-1.4,.2-.5,.7-1,1.4-1.5,.6-.5,1.1-.8,1.2-1,.3-.3,.4-.6,.4-1,.1-.2,0-.4-.1-.6Z"/>
    </g>
    <path class="cls-5" d="M84.3,81.9h1.1l1.2,1.8,1.2-1.8h1.1l-1.8,2.5,1.8,2.7h-1.1l-1.3-2-1.3,2h-1.1l1.8-2.7s-1.6-2.5-1.6-2.5Z"/>
    <polyline class="cls-7" points="32.1 67.6 23.6 85.4 49.8 82.1 45.4 85.4"/>
  </g>
</svg>