<?xml version="1.0" encoding="UTF-8"?>
<svg id="_レイヤー_1" data-name=" レイヤー 1" xmlns="http://www.w3.org/2000/svg" viewBox="0 0 110.8 128">
  <defs>
    <style>
      .cls-1 {
        fill: #fff;
      }

      .cls-2 {
        fill: #333330;
      }

      .cls-3 {
        fill: #ccc;
      }

      .cls-4 {
        fill: #d83523;
      }

      .cls-5 {
        fill: #898880;
      }

      .cls-6 {
        fill: #fbfbf9;
        stroke: #b0afa7;
        stroke-width: .8px;
      }

      .cls-7 {
        stroke: #e7211a;
        stroke-width: .5px;
      }

      .cls-7, .cls-8 {
        fill: none;
      }

      .cls-8 {
        stroke: #d8d6cf;
        stroke-dasharray: 0 0 0 0 0 0 3 3;
        stroke-width: .4px;
      }
    </style>
  </defs>
  <path class="cls-6" d="M3.4,.4H107.4c1.7,0,3,1.3,3,3V107.4c0,1.7-1.3,3-3,3H3.4c-1.7,0-3-1.3-3-3V3.4c0-1.7,1.3-3,3-3Z"/>
  <line class="cls-8" x1="55.4" y1=".4" x2="55.4" y2="110.4"/>
  <line class="cls-8" x1=".4" y1="55.4" x2="110.4" y2="55.4"/>
  <path class="cls-3" d="M32.9,33.6c0-.6,.4-1,1-1,.2,0,.7,.1,1.3,.2,4.6,1.2,9,3.2,11.7,5.6,1.4,1.2,2.2,2.7,2.2,4.2,0,1.4-1.1,3-2.7,3-.6,0-1.7-.6-2.6-1.4-2.9-2.6-7.2-6.9-10.2-9.6-.5-.4-.7-.7-.7-1Zm1.5,43c.6,0,1.9,.6,3,.6,1,0,1.8-.3,2.6-.7,7-3.7,14.4-8.3,21.1-13.5,7.7-5.9,15.3-12.9,21-19.3,.4-.5,.9-.6,1.3-.6,.7,0,1.2,.5,1.2,1.2,0,.2-.1,.6-.2,.9-4,7-11.5,14.6-19,20.9-6.6,5.6-13.7,10.6-19.6,14.3-2.2,1.3-3.7,2.2-5,3.3-.5,.4-1,.6-1.6,.6-.9,0-2.3-1-4.3-3.8-.9-1.2-1.2-2.2-1.2-2.8-.2-.8,.2-1.1,.7-1.1Z"/>
  <path class="cls-2" d="M52.1,120.5c0-.1,.1-.2,.2-.2h.2c.7,.2,1.3,.5,1.8,.8,.2,.2,.3,.4,.3,.6s-.2,.5-.4,.5c-.1,0-.3-.1-.4-.2-.4-.4-1.1-1-1.5-1.4-.1,0-.2-.1-.2-.1Zm.3,6.4c.1,0,.3,.1,.4,.1s.3,0,.4-.1c1.1-.6,2.2-1.2,3.2-2,1.2-.9,2.3-1.9,3.1-2.9,.07-.07,.13-.1,.2-.1,.1,0,.2,.1,.2,.2v.1c-.6,1-1.7,2.2-2.8,3.1-1,.8-2.1,1.6-2.9,2.1-.3,.2-.6,.3-.8,.5-.07,.07-.13,.1-.2,.1-.1,0-.3-.2-.6-.6-.1-.2-.2-.3-.2-.4-.2,0-.1-.1,0-.1Z"/>
  <g id="_ン" data-name=" ン">
    <path class="cls-5" d="M86.9,34.2c2,0,3.6,1.6,3.6,3.6s-1.6,3.6-3.6,3.6-3.6-1.6-3.6-3.6,1.6-3.6,3.6-3.6Z"/>
    <g>
      <circle class="cls-4" cx="25.5" cy="31.4" r="5.2"/>
      <path class="cls-1" d="M26.4,34.9h-1.4v-4.8h-1.6v-.9c.4,0,.7,0,.9-.1,.3-.1,.5-.2,.7-.4,.1-.1,.2-.3,.3-.5,0-.1,.1-.2,.1-.3h1.1v7h-.1Z"/>
    </g>
    <g>
      <circle class="cls-4" cx="25.7" cy="84.5" r="5.2"/>
      <path class="cls-1" d="M26.4,81.8c-.2-.2-.4-.3-.7-.3-.4,0-.7,.2-.9,.5-.1,.2-.1,.5-.2,.9h-1.2c0-.6,.1-1.1,.3-1.4,.4-.7,1-1,2-1,.7,0,1.3,.2,1.8,.6,.4,.4,.7,1,.7,1.6,0,.5-.2,1-.5,1.4-.2,.3-.5,.6-1,.9l-.6,.4c-.3,.2-.6,.4-.7,.5s-.2,.2-.3,.4h3.1v1.2h-4.8c0-.5,.1-1,.3-1.4,.2-.5,.7-1,1.4-1.5,.6-.5,1-.8,1.2-1,.3-.3,.4-.6,.4-1,0-.3-.1-.6-.3-.8Z"/>
    </g>
    <path class="cls-5" d="M49,44.5h1.1l1.2,1.8,1.2-1.8h1.1l-1.7,2.5,1.8,2.7h-1.1l-1.3-1.9-1.2,1.9h-1.1l1.8-2.7-1.8-2.5Z"/>
    <path class="cls-7" d="M40.6,87.4s19.7-11.5,23.1-14.3c3.4-2.8,6.2-5.4,6.2-5.4l-1.8,4.5"/>
  </g>
</svg>