<?xml version="1.0" encoding="UTF-8"?>
<svg id="_レイヤー_1" data-name=" レイヤー 1" xmlns="http://www.w3.org/2000/svg" viewBox="0 0 110.8 128.6">
  <defs>
    <style>
      .cls-1 {
        fill: #fff;
      }

      .cls-2 {
        fill: #333330;
      }

      .cls-3 {
        fill: #ccc;
      }

      .cls-4 {
        fill: #d83523;
      }

      .cls-5 {
        fill: #898880;
      }

      .cls-6 {
        fill: #fbfbf9;
        stroke: #b0afa7;
        stroke-width: .8px;
      }

      .cls-7 {
        fill: none;
        stroke: #d8d6cf;
        stroke-dasharray: 0 0 0 0 0 0 3 3;
        stroke-width: .4px;
      }
    </style>
  </defs>
  <path class="cls-6" d="M3.4,.4H107.4c1.7,0,3,1.3,3,3V107.4c0,1.7-1.3,3-3,3H3.4c-1.7,0-3-1.3-3-3V3.4c0-1.7,1.3-3,3-3Z"/>
  <line class="cls-7" x1="55.4" y1=".4" x2="55.4" y2="110.4"/>
  <line class="cls-7" x1=".4" y1="55.4" x2="110.4" y2="55.4"/>
  <path class="cls-3" d="M30.2,50.3c1.7,0,3.4-.2,5.5-.3,7.4-.7,13.9-1.4,20-2,.1-1.8,.2-3.9,.2-6.4,0-1.4,0-3-.1-4.6-.1-2.9-.5-5.7-2.3-8.2-.2-.2-.2-.5-.2-.8,0-.7,.6-1.1,1.4-1.1,1,0,3.2,1,5.4,2.2,1.8,1,2.3,1.8,2.3,3,0,.6-.2,1.2-.3,1.6-.3,1-.6,1.8-.6,5.8,0,2.8-.1,5.4-.2,8,4.4-.4,8.6-.7,12.3-1,1.7-.2,3.3-.5,4.6-1,.6-.2,1.3-.3,2.1-.3,1.6,0,3.6,.6,5.1,1.6,1.2,.7,1.7,1.4,1.7,2.3s-1,1.8-2.6,1.8h-3.3c-6.2,0-13.1,.3-20.1,.9-1.4,18.2-6.6,30.4-17.7,38.2-.4,.3-.6,.4-.9,.4-.6,0-1.1-.5-1.1-1.1,0-.2,.1-.6,.5-1,7.6-8,12.2-19,13.7-36-7.2,.6-13.4,1.4-18.9,2.2-2.2,.3-3,.4-4.1,.6-.3,.1-.6,.2-.8,.2-.5,0-.6-.2-1.1-.6-1.6-1.6-2.2-3.1-2.2-3.7,0-.3,.2-.5,.7-.5h1s0-.2,0-.2Z"/>
  <path class="cls-2" d="M52.2,122.7h.8c1.1-.1,2.1-.2,3-.3v-1.7c0-.4-.1-.9-.3-1.2v-.1c0-.1,.1-.2,.2-.2,.2,0,.5,.1,.8,.3s.3,.3,.3,.4v.2c0,.1-.1,.3-.1,.9v1.2c.7-.1,1.3-.1,1.8-.2,.3,0,.5-.1,.7-.1h.3c.2,0,.5,.1,.8,.2,.2,.1,.3,.2,.3,.3s-.1,.3-.4,.3h-.5c-.9,0-2,0-3,.1-.2,2.7-1,4.6-2.7,5.7-.1,0-.1,.1-.1,.1-.1,0-.2-.1-.2-.2,0,0,0-.1,.1-.1,1.1-1.2,1.8-2.9,2.1-5.4-1.1,.1-2,.2-2.8,.3-.3,0-.5,.1-.6,.1h-.1c-.07,0-.13-.03-.2-.1-.2-.2-.3-.5-.3-.6,0,0,0-.1,.1-.1h0v.2h0Z"/>
  <g id="_ナ" data-name=" ナ">
    <path class="cls-5" d="M37.9,90.8c2,0,3.6,1.6,3.6,3.6s-1.6,3.6-3.6,3.6-3.6-1.6-3.6-3.6,1.7-3.6,3.6-3.6Z"/>
    <g>
      <circle class="cls-4" cx="21.3" cy="52.4" r="5.3"/>
      <path class="cls-1" d="M22.3,55.9h-1.4v-4.9h-1.7v-.9c.4,0,.7,0,.9-.1,.3-.1,.5-.2,.7-.4,.1-.1,.2-.3,.3-.5,0-.1,.1-.2,.1-.3h1.2v7.1s-.1,0-.1,0Z"/>
    </g>
    <g>
      <circle class="cls-4" cx="57.9" cy="19.4" r="5.3"/>
      <path class="cls-1" d="M58.6,16.7c-.2-.2-.4-.3-.8-.3s-.7,.2-.9,.5c-.1,.2-.1,.5-.2,.9h-1.4c0-.6,.1-1.1,.3-1.5,.4-.7,1-1.1,2-1.1,.7,0,1.3,.2,1.8,.6,.4,.4,.7,1,.7,1.6,0,.5-.2,1-.5,1.4-.2,.3-.5,.6-1,.9l-.6,.4c-.3,.2-.6,.4-.7,.5s-.2,.2-.3,.4h3.1v1.2h-4.7c0-.5,.1-1,.3-1.4,.2-.5,.7-1,1.4-1.5,.6-.5,1.1-.8,1.2-1,.3-.3,.4-.6,.4-1,.1-.2,0-.4-.1-.6Z"/>
    </g>
    <path class="cls-5" d="M88.9,45.2h1.1l1.2,1.8,1.2-1.8h1.1l-1.8,2.5,1.8,2.7h-1.1l-1.3-2-1.3,2h-1.1l1.8-2.7s-1.6-2.5-1.6-2.5Z"/>
  </g>
</svg>