<?xml version="1.0" encoding="UTF-8"?>
<svg id="_レイヤー_1" data-name=" レイヤー 1" xmlns="http://www.w3.org/2000/svg" viewBox="0 0 110.8 128.7">
  <defs>
    <style>
      .cls-1 {
        fill: #fff;
      }

      .cls-2 {
        fill: #333330;
      }

      .cls-3 {
        fill: #ccc;
      }

      .cls-4 {
        fill: #d83523;
      }

      .cls-5 {
        fill: #898880;
      }

      .cls-6 {
        fill: #fbfbf9;
        stroke: #b0afa7;
        stroke-width: .8px;
      }

      .cls-7 {
        stroke: #e7211a;
        stroke-width: .5px;
      }

      .cls-7, .cls-8 {
        fill: none;
      }

      .cls-8 {
        stroke: #d8d6cf;
        stroke-dasharray: 0 0 0 0 0 0 3 3;
        stroke-width: .4px;
      }
    </style>
  </defs>
  <path class="cls-6" d="M3.4,.4H107.4c1.7,0,3,1.3,3,3V107.4c0,1.7-1.3,3-3,3H3.4c-1.7,0-3-1.3-3-3V3.4c0-1.7,1.3-3,3-3Z"/>
  <line class="cls-8" x1="55.4" y1=".4" x2="55.4" y2="110.4"/>
  <line class="cls-8" x1=".4" y1="55.4" x2="110.4" y2="55.4"/>
  <path class="cls-3" d="M55.4,59.7c0-.4,0-1.1-.1-1.8-6.7,5.9-15.2,11.8-26.7,16.7-.2,.1-.5,.2-.7,.2-.7,0-1.1-.6-1.1-1.1s.2-1,.9-1.4c6.4-3.5,12.9-7.9,18.8-12.8,6.5-5.4,12.4-11.4,17.4-17.8-7,1.4-12.2,2.6-17.7,3.9-1.4,.3-2.9,.7-5.1,1.4-.6,.2-1,.3-1.4,.3-.5,0-.8-.2-1.2-.5-1.6-1.4-2.6-3.7-2.6-4.2s.3-.6,.9-.6c1.4,.1,1.8,.1,2.6,.1,1.1,0,2.3-.1,3.4-.2,5.6-.8,13.4-2.2,19.6-3.6,1.5-.3,2.4-.7,3.2-1.4,.5-.4,1-.6,1.6-.6,.7,0,1.7,.5,3.4,2,1.2,1.1,1.4,1.6,1.4,2.1,0,.6-.6,1-1,1.4-1.4,1.6-2.9,3.4-3.7,4.2-2.6,3-5.4,5.9-9,9.4,1.5,.6,2.5,1.4,2.5,2.5,0,.4-.1,.7-.2,1.8-.1,1.4-.1,2.5-.1,3.1v9.9c0,3.8,0,7.8,.1,12,0,1.7-.7,3.7-2.3,3.7-2.1,0-3.8-3.3-3.8-6.2,0-1.4,.7-2.2,.8-4.2,.2-3.4,.2-9.3,.2-14.1v-4.2s-.1,0-.1,0Zm-5.3-36.7c0-.5,.3-.7,1-.7,.3,0,.4,0,1,.1,3.4,.4,6.9,1.4,9.4,3.2,2.1,1.4,3.2,3.1,3.2,4.7,0,1.3-.7,2.4-2,2.4s-2.4-.6-3.5-1.4c-3-2.6-5.9-5-8.4-7.2-.5-.3-.7-.7-.7-1.1Zm15,33.5c0-.6,.5-1,1.3-1,.2,0,.3,0,1,.1,4.9,.6,8.6,1.9,11.9,3.9,3.8,2.3,4.8,4,4.8,5.5,0,1.7-1,3-2.6,3-1.3,0-2.8-1.2-5.3-3.3-2.8-2.3-7.7-5.5-10.5-7.4-.4-.2-.6-.5-.6-.8Z"/>
  <path class="cls-2" d="M56,124.4v-.3c-1,.9-2.3,1.8-4,2.5h-.1c-.1,0-.2-.1-.2-.2s0-.2,.1-.2c1-.5,1.9-1.2,2.8-1.9,1-.8,1.9-1.7,2.6-2.7-1,.2-1.8,.4-2.7,.6-.2,0-.4,.1-.8,.2h-.2c-.07,0-.13-.03-.2-.1-.2-.2-.4-.6-.4-.6,0,0,0-.1,.1-.1h.9c.8-.1,2-.3,2.9-.5,.2,0,.4-.1,.5-.2s.2-.1,.2-.1c.1,0,.3,.1,.5,.3s.2,.2,.2,.3-.1,.2-.1,.2c-.2,.2-.4,.5-.6,.6-.4,.5-.8,.9-1.4,1.4,.2,.1,.4,.2,.4,.4v4.1c0,.3-.1,.6-.3,.6-.3,0-.6-.5-.6-.9,0-.2,.1-.3,.1-.6v-2.8h.3Zm-.8-5.5c0-.07,.03-.1,.1-.1h.2c.5,.1,1,.2,1.4,.5,.3,.2,.5,.5,.5,.7s-.1,.4-.3,.4-.4-.1-.5-.2c-.5-.4-.9-.7-1.3-1.1,0-.1-.1-.2-.1-.2Zm2.3,5c0-.1,.1-.1,.2-.1h.1c.7,.1,1.3,.3,1.8,.6,.6,.3,.7,.6,.7,.8,0,.3-.1,.4-.4,.4-.2,0-.4-.2-.8-.5s-1.2-.8-1.6-1.1c-.27-.2-.27-.23,0-.1Z"/>
  <g id="_ネ" data-name=" ネ">
    <path class="cls-5" d="M21.7,73c2,0,3.6,1.6,3.6,3.6s-1.6,3.6-3.6,3.6-3.6-1.6-3.6-3.6,1.6-3.6,3.6-3.6Z"/>
    <g>
      <circle class="cls-4" cx="44.8" cy="18.5" r="5.3"/>
      <path class="cls-1" d="M45.7,22.1h-1.4v-4.9h-1.7v-.9c.4,0,.7,0,.9-.1,.3-.1,.5-.2,.7-.4,.1-.1,.2-.3,.3-.5,0-.1,.1-.2,.1-.3h1.2v7.1h-.1Z"/>
    </g>
    <g>
      <circle class="cls-4" cx="29.2" cy="44" r="5.3"/>
      <path class="cls-1" d="M29.9,41.3c-.2-.2-.4-.3-.7-.3-.4,0-.7,.2-.9,.5-.1,.2-.1,.5-.2,.9h-1.4c0-.6,.1-1.1,.3-1.5,.4-.7,1-1.1,2-1.1,.7,0,1.3,.2,1.8,.6,.4,.4,.7,1,.7,1.6,0,.5-.2,1-.5,1.4-.2,.3-.5,.6-1,.9l-.6,.4c-.3,.2-.6,.4-.7,.5s-.2,.2-.3,.4h3.1v1.2h-4.8c0-.5,.1-1,.3-1.4,.2-.5,.7-1,1.4-1.5,.6-.5,1.1-.8,1.2-1,.3-.3,.4-.6,.4-1,.1-.1,0-.4-.1-.6Z"/>
    </g>
    <g>
      <circle class="cls-4" cx="46.2" cy="72.3" r="5.3"/>
      <path class="cls-1" d="M45.5,70.1c-.2,.2-.2,.5-.2,.8h-1.3c0-.4,.1-.7,.2-1s.3-.5,.5-.8c.2-.2,.4-.3,.6-.4s.6-.1,.9-.1c.7,0,1.2,.2,1.6,.5,.4,.4,.6,.8,.6,1.4,0,.4-.1,.8-.4,1.1-.2,.2-.3,.3-.5,.4,.1,0,.3,.1,.5,.3,.4,.3,.5,.8,.5,1.3,0,.6-.2,1.1-.6,1.6s-1,.7-1.8,.7c-1,0-1.7-.3-2.1-1-.2-.3-.3-.8-.3-1.4h1.4c0,.3,0,.5,.1,.7,.2,.3,.5,.5,.9,.5,.3,0,.5-.1,.7-.3s.3-.5,.3-.8c0-.5-.2-.8-.6-.9-.2-.1-.6-.1-1-.1v-1c.5,0,.8-.1,.9-.1,.3-.1,.5-.4,.5-.8,0-.3-.1-.5-.2-.7-.2-.2-.4-.3-.7-.3-.1,.1-.4,.2-.5,.4Z"/>
    </g>
    <path class="cls-5" d="M55.5,90.3h1.1l1.2,1.8,1.2-1.8h1.1l-1.8,2.5,1.8,2.7h-1.1l-1.3-2-1.3,2h-1.1l1.8-2.7s-1.6-2.5-1.6-2.5Z"/>
    <path class="cls-5" d="M84.4,66.3h1.1l1.2,1.8,1.2-1.8h1.1l-1.8,2.5,1.8,2.7h-1.1l-1.3-2-1.3,2h-1.1l1.8-2.7s-1.6-2.5-1.6-2.5Z"/>
    <path class="cls-5" d="M65.8,26.2h1.1l1.2,1.8,1.2-1.8h1.1l-1.8,2.5,1.8,2.7h-1l-1.3-2-1.3,2h-1.1l1.8-2.7s-1.7-2.5-1.7-2.5Z"/>
    <g>
      <circle class="cls-4" cx="76.7" cy="50.2" r="5.2"/>
      <path class="cls-1" d="M79.1,51.1v1.1h-.7v1.5h-1.3v-1.5h-2.8v-1.2l2.6-4.2h1.5v4.4h.7s0-.1,0-.1Zm-3.8,0h1.8v-3l-1.8,3Z"/>
    </g>
    <polyline class="cls-7" points="54.7 34.6 76.7 33.5 71.5 45.5 74.7 42"/>
    <polyline class="cls-7" points="53.4 56.6 53.4 82.1 51.1 78.4"/>
    <polyline class="cls-7" points="66.9 53.6 79.6 58.7 77.9 56.2"/>
  </g>
</svg>