<?xml version="1.0" encoding="UTF-8"?>
<svg id="_レイヤー_1" data-name=" レイヤー 1" xmlns="http://www.w3.org/2000/svg" viewBox="0 0 110.8 128.5">
  <defs>
    <style>
      .cls-1 {
        fill: #fff;
      }

      .cls-2 {
        fill: #333330;
      }

      .cls-3 {
        fill: #ccc;
      }

      .cls-4 {
        fill: #d83523;
      }

      .cls-5 {
        fill: #898880;
      }

      .cls-6 {
        fill: #fbfbf9;
        stroke: #b0afa7;
        stroke-width: .8px;
      }

      .cls-7 {
        stroke: #e7211a;
        stroke-width: .5px;
      }

      .cls-7, .cls-8 {
        fill: none;
      }

      .cls-8 {
        stroke: #d8d6cf;
        stroke-dasharray: 0 0 0 0 0 0 3 3;
        stroke-width: .4px;
      }
    </style>
  </defs>
  <path class="cls-6" d="M3.4,.4H107.4c1.7,0,3,1.3,3,3V107.4c0,1.7-1.3,3-3,3H3.4c-1.7,0-3-1.3-3-3V3.4c0-1.7,1.3-3,3-3Z"/>
  <line class="cls-8" x1="55.4" y1=".4" x2="55.4" y2="110.4"/>
  <line class="cls-8" x1=".4" y1="55.4" x2="110.4" y2="55.4"/>
  <path class="cls-3" d="M68.5,66.1c1.5,1.8,2.2,3.3,2.2,4.4,0,1.7-.9,2.9-2.1,2.9-1,0-2.6-1.3-4.8-3.9-1.3-1.4-3.5-3.4-4.9-4.9-6.6,9.2-15.4,17.6-26.9,22.3-.2,.1-.6,.2-.8,.2-.6,0-1.1-.3-1.1-.9,0-.5,.2-1,1-1.4,10.6-6.8,18.3-15,24-23.8-3.9-3.5-8.2-6.9-13-10.2-.5-.3-.6-.6-.6-1,0-.7,.5-1,1-1,.2,0,.4,0,.8,.2,5.8,2.3,10.6,5,14.5,7.8,4.2-7,7.2-14.3,9.6-21.4,.1-.2,.2-.5,.2-.6,0-.3-.2-.4-.6-.4-.2,0-.4,0-1,.1-5.5,.7-14.7,2.2-20,2.8-1.8,.3-3.8,.7-5,1-.4,.1-.7,.1-1,.1-.4,0-.9-.1-1.3-.5-1.4-1.4-2.2-3-2.2-3.6,0-.4,.2-.6,.9-.6,1.8,0,3.9-.2,5.3-.3,6.6-.6,15.8-1.8,22.2-2.6,1.8-.2,2.5-.4,3.8-1.3,.3-.2,.8-.4,1.3-.4,.6,0,1.4,.5,3.2,1.8,1.4,1,2.2,2.2,2.2,2.7,0,.6-.2,.9-.9,1.6-.9,1-1.4,3-3.6,8-2.2,5.4-5.2,11.3-8.8,17,2.1,1.6,4.7,4.1,6.4,5.9h0Z"/>
  <path class="cls-2" d="M57.5,125.4c.2,.3,.3,.5,.3,.7,0,.3-.1,.4-.3,.4s-.4-.2-.7-.6c-.2-.2-.5-.5-.7-.7-1,1.4-2.3,2.6-4,3.3h-.1c-.1,0-.2,0-.2-.1s0-.1,.1-.2c1.6-1,2.7-2.2,3.6-3.6-.6-.5-1.2-1-1.9-1.5-.1,0-.1-.1-.1-.2s.1-.2,.2-.2h.1c.9,.3,1.6,.7,2.2,1.2,.6-1,1.1-2.1,1.4-3.2v-.1s0-.1-.1-.1h-.2c-.8,.1-2.2,.3-3,.4-.3,0-.6,.1-.7,.1h-.2c-.07,0-.13-.03-.2-.1-.2-.2-.3-.5-.3-.5,0-.07,.03-.1,.1-.1h.8c1-.1,2.4-.3,3.3-.4,.3,0,.4-.1,.6-.2,0,0,.1-.1,.2-.1s.2,.1,.5,.3c.2,.2,.3,.3,.3,.4s0,.1-.1,.2-.2,.5-.5,1.2c-.3,.8-.8,1.7-1.3,2.6,.3,.4,.7,.8,.9,1.1Z"/>
  <g id="_ヌ" data-name=" ヌ">
    <path class="cls-5" d="M25.9,84.9c2,0,3.6,1.6,3.6,3.6s-1.6,3.6-3.6,3.6-3.6-1.6-3.6-3.6,1.6-3.6,3.6-3.6Z"/>
    <g>
      <circle class="cls-4" cx="29.6" cy="34.8" r="5.3"/>
      <path class="cls-1" d="M30.6,38.4h-1.4v-4.9h-1.7v-.9c.4,0,.7,0,.9-.1,.3-.1,.5-.2,.7-.4,.1-.1,.2-.3,.3-.5,0-.1,.1-.2,.1-.3h1.2v7.1s-.1,0-.1,0Z"/>
    </g>
    <g>
      <circle class="cls-4" cx="34.9" cy="49.3" r="5.3"/>
      <path class="cls-1" d="M35.6,46.6c-.2-.2-.4-.3-.7-.3-.4,0-.7,.2-.9,.5-.1,.2-.1,.5-.2,.9h-1.4c0-.6,.1-1.1,.3-1.5,.4-.7,1-1.1,2-1.1,.7,0,1.3,.2,1.8,.6,.4,.4,.7,1,.7,1.6,0,.5-.2,1-.5,1.4-.2,.3-.5,.6-1,.9l-.6,.4c-.3,.2-.6,.4-.7,.5s-.2,.2-.3,.4h3.1v1.2h-4.8c0-.5,.1-1,.3-1.4,.2-.5,.7-1,1.4-1.5,.6-.5,1.1-.8,1.2-1,.3-.3,.4-.6,.4-1,.2-.1,.1-.4-.1-.6Z"/>
    </g>
    <path class="cls-5" d="M71.1,73.1h1.1l1.2,1.8,1.2-1.8h1.1l-1.8,2.5,1.8,2.7h-1.1l-1.3-2-1.3,2h-1.1l1.8-2.7s-1.6-2.5-1.6-2.5Z"/>
    <polyline class="cls-7" points="59.9 27 81.9 25.9 76.7 37.9 79.9 34.4"/>
  </g>
</svg>