<?xml version="1.0" encoding="UTF-8"?>
<svg id="_レイヤー_1" data-name=" レイヤー 1" xmlns="http://www.w3.org/2000/svg" viewBox="0 0 110.8 128.2">
  <defs>
    <style>
      .cls-1 {
        fill: #fff;
      }

      .cls-2 {
        fill: #333330;
      }

      .cls-3 {
        fill: #ccc;
      }

      .cls-4 {
        fill: #d83523;
      }

      .cls-5 {
        fill: #898880;
      }

      .cls-6 {
        fill: #fbfbf9;
        stroke: #b0afa7;
        stroke-width: .8px;
      }

      .cls-7 {
        fill: none;
        stroke: #d8d6cf;
        stroke-dasharray: 0 0 0 0 0 0 3 3;
        stroke-width: .4px;
      }
    </style>
  </defs>
  <path class="cls-6" d="M3.4,.4H107.4c1.7,0,3,1.3,3,3V107.4c0,1.7-1.3,3-3,3H3.4c-1.7,0-3-1.3-3-3V3.4c0-1.7,1.3-3,3-3Z"/>
  <line class="cls-7" x1="55.4" y1=".4" x2="55.4" y2="110.4"/>
  <line class="cls-7" x1=".4" y1="55.4" x2="110.4" y2="55.4"/>
  <path class="cls-3" d="M41.4,40c0-5.1-.2-7.8-1.6-11-.1-.2-.2-.4-.2-.6,0-.6,.4-1.2,1-1.2,.7,0,4.4,1.4,6.5,3.1,.7,.6,1,1.3,1,2.1,0,.4-.1,.9-.3,1.3-.6,1.1-.8,3-1,7-.2,7.1-.5,20.2-.6,35.7,16.3-6.8,26.8-15.7,36.4-25.4,.4-.4,.9-.6,1.3-.6,.6,0,1,.5,1,1,0,.3-.1,.5-.3,.9-7.3,11.8-20.2,21.4-35.8,29.4-.8,.5-1.8,1-2.6,1.5-.6,.5-1.4,.8-2,.8-.5,0-1-.2-1.4-.6-2.2-2.6-2.6-3.9-2.6-4.6,0-.3,.1-.8,.3-1.1,.3-.5,.4-1.3,.4-3.2,.2-8.1,.2-19,.2-27.3v-7.2s.3,0,.3,0Z"/>
  <path class="cls-2" d="M53.3,121.6c0-.8,0-1.2-.2-1.6v-.1c0-.1,.1-.2,.2-.2s.7,.2,1,.5c.1,.1,.2,.2,.2,.3v.2c-.1,.2-.1,.4-.1,1.1,0,1.1-.1,3-.1,5.3,2.4-1,4-2.4,5.5-3.8,.07-.07,.13-.1,.2-.1,.1,0,.2,.1,.2,.2v.1c-1.1,1.8-3,3.2-5.4,4.4-.1,.1-.3,.1-.4,.2-.1,.1-.2,.1-.3,.1s-.1,0-.2-.1c-.3-.4-.4-.6-.4-.7v-.2c0-.1,.1-.2,.1-.5v-5.1h-.3Z"/>
  <g id="_レ" data-name=" レ">
    <path class="cls-5" d="M87.8,43.1c2,0,3.6,1.6,3.6,3.6s-1.6,3.6-3.6,3.6-3.6-1.6-3.6-3.6,1.6-3.6,3.6-3.6Z"/>
    <g>
      <circle class="cls-4" cx="43.1" cy="19.7" r="5.2"/>
      <path class="cls-1" d="M44,23.2h-1.4v-4.8h-1.6v-1c.4,0,.7,0,.9-.1,.3-.1,.5-.2,.7-.4,.1-.1,.2-.3,.3-.5,0-.1,.1-.2,.1-.3h1.1v7.1s-.1,0-.1,0Z"/>
    </g>
    <path class="cls-5" d="M45.2,85.2l-2,5.4h-.8l-2-5.4h.9l1.1,3.1c.2,.5,.3,.9,.4,1.4h0c.1-.4,.3-.9,.4-1.4l1.1-3.1s.9,0,.9,0Z"/>
  </g>
</svg>