<?xml version="1.0" encoding="UTF-8"?>
<svg id="_レイヤー_1" data-name=" レイヤー 1" xmlns="http://www.w3.org/2000/svg" viewBox="0 0 110.8 128.6">
  <defs>
    <style>
      .cls-1 {
        fill: #fff;
      }

      .cls-2 {
        fill: #333330;
      }

      .cls-3 {
        fill: #ccc;
      }

      .cls-4 {
        fill: #d83523;
      }

      .cls-5 {
        fill: #898880;
      }

      .cls-6 {
        fill: #fbfbf9;
        stroke: #b0afa7;
        stroke-width: .8px;
      }

      .cls-7 {
        fill: none;
        stroke: #d8d6cf;
        stroke-dasharray: 0 0 0 0 0 0 3 3;
        stroke-width: .4px;
      }
    </style>
  </defs>
  <path class="cls-6" d="M3.4,.4H107.4c1.7,0,3,1.3,3,3V107.4c0,1.7-1.3,3-3,3H3.4c-1.7,0-3-1.3-3-3V3.4c0-1.7,1.3-3,3-3Z"/>
  <line class="cls-7" x1="55.4" y1=".4" x2="55.4" y2="110.4"/>
  <line class="cls-7" x1=".4" y1="55.4" x2="110.4" y2="55.4"/>
  <path class="cls-3" d="M39.2,29.2c0-.4,.3-.6,.9-.6,.9,0,3,1,4.9,2.8,.8,.7,1,1.6,1,2.5,0,.3,0,.4-.1,1.3-.1,1-.2,2.1-.2,3.1-.2,6.6-.2,13.4-.2,19.4,0,2.6-.7,3.6-2.2,3.6-.8,0-1.5-.5-2.1-1.4-1.1-1.7-1.5-3.7-1.5-4.5,0-.5,.1-1,.3-1.5,.3-1,.3-2.9,.4-5.7,.1-5,.1-8.2,.1-11,0-3.3-.3-5.4-1.2-7.3-.1-.3-.1-.5-.1-.7Zm25.2-4.3c0-.6,.4-1,1-1,.9,0,4,1.8,6.1,3.8,.6,.6,.8,1.2,.8,1.9,0,.4-.2,.9-.3,1.4-.3,.8-.4,1.8-.4,3,0,2.2,0,13.3-.4,23.3-.2,5.1-1.2,10.5-3.6,15.4-2.7,5.5-7,10.6-13.9,14.9-.2,.2-.5,.2-.7,.2-.6,0-1-.3-1-.8,0-.2,.2-.6,.4-.8,6.7-6.8,9.4-11.6,11.1-16.4,2.4-7,2.6-13.9,2.6-27,0-2.9-.1-6.2-.2-10.3,0-2.8-.4-5.3-1.2-6.7-.2-.4-.3-.6-.3-.9h0Z"/>
  <path class="cls-2" d="M53,120c0-.07,.03-.1,.1-.1,.1,0,.4,.2,.7,.4,.1,.1,.2,.2,.2,.4v3.6c0,.4-.1,.5-.3,.5-.1,0-.2-.1-.3-.2-.2-.3-.2-.6-.2-.7v-.2c0-.1,0-.4,.1-.9v-1.6c0-.5,0-.8-.2-1.1l-.1-.1h0Zm3.8-.7c0-.1,.1-.2,.1-.2,.1,0,.6,.3,.9,.6,.1,.1,.1,.2,.1,.3v.2c0,.1-.1,.3-.1,.4,0,.3,0,2-.1,3.5,0,.8-.2,1.6-.5,2.3-.4,.8-1,1.6-2.1,2.2h-.1c-.07,0-.1-.03-.1-.1q0-.1,.1-.1c1-1,1.4-1.7,1.7-2.5,.4-1,.4-2.1,.4-4v-1.5c0-.4-.1-.8-.2-1-.07,0-.1-.03-.1-.1Z"/>
  <g id="_リ" data-name=" リ">
    <path class="cls-5" d="M47.7,87c2,0,3.6,1.6,3.6,3.6s-1.6,3.6-3.6,3.6-3.6-1.6-3.6-3.6,1.6-3.6,3.6-3.6Z"/>
    <path class="cls-5" d="M41,63.1h1.1l1.2,1.8,1.2-1.8h1.1l-1.8,2.5,1.8,2.7h-1.1l-1.3-2-1.3,2h-1.1l1.8-2.7s-1.6-2.5-1.6-2.5Z"/>
    <g>
      <circle class="cls-4" cx="41.7" cy="22" r="5.2"/>
      <path class="cls-1" d="M42.6,25.5h-1.4v-4.8h-1.6v-.9c.4,0,.7,0,.9-.1,.3-.1,.5-.2,.7-.4,.1-.1,.2-.3,.3-.5,0-.1,.1-.2,.1-.3h1.1v7s-.1,0-.1,0Z"/>
    </g>
    <g>
      <circle class="cls-4" cx="68.2" cy="16.8" r="5.2"/>
      <path class="cls-1" d="M68.9,14.1c-.2-.2-.4-.3-.7-.3-.4,0-.7,.2-.9,.5-.1,.2-.1,.5-.2,.9h-1.3c0-.6,.1-1.1,.3-1.4,.4-.7,1-1,2-1,.7,0,1.3,.2,1.8,.6,.4,.4,.7,1,.7,1.6,0,.5-.2,1-.5,1.4-.2,.3-.5,.6-1,.9l-.6,.4c-.3,.2-.6,.4-.7,.5s-.2,.2-.3,.4h3.1v1.2h-4.8c0-.5,.1-1,.3-1.4,.2-.5,.7-1,1.4-1.5,.6-.5,1-.8,1.2-1,.3-.3,.4-.6,.4-1,.1-.3,0-.6-.2-.8Z"/>
    </g>
  </g>
</svg>