<?xml version="1.0" encoding="UTF-8"?>
<svg id="_レイヤー_1" data-name=" レイヤー 1" xmlns="http://www.w3.org/2000/svg" viewBox="0 0 110.8 128.5">
  <defs>
    <style>
      .cls-1 {
        fill: #fff;
      }

      .cls-2 {
        fill: #333330;
      }

      .cls-3 {
        fill: #ccc;
      }

      .cls-4 {
        fill: #d83523;
      }

      .cls-5 {
        fill: #898880;
      }

      .cls-6 {
        fill: #fbfbf9;
        stroke: #b0afa7;
        stroke-width: .8px;
      }

      .cls-7 {
        fill: none;
        stroke: #d8d6cf;
        stroke-dasharray: 0 0 0 0 0 0 3 3;
        stroke-width: .4px;
      }
    </style>
  </defs>
  <path class="cls-6" d="M3.4,.4H107.4c1.7,0,3,1.3,3,3V107.4c0,1.7-1.3,3-3,3H3.4c-1.7,0-3-1.3-3-3V3.4c0-1.7,1.3-3,3-3Z"/>
  <line class="cls-7" x1="55.4" y1=".4" x2="55.4" y2="110.4"/>
  <line class="cls-7" x1=".4" y1="55.4" x2="110.4" y2="55.4"/>
  <path class="cls-3" d="M44.7,55.9c0,1.6-1.1,2.3-2.6,2.3-1.4,0-1.7-.2-3.4-1.5-2.1-1.6-6.3-4.8-8.5-6.4-.5-.4-.8-.9-.8-1.2,0-.6,.6-.9,1.1-.9,1,0,5.5,.6,9.4,2.2,3.7,1.6,4.8,3.4,4.8,5.5Zm-8.7,21.2c.6,0,1.9,.6,3.8,.6,.8,0,1.8-.3,2.8-.8,6.7-3.1,14.6-7.8,22-13.6,7.1-5.4,13.8-11.6,19.3-18.2,.4-.5,.7-.6,1-.6,.6,0,1.3,.6,1.3,1.3,0,.2-.1,.5-.2,.8-4.1,7.4-11.1,14.7-18.6,21.1-6.6,5.4-13,9.7-19,13-1.5,.9-3.4,1.9-4.3,2.6-1.2,1-2.1,1.4-2.6,1.4-.6,0-1.4-.2-2.9-1.7-2.4-2.2-3.5-4.1-3.5-4.6,0-.8,.3-1.3,.9-1.3Zm.5-46.8c0-.6,.4-.9,1.3-.9,3,.2,5.8,.6,9,2.2,2.5,1.2,3.7,3,3.7,4.7,0,1.4-.8,2.6-2.4,2.6-.8,0-1.8-.2-2.6-.8-2.5-1.9-5.9-4.9-8.6-7.1-.3-.2-.4-.5-.4-.7Z"/>
  <path class="cls-2" d="M54.3,124c0,.2-.2,.3-.4,.3s-.3,0-.5-.2c-.3-.2-.9-.7-1.3-1-.07-.07-.1-.13-.1-.2,0-.1,.1-.1,.2-.1s.8,.1,1.4,.3c.5,.3,.7,.6,.7,.9h0Zm-1.3,3.2c.1,0,.3,.1,.6,.1,.1,0,.3,0,.4-.1,1-.5,2.2-1.2,3.3-2s2.1-1.7,2.9-2.7c.07-.07,.13-.1,.2-.1,.1,0,.2,.1,.2,.2v.1c-.6,1.1-1.7,2.2-2.8,3.2-1,.8-1.9,1.5-2.8,2-.2,.1-.5,.3-.6,.4-.2,.1-.3,.2-.4,.2s-.2,0-.4-.3c-.4-.3-.5-.6-.5-.7-.3-.3-.2-.3-.1-.3h0Zm0-7.1c0-.1,.1-.1,.2-.1,.5,0,.9,.1,1.4,.3,.4,.2,.6,.5,.6,.7s-.1,.4-.4,.4c-.1,0-.3,0-.4-.1-.4-.3-.9-.7-1.3-1.1-.07,0-.1-.03-.1-.1Z"/>
  <g id="_シ" data-name=" シ">
    <g>
      <circle class="cls-4" cx="30.9" cy="26" r="5.3"/>
      <path class="cls-1" d="M31.8,29.5h-1.4v-4.9h-1.7v-.9c.4,0,.7,0,.9-.1,.3-.1,.5-.2,.7-.4,.1-.1,.2-.3,.3-.5,0-.1,.1-.2,.1-.3h1.2v7.1s-.1,0-.1,0Z"/>
    </g>
    <g>
      <circle class="cls-4" cx="23.4" cy="46.5" r="5.3"/>
      <path class="cls-1" d="M24.1,43.8c-.2-.2-.4-.3-.7-.3-.4,0-.7,.2-.9,.5-.1,.2-.1,.5-.2,.9h-1.4c0-.6,.1-1.1,.3-1.5,.4-.7,1-1.1,2-1.1,.7,0,1.3,.2,1.8,.6,.4,.4,.7,1,.7,1.6,0,.5-.2,1-.5,1.4-.2,.3-.5,.6-1,.9l-.6,.4c-.3,.2-.6,.4-.7,.5s-.2,.2-.3,.4h3.1v1.2h-4.8c0-.5,.1-1,.3-1.4,.2-.5,.7-1,1.4-1.5,.6-.5,1.1-.8,1.2-1,.3-.3,.4-.6,.4-1,.1-.1,.1-.4-.1-.6Z"/>
    </g>
    <path class="cls-5" d="M89.3,37.4c2,0,3.6,1.6,3.6,3.6s-1.6,3.6-3.6,3.6-3.6-1.6-3.6-3.6,1.6-3.6,3.6-3.6Z"/>
    <g>
      <circle class="cls-4" cx="30.9" cy="85.4" r="5.3"/>
      <path class="cls-1" d="M30.1,83.2c-.2,.2-.2,.5-.2,.8h-1.3c0-.4,.1-.7,.2-1s.3-.5,.5-.8c.2-.2,.4-.3,.6-.4s.6-.1,.9-.1c.7,0,1.2,.2,1.6,.5,.4,.4,.6,.8,.6,1.4,0,.4-.1,.8-.4,1.1-.2,.2-.3,.3-.5,.4,.1,0,.3,.1,.5,.3,.4,.3,.5,.8,.5,1.3,0,.6-.2,1.1-.6,1.6-.4,.5-1,.7-1.8,.7-1,0-1.7-.3-2.1-1-.2-.3-.3-.8-.3-1.4h1.4c0,.3,0,.5,.1,.7,.2,.3,.5,.5,.9,.5,.3,0,.5-.1,.7-.3s.3-.5,.3-.8c0-.5-.2-.8-.6-.9-.2-.1-.6-.1-1-.1v-1c.5,0,.8-.1,.9-.1,.3-.1,.5-.4,.5-.8,0-.3-.1-.5-.2-.7s-.4-.3-.7-.3c-.1,.1-.3,.2-.5,.4Z"/>
    </g>
    <path class="cls-5" d="M51.2,35.9h1.1l1.2,1.8,1.2-1.8h1.1l-1.8,2.5,1.8,2.7h-1.1l-1.3-2-1.3,2h-1.1l1.8-2.7s-1.6-2.5-1.6-2.5Z"/>
    <path class="cls-5" d="M45.3,56.6h1.1l1.2,1.8,1.2-1.8h1.1l-1.8,2.5,1.8,2.7h-1.1l-1.3-2-1.3,2h-1.1l1.8-2.7s-1.6-2.5-1.6-2.5Z"/>
  </g>
</svg>