<?xml version="1.0" encoding="UTF-8"?>
<svg id="_レイヤー_1" data-name=" レイヤー 1" xmlns="http://www.w3.org/2000/svg" viewBox="0 0 110.8 128.8">
  <defs>
    <style>
      .cls-1 {
        fill: #fff;
      }

      .cls-2 {
        fill: #333330;
      }

      .cls-3 {
        fill: #ccc;
      }

      .cls-4 {
        fill: #d83523;
      }

      .cls-5 {
        fill: #898880;
      }

      .cls-6 {
        fill: #fbfbf9;
        stroke: #b0afa7;
        stroke-width: .8px;
      }

      .cls-7 {
        stroke: #e7211a;
        stroke-width: .5px;
      }

      .cls-7, .cls-8 {
        fill: none;
      }

      .cls-8 {
        stroke: #d8d6cf;
        stroke-dasharray: 0 0 0 0 0 0 3 3;
        stroke-width: .4px;
      }
    </style>
  </defs>
  <path class="cls-6" d="M3.4,.4H107.4c1.7,0,3,1.3,3,3V107.4c0,1.7-1.3,3-3,3H3.4c-1.7,0-3-1.3-3-3V3.4c0-1.7,1.3-3,3-3Z"/>
  <line class="cls-8" x1="55.4" y1=".4" x2="55.4" y2="110.4"/>
  <line class="cls-8" x1=".4" y1="55.4" x2="110.4" y2="55.4"/>
  <path class="cls-3" d="M43,41.4c-4.1,4.4-8,7.5-11.3,9.5-.4,.2-.8,.3-1,.3-.6,0-1-.3-1-.9,0-.4,.2-.8,.5-1.1,2.2-2.2,4.8-4.6,8.6-9.5,2.6-3.4,5.4-7,6.8-10.2,.4-1,.7-2.3,.7-3.8,0-1-.1-1.4-.1-1.8,0-.6,.5-1.1,1.2-1.1,.5,0,1,.2,1.4,.6,1.4,1.1,2.6,2.2,3.4,3.3,4.2-.4,9.3-1,11.8-1.4,4.1-.5,6.3-1,7-1.6s1.2-1,1.8-1c.8,0,2.2,.9,3.8,2.6,1,1,1.4,1.8,1.4,2.6,0,.6-.5,1.4-1.2,2.3-.3,.5-1.5,2.5-2.1,3.8-4.5,9.9-10.3,20.7-18.1,29.7-8.8,10.1-18.6,18-27.1,21.1-.2,.1-.5,.2-.7,.2-.7,0-1.3-.6-1.3-1s.2-.6,.6-.9c10.7-6.6,20.1-16.2,27.4-26.4-.6-.2-1.2-.6-1.8-1-3.6-3-7.4-6-10.2-9.1-.3-.4-.5-.7-.5-1,0-.5,.3-.7,.9-.7,.3,0,.8,.1,1.2,.2,3.7,.8,6.7,2.6,9.4,4.6,1.8,1.4,2.8,2.9,3.1,4.2,5.5-8.2,9.7-16.4,12.4-23.8,.2-.4,.2-.6,.2-.9,0-.4-.3-.6-.9-.6-.2,0-.4,0-1,.1-4.4,.5-11,1.3-15.8,1.8-2.6,3.1-5,6.1-9.5,10.9h0Z"/>
  <path class="cls-2" d="M54.2,122.2c-.6,.7-1.2,1.1-1.7,1.4h-.2c-.1,0-.2,0-.2-.1s0-.1,.1-.2c.3-.3,.7-.7,1.3-1.4,.4-.5,.8-1,1-1.5,.1-.1,.1-.3,.1-.6v-.3c0-.1,.1-.2,.2-.2s.1,0,.2,.1c.2,.2,.4,.3,.5,.5,.6-.1,1.4-.2,1.8-.2,.6-.1,.9-.2,1-.2,.1-.1,.2-.1,.3-.1s.3,.1,.6,.4c.1,.2,.2,.3,.2,.4s-.1,.2-.2,.3c0,.1-.2,.4-.3,.6-.7,1.5-1.5,3.1-2.7,4.5-1.3,1.5-2.8,2.7-4.1,3.2h-.1c-.1,0-.2-.1-.2-.2s0-.1,.1-.1c1.6-1,3-2.4,4.1-4-.1,0-.2-.1-.3-.2-.5-.4-1.1-.9-1.5-1.4,0-.1-.1-.1-.1-.2s0-.1,.1-.1h.2c.6,.1,1,.4,1.4,.7,.3,.2,.4,.4,.5,.6,.8-1.2,1.5-2.5,1.9-3.6v-.1c0-.07-.03-.1-.1-.1h-.2c-.7,.1-1.7,.2-2.4,.3-.3,.6-.7,1.1-1.3,1.8h0Z"/>
  <g id="_タ" data-name=" タ">
    <g>
      <circle class="cls-4" cx="42.1" cy="18.1" r="5.3"/>
      <path class="cls-1" d="M43,21.6h-1.4v-4.9h-1.7v-.9c.4,0,.7,0,.9-.1,.3-.1,.5-.2,.7-.4,.1-.1,.2-.3,.3-.5,0-.1,.1-.2,.1-.3h1.2v7.1h-.1Z"/>
    </g>
    <g>
      <circle class="cls-4" cx="55.4" cy="17.5" r="5.3"/>
      <path class="cls-1" d="M56.1,14.8c-.2-.2-.4-.3-.7-.3-.4,0-.7,.2-.9,.5-.1,.2-.1,.5-.2,.9h-1.4c0-.6,.1-1.1,.3-1.5,.4-.7,1-1.1,2-1.1,.7,0,1.3,.2,1.8,.6,.4,.4,.7,1,.7,1.6,0,.5-.2,1-.5,1.4-.2,.3-.5,.6-1,.9l-.6,.4c-.3,.2-.6,.4-.7,.5s-.2,.2-.3,.4h3.1v1.2h-4.8c0-.5,.1-1,.3-1.4,.2-.5,.7-1,1.4-1.5,.6-.5,1.1-.8,1.2-1,.3-.3,.4-.6,.4-1,.1-.1,.1-.4-.1-.6Z"/>
    </g>
    <g>
      <ellipse class="cls-4" cx="53.9" cy="39.6" rx="5.3" ry="5.2"/>
      <path class="cls-1" d="M53.1,37.4c-.2,.2-.2,.5-.2,.8h-1.3c0-.3,.1-.7,.2-1,.1-.3,.3-.5,.5-.7s.4-.3,.6-.4,.6-.1,.9-.1c.7,0,1.2,.2,1.6,.5s.6,.8,.6,1.4c0,.4-.1,.8-.4,1-.2,.2-.3,.3-.5,.4,.1,0,.3,.1,.5,.3,.4,.3,.5,.8,.5,1.3,0,.6-.2,1.1-.6,1.5s-1,.7-1.8,.7c-1,0-1.7-.3-2.1-1-.2-.3-.3-.8-.3-1.3h1.4c0,.3,0,.5,.1,.7,.2,.3,.5,.5,.9,.5,.3,0,.5-.1,.7-.3s.3-.4,.3-.8c0-.5-.2-.8-.6-.9-.2-.1-.6-.1-1-.1v-1c.5,0,.8,0,.9-.1,.3-.1,.5-.4,.5-.8,0-.3-.1-.5-.2-.6-.2-.2-.4-.2-.7-.2-.1-.1-.3,0-.5,.2Z"/>
    </g>
    <path class="cls-5" d="M22.4,81.2c2,0,3.6,1.6,3.6,3.6s-1.6,3.6-3.6,3.6-3.6-1.6-3.6-3.6,1.6-3.6,3.6-3.6Z"/>
    <path class="cls-5" d="M25.3,46.9c2,0,3.6,1.6,3.6,3.6s-1.6,3.6-3.6,3.6-3.6-1.6-3.6-3.6,1.7-3.6,3.6-3.6Z"/>
    <path class="cls-7" d="M46.7,43.9s5.2,2.2,7.6,3.5,4.2,2.8,4.2,2.8l-1.7-3.4"/>
    <path class="cls-7" d="M43.7,25s.2,0-2.3,4-4.6,6.5-4.6,6.5l.9-4.8"/>
    <polyline class="cls-7" points="61.5 21.6 83.5 20.5 78.3 32.5 81.5 29"/>
  </g>
</svg>