<?xml version="1.0" encoding="UTF-8"?>
<svg id="_レイヤー_1" data-name=" レイヤー 1" xmlns="http://www.w3.org/2000/svg" viewBox="0 0 110.8 128.6">
  <defs>
    <style>
      .cls-1 {
        fill: #fff;
      }

      .cls-2 {
        fill: #333330;
      }

      .cls-3 {
        fill: #ccc;
      }

      .cls-4 {
        fill: #d83523;
      }

      .cls-5 {
        fill: #898880;
      }

      .cls-6 {
        fill: #fbfbf9;
        stroke: #b0afa7;
        stroke-width: .8px;
      }

      .cls-7 {
        stroke: #e7211a;
        stroke-width: .5px;
      }

      .cls-7, .cls-8 {
        fill: none;
      }

      .cls-8 {
        stroke: #d8d6cf;
        stroke-dasharray: 0 0 0 0 0 0 3 3;
        stroke-width: .4px;
      }
    </style>
  </defs>
  <path class="cls-6" d="M3.4,.4H107.4c1.7,0,3,1.3,3,3V107.4c0,1.7-1.3,3-3,3H3.4c-1.7,0-3-1.3-3-3V3.4c0-1.7,1.3-3,3-3Z"/>
  <line class="cls-8" x1="55.4" y1=".4" x2="55.4" y2="110.4"/>
  <line class="cls-8" x1=".4" y1="55.4" x2="110.4" y2="55.4"/>
  <path class="cls-3" d="M56.4,49.6c0-1.5-.2-2.6-.6-3.5-7.8,.6-13.8,1.4-17.2,1.9-3.4,.6-4.5,.7-5.4,.9-.5,.1-.9,.2-1.2,.2-.5,0-1-.2-1.8-.8-2-1.7-2.6-2.6-2.6-3.1,0-.4,.4-.6,1.1-.6,2.6-.1,3.8-.2,6.1-.4,9-.9,16.2-1.6,22.7-2.2,7.4-.6,13.8-1,17.4-1.2,1.5-.1,3.1-.2,4.2-.7,.7-.2,1.4-.4,2.4-.4,.6,0,1.4,.1,2.4,.4,2.2,.6,3.8,1.7,3.8,3.4,0,1.3-.9,1.7-3.7,1.7-10.2,.1-17.8,.4-23.9,.8,.6,.3,1.2,1,1.5,1.4,.7,.8,1,1.4,1,2.3,0,.8-.4,1.7-.5,2.4-1.8,14.1-6.9,24.5-19,32.7-.2,.2-.5,.2-.6,.2-.6,0-1.1-.6-1.1-1.3,0-.3,.2-.7,.6-1.1,10.8-9.7,13.8-21.9,14.3-31.9v-1.1s.1,0,.1,0Zm-14.7-23.2c1.8,0,3.2-.1,4.8-.2,5.7-.3,11-.6,19-1.8,1.8-.3,2.8-1.3,4.5-1.3s3,.3,4.1,1c1.3,.8,1.6,1.8,1.6,2.5,0,1.4-1.6,1.8-3.7,1.9-11.5,1-21,1.7-28.5,2.3-.7,.1-.8,.1-1,.1-.6,0-.9-.2-1.4-.6-1.4-1.2-2.5-3.1-2.5-3.5,0-.3,.3-.6,1-.6h2.1s0,.2,0,.2Z"/>
  <path class="cls-2" d="M56.3,123.4c0-.2,0-.4-.1-.5-1.2,.1-2.1,.2-2.6,.3-.5,.1-.7,.1-.8,.1h-.2c-.1,0-.2,0-.3-.1-.3-.3-.4-.4-.4-.5s.1-.1,.2-.1c.4,0,.6,0,.9-.1,1.3-.1,2.4-.2,3.4-.3,1.1-.1,2.1-.2,2.6-.2,.2,0,.5,0,.6-.1,.1,0,.2-.1,.4-.1,.1,0,.2,0,.4,.1,.3,.1,.6,.3,.6,.5s-.1,.3-.6,.3c-1.5,0-2.7,.1-3.6,.1,.1,0,.2,.1,.2,.2,.1,.1,.2,.2,.2,.3s-.1,.3-.1,.4c-.3,2.1-1,3.7-2.8,4.9h-.1c-.1,0-.2-.1-.2-.2,0,0,0-.1,.1-.2,1.6-1.5,2.1-3.3,2.1-4.8h0s.1,0,.1,0Zm-2.2-3.4h.7c.9,0,1.6-.1,2.8-.3,.3,0,.4-.2,.7-.2s.4,0,.6,.2c.2,.1,.2,.3,.2,.4,0,.2-.2,.3-.6,.3-1.7,.1-3.2,.3-4.3,.3h-.2c-.07,0-.13-.03-.2-.1-.2-.2-.4-.5-.4-.5,0,0,0-.1,.2-.1,0,0,.5,0,.5,0Z"/>
  <g id="_テ" data-name=" テ">
    <g>
      <circle class="cls-4" cx="32.1" cy="26.7" r="5.3"/>
      <path class="cls-1" d="M32.9,30.2h-1.4v-4.9h-1.7v-.9c.4,0,.7,0,.9-.1,.3-.1,.5-.2,.7-.4,.1-.1,.2-.3,.3-.5,0-.1,.1-.2,.1-.3h1.2v7.1s-.1,0-.1,0Z"/>
    </g>
    <g>
      <circle class="cls-4" cx="21.6" cy="45.7" r="5.3"/>
      <path class="cls-1" d="M22.3,43.1c-.2-.2-.4-.3-.7-.3-.4,0-.7,.2-.9,.5-.1,.2-.1,.5-.2,.9h-1.4c0-.6,.1-1.1,.3-1.5,.4-.7,1-1.1,2-1.1,.7,0,1.3,.2,1.8,.6,.4,.4,.7,1,.7,1.6,0,.5-.2,1-.5,1.4-.2,.3-.5,.6-1,.9l-.6,.4c-.3,.2-.6,.4-.7,.5s-.2,.2-.3,.4h3.1v1.2h-4.8c0-.5,.1-1,.3-1.4,.2-.5,.7-1,1.4-1.5,.6-.5,1.1-.8,1.2-1,.3-.3,.4-.6,.4-1,.1-.1,0-.4-.1-.6Z"/>
    </g>
    <g>
      <circle class="cls-4" cx="71.1" cy="51" r="5.3"/>
      <path class="cls-1" d="M70.3,48.8c-.2,.2-.2,.5-.2,.8h-1.3c0-.4,.1-.7,.2-1s.3-.5,.5-.8c.2-.2,.4-.3,.6-.4,.3-.1,.6-.1,.9-.1,.7,0,1.2,.2,1.6,.5,.4,.4,.6,.8,.6,1.4,0,.4-.1,.8-.4,1.1-.2,.2-.3,.3-.5,.4,.1,0,.3,.1,.5,.3,.4,.3,.5,.8,.5,1.3,0,.6-.2,1.1-.6,1.6s-1,.7-1.8,.7c-1,0-1.7-.3-2.1-1-.2-.3-.3-.8-.3-1.4h1.4c0,.3,0,.5,.1,.7,.2,.3,.5,.5,.9,.5,.3,0,.5-.1,.7-.3s.3-.5,.3-.8c0-.5-.2-.8-.6-.9-.2-.1-.6-.1-1-.1v-1c.5,0,.8-.1,.9-.1,.3-.1,.5-.4,.5-.8,0-.3-.1-.5-.2-.7-.2-.2-.4-.3-.7-.3-.1,.1-.4,.2-.5,.4Z"/>
    </g>
    <path class="cls-5" d="M37.2,83.5c2,0,3.6,1.6,3.6,3.6s-1.6,3.6-3.6,3.6-3.6-1.6-3.6-3.6,1.6-3.6,3.6-3.6Z"/>
    <path class="cls-5" d="M77.2,23.1h1.1l1.2,1.8,1.2-1.8h1.1l-1.8,2.5,1.8,2.7h-1.1l-1.3-2-1.3,2h-1.1l1.8-2.7s-1.6-2.5-1.6-2.5Z"/>
    <path class="cls-5" d="M89,40.5h1.1l1.2,1.8,1.2-1.8h1.1l-1.8,2.5,1.8,2.7h-1.1l-1.3-2-1.3,2h-1.1l1.8-2.7s-1.6-2.5-1.6-2.5Z"/>
    <path class="cls-7" d="M64.7,47.3s-.4,7.1-1.1,10.4-2.5,8.6-2.5,8.6l3-3.3"/>
  </g>
</svg>