<?xml version="1.0" encoding="UTF-8"?>
<svg id="_レイヤー_1" data-name=" レイヤー 1" xmlns="http://www.w3.org/2000/svg" viewBox="0 0 110.8 128.6">
  <defs>
    <style>
      .cls-1 {
        fill: #fff;
      }

      .cls-2 {
        fill: #333330;
      }

      .cls-3 {
        fill: #ccc;
      }

      .cls-4 {
        fill: #d83523;
      }

      .cls-5 {
        fill: #898880;
      }

      .cls-6 {
        fill: #fbfbf9;
        stroke: #b0afa7;
        stroke-width: .8px;
      }

      .cls-7 {
        fill: none;
        stroke: #d8d6cf;
        stroke-dasharray: 0 0 0 0 0 0 3 3;
        stroke-width: .4px;
      }
    </style>
  </defs>
  <path class="cls-6" d="M3.4,.4H107.4c1.7,0,3,1.3,3,3V107.4c0,1.7-1.3,3-3,3H3.4c-1.7,0-3-1.3-3-3V3.4c0-1.7,1.3-3,3-3Z"/>
  <line class="cls-7" x1="55.4" y1=".4" x2="55.4" y2="110.4"/>
  <line class="cls-7" x1=".4" y1="55.4" x2="110.4" y2="55.4"/>
  <path class="cls-3" d="M27.6,33.7c0-.7,.5-1,1.2-1,.2,0,.6,.1,.8,.2,3,1.5,5.4,3.8,7.4,6.4,1.3,1.8,1.8,3.4,1.8,4.6,0,1.7-1.1,3-2.6,3-1.7,0-2.8-1.9-3.6-3.4-1.5-2.8-3.3-6-4.9-9-.1-.4-.1-.5-.1-.8Zm48.7-6.8c1.1,0,3.4,.9,5.8,2.5,1.1,.8,1.8,1.6,1.8,2.4,0,.6-.2,1-.7,1.8-.6,.9-1.4,2.4-2.8,5.9-3.2,7.8-7.2,15.5-12.4,22.6-6,8.3-13.6,15.8-23.4,21.5-.2,.1-.3,.2-.5,.2-.6,0-1.2-.6-1.2-1.3,0-.2,.2-.5,.3-.6,9-7.5,16.1-15.5,21.5-24.1,4.2-6.6,7.5-13.4,10.2-20.7,.9-2.4,1.2-4.2,1.2-5.8,0-1.7-.8-3-.8-3.4,0-.7,.4-1,1-1Zm-30,2.1c0-.6,.5-1,1.1-1,.2,0,.4,0,.6,.1,3.6,1.5,6.1,3.8,8,7,.8,1.2,1.4,2.6,1.4,3.9,0,1.8-1,3.4-2.7,3.4-1.2,0-2.5-1.2-3.3-2.8-1.8-3.7-3.2-6.8-4.9-9.8-.1-.2-.2-.5-.2-.8Z"/>
  <path class="cls-2" d="M52,121c0-.1,.1-.2,.2-.2h.1c.5,.2,.8,.6,1.1,1,.2,.3,.3,.5,.3,.7,0,.3-.2,.5-.4,.5-.3,0-.4-.3-.5-.5-.2-.4-.5-.9-.7-1.4-.07,0-.1-.03-.1-.1Zm7.3-1c.2,0,.5,.1,.9,.4,.2,.1,.3,.2,.3,.4,0,.1,0,.2-.1,.3-.1,.1-.2,.4-.4,.9-.5,1.2-1.1,2.3-1.9,3.4-.9,1.2-2,2.4-3.5,3.2h-.1c-.1,0-.2-.1-.2-.2v-.1c1.3-1.1,2.4-2.3,3.2-3.6,.6-1,1.1-2,1.5-3.1,.1-.4,.2-.6,.2-.9s-.1-.4-.1-.5,.1-.2,.2-.2Zm-4.5,.3c0-.1,.1-.1,.2-.1h.1c.5,.2,.9,.6,1.2,1.1,.1,.2,.2,.4,.2,.6,0,.3-.2,.5-.4,.5s-.4-.2-.5-.4c-.3-.6-.5-1-.7-1.5-.07-.07-.1-.13-.1-.2Z"/>
  <g id="_ツ" data-name=" ツ">
    <g>
      <circle class="cls-4" cx="24.8" cy="26.7" r="5.3"/>
      <path class="cls-1" d="M25.7,30.2h-1.4v-4.9h-1.7v-.9c.4,0,.7,0,.9-.1,.3-.1,.5-.2,.7-.4,.1-.1,.2-.3,.3-.5,0-.1,.1-.2,.1-.3h1.2v7.1s-.1,0-.1,0Z"/>
    </g>
    <g>
      <circle class="cls-4" cx="44.8" cy="21.4" r="5.3"/>
      <path class="cls-1" d="M45.5,18.8c-.2-.2-.4-.3-.7-.3-.4,0-.7,.2-.9,.5-.1,.2-.1,.5-.2,.9h-1.3c0-.6,.1-1.1,.3-1.5,.4-.7,1-1.1,2-1.1,.7,0,1.3,.2,1.8,.6,.4,.4,.7,1,.7,1.6,0,.5-.2,1-.5,1.4-.2,.3-.5,.6-1,.9l-.6,.4c-.3,.2-.6,.4-.7,.5s-.2,.2-.3,.4h3.1v1.2h-4.8c0-.5,.1-1,.3-1.4,.2-.5,.7-1,1.4-1.5,.6-.5,1.1-.8,1.2-1,.3-.3,.4-.6,.4-1,.1-.2,0-.4-.2-.6Z"/>
    </g>
    <g>
      <circle class="cls-4" cx="81.1" cy="19.2" r="5.3"/>
      <path class="cls-1" d="M80.3,17c-.2,.2-.2,.5-.2,.8h-1.3c0-.4,.1-.7,.2-1s.3-.5,.5-.8c.2-.2,.4-.3,.6-.4s.6-.1,.9-.1c.7,0,1.2,.2,1.6,.5,.4,.4,.6,.8,.6,1.4,0,.4-.1,.8-.4,1.1-.2,.2-.3,.3-.5,.4,.1,0,.3,.1,.5,.3,.4,.3,.5,.8,.5,1.3,0,.6-.2,1.1-.6,1.6s-1,.7-1.8,.7c-1,0-1.7-.3-2.1-1-.2-.3-.3-.8-.3-1.4h1.4c0,.3,0,.5,.1,.7,.2,.3,.5,.5,.9,.5,.3,0,.5-.1,.7-.3s.3-.5,.3-.8c0-.5-.2-.8-.6-.9-.2-.1-.6-.1-1-.1v-1c.5,0,.8-.1,.9-.1,.3-.1,.5-.4,.5-.8,0-.3-.1-.5-.2-.7s-.4-.3-.7-.3c-.1,.1-.4,.2-.5,.4Z"/>
    </g>
    <path class="cls-5" d="M38.1,81.2c2,0,3.6,1.6,3.6,3.6s-1.6,3.6-3.6,3.6-3.6-1.6-3.6-3.6,1.6-3.6,3.6-3.6Z"/>
    <path class="cls-5" d="M55.5,43.8h1.1l1.2,1.8,1.2-1.8h1.1l-1.7,2.6,1.8,2.7h-1.1l-1.3-2-1.3,2h-1.1l1.8-2.7-1.7-2.6Z"/>
    <path class="cls-5" d="M36.8,48.3h1.1l1.2,1.8,1.2-1.8h1.1l-1.8,2.5,1.8,2.7h-1l-1.3-2-1.3,2h-1.1l1.8-2.7-1.7-2.5Z"/>
  </g>
</svg>