<?xml version="1.0" encoding="UTF-8"?>
<svg id="_レイヤー_1" data-name=" レイヤー 1" xmlns="http://www.w3.org/2000/svg" viewBox="0 0 110.8 128.3">
  <defs>
    <style>
      .cls-1 {
        fill: #fff;
      }

      .cls-2 {
        fill: #333330;
      }

      .cls-3 {
        fill: #ccc;
      }

      .cls-4 {
        fill: #d83523;
      }

      .cls-5 {
        fill: #898880;
      }

      .cls-6 {
        stroke: #ada8a8;
        stroke-width: .8px;
      }

      .cls-6, .cls-7, .cls-8, .cls-9 {
        fill: none;
      }

      .cls-7 {
        stroke: #d8d6cf;
        stroke-dasharray: 0 0 0 0 0 0 3 3;
        stroke-width: .4px;
      }

      .cls-8, .cls-9 {
        stroke: #e7211a;
        stroke-miterlimit: 10;
      }

      .cls-9 {
        stroke-width: .5px;
      }
    </style>
  </defs>
  <path class="cls-6" d="M3.4,.4H107.4c1.7,0,3,1.3,3,3V107.4c0,1.7-1.3,3-3,3H3.4c-1.7,0-3-1.3-3-3V3.4c0-1.7,1.3-3,3-3Z"/>
  <line class="cls-7" x1="55.4" y1=".4" x2="55.4" y2="110.4"/>
  <line class="cls-7" x1=".4" y1="55.4" x2="110.4" y2="55.4"/>
  <path class="cls-3" d="M76.3,41.8c-12.2,.4-25.7,1.4-38.3,3.6,.5,4.2,1,7.8,1.6,11.6,.1,.5,.1,.7,.1,1,0,1.5-1.2,2.7-2.9,2.7-1.3,0-2.2-1.2-2.5-3.1-.2-1-.4-2.8-.6-3.9-.2-2.2-.5-4.1-.7-5.6-.5-2.6-1-4.6-2.4-6.9-.2-.2-.2-.6-.2-.9,0-.6,.4-1,1-1,.9,0,3.2,1,4.9,2.2,5.9-.7,11.6-1.4,17.5-2,0-3.4,0-5.3-.1-7.1-.1-1.7-.6-3.5-1.2-4.6-.2-.4-.5-.8-.5-1.2,0-.7,.3-1,1.1-1,1.1,0,3.5,.6,6,1.6,1.1,.5,1.6,1.3,1.6,2,0,.3-.1,.6-.3,1-.6,.8-.9,1.4-1.1,3.1-.1,1.4-.2,3.3-.3,5.8,5.4-.5,10.5-.7,15.4-1,.9-.1,2.2-.3,2.8-.6,.5-.2,1-.4,1.4-.4,.7,0,2,.4,4.4,2.1,1.4,1,2.1,1.7,2.1,2.6,0,.5-.2,1-.4,1.7-.6,1.5-1.6,3.8-2.3,5.8-6,15.9-17.4,31.5-32.6,38.2-.2,.1-.3,.1-.5,.1-.6,0-1-.5-1-1,0-.2,.2-.5,.4-.6,13-8.9,24.5-25.2,29-42.3,.1-.2,.1-.4,.1-.6,0-.6-.3-1-1.2-1h-.3v-.3Z"/>
  <path class="cls-2" d="M59.2,121.7c-1.8,.1-3.9,.2-5.7,.5,.1,.6,.2,1.2,.2,1.7v.1c0,.2-.2,.4-.4,.4s-.3-.2-.4-.5c0-.1-.1-.4-.1-.6,0-.3-.1-.6-.1-.8-.1-.4-.1-.7-.4-1v-.1c0-.1,.1-.2,.2-.2s.5,.2,.7,.3c.9-.1,1.7-.2,2.6-.3v-1.1c0-.3-.1-.5-.2-.7,0-.1-.1-.1-.1-.2s0-.1,.2-.1,.5,.1,.9,.2c.2,.1,.2,.2,.2,.3v.1c-.1,.1-.1,.2-.2,.5v.9c.8-.1,1.6-.1,2.3-.2,.1,0,.3,0,.4-.1,.1,0,.1-.1,.2-.1s.3,.1,.7,.3c.2,.1,.3,.3,.3,.4s0,.2-.1,.3c-.1,.2-.2,.6-.3,.9-.9,2.4-2.6,4.7-4.9,5.7h-.1c-.1,0-.2-.1-.2-.2,0,0,0-.1,.1-.1,2-1.3,3.7-3.8,4.4-6.3v-.1c0,.2-.1,.1-.2,.1h0Z"/>
  <g id="_ウ" data-name=" ウ">
    <path class="cls-5" d="M44,85c2,0,3.6,1.6,3.6,3.6s-1.6,3.6-3.6,3.6-3.6-1.6-3.6-3.6,1.6-3.6,3.6-3.6Z"/>
    <g>
      <circle class="cls-4" cx="55.4" cy="17.8" r="5.3"/>
      <path class="cls-1" d="M56.3,21.3h-1.4v-4.9h-1.7v-.9c.4,0,.7,0,.9-.1,.3-.1,.5-.2,.7-.4,.1-.1,.2-.3,.3-.5,0-.1,.1-.2,.1-.3h1.2v7.1h-.1Z"/>
    </g>
    <g>
      <circle class="cls-4" cx="23.2" cy="42.7" r="5.3"/>
      <path class="cls-1" d="M23.9,40.1c-.2-.2-.4-.3-.7-.3-.4,0-.7,.2-.9,.5-.1,.2-.1,.5-.2,.9h-1.4c0-.6,.1-1.1,.3-1.5,.4-.7,1-1.1,2-1.1,.7,0,1.3,.2,1.8,.6,.4,.4,.7,1,.7,1.6,0,.5-.2,1-.5,1.4-.2,.3-.5,.6-1,.9l-.6,.4c-.3,.2-.6,.4-.7,.5s-.2,.2-.3,.4h3.1v1.2h-4.8c0-.5,.1-1,.3-1.4,.2-.5,.7-1,1.4-1.5,.6-.5,1.1-.8,1.2-1,.3-.3,.4-.6,.4-1,.1-.2,.1-.4-.1-.6Z"/>
    </g>
    <g>
      <circle class="cls-4" cx="33.5" cy="30.8" r="5.3"/>
      <path class="cls-1" d="M32.7,28.6c-.2,.2-.2,.5-.2,.8h-1.3c0-.4,.1-.7,.2-1s.3-.5,.5-.8c.2-.2,.4-.3,.6-.4s.6-.1,.9-.1c.7,0,1.2,.2,1.6,.5,.4,.4,.6,.8,.6,1.4,0,.4-.1,.8-.4,1.1-.2,.2-.3,.3-.5,.4,.1,0,.3,.1,.5,.3,.4,.3,.5,.8,.5,1.3,0,.6-.2,1.1-.6,1.6s-1,.7-1.8,.7c-1,0-1.7-.3-2.1-1-.2-.3-.3-.8-.3-1.4h1.4c0,.3,0,.5,.1,.7,.2,.3,.5,.5,.9,.5,.3,0,.5-.1,.7-.3s.3-.5,.3-.8c0-.5-.2-.8-.6-.9-.2-.1-.6-.1-1-.1v-1c.5,0,.8-.1,.9-.1,.3-.1,.5-.4,.5-.8,0-.3-.1-.5-.2-.7-.2-.2-.4-.3-.7-.3-.1,.1-.3,.2-.5,.4Z"/>
    </g>
    <path class="cls-5" d="M33.7,62.9h1.1l1.2,1.8,1.2-1.8h1.1l-1.8,2.5,1.8,2.7h-1.1l-1.3-2-1.3,2h-1.1l1.8-2.7s-1.6-2.5-1.6-2.5Z"/>
    <path class="cls-5" d="M60.8,32.2h1.1l1.2,1.8,1.2-1.8h1.1l-1.8,2.5,1.8,2.7h-1l-1.3-2-1.3,2h-1.1l1.8-2.7s-1.7-2.5-1.7-2.5Z"/>
  </g>
  <polyline class="cls-9" points="28.5 45.7 31 59 27.3 55"/>
  <polyline class="cls-9" points="37.7 37.8 46.1 36.8 41.9 34.3"/>
  <path class="cls-8" d="M72.1,35.2l19.2-.6s-1.1,4.6-1.7,5.8-3.2,6.7-3.2,6.7"/>
</svg>