<?xml version="1.0" encoding="UTF-8"?>
<svg id="_レイヤー_1" data-name=" レイヤー 1" xmlns="http://www.w3.org/2000/svg" viewBox="0 0 110.8 128.63">
  <defs>
    <style>
      .cls-1 {
        fill: #fff;
      }

      .cls-2 {
        fill: #333330;
      }

      .cls-3 {
        fill: #ccc;
      }

      .cls-4 {
        fill: #d83523;
      }

      .cls-5 {
        fill: #898880;
      }

      .cls-6 {
        fill: #fbfbf9;
        stroke: #b0afa7;
        stroke-width: .8px;
      }

      .cls-7 {
        stroke: #e7211a;
        stroke-width: .5px;
      }

      .cls-7, .cls-8 {
        fill: none;
      }

      .cls-8 {
        stroke: #d8d6cf;
        stroke-dasharray: 0 0 0 0 0 0 3 3;
        stroke-width: .4px;
      }
    </style>
  </defs>
  <path class="cls-6" d="M3.4,.4H107.4c1.7,0,3,1.3,3,3V107.4c0,1.7-1.3,3-3,3H3.4c-1.7,0-3-1.3-3-3V3.4c0-1.7,1.3-3,3-3Z"/>
  <line class="cls-8" x1="55.4" y1=".4" x2="55.4" y2="110.4"/>
  <line class="cls-8" x1=".4" y1="55.4" x2="110.4" y2="55.4"/>
  <path class="cls-3" d="M40,52.24c-1.36,.24-2.88,.56-3.76,.72-.32,.08-.4,.08-.56,.08-.48,0-.88-.16-1.36-.56-1.36-1.12-2.64-3.12-2.64-3.6,0-.32,.32-.48,1.04-.48,2.24,0,4.88-.24,6.64-.48,10.16-1.12,20.32-2.32,29.44-3.44,.72-2.08,1.28-4.24,1.84-6.24,.4-1.36,.56-2.56,.56-3.6,0-.32,0-.64-.08-.96-.56,.32-1.52,.4-2.64,.48-11.12,.8-22.8,1.92-31.12,3.04-1.6,.24-2.8,.48-3.12,.48-.64,0-1.12-.32-1.68-.88-1.36-1.36-2.32-2.96-2.32-3.36,0-.32,.32-.56,1.04-.56,2,0,4.88-.16,5.92-.24,10.24-.96,19.36-1.6,25.52-2.4,1.92-.24,3.12-.8,4.16-.8,1.84,0,2.96,.64,3.6,1.2,.08-.88,.32-1.6,1.2-1.6s2.56,1.12,4.56,3.12c1.2,1.2,2,2.72,2,3.52,0,.4-.16,.8-.4,1.2-.72,1.04-1.2,2.4-2,4.8-2.96,9.68-7.2,19.28-13.2,27.76-4.88,7.04-10.88,13.28-18.24,18.16-.24,.16-.56,.24-.8,.24-.72,0-1.6-.48-1.6-1.28,0-.24,.16-.56,.48-.8,5.92-4.88,11.28-11.68,15.84-19.04,3.52-5.76,6.48-11.76,8.8-17.68-9.04,.88-19.2,2-27.12,3.2h0Z"/>
  <path class="cls-2" d="M53.71,123.28c-.2,.04-.43,.08-.56,.11-.05,.01-.06,.01-.08,.01-.07,0-.13-.02-.2-.08-.2-.17-.4-.47-.4-.54,0-.05,.05-.07,.16-.07,.34,0,.73-.04,1-.07,1.52-.17,3.05-.35,4.41-.52,.11-.31,.19-.64,.28-.94,.06-.2,.08-.38,.08-.54,0-.05,0-.1,0-.14-.08,.05-.23,.06-.4,.07-1.67,.12-3.42,.29-4.67,.46-.24,.04-.42,.07-.47,.07-.1,0-.17-.05-.25-.13-.2-.2-.35-.44-.35-.5,0-.05,.05-.08,.16-.08,.3,0,.73-.02,.89-.04,1.54-.14,2.9-.24,3.83-.36,.29-.04,.47-.12,.62-.12,.28,0,.44,.1,.54,.18,0-.13,.05-.24,.18-.24s.38,.17,.68,.47c.18,.18,.3,.41,.3,.53,0,.06-.02,.12-.06,.18-.11,.16-.18,.36-.3,.72-.44,1.45-1.08,2.89-1.98,4.16-.73,1.06-1.63,1.99-2.73,2.72-.04,.02-.08,.04-.12,.04-.11,0-.24-.07-.24-.19,0-.04,.02-.08,.07-.12,.89-.73,1.69-1.75,2.38-2.85,.53-.86,.97-1.76,1.32-2.65-1.35,.13-2.88,.3-4.07,.48v-.02Z"/>
  <g id="_ヲ" data-name=" ヲ">
    <path class="cls-5" d="M38.56,85.71c1.99,0,3.6,1.61,3.6,3.6s-1.61,3.6-3.6,3.6-3.6-1.61-3.6-3.6,1.62-3.6,3.6-3.6Z"/>
    <path class="cls-5" d="M63.1,38.2h1.14l1.2,1.84,1.22-1.84,1.07,.02-1.76,2.52,1.84,2.68h-1.12l-1.3-1.96-1.26,1.96h-1.11l1.84-2.68-1.75-2.55h0Z"/>
    <g>
      <circle class="cls-4" cx="22.4" cy="34.7" r="5.2"/>
      <path class="cls-1" d="M23.25,38.17h-1.41v-4.83h-1.65v-.94c.43-.02,.74-.05,.91-.09,.28-.06,.5-.18,.68-.37,.12-.13,.21-.29,.27-.5,.04-.13,.05-.22,.05-.28h1.14v7h.01Z"/>
    </g>
    <g>
      <circle class="cls-4" cx="24.7" cy="49.6" r="5.2"/>
      <path class="cls-1" d="M25.45,46.97c-.16-.2-.4-.29-.71-.29-.42,0-.7,.16-.85,.47-.09,.18-.14,.47-.15,.86h-1.34c.02-.6,.13-1.08,.32-1.44,.37-.7,1.02-1.05,1.96-1.05,.74,0,1.33,.21,1.77,.62s.66,.95,.66,1.63c0,.52-.15,.98-.46,1.38-.2,.27-.54,.56-1,.89l-.55,.39c-.34,.25-.58,.42-.71,.53s-.23,.24-.32,.38h3.06v1.21h-4.8c.01-.5,.12-.96,.32-1.38,.2-.47,.66-.96,1.39-1.48,.63-.45,1.04-.78,1.23-.98,.29-.31,.43-.64,.43-1,0-.3-.08-.54-.25-.74Z"/>
    </g>
    <path class="cls-7" d="M43.7,28.4l38.7-2.2s-3.5,15.7-5.9,22.3c-2.5,6.6-6.9,16.2-6.9,16.2l3.5-3"/>
  </g>
</svg>