<?xml version="1.0" encoding="UTF-8"?>
<svg id="_レイヤー_1" data-name=" レイヤー 1" xmlns="http://www.w3.org/2000/svg" viewBox="0 0 110.8 126.4">
  <defs>
    <style>
      .cls-1 {
        fill: #fff;
      }

      .cls-2 {
        fill: #333330;
      }

      .cls-3 {
        fill: #ccc;
      }

      .cls-4 {
        fill: #d83523;
      }

      .cls-5 {
        fill: #898880;
      }

      .cls-6 {
        fill: #fbfbf9;
        stroke: #b0afa7;
        stroke-width: .8px;
      }

      .cls-7, .cls-8, .cls-9 {
        fill: none;
      }

      .cls-7, .cls-9 {
        stroke: #e7211a;
        stroke-width: .5px;
      }

      .cls-8 {
        stroke: #d8d6cf;
        stroke-dasharray: 0 0 0 0 0 0 3 3;
        stroke-width: .4px;
      }

      .cls-9 {
        stroke-miterlimit: 10;
      }
    </style>
  </defs>
  <g id="_枠_え" data-name=" 枠 え">
    <path class="cls-6" d="M3.4,.4H107.4c1.7,0,3,1.3,3,3V107.4c0,1.7-1.3,3-3,3H3.4c-1.7,0-3-1.3-3-3V3.4c0-1.7,1.3-3,3-3Z"/>
    <line class="cls-8" x1="55.4" y1=".4" x2="55.4" y2="110.4"/>
    <line class="cls-8" x1=".4" y1="55.4" x2="110.4" y2="55.4"/>
  </g>
  <g id="_え" data-name=" え">
    <g>
      <circle class="cls-4" cx="44.8" cy="19.7" r="5.3"/>
      <path class="cls-1" d="M45.6,23.3h-1.4v-4.9h-1.7v-1c.4,0,.7,0,.9-.1,.3-.1,.5-.2,.7-.4,.1-.1,.2-.3,.3-.5,0-.1,.1-.2,.1-.3h1.2v7.2h-.1Z"/>
    </g>
    <g>
      <circle class="cls-4" cx="26.5" cy="49" r="5.3"/>
      <path class="cls-1" d="M27.2,46.3c-.2-.2-.4-.3-.7-.3-.4,0-.7,.2-.9,.5-.1,.2-.1,.5-.2,.9h-1.4c0-.6,.1-1.1,.3-1.5,.4-.7,1-1.1,2-1.1,.7,0,1.3,.2,1.8,.6,.4,.4,.7,1,.7,1.6,0,.5-.2,1-.5,1.4-.2,.3-.5,.6-1,.9l-.6,.4c-.3,.2-.6,.4-.7,.5s-.2,.2-.3,.4h3.1v1.2h-4.8c0-.5,.1-1,.3-1.4,.2-.5,.7-1,1.4-1.5,.6-.5,1.1-.8,1.2-1,.3-.3,.4-.6,.4-1,.1-.1,0-.4-.1-.6Z"/>
    </g>
    <path class="cls-5" d="M66.9,29.6h1.1l1.2,1.8,1.2-1.8h1.1l-1.8,2.5,1.8,2.7h-1.1l-1.3-2-1.3,2h-1.1l1.8-2.7s-1.6-2.5-1.6-2.5Z"/>
    <path class="cls-5" d="M87.3,82.2h1.1l1.2,1.8,1.2-1.8h1.1l-1.8,2.5,1.8,2.7h-1.1l-1.3-2-1.3,2h-1.1l1.8-2.7s-1.6-2.5-1.6-2.5Z"/>
  </g>
  <path class="cls-3" d="M56.8,64c-5.2,4.3-8.7,7-10.9,9.2-4,4-7.9,7.9-11.8,12.9-.5,.6-1,1-1.4,1-.6,0-1.4-.6-2.1-1.4-.4-.4-1-1.3-1-2.1,0-.6,.6-1.1,1-1.7,4.4-5.4,7.9-9.6,11.6-14.2,7-8.6,12-15.4,16.9-22.2-8.2,2.6-14.1,5.1-19,7-1,.4-1.6,.6-2.2,.6-.5,0-1-.2-1.7-.7-1.7-1.2-2.6-2.2-2.6-2.8,0-.3,.1-.6,.6-.7,1.9-.2,4.4-.7,6-1.1,5.8-1.5,11.5-3.4,17-5.2,1.8-.6,3-1.2,3.4-1.6,.6-.6,1-1.1,1.8-1.1,1,0,2,.5,3.3,1.5,1.2,1,1.8,1.8,1.8,2.3,0,1-.6,1.6-1.7,2.2-.7,.5-1.8,1.6-2.8,2.7-6.9,7.8-14.1,16.2-21.2,24.5,5.4-4.3,9-7.5,13.6-11,.6-.7,1.3-1.3,2.1-1.3,.6,0,1.4,.3,2.6,1s1.9,1.5,1.9,2.1c0,.5-.2,1.1-.2,1.8-.1,1.8-.1,3.4-.1,5,0,3.1,.2,5.6,.6,7.8,.5,2.1,1.8,3,3.5,3.6,1.1,.4,2.3,.6,3.8,.6,2.2,0,5.2-.2,8.2-1,1.1-.2,2.2-.4,2.9-.4,1.5,0,2.7,.4,3.4,.7,1.1,.6,2,1.5,2,2.6s-.6,1.7-1.8,2.2c-2,.6-5.1,1-10.1,1-6.7,0-9.1-.4-12.1-2.5-3-1.9-4-5.4-4.5-9.4-.6-5-.6-8.1-.8-11.9Zm5.4-38.2c2.6,1.2,4.1,3,4.1,4.7,0,1.4-.8,2.2-2.2,2.2-2.2,0-4.6-2.2-7.4-4-1.7-1.1-4.2-2.7-5.8-3.8-.5-.3-.9-.6-.9-1.1,0-.7,.6-.9,1.4-.9,3,.2,6.8,1.1,10.8,2.9Z"/>
  <polyline class="cls-7" points="43.8 45.2 53.3 42.4 50.1 42.2"/>
  <polyline class="cls-9" points="66.7 39 74.6 37.4 59.5 55.1 63.7 53"/>
  <polyline class="cls-9" points="30.1 88.5 26.2 94.7 42.5 79.9 40.5 83.8"/>
  <polyline class="cls-9" points="60.5 60.5 64.2 57.7 63.1 69.2 64.7 66.3"/>
  <path class="cls-9" d="M56.9,79.7s.3,4.1,1.5,5.3c1.2,1.3,2.7,2.6,4.7,3.1,2,.6,6.9,.9,6.9,.9h3l-3.7,1.3"/>
  <path class="cls-2" d="M56.2,123c-.8,.6-1.3,1.1-1.6,1.4-.6,.6-1.2,1.2-1.8,1.9-.1,.1-.2,.1-.2,.1-.1,0-.2-.1-.3-.2s-.1-.2-.1-.3,.1-.2,.2-.3c.7-.8,1.2-1.4,1.7-2.1,1-1.3,1.8-2.3,2.5-3.3-1.2,.4-2.1,.8-2.9,1.1-.13,.07-.23,.1-.3,.1s-.17-.03-.3-.1c-.3-.2-.4-.3-.4-.4,0,0,0-.1,.1-.1,.3,0,.7-.1,.9-.2,.9-.2,1.7-.5,2.5-.8,.3-.1,.4-.2,.5-.2,.1-.1,.1-.2,.3-.2,.1,0,.3,.1,.5,.2,.2,.2,.3,.3,.3,.3,0,.1-.1,.2-.3,.3-.1,.1-.3,.2-.4,.4-1,1.2-2.1,2.4-3.2,3.7,.8-.6,1.4-1.1,2-1.6,.1-.1,.2-.2,.3-.2s.2,0,.4,.1,.3,.2,.3,.3v1c0,.5,0,.8,.1,1.2,.1,.3,.3,.4,.5,.5s.3,.1,.6,.1,.8,0,1.2-.1c.2,0,.3-.1,.4-.1,.2,0,.4,.1,.5,.1,.2,.1,.3,.2,.3,.4s-.1,.3-.3,.3c-.3,.1-.8,.1-1.5,.1-1,0-1.4-.1-1.8-.4-.4-.3-.6-.8-.7-1.4,.1-.5,0-1,0-1.6Zm.8-5.7c.4,.2,.6,.4,.6,.7,0,.2-.1,.3-.3,.3-.3,0-.7-.3-1.1-.6-.3-.2-.6-.4-.9-.6-.1,0-.1-.1-.1-.2s.1-.1,.2-.1c.5,.1,1,.2,1.6,.5Z"/>
</svg>