<?xml version="1.0" encoding="UTF-8"?>
<svg id="_レイヤー_1" data-name=" レイヤー 1" xmlns="http://www.w3.org/2000/svg" viewBox="0 0 110.8 128">
  <defs>
    <style>
      .cls-1 {
        fill: #fff;
      }

      .cls-2 {
        fill: #333330;
      }

      .cls-3 {
        fill: #ccc;
      }

      .cls-4 {
        fill: #d83523;
      }

      .cls-5 {
        fill: #898880;
      }

      .cls-6 {
        fill: #fbfbf9;
        stroke: #b0afa7;
        stroke-width: .8px;
      }

      .cls-7 {
        stroke: #e7211a;
        stroke-width: .5px;
      }

      .cls-7, .cls-8 {
        fill: none;
      }

      .cls-8 {
        stroke: #d8d6cf;
        stroke-dasharray: 0 0 0 0 0 0 3 3;
        stroke-width: .4px;
      }
    </style>
  </defs>
  <path class="cls-6" d="M3.4,.4H107.4c1.7,0,3,1.3,3,3V107.4c0,1.7-1.3,3-3,3H3.4c-1.7,0-3-1.3-3-3V3.4c0-1.7,1.3-3,3-3Z"/>
  <line class="cls-8" x1="55.4" y1=".4" x2="55.4" y2="110.4"/>
  <line class="cls-8" x1=".4" y1="55.4" x2="110.4" y2="55.4"/>
  <path class="cls-3" d="M30.7,72.3c.6,.4,1,.6,1.4,.6,.5,0,1-.2,1.8-.7,1-.5,2.6-2,4.3-3.4,.3-.2,.6-.2,.7-.2,.5,0,.9,.5,.9,.9,0,.2-.1,.4-.2,.6-2.3,3.9-3.5,5.8-5.2,7.9-.6,.8-1.5,1.5-2.7,1.5-1.8,0-3-1.5-4.4-3.9-1.5-2.5-2.4-5-2.4-6.9,0-.6,.2-.8,.6-.8,.2,0,.5,.1,.7,.3,1.6,1.4,3.2,3.1,4.5,4.1Zm25.5-17.5c9.2,6.5,10.3,11.7,10.3,16.6,0,6.6-5.2,11.3-12.4,11.3-5.9,0-10.2-3.3-13.5-6.9-.2-.2-.2-.4-.2-.6,0-.4,.3-.7,.7-.7,.2,0,.3,0,.6,.2,4.6,3.1,7.6,3.9,11,3.9,5.6,0,8.7-3.4,8.7-8.9,0-3.7-1.5-6.9-5.9-11-3.3-3.2-5.3-4.9-6-7.3-.1-.3-.2-.6-.2-.8,0-.6,.2-1,.6-1,.2,0,.5,.2,.8,.5,.6,.7,1.9,2.2,5.5,4.7Zm5.2-24c4.6,3.2,5.6,5.4,5.6,7,0,.4-.2,1-.5,1.2-.5,.5-1.1,.6-1.8,.7-1.9,.1-4.6,.4-7.4,.7-.7,.1-1.3,.2-1.6,.2s-.5-.2-.5-.5,.2-.5,.4-.6c1.1-.8,2.2-1.9,3.1-3,.3-.4,.6-.7,.6-1.1,0-.6-.6-1.2-2.1-2.3-1.2-1-3.2-2.4-5.3-3.8-1.2-.7-2.2-1.7-2.6-2.3-.2-.2-.3-.6-.3-.8s.1-.3,.6-.3c3.4,.2,8.2,2.4,11.8,4.9Zm24.9,33.6c2.7,2.7,3.5,4.6,3.5,6.6s-.8,3-2.2,3c-1.1,0-2.3-.8-4.2-3.8-2.5-3.8-4.6-6.6-7.1-10.1-.2-.3-.3-.7-.3-1,0-.4,.3-.6,.6-.6,.2,0,.5,.1,1,.2,3,1.3,5.9,2.9,8.7,5.7Z"/>
  <path class="cls-2" d="M52.6,126.4c.07,.07,.13,.1,.2,.1s.17-.03,.3-.1c.1-.1,.4-.3,.6-.5h.1c.1,0,.1,.1,.1,.1v.1c-.3,.6-.5,.9-.8,1.2-.1,.1-.2,.2-.4,.2-.3,0-.5-.2-.7-.6s-.4-.8-.4-1c0-.07,.03-.1,.1-.1h.1c.4,.2,.6,.5,.8,.6h0Zm3.8-2.6c1.4,1,1.5,1.8,1.5,2.5,0,1-.8,1.7-1.9,1.7-.9,0-1.5-.5-2-1v-.1c0-.07,.03-.1,.1-.1h.1c.7,.5,1.1,.6,1.6,.6,.8,0,1.3-.5,1.3-1.3,0-.6-.2-1-.9-1.7-.5-.5-.8-.7-.9-1.1v-.1c0-.07,.03-.1,.1-.1q.1,0,.1,.1c.2,0,.4,.2,.9,.6h0Zm.8-3.6c.7,.5,.8,.8,.8,1.1,0,.07-.03,.13-.1,.2-.1,.1-.2,.1-.3,.1-.3,0-.7,.1-1.1,.1h-.2s-.1,0-.1-.1,0-.1,.1-.1c.2-.1,.3-.3,.5-.4,0-.1,.1-.1,.1-.2s-.1-.2-.3-.3c-.2-.1-.5-.4-.8-.6-.2-.1-.3-.3-.4-.3v-.1h.1c.5-.1,1.2,.2,1.7,.6Zm3.7,5.1c.4,.4,.5,.7,.5,1s-.1,.5-.3,.5-.3-.1-.6-.6c-.4-.6-.7-1-1.1-1.5v-.1c0-.07,.03-.1,.1-.1h.1c.5,.1,.9,.3,1.3,.8Z"/>
  <g id="_ふ" data-name=" ふ">
    <g>
      <circle class="cls-4" cx="45.1" cy="19.5" r="5.2"/>
      <path class="cls-1" d="M46,23h-1.4v-4.8h-1.6v-.9c.4,0,.7,0,.9-.1,.3-.1,.5-.2,.7-.4,.1-.1,.2-.3,.3-.5,0-.1,.1-.2,.1-.3h1.1v7s-.1,0-.1,0Z"/>
    </g>
    <g>
      <circle class="cls-4" cx="45.1" cy="44.8" r="5.2"/>
      <path class="cls-1" d="M45.9,42.2c-.2-.2-.4-.3-.7-.3-.4,0-.7,.2-.9,.5-.1,.2-.1,.5-.2,.9h-1.3c0-.6,.1-1.1,.3-1.4,.4-.7,1-1,2-1,.7,0,1.3,.2,1.8,.6,.4,.4,.7,1,.7,1.6,0,.5-.2,1-.5,1.4-.2,.3-.5,.6-1,.9l-.6,.4c-.3,.2-.6,.4-.7,.5s-.2,.2-.3,.4h3.1v1.2h-4.8c0-.5,.1-1,.3-1.4,.2-.5,.7-1,1.4-1.5,.6-.5,1-.8,1.2-1,.3-.3,.4-.6,.4-1s-.1-.6-.2-.8Z"/>
    </g>
    <g>
      <circle class="cls-4" cx="19.2" cy="64" r="5.2"/>
      <path class="cls-1" d="M18.4,61.8c-.2,.2-.2,.5-.2,.8h-1.3c0-.3,.1-.7,.2-1s.3-.5,.5-.8c.2-.2,.4-.3,.6-.4s.6-.1,.9-.1c.7,0,1.2,.2,1.6,.5s.6,.8,.6,1.4c0,.4-.1,.8-.4,1-.2,.2-.3,.3-.5,.4,.1,0,.3,.1,.5,.3,.4,.3,.5,.8,.5,1.3,0,.6-.2,1.1-.6,1.6-.4,.4-1,.7-1.8,.7-1,0-1.7-.3-2.1-1-.2-.3-.3-.8-.3-1.4h1.4c0,.3,0,.5,.1,.7,.2,.3,.5,.5,.9,.5,.3,0,.5-.1,.7-.3,.2-.2,.3-.5,.3-.8,0-.5-.2-.8-.6-.9-.2-.1-.5-.1-1-.1v-1c.4,0,.8,0,.9-.1,.3-.1,.5-.4,.5-.8,0-.3-.1-.5-.2-.7-.2-.2-.4-.3-.7-.3-.2,.2-.4,.3-.5,.5Z"/>
    </g>
    <path class="cls-5" d="M33.9,81.6l-2,5.4h-.8l-2-5.4h.9l1.1,3.1c.2,.5,.3,.9,.4,1.4h0c.1-.4,.3-.9,.4-1.4l1.1-3.1h.9Z"/>
    <path class="cls-5" d="M89.1,75h1.1l1.2,1.8,1.2-1.8h1.1l-1.8,2.5,1.8,2.7h-1.1l-1.3-2-1.3,2h-1.1l1.8-2.7s-1.6-2.5-1.6-2.5Z"/>
    <path class="cls-5" d="M45.2,66.9c2,0,3.6,1.6,3.6,3.6s-1.6,3.6-3.6,3.6-3.6-1.6-3.6-3.6,1.6-3.6,3.6-3.6Z"/>
    <path class="cls-5" d="M73.3,36.6l-2,5.4h-.8l-2-5.4h.9l1.1,3.1c.2,.5,.3,.9,.4,1.4h0c.1-.4,.3-.9,.4-1.4l1.1-3.1h.9Z"/>
    <g>
      <circle class="cls-4" cx="80.2" cy="52" r="5.2"/>
      <path class="cls-1" d="M82.6,52.9v1.1h-.8v1.5h-1.3v-1.5h-2.8v-1.2l2.6-4.2h1.5v4.4h.8s0-.1,0-.1Zm-3.9,0h1.8v-3l-1.8,3Z"/>
    </g>
  </g>
  <path class="cls-7" d="M66.9,64.7s2.7,9.7-1,14.4c-3.7,4.7-9.4,4.8-9.4,4.8l3,.5"/>
</svg>