<?xml version="1.0" encoding="UTF-8"?>
<svg id="_レイヤー_1" data-name=" レイヤー 1" xmlns="http://www.w3.org/2000/svg" viewBox="0 0 110.8 126.2">
  <defs>
    <style>
      .cls-1 {
        fill: #fff;
      }

      .cls-2 {
        fill: #333330;
      }

      .cls-3 {
        fill: #ccc;
      }

      .cls-4 {
        fill: #d83523;
      }

      .cls-5 {
        fill: #898880;
      }

      .cls-6 {
        fill: #fbfbf9;
        stroke: #b0afa7;
        stroke-width: .8px;
      }

      .cls-7 {
        stroke: #e7211a;
        stroke-width: .5px;
      }

      .cls-7, .cls-8 {
        fill: none;
      }

      .cls-8 {
        stroke: #d8d6cf;
        stroke-dasharray: 0 0 0 0 0 0 3 3;
        stroke-width: .4px;
      }
    </style>
  </defs>
  <path class="cls-6" d="M3.4,.4H107.4c1.7,0,3,1.3,3,3V107.4c0,1.7-1.3,3-3,3H3.4c-1.7,0-3-1.3-3-3V3.4c0-1.7,1.3-3,3-3Z"/>
  <line class="cls-8" x1="55.4" y1=".4" x2="55.4" y2="110.4"/>
  <line class="cls-8" x1=".4" y1="55.4" x2="110.4" y2="55.4"/>
  <path class="cls-3" d="M27.6,53.6c1.9-.2,3-.7,4.5-1.5,5.2-3,9.3-6.2,13.2-9.4,1.9-1.6,3.7-2.6,5.2-2.6,1.8,0,2.6,.6,5.2,2.3,12.6,8.2,22.6,14.2,31.8,19.3,1.6,.9,2.6,1.1,3.7,1.7,2.1,1.1,3.4,2.9,3.4,4.5,0,1.3-1,2.4-2.3,2.4-.7,0-2.7-.6-4.6-1.8-14.8-8.9-25.4-16.5-33.5-22-1.6-1.2-3-1.8-3.8-1.8-1,0-1.9,1-3.8,2.6-2.3,2-5.2,4.5-8.2,7.2-2.1,1.7-3.2,2.9-3.8,3.7-.4,.5-.8,.9-1.6,.9-.5,0-.7-.1-1-.2-3.2-1.4-5.5-3.2-5.5-4.2-.1-.7,.3-1.1,1.1-1.1Z"/>
  <path class="cls-2" d="M52.1,123.6c.3,0,.5-.1,.7-.2,.8-.5,1.4-.9,2-1.4,.3-.2,.6-.4,.8-.4,.3,0,.4,.1,.8,.3,1.9,1.2,3.4,2.1,4.8,2.9,.2,.1,.4,.2,.6,.3,.3,.2,.5,.4,.5,.7,0,.2-.2,.4-.3,.4s-.4-.1-.7-.3c-2.2-1.3-3.8-2.5-5-3.3-.2-.2-.4-.3-.6-.3s-.3,.2-.6,.4c-.3,.3-.8,.7-1.2,1.1-.3,.3-.5,.4-.6,.6-.07,.07-.13,.1-.2,.1h-.1c-.5-.2-.8-.5-.8-.6-.2-.2-.2-.3-.1-.3Z"/>
  <g id="_へ" data-name=" へ">
    <g>
      <circle class="cls-4" cx="20.4" cy="47.8" r="5.3"/>
      <path class="cls-1" d="M21.3,51.3h-1.4v-4.9h-1.7v-.9c.4,0,.7,0,.9-.1,.3-.1,.5-.2,.7-.4,.1-.1,.2-.3,.3-.5,0-.1,.1-.2,.1-.3h1.2v7.1s-.1,0-.1,0Z"/>
    </g>
    <path class="cls-5" d="M95.1,68.6h1.1l1.2,1.8,1.2-1.8h1.1l-1.8,2.5,1.8,2.7h-1.1l-1.3-2-1.3,2h-1.1l1.8-2.7s-1.6-2.5-1.6-2.5Z"/>
  </g>
  <path class="cls-7" d="M38.1,45.2s8.3-7.4,11.5-7.7,18.9,10.6,18.9,10.6l-2.2-3.4"/>
</svg>