<?xml version="1.0" encoding="UTF-8"?>
<svg id="_レイヤー_1" data-name=" レイヤー 1" xmlns="http://www.w3.org/2000/svg" viewBox="0 0 110.8 128.5">
  <defs>
    <style>
      .cls-1 {
        fill: #fff;
      }

      .cls-2 {
        fill: #333330;
      }

      .cls-3 {
        fill: #ccc;
      }

      .cls-4 {
        fill: #d83523;
      }

      .cls-5 {
        fill: #898880;
      }

      .cls-6 {
        fill: #fbfbf9;
        stroke: #b0afa7;
        stroke-width: .8px;
      }

      .cls-7 {
        stroke: #e7211a;
        stroke-width: .5px;
      }

      .cls-7, .cls-8 {
        fill: none;
      }

      .cls-8 {
        stroke: #d8d6cf;
        stroke-dasharray: 0 0 0 0 0 0 3 3;
        stroke-width: .4px;
      }
    </style>
  </defs>
  <path class="cls-6" d="M3.4,.4H107.4c1.7,0,3,1.3,3,3V107.4c0,1.7-1.3,3-3,3H3.4c-1.7,0-3-1.3-3-3V3.4c0-1.7,1.3-3,3-3Z"/>
  <line class="cls-8" x1="55.4" y1=".4" x2="55.4" y2="110.4"/>
  <line class="cls-8" x1=".4" y1="55.4" x2="110.4" y2="55.4"/>
  <path class="cls-3" d="M72.9,59.1c-5,14-12.1,26.4-23.8,26.4-9.4,0-15.9-9.3-15.9-22.6,0-15.4,7.2-25.9,12.7-30.6-4.7,1.4-8.7,2.1-11.5,2.6-.3,.1-.5,.1-.7,.1-.8,0-1.1-.2-1.6-.5-1.4-.9-3.2-3-3.2-3.5,0-.4,.2-.6,.5-.6,.2,0,.9,.2,2.3,.2,4.1,0,7.2-.5,10.3-1.1,2.1-.4,6.2-1.3,9.2-2.4,1-.4,1.8-1.1,2.6-1.1,.9,0,1.3,.3,2,1,1,1,1.6,2.1,1.6,2.7,0,.7-1.3,1.1-2.5,1.8-9.5,6.1-17.5,16.2-17.5,33.8,0,11.1,4.5,16.6,10.9,16.6,8.2,0,17.8-14.5,23.4-29.8,1.4-4.1,2-7.6,2.4-10.5,.1-.9,.2-1.6,.2-2.3,0-1-.2-2.6-.3-3.7-.1-.6-.1-.8-.1-1.1,0-1.3,.7-2.3,2.9-2.3,1.6,0,1.9,1.3,1.9,2.8,0,1.8,.1,4,.7,6.3,.7,2.2,2.4,6.8,7,13.9,1,1.5,2.8,3.7,2.8,5s-.9,2.8-2.3,2.8c-.8,0-2.2-.6-2.8-1.4-4.1-5.6-6-10.3-8-17.2-.6,4.7-2.6,13-3.2,14.7Z"/>
  <path class="cls-2" d="M58.9,124.5c-.7,2.1-1.8,4-3.6,4-1.4,0-2.4-1.4-2.4-3.4,0-2.3,1.1-3.9,1.9-4.6-.7,.2-1.3,.3-1.7,.4h-.1c-.1,0-.2,0-.2-.1-.2-.1-.5-.4-.5-.5s0-.1,.1-.1h.3c.6,0,1.1-.1,1.5-.2,.3-.1,.9-.2,1.4-.4,.2-.1,.3-.2,.4-.2s.2,0,.3,.2c.1,.1,.2,.3,.2,.4s-.2,.2-.4,.3c-1.4,.9-2.6,2.4-2.6,5.1,0,1.7,.7,2.5,1.6,2.5,1.2,0,2.7-2.2,3.5-4.5,.2-.6,.3-1.1,.4-1.6v-1.1c0-.2,.1-.3,.4-.3,.2,0,.3,.2,.3,.4,0,.3,0,.6,.1,.9s.4,1,1.1,2.1c.1,.2,.4,.6,.4,.7,0,.2-.1,.4-.3,.4-.1,0-.3-.1-.4-.2-.6-.8-.9-1.5-1.2-2.6-.1,.9-.4,2.1-.5,2.4h0Z"/>
  <g id="_ひ" data-name=" ひ">
    <g>
      <circle class="cls-4" cx="21.2" cy="30.1" r="5.3"/>
      <path class="cls-1" d="M22.1,33.6h-1.4v-4.9h-1.7v-.9c.4,0,.7,0,.9-.1,.3-.1,.5-.2,.7-.4,.1-.1,.2-.3,.3-.5,0-.1,.1-.2,.1-.3h1.2v7.1h-.1Z"/>
    </g>
    <path class="cls-5" d="M89,63.2h1.1l1.2,1.8,1.2-1.8h1.1l-1.8,2.5,1.8,2.7h-1.1l-1.3-2-1.3,2h-1.1l1.8-2.7s-1.6-2.5-1.6-2.5Z"/>
  </g>
  <path class="cls-7" d="M58.3,27.3l7.7-1.6s-13.5,9.9-15.8,12-6.9,7.7-6.9,7.7l3.5-2.3"/>
  <path class="cls-7" d="M33.9,74.6s2.1,11.1,12.1,12.2c10,1,16.1-5.4,17.2-6.6,1.2-1.4,5.4-7.5,5.4-7.5l-.9,4"/>
  <path class="cls-7" d="M77.9,31.2l1.5-4.2s.7,10.7,1.4,13.2c.9,3,2,5.8,3.2,8,1.3,2.4,1.9,3.1,1.9,3.1l-.7-3.5"/>
</svg>