<?xml version="1.0" encoding="UTF-8"?>
<svg id="_レイヤー_1" data-name=" レイヤー 1" xmlns="http://www.w3.org/2000/svg" viewBox="0 0 110.8 128.8">
  <defs>
    <style>
      .cls-1 {
        fill: #fff;
      }

      .cls-2 {
        fill: #333330;
      }

      .cls-3 {
        fill: #ccc;
      }

      .cls-4 {
        fill: #d83523;
      }

      .cls-5 {
        fill: #898880;
      }

      .cls-6 {
        fill: #fbfbf9;
        stroke: #b0afa7;
        stroke-width: .8px;
      }

      .cls-7 {
        stroke: #e7211a;
        stroke-width: .5px;
      }

      .cls-7, .cls-8 {
        fill: none;
      }

      .cls-8 {
        stroke: #d8d6cf;
        stroke-dasharray: 0 0 0 0 0 0 3 3;
        stroke-width: .4px;
      }
    </style>
  </defs>
  <path class="cls-6" d="M3.4,.4H107.4c1.7,0,3,1.3,3,3V107.4c0,1.7-1.3,3-3,3H3.4c-1.7,0-3-1.3-3-3V3.4c0-1.7,1.3-3,3-3Z"/>
  <line class="cls-8" x1="55.4" y1=".4" x2="55.4" y2="110.4"/>
  <line class="cls-8" x1=".4" y1="55.4" x2="110.4" y2="55.4"/>
  <path class="cls-3" d="M36.4,25.7c0-.5,.2-.8,.7-.8,.6,0,2.2,1.5,3.5,3.4,1,1.4,1.2,2.5,1.2,3.2,0,.6-.1,1.6-.5,2.3-.6,1-1.3,3.7-1.8,5.4-2,7.4-3.5,17-3.5,25.1,0,5.9,.2,8.7,.6,11.8,.1,.6,.3,1,.6,1,.2,0,.6-.2,1-.8,1.5-2,2.5-3.5,3.7-5.4,.2-.2,.3-.3,.6-.3s.6,.2,.6,.6c0,.13-.03,.3-.1,.5-.7,2.5-1.6,5-2.6,8-.6,1.8-.8,2.9-.8,4.3,0,2.2-.8,2.8-2,2.8-.9,0-1.8-1.3-2.4-2.5-2.2-4.6-3.3-10.4-3.3-19.6,0-7.9,1.2-18,3.8-31.6,.3-2,.6-4.9,.6-6.6v-.8s.1,0,.1,0Zm25.2,57.4c-3.8,0-10.6-2.5-10.6-7.2,0-3,4.2-6.2,8.6-6.2,3.2,0,7,1,10.7,2,.1-.6,.1-1.4,.1-1.8-.1-5.6-.2-10.9-.2-15.9-1.9,.2-3.7,.5-5,.6-2.2,.2-3.8,.3-5,.3s-2-.2-2.9-.5c-2.4-1.1-3.5-2.2-3.5-2.9,0-.4,.4-.7,1.1-.7,.2,0,.3,0,1,.1,1.4,.2,3,.2,4.3,.2,.7,0,1.2,0,2-.1,2.5-.2,5.2-.6,7.9-1.1,0-4.2-.1-7.8-.1-10.7s-.1-4.3-.7-5.6c-4.2,.5-8.6,1.2-11.2,1.6-.6,.1-1.4,.2-2.1,.2-.5,0-1.2-.1-1.6-.3-1-.6-2.2-1.6-2.2-2,0-.3,.2-.6,.9-.8,7.7-1.4,17.8-2.7,22.5-3.2,1.5-.2,2.6-.5,3.4-.7,.4-.2,1-.2,1.4-.2,.6,0,1.3,.1,1.8,.2,1,.4,2.6,1.5,2.6,2.9,0,1.1-1.4,1.4-3,1.4-.9,0-3.4,.2-4.8,.3-1.2,.1-2.6,.2-4,.3l.6,.3c.7,.6,1,1.4,1,2.2,0,.2,0,.5-.1,.8-.1,.4-.2,1.4-.3,3.9-.1,1.8-.1,4.9-.1,8.6,1.3-.4,2.6-.7,3.7-1,1.6-.5,3-1.3,3.8-1.3,1.4,0,3.1,1,3.1,2.5,0,.9-1,1.4-2.3,1.8-2.5,.9-5.4,1.6-8.2,2.2,.1,4.2,.2,8.6,.3,12.2,0,3.8-.1,5.8-.2,7.4,4.2,1.4,8.1,3,11.5,4.6,2.4,1.1,2.9,2.3,2.9,3.4,0,1.4-1.2,2-2.4,2-1.5,0-4.5-1.4-6.5-2.6-1.8-1-4.1-2-6.4-3.1-1.6,3.9-5.3,5.9-11.8,5.9Zm2.9-9.7c-1.8-.6-3.4-1.1-4.6-1.1-3.5,0-5.5,2.4-5.5,4.6,0,1.8,3.5,3.2,6.9,3.2,5.1,0,7.3-2.5,8.2-4.6-1.6-.7-3.5-1.6-5-2.1Z"/>
  <path class="cls-2" d="M53.5,119.5c0-.07,.03-.1,.1-.1,.1,0,.3,.2,.5,.5,.1,.2,.2,.4,.2,.5s0,.2-.1,.3c-.1,.2-.2,.6-.3,.8-.3,1.1-.5,2.5-.5,3.8,0,.9,0,1.3,.1,1.8,0,.1,0,.2,.1,.2,0,0,.1,0,.1-.1,.2-.3,.4-.5,.6-.8h.1s.1,0,.1,.1v.1c-.1,.4-.2,.8-.4,1.2-.1,.3-.1,.4-.1,.6,0,.3-.1,.4-.3,.4-.1,0-.3-.2-.4-.4-.3-.7-.5-1.6-.5-2.9,0-1.2,.2-2.7,.6-4.7,0-.3,.1-.7,.1-1v-.3h0Zm3.7,8.6c-.6,0-1.6-.4-1.6-1.1,0-.4,.6-.9,1.3-.9,.5,0,1,.1,1.6,.3v-2.7c-.3,0-.6,.1-.7,.1h-.7c-.2,0-.3,0-.4-.1-.4-.2-.5-.3-.5-.4s.1-.1,.2-.1h1c.4,0,.8-.1,1.2-.2v-1.6c0-.4,0-.6-.1-.8-.6,.1-1.3,.2-1.7,.2h-.5c-.1-.1-.3-.2-.3-.3,0,0,0-.1,.1-.1,1.2-.2,2.7-.4,3.4-.5,.2,0,.4-.1,.5-.1h.5c.2,.1,.4,.2,.4,.4s-.2,.2-.4,.2h-1.2c.1,.1,.2,.2,.2,.3v2c.2-.1,.4-.1,.6-.2,.2-.1,.4-.2,.6-.2s.5,.2,.5,.4c0,.1-.2,.2-.3,.3-.4,.1-.8,.2-1.2,.3v2.9c.6,.2,1.2,.4,1.7,.7,.4,.2,.4,.3,.4,.5s-.2,.3-.4,.3-.7-.2-1-.4c-.3-.1-.6-.3-1-.5-.6,1-1.2,1.3-2.2,1.3h0Zm.5-1.5c-.3-.1-.5-.2-.7-.2-.5,0-.8,.4-.8,.7s.5,.5,1,.5c.8,0,1.1-.4,1.2-.7-.2-.1-.5-.2-.7-.3Z"/>
  <g id="_ほ" data-name=" ほ">
    <g>
      <circle class="cls-4" cx="31.8" cy="21.1" r="5.2"/>
      <path class="cls-1" d="M32.6,24.6h-1.4v-4.8h-1.6v-.9c.4,0,.7,0,.9-.1,.3-.1,.5-.2,.7-.4,.1-.1,.2-.3,.3-.5,0-.1,.1-.2,.1-.3h1.1v7h-.1Z"/>
    </g>
    <g>
      <circle class="cls-4" cx="48.4" cy="26.6" r="5.2"/>
      <path class="cls-1" d="M49.1,24c-.2-.2-.4-.3-.7-.3-.4,0-.7,.2-.9,.5-.1,.2-.1,.5-.2,.9h-1.3c0-.6,.1-1.1,.3-1.4,.4-.7,1-1,2-1,.7,0,1.3,.2,1.8,.6,.4,.4,.7,1,.7,1.6,0,.5-.2,1-.5,1.4-.2,.3-.5,.6-1,.9l-.5,.4c-.3,.2-.6,.4-.7,.5s-.2,.2-.3,.4h3.1v1.2h-4.8c0-.5,.1-1,.3-1.4,.2-.5,.7-1,1.4-1.5,.6-.5,1-.8,1.2-1,.3-.3,.4-.6,.4-1-.1-.4-.1-.6-.3-.8Z"/>
    </g>
    <g>
      <circle class="cls-4" cx="45.8" cy="50.1" r="5.2"/>
      <path class="cls-1" d="M45,47.9c-.2,.2-.2,.5-.2,.8h-1.3c0-.3,.1-.7,.2-1,.1-.3,.3-.5,.5-.8,.2-.2,.4-.3,.6-.4s.6-.1,.9-.1c.7,0,1.2,.2,1.6,.5,.4,.3,.6,.8,.6,1.4,0,.4-.1,.8-.4,1-.2,.2-.3,.3-.5,.4,.1,0,.3,.1,.5,.3,.4,.3,.5,.8,.5,1.3,0,.6-.2,1.1-.6,1.6s-1,.7-1.8,.7c-1,0-1.7-.3-2.1-1-.2-.3-.3-.8-.3-1.4h1.4c0,.3,0,.5,.1,.7,.2,.3,.5,.5,.9,.5,.3,0,.5-.1,.7-.3s.3-.5,.3-.8c0-.5-.2-.8-.6-.9-.2-.1-.5-.1-1-.1v-1c.4,0,.8,0,.9-.1,.3-.1,.5-.4,.5-.8,0-.3-.1-.5-.2-.7-.2-.2-.4-.3-.7-.3-.1,.2-.4,.3-.5,.5Z"/>
    </g>
    <path class="cls-5" d="M85.9,28.4h1.1l1.2,1.8,1.2-1.8h1.1l-1.8,2.5,1.8,2.7h-1.1l-1.3-2-1.3,2h-1.1l1.8-2.7s-1.6-2.5-1.6-2.5Z"/>
    <path class="cls-5" d="M85.9,46.1h1.1l1.2,1.8,1.2-1.8h1.1l-1.8,2.5,1.8,2.7h-1.1l-1.3-2-1.3,2h-1.1l1.8-2.7s-1.6-2.5-1.6-2.5Z"/>
    <path class="cls-5" d="M89.4,78.7h1.1l1.2,1.8,1.2-1.8h1.1l-1.8,2.5,1.8,2.7h-1.1l-1.3-2-1.3,2h-1.1l1.8-2.7s-1.6-2.5-1.6-2.5Z"/>
    <path class="cls-5" d="M40.3,88.7l-2,5.4h-.8l-2-5.4h.9l1.1,3.1c.2,.5,.3,.9,.4,1.4h0c.1-.4,.3-.9,.4-1.4l1.1-3.1s.9,0,.9,0Z"/>
    <g>
      <circle class="cls-4" cx="72.1" cy="23" r="5.2"/>
      <path class="cls-1" d="M74.6,23.8v1.1h-.8v1.5h-1.4v-1.5h-2.8v-1.2l2.6-4.3h1.5v4.4s.9,0,.9,0Zm-3.9,0h1.8v-3l-1.8,3Z"/>
    </g>
  </g>
  <path class="cls-7" d="M73,80.2s-.9,3.4-9.8,3.7-12.1-4.6-12.1-4.6l1.1,2.6"/>
</svg>