<?xml version="1.0" encoding="UTF-8"?>
<svg id="_レイヤー_1" data-name=" レイヤー 1" xmlns="http://www.w3.org/2000/svg" viewBox="0 0 110.8 126.8">
  <defs>
    <style>
      .cls-1 {
        fill: #fff;
      }

      .cls-2 {
        fill: #333330;
      }

      .cls-3 {
        fill: #ccc;
      }

      .cls-4 {
        fill: #d83523;
      }

      .cls-5 {
        fill: #898880;
      }

      .cls-6 {
        fill: #fbfbf9;
        stroke: #b0afa7;
        stroke-width: .8px;
      }

      .cls-7 {
        stroke: #e7211a;
        stroke-width: .5px;
      }

      .cls-7, .cls-8 {
        fill: none;
      }

      .cls-8 {
        stroke: #d8d6cf;
        stroke-dasharray: 0 0 0 0 0 0 3 3;
        stroke-width: .4px;
      }
    </style>
  </defs>
  <g id="_枠_け" data-name=" 枠 け">
    <path class="cls-6" d="M3.4,.4H107.4c1.7,0,3,1.3,3,3V107.4c0,1.7-1.3,3-3,3H3.4c-1.7,0-3-1.3-3-3V3.4c0-1.7,1.3-3,3-3Z"/>
    <line class="cls-8" x1="55.4" y1=".4" x2="55.4" y2="110.4"/>
    <line class="cls-8" x1=".4" y1="55.4" x2="110.4" y2="55.4"/>
  </g>
  <g id="_け" data-name=" け">
    <g>
      <circle class="cls-4" cx="36.2" cy="17.8" r="5.3"/>
      <path class="cls-1" d="M37.1,21.3h-1.4v-4.9h-1.7v-.9c.4,0,.7,0,.9-.1,.3-.1,.5-.2,.7-.4,.1-.1,.2-.3,.3-.5,0-.1,.1-.2,.1-.3h1.2v7.1h-.1Z"/>
    </g>
    <g>
      <circle class="cls-4" cx="51.1" cy="34.7" r="5.3"/>
      <path class="cls-1" d="M51.8,32.1c-.2-.2-.4-.3-.7-.3-.4,0-.7,.2-.9,.5-.1,.2-.1,.5-.2,.9h-1.4c0-.6,.1-1.1,.3-1.5,.4-.7,1-1.1,2-1.1,.7,0,1.3,.2,1.8,.6,.4,.4,.7,1,.7,1.6,0,.5-.2,1-.5,1.4-.2,.3-.5,.6-1,.9l-.6,.4c-.3,.2-.6,.4-.7,.5s-.2,.2-.3,.4h3.1v1.2h-4.8c0-.5,.1-1,.3-1.4,.2-.5,.7-1,1.4-1.5,.6-.5,1.1-.8,1.2-1,.3-.3,.4-.6,.4-1,.1-.2,0-.4-.1-.6Z"/>
    </g>
    <g>
      <circle class="cls-4" cx="72" cy="16" r="5.3"/>
      <path class="cls-1" d="M71.2,13.8c-.2,.2-.2,.5-.2,.8h-1.3c0-.4,.1-.7,.2-1s.3-.5,.5-.8c.2-.2,.4-.3,.6-.4,.2-.1,.6-.1,.9-.1,.7,0,1.2,.2,1.6,.5,.4,.4,.6,.8,.6,1.4,0,.4-.1,.8-.4,1.1-.2,.2-.3,.3-.5,.4,.1,0,.3,.1,.5,.3,.4,.3,.5,.8,.5,1.3,0,.6-.2,1.1-.6,1.6s-1,.7-1.8,.7c-1,0-1.7-.3-2.1-1-.2-.3-.3-.8-.3-1.4h1.4c0,.3,0,.5,.1,.7,.2,.3,.5,.5,.9,.5,.3,0,.5-.1,.7-.3s.3-.5,.3-.8c0-.5-.2-.8-.6-.9-.2-.1-.6-.1-1-.1v-1c.5,0,.8-.1,.9-.1,.3-.1,.5-.4,.5-.8,0-.3-.1-.5-.2-.7-.2-.2-.4-.3-.7-.3-.1,.1-.4,.2-.5,.4Z"/>
    </g>
    <path class="cls-5" d="M37.3,83.3l1.4,4.3,1.5-4.3h1l-2,5.2h-.9l-1.9-5.2h.9Z"/>
    <path class="cls-5" d="M88.7,36.5h1.1l1.2,1.8,1.2-1.8h1.1l-1.8,2.5,1.8,2.7h-1.1l-1.3-2-1.3,2h-1.1l1.8-2.7s-1.6-2.5-1.6-2.5Z"/>
    <path class="cls-5" d="M68.7,85.8c2,0,3.6,1.6,3.6,3.6s-1.6,3.6-3.6,3.6-3.6-1.6-3.6-3.6,1.6-3.6,3.6-3.6Z"/>
  </g>
  <path class="cls-3" d="M35,26c0-.7,.2-1.1,.6-1.1,.6,0,1.8,1.1,3.5,3.8,.6,1,1,2.2,1,3.8,0,.7-.4,2.1-.8,3-.6,1.3-.7,2.6-1.2,4.3-1.6,6.6-1.9,12.7-1.9,17,.1,6.2,.2,11.1,1.1,14.6,.2,.6,.3,.7,.5,.7s.3-.2,.5-.4c1.8-2.5,2.7-3.9,3.8-5.8,.2-.2,.4-.3,.6-.3,.5,0,1,.3,1,.8,0,.3-.1,.6-.2,1-.8,2.6-2,6.1-2.6,8.2-.2,.8-.5,1.8-.6,2.8-.2,1.7-1,3-2.2,3-.8,0-2.1-1-2.9-2.8-2.2-5.4-3.3-11.3-3.4-21.2,0-5.2,1-14.4,1.8-20.4,.9-5.5,1.2-8.1,1.2-10.2v-.8s.2,0,.2,0Zm25.1,18.1c-1.4,.3-4.1,.7-5,.7s-2.4-.4-4-1.4c-.2-.2-.4-.4-.4-.6s.2-.6,.9-.7c6-1.4,13.4-2.7,19-3.3-.1-2.9-.2-5.8-.3-9.2-.1-2.2-.5-4.2-1.4-5.3-.3-.4-.5-.7-.5-1,0-.6,.5-.9,1.1-.9,1.4,0,4.9,1.3,6.3,2.8,.5,.5,.6,1.2,.6,1.8,0,.4-.2,1-.2,1.1-.2,.4-.5,1.4-.5,2.6-.1,2.2-.2,4.7-.2,7.5,1-.1,2-.2,2.9-.3,1.6-.2,2.8-.3,3.5-.6,.4-.2,1-.2,1.4-.2,1,0,1.9,.2,2.6,.6,1.6,.6,2.2,1.7,2.2,2.5,0,1.1-1,1.5-1.9,1.7s-2.1,.2-4.9,.3c-1.3,0-3.1,.1-5.6,.3-.1,7.9,.1,16.8-.6,22.6-1.2,10.5-5.8,17.7-10.2,21.5-.3,.3-.6,.4-1,.4-.5,0-.9-.3-.9-.9,0-.2,.2-.6,.4-1,4.1-6.2,6.3-12.7,7-23.9,.2-4.4,.4-8.5,.4-12.6,0-1.8-.1-3.8-.1-5.7-3.7,.1-7.4,.5-10.6,1.2Z"/>
  <polyline class="cls-7" points="57.2 38.3 68.4 37 64.7 36"/>
  <path class="cls-2" d="M53.3,117.6c0-.1,0-.2,.1-.2s.3,.2,.5,.6c.1,.1,.2,.3,.2,.6,0,.1-.1,.3-.1,.5-.1,.2-.1,.4-.2,.6-.2,1-.3,1.9-.3,2.5,0,.9,0,1.7,.2,2.2,0,.07,.03,.1,.1,.1l.1-.1c.3-.4,.4-.6,.6-.9h.1c.07,0,.1,.03,.1,.1v.2c-.1,.4-.3,.9-.4,1.2,0,.1-.1,.3-.1,.4,0,.3-.1,.4-.3,.4-.1,0-.3-.2-.4-.4-.3-.8-.5-1.7-.5-3.2,0-.8,.1-2.2,.3-3.1,.1-.8,.2-1.2,.2-1.5h0s-.2,0-.2,0Zm3.7,2.7c-.2,0-.6,.1-.8,.1-.1,0-.4-.1-.6-.2l-.1-.1s0-.1,.1-.1c.9-.2,2-.4,2.9-.5v-1.4c0-.3-.1-.6-.2-.8,0-.1-.1-.1-.1-.2s.1-.1,.2-.1c.2,0,.7,.2,.9,.4,.1,.1,.1,.2,.1,.3v.2c0,.1-.1,.2-.1,.4v1.1h.4c.2,0,.4,0,.5-.1h.2c.1,0,.3,0,.4,.1,.2,.1,.3,.3,.3,.4,0,.2-.2,.2-.3,.3h-1.5c0,1.2,0,2.5-.1,3.4-.2,1.6-.9,2.7-1.5,3.2l-.1,.1c-.07,0-.1-.03-.1-.1q0-.1,.1-.1c.6-.9,.9-1.9,1-3.6,0-.7,.1-1.3,.1-1.9v-.9c-.7,0-1.2,0-1.7,.1h0Z"/>
</svg>