<?xml version="1.0" encoding="UTF-8"?>
<svg id="_レイヤー_1" data-name=" レイヤー 1" xmlns="http://www.w3.org/2000/svg" viewBox="0 0 110.8 126.6">
  <defs>
    <style>
      .cls-1 {
        fill: #fff;
      }

      .cls-2 {
        fill: #333330;
      }

      .cls-3 {
        fill: #ccc;
      }

      .cls-4 {
        fill: #d83523;
      }

      .cls-5 {
        fill: #898880;
      }

      .cls-6 {
        fill: #fbfbf9;
        stroke: #b0afa7;
        stroke-width: .8px;
      }

      .cls-7 {
        stroke: #e7211a;
        stroke-width: .5px;
      }

      .cls-7, .cls-8 {
        fill: none;
      }

      .cls-8 {
        stroke: #d8d6cf;
        stroke-dasharray: 0 0 0 0 0 0 3 3;
        stroke-width: .4px;
      }
    </style>
  </defs>
  <g id="_枠_き" data-name=" 枠 き">
    <path class="cls-6" d="M3.4,.4H107.4c1.7,0,3,1.3,3,3V107.4c0,1.7-1.3,3-3,3H3.4c-1.7,0-3-1.3-3-3V3.4c0-1.7,1.3-3,3-3Z"/>
    <line class="cls-8" x1="55.4" y1=".4" x2="55.4" y2="110.4"/>
    <line class="cls-8" x1=".4" y1="55.4" x2="110.4" y2="55.4"/>
  </g>
  <g id="_き" data-name=" き">
    <g>
      <circle class="cls-4" cx="26.4" cy="44.1" r="5.3"/>
      <path class="cls-1" d="M27.3,47.6h-1.4v-4.9h-1.7v-.9c.4,0,.7,0,.9-.1,.3-.1,.5-.2,.7-.4,.1-.1,.2-.3,.3-.5,0-.1,.1-.2,.1-.3h1.2v7.1s-.1,0-.1,0Z"/>
    </g>
    <g>
      <circle class="cls-4" cx="34.9" cy="59" r="5.3"/>
      <path class="cls-1" d="M35.6,56.3c-.2-.2-.4-.3-.7-.3-.4,0-.7,.2-.9,.5-.1,.2-.1,.5-.2,.9h-1.4c0-.6,.1-1.1,.3-1.5,.4-.7,1-1.1,2-1.1,.7,0,1.3,.2,1.8,.6,.4,.4,.7,1,.7,1.6,0,.5-.2,1-.5,1.4-.2,.3-.5,.6-1,.9l-.6,.4c-.3,.2-.6,.4-.7,.5s-.2,.2-.3,.4h3.1v1.2h-4.8c0-.5,.1-1,.3-1.4,.2-.5,.7-1,1.4-1.5,.6-.5,1.1-.8,1.2-1,.3-.3,.4-.6,.4-1,.2-.1,.1-.4-.1-.6Z"/>
    </g>
    <g>
      <circle class="cls-4" cx="42.6" cy="16.7" r="5.3"/>
      <path class="cls-1" d="M41.8,14.5c-.2,.2-.2,.5-.2,.8h-1.3c0-.4,.1-.7,.2-1,.1-.3,.3-.5,.5-.8,.2-.2,.4-.3,.6-.4,.3-.1,.6-.1,.9-.1,.7,0,1.2,.2,1.6,.5,.4,.4,.6,.8,.6,1.4,0,.4-.1,.8-.4,1.1-.2,.2-.3,.3-.5,.4,.1,0,.3,.1,.5,.3,.4,.3,.5,.8,.5,1.3,0,.6-.2,1.1-.6,1.6-.4,.5-1,.7-1.8,.7-1,0-1.7-.3-2.1-1-.2-.3-.3-.8-.3-1.4h1.4c0,.3,0,.5,.1,.7,.2,.3,.5,.5,.9,.5,.3,0,.5-.1,.7-.3s.3-.5,.3-.8c0-.5-.2-.8-.6-.9-.2-.1-.6-.1-1-.1v-1c.5,0,.8-.1,.9-.1,.3-.1,.5-.4,.5-.8,0-.3-.1-.5-.2-.7-.2-.2-.4-.3-.7-.3-.2,.1-.4,.2-.5,.4Z"/>
    </g>
    <path class="cls-5" d="M72.1,28.3h1.1l1.2,1.8,1.2-1.8h1.1l-1.8,2.5,1.8,2.7h-1.1l-1.3-2-1.3,2h-1.1l1.8-2.7s-1.6-2.5-1.6-2.5Z"/>
    <path class="cls-5" d="M78.4,41.7h1.1l1.2,1.8,1.2-1.8h1.1l-1.8,2.5,1.8,2.7h-1.1l-1.3-2-1.3,2h-1.1l1.8-2.7s-1.6-2.5-1.6-2.5Z"/>
    <path class="cls-5" d="M66.5,84.2h1.1l1.2,1.8,1.2-1.8h1.1l-1.8,2.5,1.8,2.7h-1.1l-1.3-2-1.3,2h-1l1.8-2.7s-1.7-2.5-1.7-2.5Z"/>
    <path class="cls-5" d="M79,64.4l-2.1,5.4h-.8l-2-5.5h.9l1.1,3.2c.2,.5,.3,.9,.4,1.4h0c.1-.4,.3-.9,.4-1.4l1.1-3.2h1v.1Z"/>
    <g>
      <circle class="cls-4" cx="31.7" cy="71.1" r="5.3"/>
      <path class="cls-1" d="M34.2,71.9v1.1h-.8v1.5h-1.4v-1.5h-2.8v-1.2l2.6-4.3h1.6v4.4h.8Zm-4,0h1.8v-3.1l-1.8,3.1Z"/>
    </g>
  </g>
  <path class="cls-3" d="M54.2,26.2c0,.5,.1,1.1,.3,2.2,.3,1.4,1.2,3.8,2,5.8,1.8-.7,4-1.5,5.4-2.1s2.2-1,3-1.4c1.1-.7,1.8-1.1,3-1.1,.6,0,1.7,.2,2.2,.4,1,.3,1.9,.9,1.9,1.8,0,.6-.5,1.2-2.1,1.8-2.1,.7-7,2.6-11.7,4.2,1.4,2.9,3.3,6.6,5.4,10.3,3.8-1.7,6.6-3.1,7.4-3.8,.9-.7,1.6-1.1,3.4-1.1,.9,0,2.1,.3,2.6,1.2,.2,.2,.2,.6,.2,.9,0,.7-.4,1.4-1.4,1.9-2.8,1.4-7,3.2-10.2,4.6,2,3.5,4.2,6.9,6.2,9.5,.7,1,1.8,2.5,1.8,3.8s-.7,1.8-1.9,1.8c-.6,0-2.6-.6-5.1-.9-1.6-.2-3.8-.4-5.8-.5-.6,0-1.1-.6-1.1-1,0-.3,.2-.7,.8-.8,1.6-.3,4-.7,5.8-1.2,.6-.2,.8-.3,.8-.6,0-.13-.1-.4-.3-.8-1.4-2.3-3.1-5-4.6-7.8-4.5,1.8-10.6,4.1-13.5,4.9-1.4,.4-2.3,.6-3,.6-.6,0-1.1-.2-1.8-.5-1.9-.9-3-1.8-3-2.4,0-.4,.2-.7,.8-.8,1.4-.1,3.6-.4,5.6-.9,3.4-.9,7.8-2.3,12.9-4.4-2-3.6-3.8-7.1-5.7-10.6-4.4,1.5-9.8,3.4-14.1,4.6-.6,.2-1,.2-1.5,.2s-1.2-.2-1.7-.3c-2.2-.8-3.9-2.1-3.9-2.5s.3-.6,.9-.7c2-.2,4.2-.6,6-1.1,3.8-1,8.3-2.4,12.5-3.8-1.4-2.6-2.6-5.1-3.8-7.6-.6-1.2-1.1-2.3-2.6-3.4-.5-.4-.7-.8-.7-1.1,0-.5,.4-.9,1.4-.9,1.8,0,4,.3,5.7,1,.9,.4,1.7,1.1,1.7,2v.6s-.2,0-.2,0Zm-7.8,53.4c2.7,1.5,7.8,2.7,13.4,2.9,1.4,.1,2.2,.2,2.9,.2,1.5,.2,2.8,1.1,2.8,2.9s-1.1,2.2-4.5,2.2c-6.7,0-13.9-2-17.4-5-3.4-3-5.1-7.3-5.1-10.7,0-.8,.6-1.3,1-1.3s.9,.3,1,1c1.2,4,3.3,6.4,5.9,7.8Z"/>
  <path class="cls-7" d="M37.3,75.3s.4,3.3,2.5,6.2,5.8,4.9,6.7,5.4,4.1,1.2,4.1,1.2l-3.6,.4"/>
  <path class="cls-2" d="M55.2,117.5v.3c0,.2,.2,.6,.3,.9,.3-.1,.6-.2,.8-.3,.2-.1,.3-.2,.4-.2,.2-.1,.3-.2,.5-.2,.1,0,.3,0,.3,.1,.1,0,.3,.1,.3,.3,0,.1-.1,.2-.3,.3-.3,.1-1.1,.4-1.8,.6,.2,.4,.5,1,.8,1.5,.6-.3,1-.5,1.1-.6s.2-.2,.5-.2c.1,0,.3,0,.4,.2v.1c0,.1-.1,.2-.2,.3-.4,.2-1,.5-1.5,.7,.3,.5,.6,1,.9,1.4,.1,.2,.3,.4,.3,.6s-.1,.3-.3,.3c-.1,0-.4-.1-.8-.1-.2,0-.6-.1-.9-.1-.1,0-.2-.1-.2-.2,0,0,0-.1,.1-.1,.2,0,.6-.1,.9-.2,.07,0,.1-.03,.1-.1v-.1c-.2-.3-.5-.8-.7-1.2-.7,.3-1.6,.6-2,.7-.2,.1-.3,.1-.5,.1-.1,0-.2,0-.3-.1-.3-.1-.5-.3-.5-.4s0-.1,.1-.1c.2,0,.5-.1,.8-.1,.5-.1,1.2-.3,1.9-.7-.3-.5-.6-1.1-.9-1.6-.7,.2-1.5,.5-2.1,.7h-.5c-.3-.1-.6-.3-.6-.4s0-.1,.1-.1c.3,0,.6-.1,.9-.2,.6-.1,1.2-.4,1.9-.6-.2-.4-.4-.8-.6-1.1-.1-.2-.2-.3-.4-.5-.07-.07-.1-.13-.1-.2,0-.1,.1-.1,.2-.1,.3,0,.6,0,.9,.1,.1,.1,.3,.2,.3,.3v.3h.4Zm-1.1,8c.4,.2,1.2,.4,2,.4h.4c.2,0,.4,.2,.4,.4s-.2,.3-.7,.3c-1,0-2.1-.3-2.6-.7-.5-.4-.8-1.1-.8-1.6,0-.1,.1-.2,.2-.2s.1,0,.2,.1c.2,.8,.5,1.1,.9,1.3h0Z"/>
</svg>