<?xml version="1.0" encoding="UTF-8"?>
<svg id="_レイヤー_1" data-name=" レイヤー 1" xmlns="http://www.w3.org/2000/svg" viewBox="0 0 110.8 126.5">
  <defs>
    <style>
      .cls-1 {
        fill: #fff;
      }

      .cls-2 {
        fill: #333330;
      }

      .cls-3 {
        fill: #ccc;
      }

      .cls-4 {
        fill: #d83523;
      }

      .cls-5 {
        fill: #898880;
      }

      .cls-6 {
        fill: #fbfbf9;
        stroke: #b0afa7;
        stroke-width: .8px;
      }

      .cls-7 {
        stroke: #e7211a;
        stroke-width: .5px;
      }

      .cls-7, .cls-8 {
        fill: none;
      }

      .cls-8 {
        stroke: #d8d6cf;
        stroke-dasharray: 0 0 0 0 0 0 3 3;
        stroke-width: .4px;
      }
    </style>
  </defs>
  <g id="_枠_く" data-name=" 枠 く">
    <path class="cls-6" d="M3.4,.4H107.4c1.7,0,3,1.3,3,3V107.4c0,1.7-1.3,3-3,3H3.4c-1.7,0-3-1.3-3-3V3.4c0-1.7,1.3-3,3-3Z"/>
    <line class="cls-8" x1="55.4" y1=".4" x2="55.4" y2="110.4"/>
    <line class="cls-8" x1=".4" y1="55.4" x2="110.4" y2="55.4"/>
  </g>
  <g id="_く" data-name=" く">
    <g>
      <circle class="cls-4" cx="65.9" cy="17.8" r="5.3"/>
      <path class="cls-1" d="M67.3,21.3h-1.4v-4.9h-1.7v-.9c.4,0,.7,0,.9-.1,.3-.1,.5-.2,.7-.4,.1-.1,.2-.3,.3-.5,0-.1,.1-.2,.1-.3h1.2v7.1h-.1Z"/>
    </g>
    <path class="cls-5" d="M67.2,85.9h1.1l1.2,1.8,1.2-1.8h1.1l-1.8,2.5,1.8,2.7h-1.1l-1.3-2-1.3,2h-1.1l1.8-2.7s-1.6-2.5-1.6-2.5Z"/>
  </g>
  <path class="cls-3" d="M36.8,52.4c0-.5,.6-1,1.4-1.2,.6-.2,.9-.4,1.5-1,7.8-7.8,12.3-13.8,16.2-19.8,1.4-2.2,1.9-3.9,1.9-5.1,0-1.1-.7-2.6-.7-3.3,0-.5,.4-.9,1-.9,.2,0,.5,.1,.7,.2,2.5,1,5.3,4.2,5.3,6.6,0,1.4-.6,1.8-1.3,2.6-3,3.7-6.6,7.8-9.9,11.4-2.9,3.1-6.1,6.2-10.2,10.2-.3,.3-.5,.6-.5,.8s0,.2,.5,.6c8.3,5.8,13.9,12.2,18,17.9,4.2,5.8,6.3,8.9,6.3,11.4s-1.4,3-2.5,3c-1.8,0-2.5-2.2-5.1-6.5-5.4-9-11.2-15.8-18.1-21.4-.8-.6-1.7-1.1-2.6-1.5-1.3-.5-1.4-.7-1.6-1.6-.2-.7-.2-1.3-.2-1.9v-.5h-.1Z"/>
  <polyline class="cls-7" points="42.3 43.1 32.2 53.7 43.5 62.5 40 62"/>
  <path class="cls-2" d="M52.9,121.7c0-.1,.1-.1,.2-.2,.1,0,.1-.1,.2-.2,1.2-1.2,1.8-2.1,2.4-3,.2-.3,.3-.6,.3-.8s-.1-.4-.1-.5,.1-.1,.2-.1h.1c.4,.2,.8,.6,.8,1,0,.2-.1,.3-.2,.4-.4,.6-1,1.2-1.5,1.7-.4,.5-.9,.9-1.5,1.5l-.1,.1,.1,.1c1.2,.9,2.1,1.8,2.7,2.7,.6,.9,.9,1.3,.9,1.7s-.2,.4-.4,.4c-.3,0-.4-.3-.8-1-.8-1.4-1.7-2.4-2.7-3.2-.1-.1-.3-.2-.4-.2-.13-.07-.2-.13-.2-.2,0,.1,0,0,0-.2h0Z"/>
</svg>