<?xml version="1.0" encoding="UTF-8"?>
<svg id="_レイヤー_1" data-name=" レイヤー 1" xmlns="http://www.w3.org/2000/svg" viewBox="0 0 110.8 128.7">
  <defs>
    <style>
      .cls-1 {
        fill: #fff;
      }

      .cls-2 {
        fill: #333330;
      }

      .cls-3 {
        fill: #ccc;
      }

      .cls-4 {
        fill: #d83523;
      }

      .cls-5 {
        fill: #898880;
      }

      .cls-6 {
        fill: #fbfbf9;
        stroke: #b0afa7;
        stroke-width: .8px;
      }

      .cls-7 {
        stroke: #e7211a;
        stroke-width: .5px;
      }

      .cls-7, .cls-8 {
        fill: none;
      }

      .cls-8 {
        stroke: #d8d6cf;
        stroke-dasharray: 0 0 0 0 0 0 3 3;
        stroke-width: .4px;
      }
    </style>
  </defs>
  <path class="cls-6" d="M3.4,.4H107.4c1.7,0,3,1.3,3,3V107.4c0,1.7-1.3,3-3,3H3.4c-1.7,0-3-1.3-3-3V3.4c0-1.7,1.3-3,3-3Z"/>
  <line class="cls-8" x1="55.4" y1=".4" x2="55.4" y2="110.4"/>
  <line class="cls-8" x1=".4" y1="55.4" x2="110.4" y2="55.4"/>
  <path class="cls-2" d="M56.3,128c1.3,0,1.9-1.5,1.9-2.6,0-.5-.1-.9-.2-1.2v-.1c0-.1,.1-.1,.1-.1,0,0,.1,0,.1,.1,.4,.5,.6,1.2,.6,1.9,0,1.5-1.2,2.7-2.4,2.7s-2.4-1.1-2.4-2.9c0-.4,0-.7,.1-1-.6-.1-1.4-.3-1.7-.7,0-.1-.1-.1-.1-.1,0,0,0-.1,.1-.1h.1c.5,.2,1.1,.2,1.6,.3,.1-.6,.2-1.4,.4-2.1h-1.4c-.2,0-.3,0-.6-.2-.1,0-.1-.1-.1-.1,0,0,0-.1,.1-.1,.4-.1,1-.1,1.6-.1h.5c0-.3,.1-.5,.2-.7,.1-.4,.1-.7,.1-1v-.5c0-.07,.03-.1,.1-.1,.2,0,.5,.2,.8,.6,.1,.1,.1,.2,.1,.3s0,.2-.1,.3-.2,.3-.2,.7c0,.2-.1,.4-.1,.5,.4,0,1,0,1.4,.1,.2,0,.3,.2,.3,.4s-.1,.3-.4,.3h-.2c-.5,0-1-.1-1.4-.1-.1,.5-.2,1-.3,1.6,0,.2-.1,.3-.1,.5,.5,0,1-.1,1.3-.1,.1,0,.3-.1,.4-.1h.2c.2,.1,.3,.2,.3,.3,0,.2-.1,.3-.5,.3-.4,.1-1.1,.1-1.8,.1-.1,.3-.1,.7-.1,1.1-.1,1.2,.8,1.9,1.7,1.9h0Z"/>
  <g id="_も" data-name=" も">
    <g>
      <circle class="cls-4" cx="25.2" cy="38.7" r="5.2"/>
      <path class="cls-1" d="M26,42.1h-1.4v-4.8h-1.6v-.9c.4,0,.7,0,.9-.1,.3-.1,.5-.2,.7-.4,.1-.1,.2-.3,.3-.5,0-.1,.1-.2,.1-.3h1.1v7h-.1Z"/>
    </g>
    <g>
      <circle class="cls-4" cx="25.2" cy="55.4" r="5.2"/>
      <path class="cls-1" d="M25.9,52.8c-.2-.2-.4-.3-.7-.3-.4,0-.7,.2-.9,.5-.1,.2-.1,.5-.2,.9h-1.3c0-.6,.1-1.1,.3-1.4,.4-.7,1-1,2-1,.7,0,1.3,.2,1.8,.6,.4,.4,.7,1,.7,1.6,0,.5-.2,1-.5,1.4-.2,.3-.5,.6-1,.9l-.5,.4c-.3,.2-.6,.4-.7,.5s-.2,.2-.3,.4h3.1v1.2h-4.8c0-.5,.1-1,.3-1.4,.2-.5,.7-1,1.4-1.5,.6-.5,1-.8,1.2-1,.3-.3,.4-.6,.4-1-.1-.4-.2-.6-.3-.8Z"/>
    </g>
    <g>
      <circle class="cls-4" cx="51.1" cy="14.8" r="5.2"/>
      <path class="cls-1" d="M50.2,12.6c-.2,.2-.2,.5-.2,.8h-1.3c0-.3,.1-.7,.2-1,.1-.3,.3-.5,.5-.8,.2-.2,.4-.3,.6-.4,.2-.1,.6-.1,.9-.1,.7,0,1.2,.2,1.6,.5,.4,.3,.6,.8,.6,1.4,0,.4-.1,.8-.4,1-.2,.2-.3,.3-.5,.4,.1,0,.3,.1,.5,.3,.4,.3,.5,.8,.5,1.3,0,.6-.2,1.1-.6,1.6-.4,.4-1,.7-1.8,.7-1,0-1.7-.3-2.1-1-.2-.3-.3-.8-.3-1.4h1.4c0,.3,0,.5,.1,.7,.2,.3,.5,.5,.9,.5,.3,0,.5-.1,.7-.3,.2-.2,.3-.5,.3-.8,0-.5-.2-.8-.6-.9-.2-.1-.5-.1-1-.1v-1c.4,0,.8,0,.9-.1,.3-.1,.5-.4,.5-.8,0-.3-.1-.5-.2-.7-.2-.2-.4-.3-.7-.3-.1,.2-.3,.3-.5,.5Z"/>
    </g>
    <path class="cls-5" d="M63.4,51.1h1.1l1.2,1.8,1.2-1.8h1.1l-1.8,2.5,1.8,2.7h-1.1l-1.3-2-1.3,2h-1.1l1.8-2.7s-1.6-2.5-1.6-2.5Z"/>
    <path class="cls-5" d="M79.7,56.7c2,0,3.6,1.6,3.6,3.6s-1.6,3.6-3.6,3.6-3.6-1.6-3.6-3.6,1.6-3.6,3.6-3.6Z"/>
    <path class="cls-5" d="M64.4,36.9h1.1l1.2,1.8,1.2-1.8h1.1l-1.8,2.5,1.8,2.7h-1.1l-1.3-2-1.3,2h-1.1l1.8-2.7s-1.6-2.5-1.6-2.5Z"/>
  </g>
  <g>
    <path class="cls-3" d="M58.5,83c8.7-.3,12.9-9.8,12.9-17.2,0-3-.6-5.8-1.5-8.2-.07-.13-.1-.27-.1-.4,0-.4,.4-.7,.8-.7,.2,0,.5,.1,.7,.4,2.5,3.2,4.1,7.8,4.1,12.5,0,10-7.7,17.8-16.2,17.9-8.2,0-16.3-7-16.3-19.6,0-2.6,.2-4.7,.4-6.9-4.2-.4-9.5-1.8-11.2-4.6-.2-.4-.4-.7-.4-1s.3-.6,.8-.6c.2,0,.4,0,.7,.2,3.3,1.4,7,1.6,10.7,1.8,.7-4.3,1.5-9,2.4-14.2-2.6-.1-5.9-.3-9.4-.3-1,0-2.3-.2-3.9-1.2-.5-.3-.8-.6-.8-.9s.3-.5,1-.6c2.4-.5,7-.7,10.7-1,1,0,2.1-.1,3.2-.1,.3-1.7,.7-3.2,1-5,.5-2.5,.8-4.9,.8-7s-.3-2.9-.3-3.3c0-.5,.3-.7,.9-.7,1,0,3.6,1.5,5.1,3.7,.6,.9,.8,1.5,.8,2.2,0,.8-.2,1.5-.7,2.1-.6,.7-1,2.2-1.6,4.4-.3,1.2-.7,2.5-1,3.6,3,0,6.4,.2,9.6,.7,1.5,.3,2,1.4,2,2.6s-.8,1.8-2.4,1.8c-.3,0-.6,0-1-.1-3.5-.3-6.4-.6-9.2-.7-.7,3.2-1.4,6.4-2.2,10.6-.2,1.2-.4,2.2-.6,3.4,3.4-.2,6.8-.5,8.4-.8,.7-.2,1.8-.5,2.9-.5,.4,0,.8,.1,1.2,.2,1.6,.4,1.9,1.5,1.9,2.3,0,1.2-1,2-3,2.3-2.6,.4-7.3,.8-12.2,.8-.4,2.3-.7,4.6-.7,7.4,0,10.1,6,14.7,11.4,14.7h.3Z"/>
    <path class="cls-7" d="M41.6,74.9s1.9,15.1,16.8,14.2,16.4-10.8,16.4-10.8l-.5,4.3"/>
  </g>
</svg>