<?xml version="1.0" encoding="UTF-8"?>
<svg id="_レイヤー_1" data-name=" レイヤー 1" xmlns="http://www.w3.org/2000/svg" viewBox="0 0 110.8 128.6">
  <defs>
    <style>
      .cls-1 {
        fill: #fff;
      }

      .cls-2 {
        fill: #333330;
      }

      .cls-3 {
        fill: #ccc;
      }

      .cls-4 {
        fill: #d83523;
      }

      .cls-5 {
        fill: #898880;
      }

      .cls-6 {
        fill: #fbfbf9;
        stroke: #b0afa7;
        stroke-width: .8px;
      }

      .cls-7 {
        stroke: #e7211a;
        stroke-width: .5px;
      }

      .cls-7, .cls-8 {
        fill: none;
      }

      .cls-8 {
        stroke: #d8d6cf;
        stroke-dasharray: 0 0 0 0 0 0 3 3;
        stroke-width: .4px;
      }
    </style>
  </defs>
  <path class="cls-6" d="M3.4,.4H107.4c1.7,0,3,1.3,3,3V107.4c0,1.7-1.3,3-3,3H3.4c-1.7,0-3-1.3-3-3V3.4c0-1.7,1.3-3,3-3Z"/>
  <line class="cls-8" x1="55.4" y1=".4" x2="55.4" y2="110.4"/>
  <line class="cls-8" x1=".4" y1="55.4" x2="110.4" y2="55.4"/>
  <path class="cls-2" d="M52.9,122.8h-.4c-.3-.2-.5-.4-.5-.5s.1-.1,.2-.1c.2,0,.3,0,.7-.1,.6-.1,1.1-.3,1.7-.4v-1.2c0-.6-.1-.9-.2-1.2v-.1c0-.07,.03-.1,.1-.1,.2,0,.6,.2,.9,.5,.1,.1,.1,.2,.1,.3s0,.2-.1,.2c-.1,.2-.1,.6-.2,1.2v.3c.2-.1,.4-.1,.5-.2,.2-.1,.4-.3,.7-.3,.2,0,.3,0,.4,.1,.2,.1,.2,.2,.2,.3,0,.2-.1,.3-.4,.3-.2,0-.5,.1-.9,.2-.2,0-.3,.1-.6,.2-.1,1.5-.2,3-.2,4.3,.5,1.1,1.3,1.5,2.2,1.5,1.3,0,2.1-1.4,2.4-3.4,0-.1,.1-.2,.1-.2,.07,0,.1,.03,.1,.1v.6c0,2.1-1,3.5-2.6,3.5-1,0-1.7-.4-2.4-1.2-.1,.5-.3,.7-.6,.7-.4,0-1.5-.9-1.5-1.9,0-.3,.4-.8,.7-1.2,.1-.1,.2-.1,.2-.2,.1-.1,.2-.2,.3-.2s.3,0,.5,.1c0-.9,0-1.6,.1-2.5-.2,.2-.8,.4-1.5,.6Zm1.2,2.5c0-.1-.1-.1-.1-.1-.1,0-.1,.1-.2,.2-.2,.3-.5,.6-.5,1,0,.3,.6,1.1,.9,1.1,.2,0,.3-.4,.3-.9-.1-.5-.2-.9-.4-1.3Zm5.3-5c0-.1,.1-.1,.1-.1h.1c.7,.2,1.3,.5,1.7,1,.2,.2,.3,.4,.3,.6s-.1,.5-.4,.5c-.2,0-.3-.1-.5-.3-.3-.5-.7-1-1.2-1.5-.1-.1-.1-.2-.1-.2Z"/>
  <g id="_む" data-name=" む">
    <g>
      <circle class="cls-4" cx="16.7" cy="47.9" r="5.2"/>
      <path class="cls-1" d="M17.6,51.4h-1.4v-4.8h-1.6v-.9c.4,0,.7,0,.9-.1,.3-.1,.5-.2,.7-.4,.1-.1,.2-.3,.3-.5,0-.1,.1-.2,.1-.3h1.1v7h-.1Z"/>
    </g>
    <g>
      <circle class="cls-4" cx="35.6" cy="17.1" r="5.2"/>
      <path class="cls-1" d="M36.4,14.4c-.2-.2-.4-.3-.7-.3-.4,0-.7,.2-.9,.5-.1,.2-.1,.5-.2,.9h-1.3c0-.6,.1-1.1,.3-1.4,.4-.7,1-1,2-1,.7,0,1.3,.2,1.8,.6,.4,.4,.7,1,.7,1.6,0,.5-.2,1-.5,1.4-.2,.3-.5,.6-1,.9l-.6,.4c-.3,.2-.6,.4-.7,.5s-.2,.2-.3,.4h3.1v1.2h-4.8c0-.5,.1-1,.3-1.4,.2-.5,.7-1,1.4-1.5,.6-.5,1-.8,1.2-1,.3-.3,.4-.6,.4-1,0-.3-.1-.6-.2-.8Z"/>
    </g>
    <g>
      <circle class="cls-4" cx="67.8" cy="27.6" r="5.2"/>
      <path class="cls-1" d="M67,25.4c-.2,.2-.2,.5-.2,.8h-1.3c0-.3,.1-.7,.2-1s.3-.5,.5-.8c.2-.2,.4-.3,.6-.4s.6-.1,.9-.1c.7,0,1.2,.2,1.6,.5s.6,.8,.6,1.4c0,.4-.1,.8-.4,1-.2,.2-.3,.3-.5,.4,.1,0,.3,.1,.5,.3,.4,.3,.5,.8,.5,1.3,0,.6-.2,1.1-.6,1.6-.4,.4-1,.7-1.8,.7-1,0-1.7-.3-2.1-1-.2-.3-.3-.8-.3-1.4h1.4c0,.3,0,.5,.1,.7,.2,.3,.5,.5,.9,.5,.3,0,.5-.1,.7-.3,.2-.2,.3-.5,.3-.8,0-.5-.2-.8-.6-.9-.2-.1-.5-.1-1-.1v-1c.4,0,.8,0,.9-.1,.3-.1,.5-.4,.5-.8,0-.3-.1-.5-.2-.7-.2-.2-.4-.3-.7-.3-.1,.2-.3,.3-.5,.5Z"/>
    </g>
    <path class="cls-5" d="M87.6,40.5h1.1l1.2,1.8,1.2-1.8h1.1l-1.8,2.5,1.8,2.7h-1.1l-1.3-2-1.3,2h-1.1l1.8-2.7s-1.6-2.5-1.6-2.5Z"/>
    <path class="cls-5" d="M81.3,56.7c2,0,3.6,1.6,3.6,3.6s-1.6,3.6-3.6,3.6-3.6-1.6-3.6-3.6,1.6-3.6,3.6-3.6Z"/>
    <path class="cls-5" d="M58.8,37.4h1.1l1.2,1.8,1.2-1.8h1.1l-1.8,2.5,1.8,2.7h-1l-1.3-2-1.3,2h-1.1l1.8-2.7-1.7-2.5Z"/>
  </g>
  <g>
    <path class="cls-3" d="M29.2,48c-.6,.2-1,.2-1.4,.2s-.7-.1-1.1-.3c-2.2-1.6-3.2-2.7-3.2-3.2,0-.4,.4-.6,1.2-.6,1,0,2.3-.2,4.8-.7,3.7-.8,7.5-1.8,11.6-2.9,0-1.6,.1-3.3,.2-5.1,.1-1,.1-2.1,.1-3,0-3.8-.5-6.3-1.6-8.2-.2-.2-.2-.5-.2-.7,0-.5,.3-.9,1-.9,1.3,0,4.1,1.6,6,3.5,.6,.6,.9,1.3,.9,1.8,0,.6-.2,1-.5,1.4-.7,1.4-.9,3.9-1.1,7.9-.1,1-.1,1.4-.1,1.8,1.4-.4,2.5-.7,3.4-1.1,1.4-.6,2.7-1.8,4.5-1.8,1,0,2.2,.2,3,.6,1.2,.6,1.3,1,1.3,1.8,0,1.1-.8,1.8-2.9,2.3-1.3,.3-3.4,.9-5.7,1.5-1,.3-2.1,.6-3.8,1-.6,9.8-1,20.3-1.4,28.9,3.6,7.1,8.6,10.1,14.7,10.1,8.7,0,14.3-9.3,15.7-22.6,.1-.7,.6-1,1-1,.5,0,.8,.3,.9,1,.1,1.2,.2,2.6,.2,3.8,0,14.2-6.9,23.2-17.4,23.2-6.7,0-11.4-2.4-16-7.8-.6,3.4-2,4.6-4,4.6-2.6,0-9.9-6.2-9.9-12.4,0-2,2.6-5.6,5-7.9,.6-.5,1-1,1.4-1.4,.8-.8,1.4-1.1,2.2-1.1,.7,0,2.2,.2,3,.9,.2-6.1,.3-10.8,.5-16.9-3.9,.9-7.8,2.1-12.3,3.3h0Zm8,16.8c-.2-.4-.5-.7-.7-.7-.4,0-.8,.4-1.4,1.1-1.6,2.1-3.2,4-3.2,6.6,0,2.3,4.2,7.4,6.1,7.4,1.4,0,1.7-2.9,1.8-6.2-.9-2.8-1.7-5.7-2.6-8.2ZM72.1,31.2c0-.5,.4-.7,.8-.7,.13,0,.3,.03,.5,.1,4.4,1.1,8.4,3.4,11.3,6.5,1.1,1.2,1.8,2.8,1.8,4.2,0,1.5-.8,3-2.5,3-1.1,0-2.3-.9-3.3-2.3-2.2-3.2-4.7-6.8-8.2-9.8-.3-.3-.4-.6-.4-1Z"/>
    <path class="cls-7" d="M44,76.2s.1,7.8-3.8,8.4c-3.9,.6-9.7-4.1-11.6-7.3s-1.9-5.9-1.2-7.8,5.6-7.3,5.6-7.3l-3.7,1.1"/>
  </g>
</svg>