<?xml version="1.0" encoding="UTF-8"?>
<svg id="_レイヤー_1" data-name=" レイヤー 1" xmlns="http://www.w3.org/2000/svg" viewBox="0 0 110.8 128.1">
  <defs>
    <style>
      .cls-1 {
        fill: #fff;
      }

      .cls-2 {
        fill: #333330;
      }

      .cls-3 {
        fill: #ccc;
      }

      .cls-4 {
        fill: #d83523;
      }

      .cls-5 {
        fill: #898880;
      }

      .cls-6 {
        fill: #fbfbf9;
        stroke: #b0afa7;
        stroke-width: .8px;
      }

      .cls-7 {
        stroke: #e7211a;
        stroke-width: .5px;
      }

      .cls-7, .cls-8 {
        fill: none;
      }

      .cls-8 {
        stroke: #d8d6cf;
        stroke-dasharray: 0 0 0 0 0 0 3 3;
        stroke-width: .4px;
      }
    </style>
  </defs>
  <path class="cls-6" d="M3.4,.4H107.4c1.7,0,3,1.3,3,3V107.4c0,1.7-1.3,3-3,3H3.4c-1.7,0-3-1.3-3-3V3.4c0-1.7,1.3-3,3-3Z"/>
  <line class="cls-8" x1="55.4" y1=".4" x2="55.4" y2="110.4"/>
  <line class="cls-8" x1=".4" y1="55.4" x2="110.4" y2="55.4"/>
  <path class="cls-3" d="M63,41c0,1-.5,2.6-1.2,4.8-3.8,10.2-9.7,20.1-17.1,27-2.2,2.2-3.8,3.7-6,3.8-1.3,0-3.4-.4-5.2-3.9-1.7-3.2-2.6-6.4-3.5-11-.5-2.3-.7-3.7-.8-7.1,0-3,3.3-8.6,9-13.4,5.7-4.6,14.4-8.9,24.8-8.9,7.6,0,12.7,2.7,16.4,6,5.2,4.4,8.2,10,8.2,17.9,0,10.3-5.4,20.6-22,27.8-.7,.3-.8,.3-1,.3-.6,0-1.2-.3-1.2-1,0-.3,.2-.6,.6-1,12.2-7.7,17.9-16.6,17.9-27.2,0-7.3-2.2-12.1-6.6-15.8-3.2-2.7-7-4-12.9-4-.7,0-1,0-2.2,.1,1.9,1.8,2.8,4.2,2.8,5.6h0Zm-25.8,7.2c-2.8,3.4-4.6,6.4-4.6,9.8s1.3,8.6,4.4,12.4c.6,.8,1.3,1.2,2,1.2,.6,0,1.3-.3,2.1-1,7-6.6,13.4-17.8,16.2-27.1,.6-1.8,.9-3.7,.9-5.2,0-1-.2-2-.6-2.5-7.1,1.5-15.3,6.3-20.4,12.4Z"/>
  <path class="cls-2" d="M57.5,121.7c0,.1-.1,.4-.2,.7-.6,1.5-1.5,3-2.6,4-.3,.3-.6,.6-.9,.6-.2,0-.5-.1-.8-.6s-.4-1-.5-1.7c-.1-.3-.1-.6-.1-1.1s.5-1.3,1.4-2,2.2-1.3,3.7-1.3c1.1,0,1.9,.4,2.5,.9,.8,.7,1.2,1.5,1.2,2.7,0,1.5-.8,3.1-3.3,4.2h-.2c-.1,0-.2,0-.2-.1,0,0,0-.1,.1-.1,1.8-1.2,2.7-2.5,2.7-4.1,0-1.1-.3-1.8-1-2.4-.5-.4-1.1-.6-1.9-.6h-.3c.2,.4,.4,.7,.4,.9Zm-3.9,1.1c-.4,.5-.7,1-.7,1.5s.2,1.3,.7,1.9c.1,.1,.2,.2,.3,.2s.2,0,.3-.2c1.1-1,2-2.7,2.4-4.1,.1-.3,.1-.6,.1-.8s0-.3-.1-.4c-1,.3-2.2,1-3,1.9Z"/>
  <g id="_の" data-name=" の">
    <g>
      <circle class="cls-4" cx="58.9" cy="25.4" r="5.3"/>
      <path class="cls-1" d="M59.8,29h-1.4v-4.9h-1.7v-.9c.4,0,.7,0,.9-.1,.3-.1,.5-.2,.7-.4,.1-.1,.2-.3,.3-.5,0-.1,.1-.2,.1-.3h1.2v7.1s-.1,0-.1,0Z"/>
    </g>
    <path class="cls-5" d="M68.2,84.9c2,0,3.6,1.6,3.6,3.6s-1.6,3.6-3.6,3.6-3.6-1.6-3.6-3.6,1.6-3.6,3.6-3.6Z"/>
  </g>
  <path class="cls-7" d="M49.2,70.3s-5.1,7.7-10.5,7.9c-5.4,.3-8.3-7.4-9.4-10.9s-2.8-12.8-2-15.7,7.3-9.3,7.3-9.3l-3.2,1.2"/>
  <path class="cls-7" d="M82.1,38.3s5.3,5.7,6.3,11.5,.7,12.1-.9,15.8-4.6,8.7-7.5,10.9c-2.9,2.1-4.6,3.2-4.6,3.2l3.4-.6"/>
</svg>