<?xml version="1.0" encoding="UTF-8"?>
<svg id="_レイヤー_1" data-name=" レイヤー 1" xmlns="http://www.w3.org/2000/svg" viewBox="0 0 110.8 126.3">
  <defs>
    <style>
      .cls-1 {
        fill: #fff;
      }

      .cls-2 {
        fill: #333330;
      }

      .cls-3 {
        fill: #ccc;
      }

      .cls-4 {
        fill: #d83523;
      }

      .cls-5 {
        fill: #898880;
      }

      .cls-6 {
        fill: #fbfbf9;
        stroke: #b0afa7;
        stroke-width: .8px;
      }

      .cls-7, .cls-8, .cls-9 {
        fill: none;
      }

      .cls-7, .cls-9 {
        stroke: #e7211a;
        stroke-width: .5px;
      }

      .cls-8 {
        stroke: #d8d6cf;
        stroke-dasharray: 0 0 0 0 0 0 3 3;
        stroke-width: .4px;
      }

      .cls-9 {
        stroke-miterlimit: 10;
      }
    </style>
  </defs>
  <g id="_枠_お" data-name=" 枠 お">
    <path class="cls-6" d="M3.4,.4H107.4c1.7,0,3,1.3,3,3V107.4c0,1.7-1.3,3-3,3H3.4c-1.7,0-3-1.3-3-3V3.4c0-1.7,1.3-3,3-3Z"/>
    <line class="cls-8" x1="55.4" y1=".4" x2="55.4" y2="110.4"/>
    <line class="cls-8" x1=".4" y1="55.4" x2="110.4" y2="55.4"/>
  </g>
  <g id="_お" data-name=" お">
    <g>
      <circle class="cls-4" cx="19.9" cy="48.3" r="5.3"/>
      <path class="cls-1" d="M20.8,51.9h-1.4v-4.9h-1.7v-.9c.4,0,.7,0,.9-.1,.3-.1,.5-.2,.7-.4,.1-.1,.2-.3,.3-.5,0-.1,.1-.2,.1-.3h1.2v7.1s-.1,0-.1,0Z"/>
    </g>
    <g>
      <circle class="cls-4" cx="42.5" cy="20.4" r="5.3"/>
      <path class="cls-1" d="M43.2,17.8c-.2-.2-.4-.3-.7-.3-.4,0-.7,.2-.9,.5-.1,.2-.1,.5-.2,.9h-1.4c0-.6,.1-1.1,.3-1.5,.4-.7,1-1.1,2-1.1,.7,0,1.3,.2,1.8,.6,.4,.4,.7,1,.7,1.6,0,.5-.2,1-.5,1.4-.2,.3-.5,.6-1,.9l-.6,.4c-.3,.2-.6,.4-.7,.5-.1,.1-.2,.2-.3,.4h3.1v1.3h-4.8c0-.5,.1-1,.3-1.4,.2-.5,.7-1,1.4-1.5,.6-.5,1.1-.8,1.2-1,.3-.3,.4-.6,.4-1,.1-.2,.1-.5-.1-.7Z"/>
    </g>
    <g>
      <circle class="cls-4" cx="65" cy="30.2" r="5.3"/>
      <path class="cls-1" d="M64.2,28c-.2,.2-.2,.5-.2,.8h-1.3c0-.4,.1-.7,.2-1,.1-.3,.3-.5,.5-.8,.2-.2,.4-.3,.6-.4,.2-.1,.6-.1,.9-.1,.7,0,1.2,.2,1.6,.5,.4,.4,.6,.8,.6,1.4,0,.4-.1,.8-.4,1.1-.2,.2-.3,.3-.5,.4,.1,0,.3,.1,.5,.3,.4,.3,.5,.8,.5,1.3,0,.6-.2,1.1-.6,1.6s-1,.7-1.8,.7c-1,0-1.7-.3-2.1-1-.2-.3-.3-.8-.3-1.4h1.4c0,.3,0,.5,.1,.7,.2,.3,.5,.5,.9,.5,.3,0,.5-.1,.7-.3s.3-.5,.3-.8c0-.5-.2-.8-.6-.9-.2-.1-.6-.1-1-.1v-1c.5,0,.8-.1,.9-.1,.3-.1,.5-.4,.5-.8,0-.3-.1-.5-.2-.7-.2-.2-.4-.3-.7-.3-.1,.1-.4,.2-.5,.4Z"/>
    </g>
    <path class="cls-5" d="M57.5,36.6h1.1l1.2,1.8,1.2-1.8h1.1l-1.8,2.5,1.8,2.7h-1.1l-1.3-2-1.3,2h-1l1.8-2.7-1.7-2.5Z"/>
    <path class="cls-5" d="M86.3,43.1h1.1l1.2,1.8,1.2-1.8h1.1l-1.8,2.5,1.8,2.7h-1.1l-1.3-2-1.3,2h-1.1l1.8-2.7s-1.6-2.5-1.6-2.5Z"/>
    <path class="cls-5" d="M60.3,84.3c2,0,3.6,1.6,3.6,3.6s-1.6,3.6-3.6,3.6-3.6-1.6-3.6-3.6,1.6-3.6,3.6-3.6Z"/>
  </g>
  <path class="cls-3" d="M45.3,77.6c0,3-.2,4.8-1,6.6-1,2-2.5,3.4-3.4,3.4-.6,0-1.5-.3-2.7-1.1-2.3-1.8-4.9-3.8-6.5-5.4-.8-.7-1.7-1.4-2.4-2.1-1-.9-1.6-1.4-1.6-2.5,0-.7,.2-1.3,.7-1.9,2.5-3,7.8-6.6,12.5-9.1,.1-5.9,.1-12,.2-18.5-3.4,1-5.9,1.6-8.7,2.3-.6,.2-1.1,.2-1.5,.2-.5,0-.9-.1-1.3-.2-1.9-.8-3.4-2.5-3.4-3,0-.3,.3-.5,.7-.5,1.2,0,2.8-.2,4.6-.6,2.9-.6,6.2-1.5,9.5-2.6v-8.7c0-2.1-.6-3.7-1-5-.2-.4-.2-.6-.2-1,0-.6,.3-.9,1-.9,1.2,0,4.2,1.4,5.6,2.6,.6,.4,.8,1.1,.8,1.9,0,.5-.1,1-.2,1.4-.5,1-.9,2.8-1,4-.1,1-.1,2.2-.1,4.1,1-.2,2.6-.9,3.3-1.2,1-.4,1.4-1.4,2.8-1.5,.6-.1,1-.1,1.4-.1,2.2,0,3.6,.6,3.6,2.2,0,1.2-1,1.9-2.5,2.4-2,.8-5.8,1.8-8.8,2.8-.2,5.8-.3,11.7-.3,17.7,8.2-4.1,15.9-5.9,22.6-5.9,10.1,0,16.9,5.5,16.9,13,0,9-7.4,13.7-15.8,13.7-4.2,0-7.7-.8-10.7-3-.5-.3-.6-.6-.6-1s.2-.7,.7-.7c.2,0,.5,.1,1,.2,2.2,.6,4.2,1,6.8,1,7.4,0,12.8-3.5,12.8-11.5,0-6.2-4.6-8.7-10.6-8.7s-13.7,2.2-23,7.4v9.8h-.2Zm-12.5-1c-.2,.3-.5,.7-.5,1s.2,.7,1,1.4c2.6,2.2,5.6,3.8,6.1,3.8,1,0,1.5-1.1,1.5-3.2,0-3,.1-6.2,.1-9.3-3.5,2-6.2,3.9-8.2,6.3Zm37.3-42c0-.3,.6-.6,1.2-.6,2,0,5.9,.8,9.5,2.7,3,1.6,4.9,3.4,4.9,5.3,0,1.8-.8,2.9-2.3,2.9-1.4,0-3-1-4.2-2.5-2.2-2.2-5.4-5-8.2-6.7-.6-.5-.9-.9-.9-1.1Z"/>
  <path class="cls-7" d="M29.7,43.6c.7-.2,10.4-2.2,10.4-2.2l-4.1-.7"/>
  <path class="cls-7" d="M46.3,74.2s.1,10.5-1.2,12.2-4.1,3.4-4.1,3.4l-4.8-3.4,1,2.1"/>
  <path class="cls-9" d="M29.7,81.4s-3.9-2.7-4.1-4.1,2.7-4.9,4.5-6.4,4.8-3.5,4.8-3.5l-2.9,.4"/>
  <path class="cls-9" d="M69.6,56.2s8.3,.3,12.3,4.3c4.4,4.5,4.3,8.3,4.3,11s-.7,5-1.7,6.9c-1.3,2.4-3.6,4.2-5,5-1.3,.7-5.1,1.9-5.1,1.9l3.1,.3"/>
  <path class="cls-2" d="M54.7,124.8c0,.5,0,.7-.2,1-.1,.3-.4,.5-.5,.5s-.2,0-.4-.2c-.3-.3-.7-.6-1-.8-.1-.1-.3-.2-.4-.3-.1-.1-.2-.2-.2-.4,0-.1,0-.2,.1-.3,.4-.5,1.2-1,1.9-1.4v-2.8c-.5,.1-.9,.2-1.3,.3h-.4c-.3-.1-.5-.4-.5-.5,0,0,0-.1,.1-.1,.2,0,.4,0,.7-.1,.4-.1,.9-.2,1.4-.4v-1.3c0-.3-.1-.6-.2-.8v-.1c0-.07,.03-.1,.1-.1,.2,0,.6,.2,.8,.4,.1,.1,.1,.2,.1,.3v.2c-.1,.1-.1,.4-.1,.6v.6c.1,0,.4-.1,.5-.2s.2-.2,.4-.2h.2c.3,0,.5,.1,.5,.3s-.1,.3-.4,.4c-.3,.1-.9,.3-1.3,.4v2.7c1.2-.6,2.4-.9,3.4-.9,1.5,0,2.5,.8,2.5,1.9,0,1.4-1.1,2.1-2.4,2.1-.6,0-1.2-.1-1.6-.4-.1,0-.1-.1-.1-.1,0-.07,.03-.1,.1-.1h.1c.3,.1,.6,.1,1,.1,1.1,0,1.9-.5,1.9-1.7,0-.9-.7-1.3-1.6-1.3s-2.1,.3-3.5,1.1v1.6s.3,0,.3,0Zm-1.9-.2s-.1,.1-.1,.2,0,.1,.1,.2c.4,.3,.8,.6,.9,.6,.2,0,.2-.2,.2-.5v-1.4c-.4,.3-.8,.6-1.1,.9Zm5.6-6.3s.1-.1,.2-.1c.3,0,.9,.1,1.4,.4,.5,.2,.7,.5,.7,.8s-.1,.4-.3,.4-.4-.2-.6-.4c-.3-.3-.8-.8-1.2-1-.1,0-.2,0-.2-.1Z"/>
</svg>