<?xml version="1.0" encoding="UTF-8"?>
<svg id="_レイヤー_1" data-name=" レイヤー 1" xmlns="http://www.w3.org/2000/svg" viewBox="0 0 110.8 128.5">
  <defs>
    <style>
      .cls-1 {
        fill: #fff;
      }

      .cls-2 {
        fill: #333330;
      }

      .cls-3 {
        fill: #ccc;
      }

      .cls-4 {
        fill: #d83523;
      }

      .cls-5 {
        fill: #898880;
      }

      .cls-6 {
        fill: #fbfbf9;
        stroke: #b0afa7;
        stroke-width: .8px;
      }

      .cls-7 {
        stroke: #e7211a;
        stroke-width: .5px;
      }

      .cls-7, .cls-8 {
        fill: none;
      }

      .cls-8 {
        stroke: #d8d6cf;
        stroke-dasharray: 0 0 0 0 0 0 3 3;
        stroke-width: .4px;
      }
    </style>
  </defs>
  <path class="cls-6" d="M3.4,.4H107.4c1.7,0,3,1.3,3,3V107.4c0,1.7-1.3,3-3,3H3.4c-1.7,0-3-1.3-3-3V3.4c0-1.7,1.3-3,3-3Z"/>
  <line class="cls-8" x1="55.4" y1=".4" x2="55.4" y2="110.4"/>
  <line class="cls-8" x1=".4" y1="55.4" x2="110.4" y2="55.4"/>
  <path class="cls-3" d="M39.2,30.7c.5,0,1.2,0,2.3-.2,1.8-.2,5.3-.9,7-1.2,4.3-.7,8.6-1.6,12.1-2.5,1.3-.3,2-.7,2.7-1.2,.6-.4,1.1-.6,1.5-.6,.6,0,1.4,.3,3,1.9,.8,.8,1,1,1,1.4,0,.6-.4,1.1-.9,1.4-1.4,1-2.7,2.3-4.4,4.3-5.8,7-10.9,12.6-18,20.2,5.8-2.6,9.5-3.8,16.6-3.8,13.6,0,17.8,8.6,17.8,14.6,0,13.7-15.9,20.7-27.8,22-.6,.1-.8,.1-1,.1-.9,0-1.4-.4-1.4-.9,0-.3,.2-.9,.7-1,12.5-3.6,23.4-9.8,23.4-21,0-4.6-1.9-10.7-10.7-10.7-9.4,0-15.8,2.6-24.4,9.4-1.8,1.4-3.1,3-4.4,5-.4,.6-.9,1-1.4,1-.3,0-.8-.2-1.2-.4-1.5-.8-2.2-2.3-2.2-3.2,0-.4,.2-.8,.6-1.2,2-1.8,4.2-3.5,6.7-5.9,7.2-7.3,15.4-17.8,23.4-27.4-4.7,1-8.9,1.8-12.8,2.8-.6,.2-2.6,.6-4.1,1.2-.7,.3-1.5,.4-2,.4-.4,0-.7-.1-1.2-.4-1.9-1.4-2.8-2.9-2.8-3.4,0-.4,.2-.6,.7-.6h1.2s0-.1,0-.1Z"/>
  <path class="cls-2" d="M53.6,120.2h.3c.3,0,.8-.1,1.1-.2,.6-.1,1.3-.2,1.8-.4,.2,0,.3-.1,.4-.2,.1-.1,.2-.1,.2-.1,.1,0,.2,0,.5,.3,.1,.1,.1,.2,.1,.2,0,.1-.1,.2-.1,.2-.2,.1-.4,.3-.7,.6-.9,1-1.6,1.9-2.7,3,.9-.4,1.4-.6,2.5-.6,2,0,2.7,1.3,2.7,2.2,0,2.1-2.4,3.1-4.2,3.3h-.2c-.1,0-.2-.1-.2-.1,0,0,0-.1,.1-.2,1.9-.5,3.5-1.5,3.5-3.2,0-.7-.3-1.6-1.6-1.6-1.4,0-2.4,.4-3.7,1.4-.3,.2-.5,.5-.7,.8-.07,.07-.13,.1-.2,.1q-.1,0-.2-.1c-.2-.1-.3-.3-.3-.5,0-.07,.03-.13,.1-.2,.3-.3,.6-.5,1-.9,1.1-1.1,2.3-2.7,3.5-4.1-.7,.1-1.3,.3-1.9,.4-.1,0-.4,.1-.6,.2-.1,0-.2,.1-.3,.1s-.1,0-.2-.1c-.3-.2-.4-.4-.4-.5s0-.1,.1-.1h.3v.3h0Z"/>
  <g>
    <g id="_ろ" data-name=" ろ">
      <g>
        <circle class="cls-4" cx="31.2" cy="32.7" r="5.2"/>
        <path class="cls-1" d="M32.1,36.1h-1.4v-4.8h-1.6v-.9c.4,0,.7,0,.9-.1,.3-.1,.5-.2,.7-.4,.1-.1,.2-.3,.3-.5,0-.1,.1-.2,.1-.3h1.1v7h-.1Z"/>
      </g>
      <path class="cls-5" d="M44.6,82.4c2,0,3.6,1.6,3.6,3.6s-1.6,3.6-3.6,3.6-3.6-1.6-3.6-3.6,1.6-3.6,3.6-3.6Z"/>
    </g>
    <polyline class="cls-7" points="70.1 27.1 74.8 26 60.8 40.2 64.8 38.7"/>
    <path class="cls-7" d="M30,70.2l-1.6,5.2s10.1-8.6,12.5-10.5,10.2-7.2,10.2-7.2l-2.7,3.7"/>
    <path class="cls-7" d="M76.4,53.6s4.9,2.9,5.5,9.6c.7,6.7-5.2,14.2-5.2,14.2l2.5-1.6"/>
  </g>
</svg>