<?xml version="1.0" encoding="UTF-8"?>
<svg id="_レイヤー_1" data-name=" レイヤー 1" xmlns="http://www.w3.org/2000/svg" viewBox="0 0 110.8 128.5">
  <defs>
    <style>
      .cls-1 {
        fill: #fff;
      }

      .cls-2 {
        fill: #333330;
      }

      .cls-3 {
        fill: #ccc;
      }

      .cls-4 {
        fill: #d83523;
      }

      .cls-5 {
        fill: #898880;
      }

      .cls-6 {
        fill: #fbfbf9;
        stroke: #b0afa7;
        stroke-width: .8px;
      }

      .cls-7 {
        stroke: #e7211a;
        stroke-width: .5px;
      }

      .cls-7, .cls-8 {
        fill: none;
      }

      .cls-8 {
        stroke: #d8d6cf;
        stroke-dasharray: 0 0 0 0 0 0 3 3;
        stroke-width: .4px;
      }
    </style>
  </defs>
  <path class="cls-6" d="M3.4,.4H107.4c1.7,0,3,1.3,3,3V107.4c0,1.7-1.3,3-3,3H3.4c-1.7,0-3-1.3-3-3V3.4c0-1.7,1.3-3,3-3Z"/>
  <line class="cls-8" x1="55.4" y1=".4" x2="55.4" y2="110.4"/>
  <line class="cls-8" x1=".4" y1="55.4" x2="110.4" y2="55.4"/>
  <path class="cls-3" d="M75,62.3c0-5.4-3.1-10.5-11-10.5-8.8,0-17.9,4.2-26.2,12.5-1.8,1.8-2.9,3.7-3.8,4.7-.3,.4-.8,.6-1.4,.6-.5,0-1-.2-1.6-.8-1-1-1.5-2.1-1.5-2.8,0-.8,.4-1.3,1.4-1.9,1.9-1.3,5.5-5.5,7.4-7.6,4.7-5.2,13.5-16.2,22.6-29-2.2,.4-4.2,.8-7.4,1.6-2.4,.6-4.6,1.1-6.2,1.6-1.8,.6-3,1.1-3.7,1.1-.9,0-1.7-.6-2.6-1.5-1.4-1.4-2.1-2.4-2.1-2.8s.3-.6,.7-.6c.6,0,1.4,.2,2.6,.2,1,0,2.2-.1,3.8-.3,3.4-.6,7.5-1.4,13.5-2.8,1.4-.3,2.6-.8,3.3-1.2,.5-.3,1.3-1.2,1.8-1.2,.9,0,1.9,.3,2.8,.9,1.2,.8,1.9,1.4,1.9,2.2s-1.2,2-2.2,3.2c-3.8,4.7-9.4,11.5-15.5,18.8-1.8,2.1-3,3.9-6.2,6.8,7-3.4,11.1-4.8,18.4-4.8,9.7,0,16.9,6.1,16.9,15.4,0,8.7-8.8,19-23.7,19-9,0-12.3-3.4-12.3-6.3,0-3.2,3.8-6.6,9-6.6,4.1,0,6.2,1.5,8.4,3,1,.7,2.6,2.2,4.1,3.8,5-2.2,8.8-7.7,8.8-14.7Zm-17.7,12.7c-1.6-1.3-3.6-2.1-5.4-2.1-2.1,0-3.3,1.7-3.3,3.8s2.1,3.4,5.6,3.4c3.1,0,5.4-.5,6.9-.9-.9-1.4-1.8-2.6-3.8-4.2Z"/>
  <path class="cls-2" d="M58.9,125.4c0-.8-.5-1.6-1.6-1.6-1.3,0-2.7,.6-3.9,1.9-.3,.3-.4,.6-.6,.7,0,.1-.1,.1-.2,.1s-.2,0-.2-.1c-.1-.2-.2-.3-.2-.4s.1-.2,.2-.3c.3-.2,.8-.8,1.1-1.1,.7-.8,2-2.4,3.4-4.3-.3,.1-.6,.1-1.1,.2-.4,.1-.7,.2-.9,.2-.3,.1-.5,.2-.6,.2s-.3-.1-.4-.2c-.2-.2-.3-.4-.3-.4,0-.07,.03-.1,.1-.1h1c.5-.1,1.1-.2,2-.4,.2,0,.4-.1,.5-.2,.1,0,.2-.2,.3-.2s.3,0,.4,.1c.2,.1,.3,.2,.3,.3s-.2,.3-.3,.5c-.6,.7-1.4,1.7-2.3,2.8-.3,.3-.5,.6-.9,1,1.1-.5,1.7-.7,2.8-.7,1.5,0,2.5,.9,2.5,2.3,0,1.3-1.3,2.8-3.5,2.8-1.3,0-1.8-.5-1.8-.9,0-.5,.6-1,1.3-1,.6,0,.9,.2,1.3,.5,.2,.1,.4,.3,.6,.6,.5-.4,1-1.3,1-2.3Zm-2.6,1.9c-.2-.2-.5-.3-.8-.3s-.5,.3-.5,.6,.3,.5,.8,.5,.8-.1,1-.1c-.1-.3-.2-.5-.5-.7Z"/>
  <g>
    <g id="_る" data-name=" る">
      <g>
        <circle class="cls-4" cx="32.4" cy="29.2" r="5.2"/>
        <path class="cls-1" d="M33.3,32.7h-1.4v-4.8h-1.6v-.9c.4,0,.7,0,.9-.1,.3-.1,.5-.2,.7-.4,.1-.1,.2-.3,.3-.5,0-.1,.1-.2,.1-.3h1.1v7s-.1,0-.1,0Z"/>
      </g>
      <path class="cls-5" d="M65.7,83.8h1.1l1.2,1.8,1.2-1.8h1.1l-1.8,2.5,1.8,2.7h-1.1l-1.3-2-1.3,2h-1.1l1.8-2.7s-1.6-2.5-1.6-2.5Z"/>
    </g>
    <polyline class="cls-7" points="70.8 24 76.3 22.6 60.6 39.8 64.7 37.9"/>
    <polyline class="cls-7" points="31.4 71.7 29.1 75.5 42.4 62.2 40.9 66.3"/>
    <path class="cls-7" d="M76.3,51.5s5.4,3.4,6,10.7-3.4,12.6-3.4,12.6l3.5-2.2"/>
    <path class="cls-7" d="M53.6,84.3s-11,0-10.7-6.8,8.1-8.6,8.1-8.6h-2.8"/>
  </g>
</svg>