<?xml version="1.0" encoding="UTF-8"?>
<svg id="_レイヤー_1" data-name=" レイヤー 1" xmlns="http://www.w3.org/2000/svg" viewBox="0 0 110.8 128.43">
  <defs>
    <style>
      .cls-1 {
        fill: #fff;
      }

      .cls-2 {
        fill: #333330;
      }

      .cls-3 {
        fill: #ccc;
      }

      .cls-4 {
        fill: #d83523;
      }

      .cls-5 {
        fill: #898880;
      }

      .cls-6 {
        fill: #fbfbf9;
        stroke: #b0afa7;
        stroke-width: .8px;
      }

      .cls-7 {
        fill: none;
        stroke: #d8d6cf;
        stroke-dasharray: 0 0 0 0 0 0 3 3;
        stroke-width: .4px;
      }
    </style>
  </defs>
  <path class="cls-6" d="M3.4,.4H107.4c1.7,0,3,1.3,3,3V107.4c0,1.7-1.3,3-3,3H3.4c-1.7,0-3-1.3-3-3V3.4c0-1.7,1.3-3,3-3Z"/>
  <line class="cls-7" x1="55.4" y1=".4" x2="55.4" y2="110.4"/>
  <line class="cls-7" x1=".4" y1="55.4" x2="110.4" y2="55.4"/>
  <path class="cls-3" d="M36.9,46c-.7,.2-1.9,.4-2.5,.6-.5,.2-1,.2-1.7,.2-.5,0-1.4-.2-2.2-.6-1.7-.9-3.8-2.7-3.8-3.4,0-.3,.4-.6,.9-.6,.9,0,1.7,.1,2.5,.1,1.4,0,2.9-.1,4.2-.2,5.3-.7,12.3-1.8,19-3.4-1.8-3-3.5-6.7-5.3-10.2-1.2-2.4-2.2-3.7-3.1-4.3-.6-.5-.9-.7-.9-1.1,0-.5,.5-.8,2.3-.8,1.4,0,3,.2,4.3,.8,1.6,.6,2,1.4,2,2.4,0,1.2,.3,2.2,.6,3,.9,2.5,2.5,5.9,4.3,9.2,4.9-1.3,8.8-2.4,11.5-3.3,1.1-.4,1.8-.7,2.8-1.3s2-.8,3.4-.8,2,.2,2.8,.5,1.5,1,1.5,1.9c0,.6-.4,1.4-1.8,1.8-4.8,1.5-11.8,3.3-18.2,4.7,1.8,2.6,4.6,6.5,6.7,9.1,.5,.6,1.8,1.9,3,3,1.3,1.1,1.6,1.8,1.8,2.7,.2,.7,.2,1.1,.2,1.5,0,1.9-1,2.8-1.9,2.8-.7,0-1.9-.4-3.4-.8-1.2-.3-5.3-1.2-7.7-1.7-.9-.2-1.3-.5-1.3-1,0-.6,.3-.7,1.4-.9,1.7-.2,4.5-.4,6.4-.6-4-5-7-9.4-9.5-13.2-6.8,1.8-14,3.1-18.3,3.9Zm9,35.7c-5.5-2.6-8.6-6.7-9.5-10.5-.2-1-.3-2.4-.3-3.1,0-1.4,.2-2.6,.8-4.1,.1-.2,.4-.4,.7-.4,.6,0,.9,.4,.9,1.3,0,4.7,1.4,7.6,4.9,9.8,4.6,3,8.2,3.8,13.5,4.7,3,.6,4.2,2,4.2,3.6,0,1.4-.6,2.1-2.7,2.1-3.9,.1-8.4-1.4-12.5-3.4Z"/>
  <path class="cls-1" d="M37.1,12.8c-.2-.2-.4-.3-.7-.3-.4,0-.7,.2-.9,.5-.1,.1-.1,.4-.1,.8h-1.4c0-.6,.1-1.1,.3-1.5,.4-.7,1-1.1,2-1.1,.7,0,1.3,.2,1.8,.6,.4,.4,.7,1,.7,1.6,0,.5-.2,1-.5,1.4-.2,.3-.5,.6-1,.9l-.6,.4c-.3,.2-.6,.4-.7,.5s-.2,.2-.3,.4h3.1v1.4h-4.8c0-.5,.1-1,.3-1.4,.2-.5,.7-1,1.4-1.5,.6-.5,1.1-.8,1.2-1,.3-.3,.4-.6,.4-1,0-.3,0-.5-.2-.7Z"/>
  <path class="cls-2" d="M53.6,122.7c-.1,0-.3,.1-.4,.1h-.3c-.1,0-.2,0-.3-.1-.3-.1-.6-.4-.6-.5l.1-.1h1c.8-.1,1.8-.3,2.9-.5-.3-.5-.5-1-.8-1.5-.2-.4-.3-.6-.5-.6-.07-.07-.1-.13-.1-.2,0-.1,.1-.1,.3-.1s.4,0,.6,.1,.3,.2,.3,.4,0,.3,.1,.5c.1,.4,.4,.9,.6,1.4,.7-.2,1.3-.3,1.7-.5,.2-.1,.3-.1,.4-.2,.2-.1,.3-.1,.5-.1s.3,0,.4,.1c.1,0,.2,.2,.2,.3s-.1,.2-.3,.3c-.7,.2-1.8,.5-2.7,.7,.3,.4,.7,1,1,1.4,.1,.1,.3,.3,.4,.5,.2,.2,.2,.3,.3,.4v.2c0,.3-.1,.4-.3,.4-.1,0-.3-.1-.5-.1s-.8-.2-1.2-.3c-.1,0-.2-.1-.2-.2s0-.1,.2-.1c.3,0,.7-.1,1-.1-.6-.7-1.1-1.4-1.4-2-.7,.1-1.7,.2-2.4,.4h0Zm1.4,5.3c-.8-.4-1.3-1-1.4-1.6v-.5c0-.2,0-.4,.1-.6l.1-.1c.1,0,.1,.1,.1,.2,0,.7,.2,1.1,.7,1.5,.7,.5,1.2,.6,2,.7,.4,.1,.6,.3,.6,.5s-.1,.3-.4,.3c-.6,.1-1.2-.1-1.8-.4h0Z"/>
  <g id="_さ" data-name=" さ">
    <g>
      <circle class="cls-4" cx="20.8" cy="45" r="5.3"/>
      <path class="cls-1" d="M21.7,48.5h-1.4v-4.9h-1.7v-.9c.4,0,.7,0,.9-.1,.3-.1,.5-.2,.7-.4,.1-.1,.2-.3,.3-.5,0-.1,.1-.2,.1-.3h1.2v7.1s-.1,0-.1,0Z"/>
    </g>
    <g>
      <circle class="cls-4" cx="42.1" cy="15.4" r="5.3"/>
      <path class="cls-1" d="M42.7,12.8c-.2-.2-.4-.3-.7-.3-.4,0-.7,.2-.9,.5-.1,.2-.1,.5-.2,.9h-1.4c0-.6,.1-1.1,.3-1.5,.4-.7,1-1.1,2-1.1,.7,0,1.3,.2,1.8,.6,.4,.4,.7,1,.7,1.6,0,.5-.2,1-.5,1.4-.2,.3-.5,.6-1,.9l-.6,.4c-.3,.2-.6,.4-.7,.5s-.2,.2-.3,.4h3.2v1.3h-4.8c0-.5,.1-1,.3-1.4,.2-.5,.7-1,1.4-1.5,.6-.5,1.1-.8,1.2-1,.3-.3,.4-.6,.4-1,.1-.3,0-.5-.2-.7Z"/>
    </g>
    <g>
      <circle class="cls-4" cx="30.3" cy="59.1" r="5.3"/>
      <path class="cls-1" d="M29.5,56.9c-.2,.2-.2,.5-.2,.8h-1.3c0-.4,.1-.7,.2-1s.3-.5,.5-.8c.2-.2,.4-.3,.6-.4s.6-.1,.9-.1c.7,0,1.2,.2,1.6,.5,.4,.4,.6,.8,.6,1.4,0,.4-.1,.8-.4,1.1-.2,.2-.3,.3-.5,.4,.1,0,.3,.1,.5,.3,.4,.3,.5,.8,.5,1.3,0,.6-.2,1.1-.6,1.6s-1,.7-1.8,.7c-1,0-1.7-.3-2.1-1-.2-.3-.3-.8-.3-1.4h1.4c0,.3,0,.5,.1,.7,.2,.3,.5,.5,.9,.5,.3,0,.5-.1,.7-.3s.3-.5,.3-.8c0-.5-.2-.8-.6-.9-.2-.1-.6-.1-1-.1v-1c.5,0,.8-.1,.9-.1,.3-.1,.5-.4,.5-.8,0-.3-.1-.5-.2-.7s-.4-.3-.7-.3c-.1,.1-.4,.2-.5,.4Z"/>
    </g>
    <path class="cls-5" d="M81.2,32h1.1l1.2,1.8,1.2-1.8h1.1l-1.8,2.5,1.8,2.7h-1.1l-1.3-2-1.3,2h-1.1l1.8-2.7s-1.6-2.5-1.6-2.5Z"/>
    <path class="cls-5" d="M72.4,57.3l1.4,4.3,1.5-4.3h1l-2,5.2h-.9l-1.9-5.2h.9Z"/>
    <path class="cls-5" d="M61.2,83.3h1.1l1.2,1.8,1.2-1.8h1.1l-1.8,2.5,1.8,2.7h-1.1l-1.3-2-1.3,2h-1.1l1.8-2.7-1.6-2.5Z"/>
  </g>
</svg>