<?xml version="1.0" encoding="UTF-8"?>
<svg id="_レイヤー_1" data-name=" レイヤー 1" xmlns="http://www.w3.org/2000/svg" viewBox="0 0 110.8 128.8">
  <defs>
    <style>
      .cls-1 {
        fill: #fff;
      }

      .cls-2 {
        fill: #333330;
      }

      .cls-3 {
        fill: #ccc;
      }

      .cls-4 {
        fill: #d83523;
      }

      .cls-5 {
        fill: #898880;
      }

      .cls-6 {
        fill: #fbfbf9;
        stroke: #b0afa7;
        stroke-width: .8px;
      }

      .cls-7 {
        stroke: #e7211a;
        stroke-width: .5px;
      }

      .cls-7, .cls-8 {
        fill: none;
      }

      .cls-8 {
        stroke: #d8d6cf;
        stroke-dasharray: 0 0 0 0 0 0 3 3;
        stroke-width: .4px;
      }
    </style>
  </defs>
  <path class="cls-6" d="M3.4,.4H107.4c1.7,0,3,1.3,3,3V107.4c0,1.7-1.3,3-3,3H3.4c-1.7,0-3-1.3-3-3V3.4c0-1.7,1.3-3,3-3Z"/>
  <line class="cls-8" x1="55.4" y1=".4" x2="55.4" y2="110.4"/>
  <line class="cls-8" x1=".4" y1="55.4" x2="110.4" y2="55.4"/>
  <path class="cls-3" d="M76.7,37.8c2.4-.2,3.7-.4,4.8-.9,.5-.2,1-.3,1.6-.3,1.6,0,3.1,.8,4,1.5,1.3,1,1.8,1.7,1.8,2.6,0,.8-.6,1.4-1.4,1.4-2,0-5.6-.2-8.8-.2s-8.2,.2-14.4,.9c-.1,6-.1,12.6-.2,17.6-.1,3.5-.3,5.8-.7,7.4-.1,7.3-2.8,16.2-9.7,21.5-.3,.2-.6,.3-.9,.3-.5,0-.7-.2-.7-.7,0-.2,.1-.6,.2-.8,2.9-3.7,5.7-9.3,6.2-14.7-.3,.3-.8,.6-1.3,.6-.6,0-1.1-.2-1.8-.7-3-2.2-6.1-4.5-8.4-7.4-.8-1-1.2-1.8-1.2-2.7,0-.6,.2-1.3,.5-2,1.7-3.6,5.6-6.9,9.1-8.8,.3-.2,1.2-.5,1.8-.5,.9,0,1.8,.4,2.3,1.8,0-3.4,0-7-.1-10.3-2.2,.2-4.6,.6-7,1-8.1,1.4-15.9,3-22.5,5-.3,.1-.9,.2-1.3,.2-.5,0-1-.1-1.4-.3-2.3-1.2-3.3-2.1-3.3-2.5s.2-.6,.7-.7c9.1-2.2,18.6-4,27.3-5.4,2.5-.4,5-.7,7.4-1,0-3.5,0-6.4-.1-8.2-.2-4.7-.7-5.9-1.6-7.2-.2-.2-.2-.5-.2-.6,0-.5,.6-.8,1-.8,1.1,0,3.6,.8,6,2.4,.8,.6,1.1,1.2,1.1,1.8,0,.4-.2,.7-.3,1-.4,.6-.6,1.2-.8,4.4-.1,1.8-.2,4.2-.2,6.8,4.2-.7,8.9-1.2,12.5-1.5Zm-26.4,23.8c-.2,.6-.4,1-.4,1.4s.1,.8,.4,1.3c1,1.5,2.8,3,5.9,4.6,.6,.3,1.3,.5,1.7,.5s1-.9,1-3.4c0-4.2-.6-8.5-1.8-10.7-.2-.3-.4-.5-.7-.5s-.8,.2-1.3,.6c-1.8,1.6-3.8,4.1-4.8,6.2Z"/>
  <path class="cls-2" d="M59.8,121.1c.4,0,.6-.1,.7-.1h.2c.2,0,.5,.1,.6,.2,.2,.2,.3,.3,.3,.4s-.1,.2-.2,.2h-1.3c-.5,0-1.2,0-2.2,.1v2.6c0,.5,0,.9-.1,1.1,0,1.1-.4,2.4-1.5,3.2h-.1c-.07,0-.1-.03-.1-.1v-.1c.4-.6,.9-1.4,.9-2.2,0,0-.1,.1-.2,.1s-.2,0-.3-.1c-.4-.3-.9-.7-1.3-1.1-.1-.1-.2-.3-.2-.4s0-.2,.1-.3c.3-.5,.8-1,1.4-1.3,0,0,.2-.1,.3-.1s.3,.1,.3,.3v-1.5c-.3,0-.7,.1-1,.2-1.2,.2-2.4,.5-3.4,.7h-.4c-.3-.2-.5-.3-.5-.4s0-.1,.1-.1c1.4-.3,2.8-.6,4.1-.8,.4-.1,.8-.1,1.1-.2v-1.2c0-.7-.1-.9-.2-1.1v-.1c0-.1,.1-.1,.2-.1,.2,0,.5,.1,.9,.4,.1,.1,.2,.2,.2,.3v.1c-.1,.1-.1,.2-.1,.7v1c.5-.2,1.2-.2,1.7-.3h0Zm-3.9,3.6c0,.1-.1,.1-.1,.2s0,.1,.1,.2c.1,.2,.4,.4,.9,.7,.1,0,.2,.1,.3,.1s.2-.1,.2-.5c0-.6-.1-1.3-.3-1.6l-.1-.1s-.1,0-.2,.1c-.4,.2-.7,.6-.8,.9Z"/>
  <g id="_す" data-name=" す">
    <g>
      <circle class="cls-4" cx="18.2" cy="46.9" r="5.3"/>
      <path class="cls-1" d="M19.1,50.4h-1.4v-4.9h-1.7v-.9c.4,0,.7,0,.9-.1,.3-.1,.5-.2,.7-.4,.1-.1,.2-.3,.3-.5,0-.1,.1-.2,.1-.3h1.2v7.1s-.1,0-.1,0Z"/>
    </g>
    <g>
      <circle class="cls-4" cx="60.7" cy="16" r="5.3"/>
      <path class="cls-1" d="M61.4,13.3c-.2-.2-.4-.3-.7-.3-.4,0-.7,.2-.9,.5-.1,.2-.1,.5-.2,.9h-1.4c0-.6,.1-1.1,.3-1.5,.4-.7,1-1.1,2-1.1,.7,0,1.3,.2,1.8,.6,.4,.4,.7,1,.7,1.6,0,.5-.2,1-.5,1.4-.2,.3-.5,.6-1,.9l-.6,.4c-.3,.2-.6,.4-.7,.5s-.2,.2-.3,.4h3.1v1.2h-4.8c0-.5,.1-1,.3-1.4,.2-.5,.7-1,1.4-1.5,.6-.5,1.1-.8,1.2-1,.3-.3,.4-.6,.4-1,.2-.1,.1-.4-.1-.6Z"/>
    </g>
    <path class="cls-5" d="M90.9,36.3h1.1l1.2,1.8,1.2-1.8h1.1l-1.8,2.5,1.8,2.7h-1.1l-1.3-2-1.3,2h-1.1l1.8-2.7s-1.6-2.5-1.6-2.5Z"/>
    <path class="cls-5" d="M48.8,89.1c2,0,3.6,1.6,3.6,3.6s-1.6,3.6-3.6,3.6-3.6-1.6-3.6-3.6,1.6-3.6,3.6-3.6Z"/>
  </g>
  <path class="cls-7" d="M65.7,59s-1.3,13-3.4,14.6c-2.1,1.5-4.9,2.7-6.3,2.2-1.4-.4-7.7-5.8-8.9-6.9-1.2-1.1-4.5-3.7-3.1-7.5,1.4-3.7,4.5-7.2,7.3-9.1,2.2-1.5-4.4,1.3-4.4,1.3"/>
</svg>