<?xml version="1.0" encoding="UTF-8"?>
<svg id="_レイヤー_1" data-name=" レイヤー 1" xmlns="http://www.w3.org/2000/svg" viewBox="0 0 110.8 128.4">
  <defs>
    <style>
      .cls-1 {
        fill: #fff;
      }

      .cls-2 {
        fill: #333330;
      }

      .cls-3 {
        fill: #ccc;
      }

      .cls-4 {
        fill: #d83523;
      }

      .cls-5 {
        fill: #898880;
      }

      .cls-6 {
        fill: #fbfbf9;
        stroke: #b0afa7;
        stroke-width: .8px;
      }

      .cls-7 {
        stroke: #e7211a;
        stroke-width: .5px;
      }

      .cls-7, .cls-8 {
        fill: none;
      }

      .cls-8 {
        stroke: #d8d6cf;
        stroke-dasharray: 0 0 0 0 0 0 3 3;
        stroke-width: .4px;
      }
    </style>
  </defs>
  <path class="cls-6" d="M3.4,.4H107.4c1.7,0,3,1.3,3,3V107.4c0,1.7-1.3,3-3,3H3.4c-1.7,0-3-1.3-3-3V3.4c0-1.7,1.3-3,3-3Z"/>
  <line class="cls-8" x1="55.4" y1=".4" x2="55.4" y2="110.4"/>
  <line class="cls-8" x1=".4" y1="55.4" x2="110.4" y2="55.4"/>
  <path class="cls-3" d="M52.2,35.6c1-.3,2.2-1.3,3.3-1.7,.7-.2,1.4-.4,2-.4,.8,0,1.6,.2,2.6,.7s1.5,1.1,1.5,1.7-.4,1.2-1.5,1.5c-3.6,1.2-7.4,2.6-11.3,3.7-3.1,11.1-7.4,26.5-11.8,40.5-.5,1.6-1.4,2.6-2.6,2.6-1.1,0-1.9-.8-2.4-2.2-.2-.4-.2-.8-.2-1.2,0-1,.3-2.2,.7-3.4,.3-.9,.9-2,1.6-4.1,2.5-6.8,6.6-19.7,9.7-30.9-2.7,.9-5.4,1.4-8.1,2-1,.2-1.9,.3-2.6,.3-1.2,0-2.3-.3-3.5-1.1-1.8-1.3-2.3-1.8-2.3-2.2,0-.3,.2-.6,.9-.6,1.4,0,4.3-.2,6.2-.6,3.4-.6,7.1-1.5,10.6-2.4,.6-2.6,1.1-5,1.5-7.1,.3-1.8,.5-3.4,.5-4.8,0-1.3-.2-2.4-.5-3.4-.1-.2-.2-.5-.2-.7,0-.4,.3-.6,.9-.6,1.1,0,3.3,1.1,4.9,2.6,1.4,1.3,1.7,1.8,1.7,2.3s-.2,.9-.6,1.2c-.6,.4-1,1.4-1.4,3-.4,1.7-1,3.7-1.6,6,.6-.2,1.3-.4,2-.7Zm23.8,17.1c-3.8,0-8.9,.4-14.3,1.3-.5,.1-.9,.2-1.2,.2-.8,0-1.2-.4-1.2-1,0-.5,.3-1,.8-1.3,3.2-1.9,9-2.9,14.8-3.4,1.2-.1,2.2-.2,3.1-.2,2.9,0,4.8,.4,6.1,1.1,1.5,.7,2,1.7,2,2.6,0,1-.6,1.8-1.9,2.2-1,.2-1.8,.5-2.8,.8-1.7,.5-2.6,1-3.8,1.7-.6,.3-1,.5-1.2,.5-.5,0-.8-.4-.8-.8,0-.2,.2-.5,.4-.7,1.9-1.8,2.2-2.2,2.2-2.6,0-.2-.1-.3-.5-.3h-1.7s0-.1,0-.1Zm-15.8,20.3c-.1-.2-.1-.4-.1-.6,0-.7,.3-1,.7-1,.2,0,.4,.1,.6,.4,2.3,2.6,4.6,3.8,6.1,4.3,6.1,2.2,10.4,2.2,14.3,2.2,3.6,0,4.2,0,5,.5,.5,.3,1.1,1,1.1,2,0,1.4-.4,2.6-3.3,2.8-.7,.1-1.5,.1-2.5,.1-4,0-9.8-.6-14.3-2.8-3.1-1.6-6.4-4.5-7.6-7.9Z"/>
  <path class="cls-2" d="M55.9,121.1c.2,0,.3-.2,.5-.3,.1,0,.2-.1,.3-.1s.2,0,.4,.1c.1,.1,.2,.2,.2,.3s-.1,.2-.2,.2c-.5,.2-1.1,.4-1.7,.6-.5,1.7-1.1,4-1.8,6.1-.1,.2-.2,.4-.4,.4s-.3-.1-.4-.3v-.2c0-.2,0-.3,.1-.5,0-.1,.1-.3,.2-.6,.4-1,1-3,1.5-4.6-.4,.1-.8,.2-1.2,.3h-.4c-.2,0-.3,0-.5-.2-.3-.2-.3-.3-.3-.3,0,0,0-.1,.1-.1,.2,0,.6,0,.9-.1,.5-.1,1.1-.2,1.6-.4,.1-.4,.2-.8,.2-1.1s.1-.5,.1-.7,0-.4-.1-.5v-.1c0-.07,.03-.1,.1-.1,.2,0,.5,.2,.7,.4,.2,.2,.3,.3,.3,.3,0,.07-.03,.13-.1,.2-.1,.1-.2,.2-.2,.4-.1,.3-.1,.6-.2,.9,.1,.1,.2,.1,.3,0h0Zm3.6,2.6c-.6,0-1.3,.1-2.1,.2h-.2c-.1,0-.2-.1-.2-.1,0-.07,.03-.13,.1-.2,.5-.3,1.3-.4,2.2-.5h.5c.4,0,.7,.1,.9,.2s.3,.3,.3,.4c0,.2-.1,.3-.3,.3s-.3,.1-.4,.1c-.3,.1-.4,.1-.6,.3-.1,0-.2,.1-.2,.1-.1,0-.1-.1-.1-.1,0,0,0-.1,.1-.1,.2-.2,.3-.33,.3-.4h-.3v-.2Zm-2.4,3h0c0-.13,.03-.2,.1-.2q.1,0,.1,.1c.3,.4,.7,.6,.9,.6,.9,.3,1.6,.3,2.1,.3s.6,0,.7,.1c.1,0,.2,.1,.2,.3s-.1,.4-.5,.4h-.4c-.6,0-1.5-.1-2.1-.4-.4-.2-.9-.7-1.1-1.2Z"/>
  <g id="_た" data-name=" た">
    <g>
      <circle class="cls-4" cx="19.9" cy="41.7" r="5.2"/>
      <path class="cls-1" d="M20.8,45.2h-1.4v-4.8h-1.6v-1c.4,0,.7,0,.9-.1,.3-.1,.5-.2,.7-.4,.1-.1,.2-.3,.3-.5,0-.1,.1-.2,.1-.3h1.1v7.1h-.1Z"/>
    </g>
    <g>
      <circle class="cls-4" cx="49.7" cy="15.2" r="5.2"/>
      <path class="cls-1" d="M50.4,12.5c-.2-.2-.4-.3-.7-.3-.4,0-.7,.2-.9,.5-.1,.2-.1,.5-.2,.9h-1.2c0-.6,.1-1.1,.3-1.4,.4-.7,1-1,2-1,.7,0,1.3,.2,1.8,.6,.4,.4,.7,1,.7,1.6,0,.5-.2,1-.5,1.4-.2,.3-.5,.6-1,.9l-.6,.4c-.3,.2-.6,.4-.7,.5-.1,.1-.2,.2-.3,.4h3.1v1.2h-4.8c0-.5,.1-1,.3-1.4,.2-.5,.7-1,1.4-1.5,.6-.5,1-.8,1.2-1,.3-.3,.4-.6,.4-1,0-.3-.1-.6-.3-.8Z"/>
    </g>
    <g>
      <circle class="cls-4" cx="52.2" cy="54.2" r="5.2"/>
      <path class="cls-1" d="M51.4,52.1c-.2,.2-.2,.5-.2,.8h-1.3c0-.3,.1-.7,.2-1,.1-.3,.3-.5,.5-.8,.2-.2,.4-.3,.6-.4,.2-.1,.6-.1,.9-.1,.7,0,1.2,.2,1.6,.5,.4,.3,.6,.8,.6,1.4,0,.4-.1,.8-.4,1-.2,.2-.3,.3-.5,.4,.1,0,.3,.1,.5,.3,.4,.3,.5,.8,.5,1.3,0,.6-.2,1.1-.6,1.6-.4,.4-1,.7-1.8,.7-1,0-1.7-.3-2.1-1-.2-.3-.3-.8-.3-1.4h1.4c0,.3,0,.5,.1,.7,.2,.3,.5,.5,.9,.5,.3,0,.5-.1,.7-.3s.3-.5,.3-.8c0-.5-.2-.8-.6-.9-.2-.1-.5-.1-1-.1v-1c.4,0,.8,0,.9-.1,.3-.1,.5-.4,.5-.8,0-.3-.1-.5-.2-.7-.2-.2-.4-.3-.7-.3-.1,.1-.3,.2-.5,.5Z"/>
    </g>
    <path class="cls-5" d="M63.2,31.3h1.1l1.2,1.8,1.2-1.8h1.1l-1.7,2.5,1.8,2.7h-1.1l-1.3-1.9-1.2,1.9h-1.1l1.8-2.7s-1.8-2.5-1.8-2.5Z"/>
    <path class="cls-5" d="M28.6,84.6h1.1l1.2,1.8,1.2-1.8h1.1l-1.8,2.5,1.8,2.7h-1.1l-1.3-2-1.3,2h-1.1l1.8-2.7s-1.6-2.5-1.6-2.5Z"/>
    <path class="cls-5" d="M89,80.2h1.1l1.2,1.8,1.2-1.8h1.1l-1.8,2.5,1.8,2.7h-1.1l-1.3-2-1.3,2h-1.1l1.8-2.7s-1.6-2.5-1.6-2.5Z"/>
    <path class="cls-5" d="M90.6,49.5l-2,5.4h-.8l-2-5.4h.9l1.1,3.1c.2,.5,.3,.9,.4,1.4h0c.1-.4,.3-.9,.4-1.4l1.1-3.1h.9Z"/>
    <g>
      <circle class="cls-4" cx="52.2" cy="76" r="5.2"/>
      <path class="cls-1" d="M54.7,76.9v1.1h-.8v1.5h-1.3v-1.5h-2.8v-1.2l2.6-4.2h1.5v4.4h.8v-.1Zm-3.9,0h1.8v-3l-1.8,3Z"/>
    </g>
  </g>
  <polyline class="cls-7" points="28.5 38.6 43 36.4 39.2 35.7"/>
</svg>