<?xml version="1.0" encoding="UTF-8"?>
<svg id="_レイヤー_1" data-name=" レイヤー 1" xmlns="http://www.w3.org/2000/svg" viewBox="0 0 110.8 128.3">
  <defs>
    <style>
      .cls-1 {
        fill: #fff;
      }

      .cls-2 {
        fill: #333330;
      }

      .cls-3 {
        fill: #ccc;
      }

      .cls-4 {
        fill: #d83523;
      }

      .cls-5 {
        fill: #898880;
      }

      .cls-6 {
        fill: #fbfbf9;
        stroke: #b0afa7;
        stroke-width: .8px;
      }

      .cls-7 {
        stroke: #e7211a;
        stroke-width: .5px;
      }

      .cls-7, .cls-8 {
        fill: none;
      }

      .cls-8 {
        stroke: #d8d6cf;
        stroke-dasharray: 0 0 0 0 0 0 3 3;
        stroke-width: .4px;
      }
    </style>
  </defs>
  <path class="cls-6" d="M3.4,.4H107.4c1.7,0,3,1.3,3,3V107.4c0,1.7-1.3,3-3,3H3.4c-1.7,0-3-1.3-3-3V3.4c0-1.7,1.3-3,3-3Z"/>
  <line class="cls-8" x1="55.4" y1=".4" x2="55.4" y2="110.4"/>
  <line class="cls-8" x1=".4" y1="55.4" x2="110.4" y2="55.4"/>
  <path class="cls-3" d="M36.6,40.3c-1.4,.3-2.6,.6-3.6,.9-.6,.2-1.1,.3-1.5,.3-.6,0-1.3-.2-1.9-.7-2.1-1.6-3.6-3.8-3.6-4.9,0-.4,.3-.6,.7-.6,.6,0,1.4,.6,3.9,.6,1.5,0,3.4-.2,6.2-.6,10.6-1.5,21.4-3.1,33-5,1.7-.2,4.1-1,5.9-1.8,.8-.3,1.7-.5,2.4-.5,.9,0,1.8,.3,2.6,.9,.8,.6,1.5,1.7,1.5,2.6,0,.7-.5,1.1-1.3,1.2-2.8,.3-5.6,1-7.7,1.9-5.8,2.8-16.3,12.3-16.3,26.8,0,6.9,3.8,11.9,9.8,15.3,1.2,.6,2.1,.9,2.9,1.5,1.9,1.8,2.2,2.7,2.2,3.4,0,1.5-.6,2.4-2.6,2.4-2.6,0-5.7-1.7-9.4-5.3-4.2-4.1-7.4-9.7-7.4-16.5,0-10.6,6.6-21.4,14.4-27.7-14.5,2.4-20.4,3.5-30.2,5.8Z"/>
  <path class="cls-2" d="M53.6,121.8c-.2,0-.4,.1-.5,.1h-.2c-.1,0-.2,0-.3-.1-.3-.2-.5-.6-.5-.7s0-.1,.1-.1,.2,.1,.6,.1c.2,0,.5,0,.9-.1,1.6-.2,3.2-.5,5-.7,.3,0,.6-.2,.9-.3,.1,0,.3-.1,.4-.1s.3,0,.4,.1,.2,.3,.2,.4-.1,.2-.2,.2c-.4,0-.8,.1-1.2,.3-.9,.4-2.4,1.8-2.4,4,0,1,.6,1.8,1.5,2.3,.2,.1,.3,.1,.4,.2,.3,.3,.3,.4,.3,.5,0,.2-.1,.4-.4,.4-.4,0-.9-.3-1.4-.8-.6-.6-1.1-1.5-1.1-2.5,0-1.6,1-3.2,2.2-4.2-2.4,.5-3.3,.7-4.7,1Z"/>
  <g id="_て" data-name=" て">
    <g>
      <circle class="cls-4" cx="19.9" cy="37.8" r="5.3"/>
      <path class="cls-1" d="M21.3,41.4h-1.4v-4.9h-1.7v-.9c.4,0,.7,0,.9-.1,.3-.1,.5-.2,.7-.4,.1-.1,.2-.3,.3-.5,0-.1,.1-.2,.1-.3h1.2v7.1s-.1,0-.1,0Z"/>
    </g>
    <path class="cls-5" d="M72.7,81.1h1.1l1.2,1.8,1.2-1.8h1.1l-1.8,2.5,1.8,2.7h-1.1l-1.3-2-1.3,2h-1.1l1.8-2.7s-1.6-2.5-1.6-2.5Z"/>
  </g>
  <path class="cls-7" d="M83.2,31.5l8.8-.9s-16,3.8-20.8,7.9c-4.8,4-6.3,6.5-8.5,10s-2.5,5.8-2.5,5.8l3.1-3.3"/>
</svg>