<?xml version="1.0" encoding="UTF-8"?>
<svg id="_レイヤー_1" data-name=" レイヤー 1" xmlns="http://www.w3.org/2000/svg" viewBox="0 0 110.8 129">
  <defs>
    <style>
      .cls-1 {
        fill: #fff;
      }

      .cls-2 {
        fill: #333330;
      }

      .cls-3 {
        fill: #ccc;
      }

      .cls-4 {
        fill: #d83523;
      }

      .cls-5 {
        fill: #898880;
      }

      .cls-6 {
        fill: #fbfbf9;
        stroke: #b0afa7;
        stroke-width: .8px;
      }

      .cls-7 {
        stroke: #e7211a;
        stroke-width: .5px;
      }

      .cls-7, .cls-8 {
        fill: none;
      }

      .cls-8 {
        stroke: #d8d6cf;
        stroke-dasharray: 0 0 0 0 0 0 3 3;
        stroke-width: .4px;
      }
    </style>
  </defs>
  <path class="cls-6" d="M3.4,.4H107.4c1.7,0,3,1.3,3,3V107.4c0,1.7-1.3,3-3,3H3.4c-1.7,0-3-1.3-3-3V3.4c0-1.7,1.3-3,3-3Z"/>
  <line class="cls-8" x1="55.4" y1=".4" x2="55.4" y2="110.4"/>
  <line class="cls-8" x1=".4" y1="55.4" x2="110.4" y2="55.4"/>
  <path class="cls-3" d="M40.4,72.2c0-3.4,.1-6.7,.2-9.9-3,2.5-5.6,5.1-8.4,8-.4,.5-.8,.7-1.3,.7-.3,0-.6-.1-1-.3-1.4-.7-2.2-2.2-2.2-2.8,0-.3,.2-.6,.5-1,1.2-1,2.2-2.4,2.6-3,3.8-6.2,7-12,10.7-18.9,.1-.9,.1-1.6,.2-2.2-3.3,1.3-7.1,3-10.2,4.9-.7,.5-1.3,1-2,1-.3,0-1.1-.3-1.9-.8-1-.6-1.9-1.6-1.9-2.1,0-.2,.2-.6,.6-.6,.7-.2,1.8-.3,3-.9,3.4-1.3,8.3-3.2,12.6-5,.2-2.8,.4-5.5,.6-8.3,.1-1.4,.2-2.6,.2-3.7,0-2.4-.4-3-.4-3.6,0-.4,.2-.7,.6-.7,.7,0,3.3,1.5,4.8,3.2,.6,.6,.8,1.3,.8,1.9s-.2,1.2-.4,1.7c-.8,2.2-1.2,4.8-1.4,5.7-.1,.6-.2,1.2-.2,1.8,.9-.6,1-.6,1.4-.6,.2,0,.6,.1,1,.4,.5,.3,1.7,1.2,1.7,2,0,.6-.3,.8-1,1.4s-1.6,1.6-2,2.2c-.5,.7-1.1,1.8-1.9,3.1-.2,1.6-.3,3.5-.4,5.6-.1,.9-.1,2-.2,3,1.3-1,2.6-2.1,4.4-3.2,7.5-5.2,13.8-8.7,22.4-8.7,11.5,0,17.2,7.4,17.2,15.4,0,9.2-6.2,17.6-21.7,22.7-.2,.1-.3,.1-.5,.1-.6,0-1-.3-1-.7,0-.6,.1-1,.6-1.2,8.8-4.1,16.8-11.4,16.8-22,0-5.1-3-11.5-11.8-11.5-4.5,0-10.4,2.3-15.1,5.4-3.4,2.1-7.4,4.8-11.5,8.1-.1,1.9-.1,4.1-.1,6.5,0,4.8,.1,10.6,.3,17.7,0,3.5-1.3,4.1-2.2,4.1-1.2,0-1.8-.7-2.2-2.1-.5-1.4-.6-2.7-.6-3.7s.2-1.7,.2-2.2c.2-1,.2-1.7,.2-2.9v-4h-.1Zm-4.9-11.4c-.2,.2-.2,.3-.2,.5s.1,.2,.2,.2,.3-.1,.6-.3c1.7-1.5,3.1-2.6,4.6-3.8,.1-1.8,.2-3.2,.2-5-2.7,4.4-5.2,8.2-5.4,8.4Z"/>
  <path class="cls-2" d="M54.4,126.4v-1.5c-.4,.4-.8,.8-1.3,1.2-.07,.07-.13,.1-.2,.1h-.2c-.2-.1-.3-.3-.3-.4,0,0,0-.1,.1-.1,.2-.2,.3-.4,.4-.5,.6-.9,1.1-1.8,1.6-2.8v-.3c-.5,.2-1.1,.5-1.5,.7-.1,.1-.2,.2-.3,.2,0,0-.2,0-.3-.1s-.3-.2-.3-.3c0,0,0-.1,.1-.1s.3,0,.5-.1c.5-.2,1.2-.5,1.9-.7,0-.4,.1-.8,.1-1.2v-.6c0-.4-.1-.5-.1-.5,0-.07,.03-.1,.1-.1,.1,0,.5,.2,.7,.5,.1,.1,.1,.2,.1,.3s0,.2-.1,.3c-.1,.3-.2,.7-.2,.9v.3c.07-.07,.13-.1,.2-.1q.1,0,.1,.1c.1,0,.3,.2,.3,.3s0,.1-.2,.2c-.1,.1-.2,.2-.3,.3-.1,.1-.2,.3-.3,.5,0,.2,0,.5-.1,.8v.4c.2-.1,.4-.3,.7-.5,1.1-.8,2.1-1.3,3.4-1.3,1.7,0,2.6,1.1,2.6,2.3,0,1.4-.9,2.6-3.3,3.4h-.1c-.07,0-.1-.03-.1-.1s.03-.13,.1-.2c1.3-.6,2.5-1.7,2.5-3.3,0-.8-.4-1.7-1.8-1.7-.7,0-1.6,.3-2.3,.8-.5,.3-1.1,.7-1.7,1.2v3.7c0,.5-.2,.6-.3,.6-.2,0-.3-.1-.3-.3-.1-.2-.1-.4-.1-.6v-1.7h.2Zm-.8-1.7q0,.07,0,0v.1s.1,0,0-.1c.3-.2,.6-.3,.8-.5v-.7c-.4,.6-.7,1.2-.8,1.2Z"/>
  <g>
    <g id="_わ" data-name=" わ">
      <g>
        <circle class="cls-4" cx="42.4" cy="16.2" r="5.2"/>
        <path class="cls-1" d="M43.3,19.6h-1.4v-4.8h-1.6v-.9c.4,0,.7,0,.9-.1,.3-.1,.5-.2,.7-.4,.1-.1,.2-.3,.3-.5,0-.1,.1-.2,.1-.3h1.1v7h-.1Z"/>
      </g>
      <g>
        <circle class="cls-4" cx="19.1" cy="45.7" r="5.2"/>
        <path class="cls-1" d="M19.8,43c-.2-.2-.4-.3-.7-.3-.4,0-.7,.2-.9,.5-.1,.2-.1,.5-.2,.9h-1.3c0-.6,.1-1.1,.3-1.4,.4-.7,1-1,2-1,.7,0,1.3,.2,1.8,.6,.4,.4,.7,1,.7,1.6,0,.5-.2,1-.5,1.4-.2,.3-.5,.6-1,.9l-.6,.4c-.3,.2-.6,.4-.7,.5s-.2,.2-.3,.4h3.1v1.2h-4.8c0-.5,.1-1,.3-1.4,.2-.5,.7-1,1.4-1.5,.6-.5,1-.8,1.2-1,.3-.3,.4-.6,.4-1,.1-.3,0-.6-.2-.8Z"/>
      </g>
      <path class="cls-5" d="M69.1,82.4c2,0,3.6,1.6,3.6,3.6s-1.6,3.6-3.6,3.6-3.6-1.6-3.6-3.6,1.6-3.6,3.6-3.6Z"/>
      <path class="cls-5" d="M39.7,89.5h1.1l1.2,1.8,1.2-1.8h1.1l-1.8,2.5,1.8,2.7h-1.1l-1.3-2-1.3,2h-1.1l1.8-2.7s-1.6-2.5-1.6-2.5Z"/>
    </g>
    <polyline class="cls-7" points="51.1 37.3 54.3 35.4 46.7 46 49.5 44.1"/>
    <polyline class="cls-7" points="28.7 72.3 26.1 77.1 37.8 67 35.7 70.6"/>
    <path class="cls-7" d="M74.7,40.7s8.3-.9,12.9,6.9,2,16.3,2,16.3l2.1-2.4"/>
  </g>
</svg>