<?xml version="1.0" encoding="UTF-8"?>
<svg id="_レイヤー_1" data-name=" レイヤー 1" xmlns="http://www.w3.org/2000/svg" viewBox="0 0 110.8 128.71">
  <defs>
    <style>
      .cls-1 {
        fill: #fff;
      }

      .cls-2 {
        fill: #333330;
      }

      .cls-3 {
        fill: #ccc;
      }

      .cls-4 {
        fill: #d83523;
      }

      .cls-5 {
        fill: #898880;
      }

      .cls-6 {
        fill: #fbfbf9;
        stroke: #b0afa7;
        stroke-width: .8px;
      }

      .cls-7 {
        stroke: #e7211a;
        stroke-width: .5px;
      }

      .cls-7, .cls-8 {
        fill: none;
      }

      .cls-8 {
        stroke: #d8d6cf;
        stroke-dasharray: 0 0 0 0 0 0 3 3;
        stroke-width: .4px;
      }
    </style>
  </defs>
  <path class="cls-6" d="M3.4,.4H107.4c1.7,0,3,1.3,3,3V107.4c0,1.7-1.3,3-3,3H3.4c-1.7,0-3-1.3-3-3V3.4c0-1.7,1.3-3,3-3Z"/>
  <line class="cls-8" x1="55.4" y1=".4" x2="55.4" y2="110.4"/>
  <line class="cls-8" x1=".4" y1="55.4" x2="110.4" y2="55.4"/>
  <path class="cls-3" d="M55.02,83c3.68,0,7.52-.24,10.16-.96,1.04-.32,2-.48,2.88-.48s1.68,.16,2.48,.56c1.12,.64,2.4,1.84,2.4,2.88,0,1.12-.64,2.08-4.32,2.32-2.48,.08-5.92,.16-9.2,.16-9.6,0-20.96-1.04-20.96-9.84,0-5.92,6.32-10.56,13.36-14.72-.08-2.24-.16-4.24-.4-5.68-.4-3.04-1.28-4.16-3.28-4.16-4.24,0-9.12,1.92-12.64,4.32-.64,.4-1.2,.72-1.84,.72-.4,0-.8-.16-1.2-.48-1.12-.88-1.84-2.4-1.84-2.96,0-.48,.56-.8,1.44-1.44,.8-.56,1.92-1.12,3.36-2.64,3.04-3.2,6.24-7.76,8.48-11.44-3.28,.64-6.96,1.2-9.6,1.52-.4,.08-.72,.16-.96,.16-.64,0-.96-.24-1.28-.48-1.2-.8-2.16-2.32-2.16-2.72,0-.32,.4-.4,1.2-.48,5.2-.48,10.96-1.28,15.36-2.16,.96-2,2.32-4.64,3.04-6.88,.32-1.04,.48-2,.48-2.8,0-1.52-.56-2.48-.56-2.96s.24-.8,.8-.8c1.2,0,4.08,1.2,5.6,2.56,.4,.32,.56,.64,.56,1.12,0,.56-.24,1.2-.72,2.08-.56,.96-1.28,2.48-2.16,4.08-.32,.64-.88,1.68-1.2,2.32,1.12-.24,2.64-.56,3.6-.8,1.44-.32,2.8-1.04,3.6-1.52,.4-.24,1.04-.48,1.84-.48,.72,0,1.6,.16,2.56,.72,.72,.4,1.12,1.04,1.12,1.84,0,.88-.8,1.68-2.24,2-3.12,.64-8.32,1.68-13.12,2.64-3.12,4.64-6.8,9.28-10.88,13.52,2.72-.8,6.64-1.36,8.56-1.36,5.44,0,8.48,2,9.2,9.84,4.48-2.4,12.16-5.92,18.24-8.56,1.52-.64,2-1.2,2.08-2.16,.08-.72,.32-1.28,1.12-1.28s2.8,1.12,5.36,3.84c.4,.48,.64,1.04,.64,1.44,0,.8-.72,1.36-1.92,1.6-6.16,1.52-18.48,5.6-25.28,9.2v5.04c0,1.28,0,2.32-.08,3.36-.24,2.72-1.36,3.28-2.72,3.28-1.52,0-2.16-.8-2.16-3.2v-5.76c-6.32,3.68-10.16,7.12-10.16,11.04s4.8,5.04,12.48,5.04h.88Z"/>
  <path class="cls-2" d="M56.03,128.04c.55,0,1.13-.04,1.52-.14,.16-.05,.3-.07,.43-.07s.25,.02,.37,.08c.17,.1,.36,.28,.36,.43,0,.17-.1,.31-.65,.35-.37,0-.89,.02-1.38,.02-1.44,0-3.14-.16-3.14-1.47,0-.89,.95-1.58,2-2.21,0-.34-.02-.64-.06-.85-.06-.46-.19-.62-.49-.62-.64,0-1.37,.29-1.9,.65-.1,.06-.18,.11-.28,.11-.06,0-.12-.02-.18-.07-.17-.13-.28-.36-.28-.44,0-.07,.08-.12,.22-.22,.12-.08,.29-.17,.5-.4,.46-.48,.94-1.16,1.27-1.72-.49,.1-1.04,.18-1.44,.23-.06,.01-.11,.02-.14,.02-.1,0-.14-.04-.19-.07-.18-.12-.32-.35-.32-.41,0-.05,.06-.06,.18-.07,.78-.07,1.64-.19,2.3-.32,.14-.3,.35-.7,.46-1.03,.05-.16,.07-.3,.07-.42,0-.23-.08-.37-.08-.44s.04-.12,.12-.12c.18,0,.61,.18,.84,.38,.06,.05,.08,.1,.08,.17,0,.08-.04,.18-.11,.31-.08,.14-.19,.37-.32,.61-.05,.1-.13,.25-.18,.35,.17-.04,.4-.08,.54-.12,.22-.05,.42-.16,.54-.23,.06-.04,.16-.07,.28-.07,.11,0,.24,.02,.38,.11,.11,.06,.17,.16,.17,.28,0,.13-.12,.25-.34,.3-.47,.1-1.25,.25-1.97,.4-.47,.7-1.02,1.39-1.63,2.03,.41-.12,1-.2,1.28-.2,.82,0,1.27,.3,1.38,1.47,.67-.36,1.82-.89,2.73-1.28,.23-.1,.3-.18,.31-.32,0-.11,.05-.19,.17-.19s.42,.17,.8,.58c.06,.07,.1,.16,.1,.22,0,.12-.11,.2-.29,.24-.92,.23-2.77,.84-3.79,1.38v.76c0,.19,0,.35,0,.5-.04,.41-.2,.49-.41,.49-.23,0-.32-.12-.32-.48v-.86c-.95,.55-1.52,1.07-1.52,1.66s.72,.76,1.87,.76h.13l.02-.05Z"/>
  <g>
    <g id="_を" data-name=" を">
      <g>
        <circle class="cls-4" cx="23.5" cy="38" r="5.2"/>
        <path class="cls-1" d="M24.34,41.43h-1.41v-4.83h-1.65v-.94c.43-.02,.74-.05,.91-.09,.28-.06,.5-.18,.68-.37,.12-.13,.21-.29,.27-.5,.04-.13,.05-.22,.05-.28h1.14v7h.01Z"/>
      </g>
      <g>
        <circle class="cls-4" cx="48.6" cy="14.4" r="5.2"/>
        <path class="cls-1" d="M49.34,11.76c-.16-.2-.4-.29-.71-.29-.42,0-.7,.16-.85,.47-.09,.18-.14,.47-.15,.86h-1.34c.02-.6,.13-1.08,.32-1.44,.37-.7,1.02-1.05,1.96-1.05,.74,0,1.33,.21,1.77,.62s.66,.95,.66,1.63c0,.52-.15,.98-.46,1.38-.2,.27-.54,.56-1,.89l-.55,.39c-.34,.25-.58,.42-.71,.53-.13,.11-.23,.24-.32,.38h3.06v1.21h-4.8c0-.5,.12-.96,.32-1.38,.2-.47,.66-.96,1.39-1.48,.63-.45,1.04-.78,1.23-.98,.29-.31,.43-.64,.43-1,0-.3-.08-.54-.25-.74Z"/>
      </g>
      <path class="cls-5" d="M58.4,71.03h1.14l1.2,1.84,1.22-1.84,1.07,.02-1.76,2.52,1.84,2.68h-1.12l-1.3-1.96-1.26,1.96h-1.11l1.84-2.68-1.75-2.55h-.01Z"/>
      <path class="cls-5" d="M74.35,83.78h1.14l1.2,1.84,1.22-1.84,1.07,.02-1.76,2.52,1.84,2.68h-1.12l-1.3-1.96-1.26,1.96h-1.11l1.84-2.68-1.75-2.55h0Z"/>
    </g>
    <polyline class="cls-7" points="29.5 58.3 26 64 40.4 56.2 38.3 58.8"/>
    <path class="cls-7" d="M50,48.6s3.6-.7,5.4,2.3,1.8,7.6,1.8,7.6l1.1-3.1"/>
    <path class="cls-7" d="M41.7,67.1s-5.9,4.4-5.1,11.1,5.8,8.4,5.8,8.4h-3"/>
  </g>
  <g>
    <circle class="cls-4" cx="88.9" cy="48.62" r="5.3"/>
    <path class="cls-1" d="M88.1,46.36c-.16,.21-.23,.49-.22,.83h-1.3c.01-.35,.07-.69,.18-1,.11-.28,.29-.53,.54-.77,.18-.17,.4-.29,.65-.38s.56-.13,.92-.13c.68,0,1.22,.17,1.64,.52,.42,.35,.62,.82,.62,1.41,0,.42-.12,.77-.37,1.05-.16,.18-.32,.3-.49,.37,.13,0,.31,.11,.55,.33,.35,.33,.53,.78,.53,1.35,0,.6-.21,1.13-.62,1.58-.42,.46-1.03,.68-1.84,.68-1,0-1.7-.33-2.09-.98-.21-.35-.32-.8-.34-1.37h1.37c0,.28,.05,.52,.14,.7,.17,.34,.48,.51,.92,.51,.27,0,.51-.09,.72-.28,.2-.19,.31-.46,.31-.81,0-.47-.19-.78-.57-.93-.21-.09-.55-.13-1.02-.13v-1c.45,0,.77-.05,.95-.13,.31-.14,.46-.41,.46-.83,0-.27-.08-.49-.24-.66s-.38-.25-.67-.25c-.33,0-.57,.1-.72,.31h-.01Z"/>
  </g>
</svg>