<?xml version="1.0" encoding="UTF-8"?>
<svg id="_レイヤー_1" data-name=" レイヤー 1" xmlns="http://www.w3.org/2000/svg" viewBox="0 0 110.8 128.1">
  <defs>
    <style>
      .cls-1 {
        fill: #fff;
      }

      .cls-2 {
        fill: #333330;
      }

      .cls-3 {
        fill: #ccc;
      }

      .cls-4 {
        fill: #d83523;
      }

      .cls-5 {
        fill: #898880;
      }

      .cls-6 {
        fill: #fbfbf9;
        stroke: #b0afa7;
        stroke-width: .8px;
      }

      .cls-7 {
        stroke: #e7211a;
        stroke-width: .5px;
      }

      .cls-7, .cls-8 {
        fill: none;
      }

      .cls-8 {
        stroke: #d8d6cf;
        stroke-dasharray: 0 0 0 0 0 0 3 3;
        stroke-width: .4px;
      }
    </style>
  </defs>
  <path class="cls-6" d="M3.4,.4H107.4c1.7,0,3,1.3,3,3V107.4c0,1.7-1.3,3-3,3H3.4c-1.7,0-3-1.3-3-3V3.4c0-1.7,1.3-3,3-3Z"/>
  <line class="cls-8" x1="55.4" y1=".4" x2="55.4" y2="110.4"/>
  <line class="cls-8" x1=".4" y1="55.4" x2="110.4" y2="55.4"/>
  <path class="cls-3" d="M75.6,38.3c-10.4,.7-23.2,2.5-32.4,3.7-2.7,.3-5,.7-6.9,1.3-.6,.2-1.1,.2-1.6,.2-.8,0-1.3-.2-2.6-1.2-1.5-1.2-2.8-3.3-2.8-3.8,0-.4,.3-.7,.9-.7,1.2,.1,2.2,.2,3.4,.2,1.8,0,3.7-.2,5.8-.3,10.1-1,22-2,33.4-3.2,1.7-.2,2.9-.4,3.8-.9,.6-.3,1-.4,1.8-.4s2.5,.7,4.3,2.2c1.7,1.4,2.2,2.1,2.2,3,0,.3-.1,.6-.5,1.6-.3,.7-.9,2.2-1.3,3.3-8.2,23.4-21.3,36.6-35.3,44.3-.2,.1-.4,.2-.6,.2-.7,0-1.4-.6-1.4-1.3,0-.4,.2-.8,.6-1.1,17.6-13.5,26.3-29,30.2-44.7,.2-.6,.2-1.1,.2-1.4,0-.7-.3-.9-1.2-.9h0v-.1h0Z"/>
  <path class="cls-2" d="M59.1,120.9c-1.6,.1-3.5,.4-4.9,.6-.4,0-.7,.1-1,.2h-.2c-.1,0-.2,0-.4-.2s-.4-.5-.4-.6,0-.1,.1-.1h1.4c1.5-.1,3.3-.3,5-.5,.3,0,.4-.1,.6-.1,.1,0,.2-.1,.3-.1s.4,.1,.6,.3c.3,.2,.3,.3,.3,.4,0,0,0,.1-.1,.2,0,.1-.1,.3-.2,.5-1.2,3.5-3.2,5.5-5.3,6.6h-.1c-.1,0-.2-.1-.2-.2s0-.1,.1-.2c2.6-2,3.9-4.4,4.5-6.7v-.2c.2,.1,.1,.1-.1,.1h0Z"/>
  <g id="_フ" data-name=" フ">
    <path class="cls-5" d="M41.6,86.7c2,0,3.6,1.6,3.6,3.6s-1.6,3.6-3.6,3.6-3.6-1.6-3.6-3.6,1.6-3.6,3.6-3.6Z"/>
    <g>
      <circle class="cls-4" cx="23.5" cy="41" r="5.2"/>
      <path class="cls-1" d="M24.3,44.5h-1.4v-4.8h-1.6v-.9c.4,0,.7,0,.9-.1,.3-.1,.5-.2,.7-.4,.1-.1,.2-.3,.3-.5,0-.1,.1-.2,.1-.3h1.1v7h-.1Z"/>
    </g>
    <polyline class="cls-7" points="70.9 30.9 92.9 29.8 87.7 41.8 90.9 38.3"/>
  </g>
</svg>