<?xml version="1.0" encoding="UTF-8"?>
<svg id="_レイヤー_1" data-name=" レイヤー 1" xmlns="http://www.w3.org/2000/svg" viewBox="0 0 110.8 128.7">
  <defs>
    <style>
      .cls-1 {
        fill: #fff;
      }

      .cls-2 {
        fill: #333330;
      }

      .cls-3 {
        fill: #ccc;
      }

      .cls-4 {
        fill: #d83523;
      }

      .cls-5 {
        fill: #898880;
      }

      .cls-6 {
        fill: #fbfbf9;
        stroke: #b0afa7;
        stroke-width: .8px;
      }

      .cls-7 {
        stroke: #e7211a;
        stroke-width: .5px;
      }

      .cls-7, .cls-8 {
        fill: none;
      }

      .cls-8 {
        stroke: #d8d6cf;
        stroke-dasharray: 0 0 0 0 0 0 3 3;
        stroke-width: .4px;
      }
    </style>
  </defs>
  <path class="cls-6" d="M3.4,.4H107.4c1.7,0,3,1.3,3,3V107.4c0,1.7-1.3,3-3,3H3.4c-1.7,0-3-1.3-3-3V3.4c0-1.7,1.3-3,3-3Z"/>
  <line class="cls-8" x1="55.4" y1=".4" x2="55.4" y2="110.4"/>
  <line class="cls-8" x1=".4" y1="55.4" x2="110.4" y2="55.4"/>
  <path class="cls-3" d="M59.3,75.9c0,1.6,.1,4.1,.1,7.3s-.2,5.1-.9,6c-.8,1-1.7,1-2.2,1-.7,0-1.2-.5-1.8-1-2.2-2.2-5.1-5.1-7.8-8.1-.2-.2-.3-.5-.3-.8,0-.5,.4-1,.9-1,.2,0,.6,.1,1,.2,2.1,1,4.7,2,5.4,2,.4,0,.6-.2,.6-1,0-10.6,0-21.3-.1-30.4-5.3,.6-11.8,1.4-18.2,2.6-1.2,.2-2.1,.5-3.4,.9-.3,.1-.6,.2-1,.2-.5,0-1.1-.2-1.6-.7-1.3-1.1-2.5-2.6-2.5-3.1s.3-.7,.9-.8c.9-.1,2.6-.2,4.6-.5,1.9-.2,4.2-.6,7.3-1,3-.4,7.4-1,13.9-1.8,0-3.7-.1-7-.1-9.8,0-2.4-.2-6.1-1-7.7-.3-.6-.6-1.1-.6-1.5,0-.6,.7-1,1.4-1,.9,0,3,.7,4.6,1.8,2.1,1.3,2.5,1.9,2.5,2.7,0,.5-.2,.9-.4,1.3-.8,1.2-1.1,3.2-1.2,6.2-.1,1.7-.1,4.4-.2,7.4,4.6-.5,9.5-1,13.1-1.3,1.7-.2,3.1-.5,4.2-1,.7-.3,1.4-.5,1.9-.5,.9,0,1.8,.2,3,.6,1.8,.6,3.4,1.5,3.4,2.8,0,1.7-.6,2.1-3.4,2.2-7,.2-15.7,.8-22.2,1.4v26.4h.1Zm-19.4-16.5c.4,0,.8,.4,1,1s.2,1.3,.2,1.9c0,3.3-1.8,7.4-4.7,11.8-1.4,2.1-3.1,4.2-4.7,4.2-1.1,0-2.1-1.6-2.1-3.8,0-1.3,.8-2.2,1.9-3.4,2.6-2.7,5.7-5.9,7.1-10.3,.2-.8,.5-1.4,1.3-1.4Zm30.1-.4c0-.6,.6-1,1.2-1,.2,0,.6,.1,.9,.2,4.7,2.7,9,6.5,11.7,10.7,1.1,1.8,1.8,3.7,1.8,5.2s-.8,3.1-2.5,3.1c-1.1,0-2.6-1.4-3.8-3.7-2.7-4.7-6.4-10.2-8.9-13.8-.4-.3-.4-.5-.4-.7Z"/>
  <path class="cls-2" d="M57.1,126.5v1.1c0,.5,0,.8-.1,.9s-.3,.2-.3,.2c-.1,0-.2-.1-.3-.2l-1.2-1.2v-.1c0-.1,.1-.1,.1-.1h.1c.3,.2,.7,.3,.8,.3s.1,0,.1-.2v-4.6c-.8,.1-1.8,.2-2.7,.4-.2,0-.3,.1-.5,.1h-.1c-.1,0-.2,0-.2-.1-.2-.2-.4-.4-.4-.5s0-.1,.1-.1,.4,0,.7-.1c.3,0,.6-.1,1.1-.1,.5-.1,1.1-.2,2.1-.3v-1.5c0-.4,0-.9-.2-1.2,0-.1-.1-.2-.1-.2,0-.1,.1-.1,.2-.1s.4,.1,.7,.3c.3,.2,.4,.3,.4,.4s0,.1-.1,.2c-.1,.2-.2,.5-.2,.9v1.1c.7-.1,1.4-.1,2-.2,.3,0,.5-.1,.6-.1s.2-.1,.3-.1,.3,0,.4,.1c.3,.1,.5,.2,.5,.4,0,.3-.1,.3-.5,.3-1.1,0-2.4,.1-3.3,.2v4.1h0Zm-3-2.5c.1,0,.1,.1,.1,.1v.3c0,.5-.3,1.1-.7,1.8-.2,.3-.5,.6-.7,.6s-.3-.2-.3-.6c0-.2,.1-.3,.3-.5,.4-.4,.9-.9,1.1-1.5,.1-.1,.1-.2,.2-.2Zm4.5,0c0-.1,.1-.2,.2-.2h.1c.7,.4,1.3,1,1.8,1.6,.2,.3,.3,.6,.3,.8s-.1,.5-.4,.5c-.2,0-.4-.2-.6-.6-.4-.7-1-1.5-1.3-2.1,0,.1-.1,0-.1,0Z"/>
  <g id="_ホ" data-name=" ホ">
    <g>
      <circle class="cls-4" cx="20.8" cy="50.2" r="5.2"/>
      <path class="cls-1" d="M21.6,53.7h-1.4v-4.8h-1.6v-.9c.4,0,.7,0,.9-.1,.3-.1,.5-.2,.7-.4,.1-.1,.2-.3,.3-.5,0-.1,.1-.2,.1-.3h1.1v7h-.1Z"/>
    </g>
    <g>
      <circle class="cls-4" cx="56.3" cy="18.3" r="5.2"/>
      <path class="cls-1" d="M57,15.6c-.2-.2-.4-.3-.7-.3-.4,0-.7,.2-.9,.5-.1,.2-.1,.5-.2,.9h-1.3c0-.6,.1-1.1,.3-1.4,.4-.7,1-1,2-1,.7,0,1.3,.2,1.8,.6,.4,.4,.7,1,.7,1.6,0,.5-.2,1-.5,1.4-.2,.3-.5,.6-1,.9l-.6,.4c-.3,.2-.6,.4-.7,.5-.1,.1-.2,.2-.3,.4h3.1v1.2h-4.8c0-.5,.1-1,.3-1.4,.2-.5,.7-1,1.4-1.5,.6-.5,1-.8,1.2-1,.3-.3,.4-.6,.4-1,.1-.3,0-.6-.2-.8Z"/>
    </g>
    <g>
      <circle class="cls-4" cx="46.9" cy="57.3" r="5.2"/>
      <path class="cls-1" d="M46.1,55.1c-.2,.2-.2,.5-.2,.8h-1.3c0-.3,.1-.7,.2-1,.1-.3,.3-.5,.5-.8,.2-.2,.4-.3,.6-.4s.6-.1,.9-.1c.7,0,1.2,.2,1.6,.5,.4,.3,.6,.8,.6,1.4,0,.4-.1,.8-.4,1-.2,.2-.3,.3-.5,.4,.1,0,.3,.1,.5,.3,.4,.3,.5,.8,.5,1.3,0,.6-.2,1.1-.6,1.6s-1,.7-1.8,.7c-1,0-1.7-.3-2.1-1-.2-.3-.3-.8-.3-1.4h1.4c0,.3,0,.5,.1,.7,.2,.3,.5,.5,.9,.5,.3,0,.5-.1,.7-.3s.3-.5,.3-.8c0-.5-.2-.8-.6-.9-.2-.1-.5-.1-1-.1v-1c.4,0,.8,0,.9-.1,.3-.1,.5-.4,.5-.8,0-.3-.1-.5-.2-.7-.2-.2-.4-.3-.7-.3-.1,.2-.3,.3-.5,.5Z"/>
    </g>
    <path class="cls-5" d="M84.1,78.9h1.1l1.2,1.8,1.2-1.8h1.1l-1.7,2.5,1.8,2.7h-1.1l-1.3-1.9-1.2,1.9h-1.1l1.8-2.7-1.8-2.5Z"/>
    <path class="cls-5" d="M28.5,79.7h1.1l1.2,1.8,1.2-1.8h1.1l-1.7,2.5,1.8,2.7h-1.1l-1.3-1.9-1.2,1.9h-1.1l1.8-2.7s-1.8-2.5-1.8-2.5Z"/>
    <path class="cls-5" d="M87.3,43.3h1.1l1.2,1.8,1.2-1.8h1.1l-1.7,2.5,1.8,2.7h-1.1l-1.3-1.9-1.2,1.9h-1.1l1.8-2.7-1.8-2.5Z"/>
    <path class="cls-5" d="M58,92.7l-2,5.4h-.8l-2-5.4h.9l1.1,3.1c.2,.5,.3,.9,.4,1.4h0c.1-.4,.3-.9,.4-1.4l1.1-3.1s.9,0,.9,0Z"/>
    <g>
      <circle class="cls-4" cx="65.5" cy="55.4" r="5.2"/>
      <path class="cls-1" d="M68,56.3v1.1h-.8v1.5h-1.3v-1.5h-2.8v-1.2l2.6-4.2h1.5v4.4h.8v-.1Zm-3.9,0h1.8v-3l-1.8,3Z"/>
    </g>
    <polyline class="cls-7" points="35.6 60.6 29.4 69.6 29.4 66.3"/>
    <polyline class="cls-7" points="76.4 58.8 85.2 68.4 84.5 64.3"/>
  </g>
</svg>