<?xml version="1.0" encoding="UTF-8"?>
<svg id="_レイヤー_1" data-name=" レイヤー 1" xmlns="http://www.w3.org/2000/svg" viewBox="0 0 110.8 128.4">
  <defs>
    <style>
      .cls-1 {
        fill: #fff;
      }

      .cls-2 {
        fill: #333330;
      }

      .cls-3 {
        fill: #ccc;
      }

      .cls-4 {
        fill: #d83523;
      }

      .cls-5 {
        fill: #898880;
      }

      .cls-6 {
        fill: #fbfbf9;
        stroke: #b0afa7;
        stroke-width: .8px;
      }

      .cls-7 {
        fill: none;
        stroke: #d8d6cf;
        stroke-dasharray: 0 0 0 0 0 0 3 3;
        stroke-width: .4px;
      }
    </style>
  </defs>
  <path class="cls-6" d="M3.4,.4H107.4c1.7,0,3,1.3,3,3V107.4c0,1.7-1.3,3-3,3H3.4c-1.7,0-3-1.3-3-3V3.4c0-1.7,1.3-3,3-3Z"/>
  <line class="cls-7" x1="55.4" y1=".4" x2="55.4" y2="110.4"/>
  <line class="cls-7" x1=".4" y1="55.4" x2="110.4" y2="55.4"/>
  <path class="cls-3" d="M54.4,49.9c0-.7,0-1.3-.2-1.8-7,5.1-15,9.7-25.2,13.9-.2,.1-.5,.2-.6,.2-.6,0-1.2-.4-1.2-1,0-.5,.2-1,.9-1.3,10-5.8,18.5-11.4,24.2-16.2,4.5-3.8,8.5-7.1,12.2-11.8,1.7-2.1,1.9-3.9,2-5.7,.1-.6,.3-1,1-1,.9,0,3,1.2,4.6,2.4,1.6,1.4,1.8,1.8,1.8,2.5,0,.6-.2,1-.8,1.4-.8,.6-1.7,1.6-2.9,2.8-3.6,3.6-8.2,7.8-12.6,11.2,.8,.7,1.4,1.6,1.7,2,.3,.6,.4,1.2,.4,1.8s-.2,3-.2,8.7c0,3.8,.2,13.8,.2,25.4,0,1.7-.4,4.1-2.4,4.1s-3-1.9-3.5-3.9c-.2-.9-.4-1.8-.4-2.6,0-.7,.1-1.4,.3-2s.4-2.2,.4-3c.2-6.3,.3-13.8,.3-21.1,0,0,0-5,0-5Z"/>
  <path class="cls-2" d="M55.9,122.9v-.3c-1.1,.8-2.3,1.5-3.8,2.1h-.1c-.1,0-.2-.1-.2-.2s0-.1,.1-.2c1.5-.9,2.8-1.7,3.6-2.4,.7-.6,1.3-1.1,1.8-1.8,.3-.3,.3-.6,.3-.9,0-.1,0-.2,.2-.2,.1,0,.5,.2,.7,.4s.3,.3,.3,.4,0,.2-.1,.2c-.1,.1-.3,.2-.4,.4-.5,.5-1.2,1.2-1.9,1.7l.3,.3c0,.1,.1,.2,.1,.3v5.1c0,.3-.1,.6-.4,.6s-.4-.3-.5-.6c0-.1-.1-.3-.1-.4v-.3c0-.1,.1-.3,.1-.5v-3.7h0Z"/>
  <g id="_イ" data-name=" イ">
    <path class="cls-5" d="M23.1,60.1c2,0,3.6,1.6,3.6,3.6s-1.6,3.6-3.6,3.6-3.6-1.6-3.6-3.6,1.6-3.6,3.6-3.6Z"/>
    <g>
      <circle class="cls-4" cx="80.4" cy="25.5" r="5.3"/>
      <path class="cls-1" d="M81.3,29h-1.4v-4.9h-1.7v-.9c.4,0,.7,0,.9-.1,.3-.1,.5-.2,.7-.4,.1-.1,.2-.3,.3-.5,0-.1,.1-.2,.1-.3h1.2v7.1s-.1,0-.1,0Z"/>
    </g>
    <g>
      <circle class="cls-4" cx="50.1" cy="37.4" r="5.3"/>
      <path class="cls-1" d="M50.8,34.8c-.2-.2-.4-.3-.7-.3-.4,0-.7,.2-.9,.5-.1,.2-.1,.5-.2,.9h-1.4c0-.6,.1-1.1,.3-1.5,.4-.7,1-1.1,2-1.1,.7,0,1.3,.2,1.8,.6,.4,.4,.7,1,.7,1.6,0,.5-.2,1-.5,1.4-.2,.3-.5,.6-1,.9l-.6,.4c-.3,.2-.6,.4-.7,.5s-.2,.2-.3,.4h3.1v1.3h-4.8c0-.5,.1-1,.3-1.4,.2-.5,.7-1,1.4-1.5,.6-.5,1.1-.8,1.2-1,.3-.3,.4-.6,.4-1,.1-.3,.1-.5-.1-.7Z"/>
    </g>
    <path class="cls-5" d="M55.5,88.8h1.1l1.2,1.8,1.2-1.8h1.1l-1.7,2.6,1.8,2.7h-1.1l-1.3-2-1.3,2h-1.1l1.8-2.7-1.7-2.6Z"/>
  </g>
</svg>