<?xml version="1.0" encoding="UTF-8"?>
<svg id="_レイヤー_1" data-name=" レイヤー 1" xmlns="http://www.w3.org/2000/svg" viewBox="0 0 110.8 128.5">
  <defs>
    <style>
      .cls-1 {
        fill: #fff;
      }

      .cls-2 {
        fill: #333330;
      }

      .cls-3 {
        fill: #ccc;
      }

      .cls-4 {
        fill: #d83523;
      }

      .cls-5 {
        fill: #898880;
      }

      .cls-6 {
        fill: #fbfbf9;
        stroke: #b0afa7;
        stroke-width: .8px;
      }

      .cls-7 {
        stroke: #e7211a;
        stroke-width: .5px;
      }

      .cls-7, .cls-8 {
        fill: none;
      }

      .cls-8 {
        stroke: #d8d6cf;
        stroke-dasharray: 0 0 0 0 0 0 3 3;
        stroke-width: .4px;
      }
    </style>
  </defs>
  <path class="cls-6" d="M3.4,.4H107.4c1.7,0,3,1.3,3,3V107.4c0,1.7-1.3,3-3,3H3.4c-1.7,0-3-1.3-3-3V3.4c0-1.7,1.3-3,3-3Z"/>
  <line class="cls-8" x1="55.4" y1=".4" x2="55.4" y2="110.4"/>
  <line class="cls-8" x1=".4" y1="55.4" x2="110.4" y2="55.4"/>
  <path class="cls-3" d="M66.6,46.8c.4,.5,.5,1,.5,1.6,0,.8-.2,1.7-.5,2.3-.3,.9-.8,3-1.4,5.3-2.7,10.9-9,23.9-19.5,30.6-.2,.2-.6,.2-.8,.2-.5,0-.8-.2-.8-.9,0-.5,.2-1,.6-1.4,8-7.5,14.2-21.4,16.2-34.4,.2-1,.2-1.9,.2-2.6,0-1.4-.2-2.2-.4-2.8-5.6,.5-11,1-16,1.5-.6,.1-.8,.1-1.1,.1-.6,0-1-.1-1.6-.4s-1-.6-1.4-.9c-3,5-7,9.8-11.6,13.4-.3,.2-.6,.3-.8,.3-.6,0-1-.5-1-1,0-.2,.2-.6,.4-.9,6.4-8.6,11.2-17.1,13.2-25.8,.2-.9,.3-1.7,.3-2.4,0-1.2-.3-2.3-.9-3.6-.1-.2-.1-.3-.1-.5,0-.6,.5-1,1.2-1,.8,0,2.9,.7,5,2.4,1.4,1.1,1.8,2.1,1.8,2.9,0,.4-.1,.7-.2,1-.6,1-1.2,2.5-1.7,3.5-.8,1.9-2.4,5.5-4,8.8,1.4-.1,3-.2,4.2-.3,9.3-.8,18.6-1.7,25.3-2.4,2.2-.2,5-.7,6.2-1.1,.7-.2,1.8-.6,2.5-.6,.6,0,1.7,.3,2.7,.7s2.1,.9,2.8,1.7c.4,.4,.5,1.2,.5,1.5,0,.8-.8,1.5-2.4,1.6-5.8,.2-12.7,.6-19.7,1.2,1.1,.9,1.9,1.8,2.3,2.4h0Z"/>
  <path class="cls-2" d="M57.7,122.6c.1,.1,.1,.2,.1,.2,0,.1,0,.3-.1,.3,0,.1-.1,.4-.2,.8-.4,1.6-1.4,3.6-2.9,4.6h-.1c-.07,0-.1-.03-.1-.1,0-.07,.03-.13,.1-.2,1.2-1.1,2.1-3.2,2.4-5.2v-.4c0-.2,0-.3-.1-.4-.8,.1-1.7,.1-2.4,.2h-.2c-.07,0-.13-.03-.2-.1-.1,0-.2-.1-.2-.1-.5,.7-1.1,1.5-1.7,2h-.1c-.1,0-.1-.1-.1-.1,0,0,0-.1,.1-.1,1-1.3,1.7-2.6,2-3.9v-.4c0-.2,0-.3-.1-.5v-.1c0-.1,.1-.2,.2-.2s.4,.1,.7,.4c.2,.2,.3,.3,.3,.4v.1c-.1,.2-.2,.4-.3,.5-.1,.3-.4,.8-.6,1.3h.6c1.4-.1,2.8-.3,3.8-.4,.3,0,.8-.1,.9-.2,.1,0,.3-.1,.4-.1s.3,0,.4,.1,.3,.1,.4,.3c.1,.1,.1,.2,.1,.2,0,.1-.1,.2-.4,.2-.9,0-1.9,.1-3,.2,.1,.5,.2,.6,.3,.7Z"/>
  <g id="_ケ" data-name=" ケ">
    <path class="cls-5" d="M23.8,57.3c2,0,3.6,1.6,3.6,3.6s-1.6,3.6-3.6,3.6-3.6-1.6-3.6-3.6,1.6-3.6,3.6-3.6Z"/>
    <path class="cls-5" d="M40.5,85.5c2,0,3.6,1.6,3.6,3.6s-1.6,3.6-3.6,3.6-3.6-1.6-3.6-3.6,1.6-3.6,3.6-3.6Z"/>
    <g>
      <circle class="cls-4" cx="38.6" cy="17.2" r="5.3"/>
      <path class="cls-1" d="M39.5,20.7h-1.4v-4.9h-1.7v-.9c.4,0,.7,0,.9-.1,.3-.1,.5-.2,.7-.4,.1-.1,.2-.3,.3-.5,0-.1,.1-.2,.1-.3h1.2v7.1h-.1Z"/>
    </g>
    <g>
      <circle class="cls-4" cx="30.2" cy="39.9" r="5.3"/>
      <path class="cls-1" d="M30.9,37.3c-.2-.2-.4-.3-.7-.3-.4,0-.7,.2-.9,.5-.1,.2-.1,.5-.2,.9h-1.4c0-.6,.1-1.1,.3-1.5,.4-.7,1-1.1,2-1.1,.7,0,1.3,.2,1.8,.6,.4,.4,.7,1,.7,1.6,0,.5-.2,1-.5,1.4-.2,.3-.5,.6-1,.9l-.6,.4c-.3,.2-.6,.4-.7,.5s-.2,.2-.3,.4h3.1v1.2h-4.8c0-.5,.1-1,.3-1.4,.2-.5,.7-1,1.4-1.5,.6-.5,1.1-.8,1.2-1,.3-.3,.4-.6,.4-1,.2-.2,.1-.4-.1-.6Z"/>
    </g>
    <g>
      <circle class="cls-4" cx="77.7" cy="50.1" r="5.3"/>
      <path class="cls-1" d="M76.9,47.9c-.2,.2-.2,.5-.2,.8h-1.3c0-.4,.1-.7,.2-1s.3-.5,.5-.8c.2-.2,.4-.3,.6-.4s.6-.1,.9-.1c.7,0,1.2,.2,1.6,.5,.4,.4,.6,.8,.6,1.4,0,.4-.1,.8-.4,1.1-.2,.2-.3,.3-.5,.4,.1,0,.3,.1,.5,.3,.4,.3,.5,.8,.5,1.3,0,.6-.2,1.1-.6,1.6s-1,.7-1.8,.7c-1,0-1.7-.3-2.1-1-.2-.3-.3-.8-.3-1.4h1.4c0,.3,0,.5,.1,.7,.2,.3,.5,.5,.9,.5,.3,0,.5-.1,.7-.3s.3-.5,.3-.8c0-.5-.2-.8-.6-.9-.2-.1-.6-.1-1-.1v-1c.5,0,.8-.1,.9-.1,.3-.1,.5-.4,.5-.8,0-.3-.1-.5-.2-.7-.2-.2-.4-.3-.7-.3-.1,.1-.4,.2-.5,.4Z"/>
    </g>
    <path class="cls-5" d="M87.4,38.3h1.1l1.2,1.8,1.2-1.8h1.1l-1.8,2.5,1.8,2.7h-1.1l-1.3-2-1.3,2h-.9l1.8-2.7-1.8-2.5h0Z"/>
  </g>
  <polyline class="cls-7" points="36.5 39.9 60.4 38.7 54.7 36.3"/>
  <path class="cls-7" d="M70.7,47s-1.1,4-2.1,8c-.8,3.3-2.1,8-2.1,8l3.1-3.1"/>
</svg>