<?xml version="1.0" encoding="UTF-8"?>
<svg id="_レイヤー_1" data-name=" レイヤー 1" xmlns="http://www.w3.org/2000/svg" viewBox="0 0 110.8 128.7">
  <defs>
    <style>
      .cls-1 {
        fill: #fff;
      }

      .cls-2 {
        fill: #333330;
      }

      .cls-3 {
        fill: #ccc;
      }

      .cls-4 {
        fill: #d83523;
      }

      .cls-5 {
        fill: #898880;
      }

      .cls-6 {
        fill: #fbfbf9;
        stroke: #b0afa7;
        stroke-width: .8px;
      }

      .cls-7 {
        fill: none;
        stroke: #d8d6cf;
        stroke-dasharray: 0 0 0 0 0 0 3 3;
        stroke-width: .4px;
      }
    </style>
  </defs>
  <path class="cls-6" d="M3.4,.4H107.4c1.7,0,3,1.3,3,3V107.4c0,1.7-1.3,3-3,3H3.4c-1.7,0-3-1.3-3-3V3.4c0-1.7,1.3-3,3-3Z"/>
  <line class="cls-7" x1="55.4" y1=".4" x2="55.4" y2="110.4"/>
  <line class="cls-7" x1=".4" y1="55.4" x2="110.4" y2="55.4"/>
  <path class="cls-3" d="M50.6,27.2c0,1.2,.2,2.4,.6,4,.5,1.9,.9,3.4,1.4,5.4,2.5-.9,6.3-2.2,9.3-3.3,1.8-.6,3-1.6,3.9-2,.7-.2,1.8-.5,3-.5,.6,0,1.2,.1,1.8,.2,1.5,.5,2,1.7,2,2.2,0,.9-.6,1.6-2.5,2.2-5.5,1.7-10.7,3.3-16.3,5.1,1.2,4.6,2.3,8.5,4,13.8,3.7-1.3,8.1-3,11.6-4.2,1.4-.5,3-1.4,3.9-1.8,.8-.5,1.6-.9,2.8-.9,1.3,0,2.2,.2,2.9,.4,1,.3,1.8,1.1,1.8,2.2,0,.7-.5,1.4-2.6,2-7,2.2-11.1,3.3-19.2,6.2,2.5,7.8,5.2,16,7.6,23.2,.4,1.3,.6,2.4,.6,3.2,0,1.7-1,2.6-2.5,2.6-.7,0-1.5-.3-2.6-1.6-.6-.7-1-2.5-1.6-4.7-.2-1.1-.9-3.4-1.5-5.5-1.4-4.7-3-10-4.6-15.6-5.5,2-11.2,3.8-15.8,5.8-.8,.3-2.1,.8-3.8,1.7-.4,.2-.9,.4-1.4,.4-.4,0-.8-.1-1.4-.3-1.2-.6-3.2-1.9-3.2-2.5,0-.2,.2-.5,.7-.6,9.6-3.4,17.8-6.2,23.8-8.4-1.9-6.2-3-10.1-4.1-13.8-4.3,1.4-10,3.2-14.7,5-.5,.2-.9,.3-1.3,.3-.3,0-.6-.1-1-.3-1.7-.9-3.3-2.6-3.3-2.9s.2-.5,.6-.6c3.8-.8,7.4-1.9,11.4-3.2,2.3-.7,4.6-1.4,7-2.2-.6-2.2-1.3-4.1-1.8-6.1-1-3.4-2.2-5.6-3.4-6.6-.5-.4-.7-.9-.7-1.2,0-.6,.4-1,2.2-1,1.7,0,3.9,.3,5,.8,1,.5,1.4,1.3,1.4,2.1v1h0Z"/>
  <path class="cls-2" d="M55.3,119.7c0,.2,0,.4,.1,.6,.1,.3,.1,.5,.2,.8,.4-.1,.9-.3,1.4-.5,.3-.1,.4-.2,.6-.3,.1,0,.3-.1,.4-.1h.3c.2,.1,.3,.3,.3,.3,0,.1-.1,.2-.4,.3-.8,.3-1.6,.5-2.4,.8,.2,.7,.3,1.3,.6,2.1,.6-.2,1.2-.4,1.7-.6,.2-.1,.5-.2,.6-.3,.1-.1,.2-.1,.4-.1s.3,0,.4,.1c.2,0,.3,.2,.3,.3s-.1,.2-.4,.3c-1,.3-1.7,.5-2.9,.9,.4,1.2,.8,2.4,1.1,3.5,.1,.2,.1,.4,.1,.5,0,.3-.1,.4-.4,.4-.1,0-.2,0-.4-.2-.1-.1-.2-.4-.2-.7,0-.2-.1-.5-.2-.8-.2-.7-.4-1.5-.7-2.3-.8,.3-1.7,.6-2.4,.9-.1,0-.3,.1-.6,.3-.1,0-.1,.1-.2,.1h-.2c-.2-.1-.5-.3-.5-.4,0,0,0-.1,.1-.1,1.4-.5,2.7-.9,3.6-1.3-.3-.9-.5-1.5-.6-2.1-.6,.2-1.5,.5-2.2,.7h-.3c-.3-.1-.5-.4-.5-.4,0,0,0-.1,.1-.1,.6-.1,1.1-.3,1.7-.5,.3-.1,.7-.2,1-.3-.1-.3-.2-.6-.3-.9-.1-.5-.3-.8-.5-1-.07-.07-.1-.13-.1-.2,0-.1,.1-.1,.3-.1,.3,0,.6,0,.8,.1,.1,.1,.2,.2,.2,.3h.1Z"/>
  <g id="_キ" data-name=" キ">
    <g>
      <circle class="cls-4" cx="22.9" cy="45.2" r="5.3"/>
      <path class="cls-1" d="M23.8,48.7h-1.4v-4.9h-1.7v-.9c.4,0,.7,0,.9-.1,.3-.1,.5-.2,.7-.4,.1-.1,.2-.3,.3-.5,0-.1,.1-.2,.1-.3h1.2v7.1s-.1,0-.1,0Z"/>
    </g>
    <g>
      <circle class="cls-4" cx="22.9" cy="69.4" r="5.3"/>
      <path class="cls-1" d="M23.6,66.8c-.2-.2-.4-.3-.7-.3-.4,0-.7,.2-.9,.5-.1,.2-.1,.5-.2,.9h-1.4c0-.6,.1-1.1,.3-1.5,.4-.7,1-1.1,2-1.1,.7,0,1.3,.2,1.8,.6,.4,.4,.7,1,.7,1.6,0,.5-.2,1-.5,1.4-.2,.3-.5,.6-1,.9l-.6,.4c-.3,.2-.6,.4-.7,.5s-.2,.2-.3,.4h3.1v1.2h-4.8c0-.5,.1-1,.3-1.4,.2-.5,.7-1,1.4-1.5,.6-.5,1.1-.8,1.2-1,.3-.3,.4-.6,.4-1,.2-.1,.1-.4-.1-.6Z"/>
    </g>
    <g>
      <circle class="cls-4" cx="42.5" cy="17.2" r="5.3"/>
      <path class="cls-1" d="M41.7,15c-.2,.2-.2,.5-.2,.8h-1.3c0-.4,.1-.7,.2-1,.1-.3,.3-.5,.5-.8,.2-.2,.4-.3,.6-.4s.6-.1,.9-.1c.7,0,1.2,.2,1.6,.5,.4,.4,.6,.8,.6,1.4,0,.4-.1,.8-.4,1.1-.2,.2-.3,.3-.5,.4,.1,0,.3,.1,.5,.3,.4,.3,.5,.8,.5,1.3,0,.6-.2,1.1-.6,1.6-.4,.5-1,.7-1.8,.7-1,0-1.7-.3-2.1-1-.2-.3-.3-.8-.3-1.4h1.4c0,.3,0,.5,.1,.7,.2,.3,.5,.5,.9,.5,.3,0,.5-.1,.7-.3s.3-.5,.3-.8c0-.5-.2-.8-.6-.9-.2-.1-.6-.1-1-.1v-1c.5,0,.8-.1,.9-.1,.3-.1,.5-.4,.5-.8,0-.3-.1-.5-.2-.7s-.4-.3-.7-.3c-.1,.1-.4,.2-.5,.4Z"/>
    </g>
    <path class="cls-5" d="M82,46.4h1.1l1.2,1.8,1.2-1.8h1.1l-1.8,2.5,1.8,2.7h-1.1l-1.3-2-1.3,2h-1.1l1.8-2.7s-1.6-2.5-1.6-2.5Z"/>
    <path class="cls-5" d="M62,89.4h1.1l1.2,1.8,1.2-1.8h1.1l-1.8,2.5,1.8,2.7h-1.1l-1.3-2-1.3,2h-1.1l1.8-2.7s-1.6-2.5-1.6-2.5Z"/>
    <path class="cls-5" d="M73.7,28.9h1.1l1.2,1.8,1.2-1.8h1.1l-1.8,2.5,1.8,2.7h-1.1l-1.3-2-1.3,2h-1.1l1.8-2.7s-1.6-2.5-1.6-2.5Z"/>
  </g>
</svg>