<?xml version="1.0" encoding="UTF-8"?>
<svg id="_レイヤー_1" data-name=" レイヤー 1" xmlns="http://www.w3.org/2000/svg" viewBox="0 0 110.8 128.6">
  <defs>
    <style>
      .cls-1 {
        fill: #fff;
      }

      .cls-2 {
        fill: #333330;
      }

      .cls-3 {
        fill: #ccc;
      }

      .cls-4 {
        fill: #d83523;
      }

      .cls-5 {
        fill: #898880;
      }

      .cls-6 {
        fill: #fbfbf9;
        stroke: #b0afa7;
        stroke-width: .8px;
      }

      .cls-7, .cls-8, .cls-9 {
        fill: none;
      }

      .cls-7, .cls-9 {
        stroke: #e7211a;
        stroke-width: .5px;
      }

      .cls-8 {
        stroke: #d8d6cf;
        stroke-dasharray: 0 0 0 0 0 0 3 3;
        stroke-width: .4px;
      }

      .cls-9 {
        stroke-miterlimit: 10;
      }
    </style>
  </defs>
  <path class="cls-6" d="M3.4,.4H107.4c1.7,0,3,1.3,3,3V107.4c0,1.7-1.3,3-3,3H3.4c-1.7,0-3-1.3-3-3V3.4c0-1.7,1.3-3,3-3Z"/>
  <line class="cls-8" x1="55.4" y1=".4" x2="55.4" y2="110.4"/>
  <line class="cls-8" x1=".4" y1="55.4" x2="110.4" y2="55.4"/>
  <path class="cls-3" d="M63,29.6c2-.3,2.8-.6,3.9-1.5,.4-.3,1-.6,1.4-.6,.8,0,1.9,.6,4,2.4,1.1,1,1.7,1.6,1.7,2.5,0,.5-.2,1-.6,1.6-1,1.4-1.8,4.2-3.2,7.2-3.2,7-7.3,14.4-12.4,21.4-6.5,9-15,17.4-26.3,24.1-.2,.2-.5,.2-.7,.2-.6,0-1.3-.5-1.3-1.1,0-.3,.2-.6,.6-.9,9.4-7.4,17.5-16.6,23.8-25.7,6.4-9.2,10.8-18.2,12.7-25.4,.1-.3,.1-.6,.1-.7,0-.3-.1-.5-.4-.5-.2,0-4,.5-7.7,1-2.6,.3-5.8,.8-7.5,1.1-.6,.1-1.2,.2-1.7,.2-1.4,1.8-3.9,4.5-6.8,7.5-2.6,2.6-6.7,6.3-11.6,9.4-.5,.3-1,.4-1.3,.4-.6,0-1.3-.4-1.3-1,0-.5,.3-1,.9-1.5,6.9-6.2,11.1-11.4,14.2-16.6,.9-1.6,1.2-2.7,1.2-3.8,0-1-.2-1.8-.2-2.2s.4-.8,1.1-.8c.5,0,1,.2,1.8,.6,1.5,1.1,3,2.9,3.7,3.9,4.6-.4,8.7-.8,11.9-1.2Z"/>
  <path class="cls-2" d="M57.2,120c.3,0,.4-.1,.6-.2,.1,0,.1-.1,.2-.1s.3,.1,.6,.4c.2,.1,.3,.2,.3,.4,0,.07-.03,.13-.1,.2-.1,.2-.3,.6-.5,1.1-.5,1.1-1.1,2.2-1.9,3.2-1,1.3-2.2,2.6-3.9,3.6h-.1c-.1,0-.2-.1-.2-.2,0,0,0-.1,.1-.1,1.4-1.1,2.6-2.5,3.6-3.8,1-1.4,1.6-2.7,1.9-3.8v-.1s0-.1-.1-.1c0,0-.6,.1-1.2,.1-.4,0-.9,.1-1.1,.2h-.3c-.2,.3-.6,.7-1,1.1s-1,.9-1.7,1.4c-.1,0-.1,.1-.2,.1s-.2-.1-.2-.2,0-.2,.1-.2c1-.9,1.7-1.7,2.1-2.5,.1-.2,.2-.4,.2-.6v-.3s.1-.1,.2-.1,.2,0,.3,.1c.2,.2,.5,.4,.6,.6,.6,0,1.2-.1,1.7-.2Z"/>
  <g id="_ク" data-name=" ク">
    <path class="cls-5" d="M24.4,85.5c2,0,3.6,1.6,3.6,3.6s-1.6,3.6-3.6,3.6-3.6-1.6-3.6-3.6,1.6-3.6,3.6-3.6Z"/>
    <path class="cls-5" d="M24.4,50.3c2,0,3.6,1.6,3.6,3.6s-1.6,3.6-3.6,3.6-3.6-1.6-3.6-3.6,1.6-3.6,3.6-3.6Z"/>
    <g>
      <circle class="cls-4" cx="38.8" cy="22.5" r="5.3"/>
      <path class="cls-1" d="M39.7,26h-1.4v-4.9h-1.7v-.9c.4,0,.7,0,.9-.1,.3-.1,.5-.2,.7-.4,.1-.1,.2-.3,.3-.5,0-.1,.1-.2,.1-.3h1.2v7.1s-.1,0-.1,0Z"/>
    </g>
    <g>
      <circle class="cls-4" cx="52.5" cy="22.5" r="5.3"/>
      <path class="cls-1" d="M53.2,19.9c-.2-.2-.4-.3-.7-.3-.4,0-.7,.2-.9,.5-.1,.2-.1,.5-.2,.9h-1.4c0-.6,.1-1.1,.3-1.5,.4-.7,1-1.1,2-1.1,.7,0,1.3,.2,1.8,.6,.4,.4,.7,1,.7,1.6,0,.5-.2,1-.5,1.4-.2,.3-.5,.6-1,.9l-.6,.4c-.3,.2-.6,.4-.7,.5s-.2,.2-.3,.4h3.1v1.2h-4.8c0-.5,.1-1,.3-1.4,.2-.5,.7-1,1.4-1.5,.6-.5,1.1-.8,1.2-1,.3-.3,.4-.6,.4-1,.1-.2,.1-.4-.1-.6Z"/>
    </g>
  </g>
  <polyline class="cls-7" points="40 30.5 33.5 39.9 34.6 36"/>
  <path class="cls-9" d="M59.6,25.5l18.5-.7-1.6,7.8s-1.4,5.8-2,7.3"/>
</svg>