<?xml version="1.0" encoding="UTF-8"?>
<svg id="_レイヤー_1" data-name=" レイヤー 1" xmlns="http://www.w3.org/2000/svg" viewBox="0 0 110.8 127.5">
  <defs>
    <style>
      .cls-1 {
        fill: #fff;
      }

      .cls-2 {
        fill: #333330;
      }

      .cls-3 {
        fill: #ccc;
      }

      .cls-4 {
        fill: #d83523;
      }

      .cls-5 {
        fill: #898880;
      }

      .cls-6 {
        fill: #fbfbf9;
        stroke: #b0afa7;
        stroke-width: .8px;
      }

      .cls-7 {
        stroke: #e7211a;
        stroke-width: .5px;
      }

      .cls-7, .cls-8 {
        fill: none;
      }

      .cls-8 {
        stroke: #d8d6cf;
        stroke-dasharray: 0 0 0 0 0 0 3 3;
        stroke-width: .4px;
      }
    </style>
  </defs>
  <path class="cls-6" d="M3.4,.4H107.4c1.7,0,3,1.3,3,3V107.4c0,1.7-1.3,3-3,3H3.4c-1.7,0-3-1.3-3-3V3.4c0-1.7,1.3-3,3-3Z"/>
  <line class="cls-8" x1="55.4" y1=".4" x2="55.4" y2="110.4"/>
  <line class="cls-8" x1=".4" y1="55.4" x2="110.4" y2="55.4"/>
  <path class="cls-3" d="M62.6,72.5c1.3,1.6,1.8,3.1,1.8,4.3,0,1.5-.8,2.8-2.4,2.8-1.4,0-3-1.7-4.8-3.8-4-4.9-8.9-9.9-13.8-14.5-.3-.3-.4-.6-.4-1,0-.6,.5-1.2,1.2-1.2,.2,0,.6,.1,.7,.2,4.8,2.5,8.2,4.6,11.2,7,8.7-8.2,14.6-14.1,20-21.9,.2-.3,.3-.6,.3-.8,0-.3-.2-.6-.9-.6-12.7,.7-28.7,2.6-39,4.2-3.7,.6-5,.9-6.1,1.2-.6,.2-1.1,.3-1.5,.3-.6,0-1-.2-1.4-.6-1.8-1.5-3.2-3.6-3.2-4.6,0-.4,.3-.6,1.3-.6,2.8,0,6.8-.4,8.9-.6,11.2-1,28.8-2.7,39.8-3.5,2-.1,2.6-.2,3.5-.6,.6-.2,1.1-.3,1.6-.3,.8,0,2.5,.8,3.8,1.9,1.6,1.3,2.4,2.2,2.4,3.2,0,.5-.2,1-.6,1.4-1.4,1-1.8,1.4-3.7,3.4-6.5,7-13.8,14-22.9,20.3,1.4,1.4,3,3,4.2,4.4h0Z"/>
  <path class="cls-2" d="M57.7,126.5c.2,.2,.3,.5,.3,.6,0,.2-.1,.4-.4,.4-.2,0-.4-.3-.7-.6-.6-.7-1.3-1.5-2.1-2.2l-.1-.1c0-.1,.1-.2,.2-.2h.1c.7,.4,1.2,.7,1.7,1.1,1.3-1.2,2.2-2.1,3-3.3v-.1s0-.1-.1-.1c-1.9,.1-4.3,.4-5.8,.6-.6,.1-.8,.1-.9,.2h-.2c-.07,0-.13-.03-.2-.1-.3-.2-.5-.5-.5-.7,0-.07,.07-.1,.2-.1,.4,0,1-.1,1.3-.1,1.7-.2,4.3-.4,6-.5,.3,0,.4,0,.5-.1h.2c.1,0,.4,.1,.6,.3s.4,.3,.4,.5c0,.1,0,.2-.1,.2-.2,.1-.3,.2-.6,.5-1,1-2.1,2.1-3.4,3,.2,.3,.4,.6,.6,.8h0Z"/>
  <g id="_マ" data-name=" マ">
    <polyline class="cls-7" points="71.6 35.1 93.6 34 88.4 46 91.6 42.5"/>
    <g>
      <circle class="cls-4" cx="16.8" cy="44.4" r="5.3"/>
      <path class="cls-1" d="M17.7,48h-1.4v-4.9h-1.7v-.9c.4,0,.7,0,.9-.1,.3-.1,.5-.2,.7-.4,.1-.1,.2-.3,.3-.5,0-.1,.1-.2,.1-.3h1.2v7.1s-.1,0-.1,0Z"/>
    </g>
    <g>
      <circle class="cls-4" cx="35.7" cy="60.7" r="5.3"/>
      <path class="cls-1" d="M36.4,58c-.2-.2-.4-.3-.7-.3-.4,0-.7,.2-.9,.5-.1,.2-.1,.5-.2,.9h-1.4c0-.6,.1-1.1,.3-1.5,.4-.7,1-1.1,2-1.1,.7,0,1.3,.2,1.8,.6,.4,.4,.7,1,.7,1.6,0,.5-.2,1-.5,1.4-.2,.3-.5,.6-1,.9l-.6,.4c-.3,.2-.6,.4-.7,.5s-.2,.2-.3,.4h3.1v1.2h-4.8c0-.5,.1-1,.3-1.4,.2-.5,.7-1,1.4-1.5,.6-.5,1.1-.8,1.2-1,.3-.3,.4-.6,.4-1,.1-.1,.1-.4-.1-.6Z"/>
    </g>
    <path class="cls-5" d="M67.6,65.1c2,0,3.6,1.6,3.6,3.6s-1.6,3.6-3.6,3.6-3.6-1.6-3.6-3.6,1.7-3.6,3.6-3.6Z"/>
    <path class="cls-5" d="M63.8,81.9h1.1l1.2,1.8,1.2-1.8h1.1l-1.8,2.5,1.8,2.7h-1l-1.3-2-1.3,2h-1.1l1.8-2.7s-1.7-2.5-1.7-2.5Z"/>
  </g>
</svg>