<?xml version="1.0" encoding="UTF-8"?>
<svg id="_レイヤー_1" data-name=" レイヤー 1" xmlns="http://www.w3.org/2000/svg" viewBox="0 0 110.8 128.5">
  <defs>
    <style>
      .cls-1 {
        fill: #fff;
      }

      .cls-2 {
        fill: #333330;
      }

      .cls-3 {
        fill: #ccc;
      }

      .cls-4 {
        fill: #d83523;
      }

      .cls-5 {
        fill: #898880;
      }

      .cls-6 {
        fill: #fbfbf9;
        stroke: #b0afa7;
        stroke-width: .8px;
      }

      .cls-7 {
        fill: none;
        stroke: #d8d6cf;
        stroke-dasharray: 0 0 0 0 0 0 3 3;
        stroke-width: .4px;
      }
    </style>
  </defs>
  <path class="cls-6" d="M3.4,.4H107.4c1.7,0,3,1.3,3,3V107.4c0,1.7-1.3,3-3,3H3.4c-1.7,0-3-1.3-3-3V3.4c0-1.7,1.3-3,3-3Z"/>
  <line class="cls-7" x1="55.4" y1=".4" x2="55.4" y2="110.4"/>
  <line class="cls-7" x1=".4" y1="55.4" x2="110.4" y2="55.4"/>
  <path class="cls-3" d="M65.3,78.1c3,2.2,4,3.8,4,5.1s-.6,3-2.1,3c-1.3,0-2.7-.8-5.1-2.5-5.2-3.7-14.1-9.1-21-12.6-.6-.2-.7-.6-.7-1,0-.6,.5-1.1,1.2-1.1,.13,0,.3,.03,.5,.1,7.6,1.4,18.1,5.4,23.2,9Zm-3.5-24.5c2.6,1.8,3.8,3.7,3.8,5.2,0,1.4-.9,2.6-2.1,2.6s-2.6-.7-4.9-2.6c-4.8-4-9-6.6-15.7-10.1-.5-.2-.7-.8-.7-1.1,0-.6,.5-.9,1.2-.9,.2,0,.3,0,.8,.1,7.1,1.3,13.2,3.9,17.6,6.8Zm3-20.8c2.8,1.8,3.8,3.8,3.8,5.2,0,1.6-1.1,2.8-2.4,2.8-1-.1-2.5-.7-4.6-2.4-4.3-3.3-9.7-6.8-16.4-10.5-.6-.3-.7-.8-.7-1.2s.6-.8,1.3-.8c.5,0,.9,.1,1.3,.2,7.1,1.4,13.7,4.1,17.7,6.7Z"/>
  <path class="cls-2" d="M56.6,127.3c.5,.3,.6,.6,.6,.8s-.1,.4-.3,.4-.4-.1-.8-.4c-.8-.6-2.1-1.4-3.1-1.9-.1,0-.1-.1-.1-.2s.1-.2,.2-.2h.1c1.1,.4,2.6,1,3.4,1.5Zm-.5-3.7c.4,.3,.6,.6,.6,.8s-.1,.4-.3,.4-.4-.1-.7-.4c-.7-.6-1.4-1-2.4-1.5-.1,0-.1-.1-.1-.2s.1-.1,.2-.1h.1c1,.2,1.9,.6,2.6,1Zm.4-3.1c.4,.3,.6,.6,.6,.8s-.2,.4-.4,.4-.4-.1-.7-.4c-.6-.5-1.5-1-2.5-1.6-.1,0-.1-.1-.1-.2s.1-.1,.2-.1h.2c1.1,.3,2.1,.7,2.7,1.1Z"/>
  <g id="_ミ" data-name=" ミ">
    <g>
      <circle class="cls-4" cx="37.4" cy="24.6" r="5.3"/>
      <path class="cls-1" d="M38.3,28.2h-1.4v-4.9h-1.7v-.9c.4,0,.7,0,.9-.1,.3-.1,.5-.2,.7-.4,.1-.1,.2-.3,.3-.5,0-.1,.1-.2,.1-.3h1.2v7.1s-.1,0-.1,0Z"/>
    </g>
    <g>
      <circle class="cls-4" cx="35.4" cy="48" r="5.3"/>
      <path class="cls-1" d="M36,45.3c-.2-.2-.4-.3-.7-.3-.4,0-.7,.2-.9,.5-.1,.2-.1,.5-.2,.9h-1.4c0-.6,.1-1.1,.3-1.5,.4-.7,1-1.1,2-1.1,.7,0,1.3,.2,1.8,.6,.4,.4,.7,1,.7,1.6,0,.5-.2,1-.5,1.4-.2,.3-.5,.6-1,.9l-.6,.4c-.3,.2-.6,.4-.7,.5-.1,.1-.2,.2-.3,.4h3.1v1.2h-4.8c0-.5,.1-1,.3-1.4,.2-.5,.7-1,1.4-1.5,.6-.5,1.1-.8,1.2-1,.3-.3,.4-.6,.4-1,.2-.2,.1-.4-.1-.6Z"/>
    </g>
    <g>
      <circle class="cls-4" cx="32.6" cy="69" r="5.3"/>
      <path class="cls-1" d="M31.8,66.7c-.2,.2-.2,.5-.2,.8h-1.3c0-.4,.1-.7,.2-1s.3-.5,.5-.8c.2-.2,.4-.3,.6-.4s.6-.1,.9-.1c.7,0,1.2,.2,1.6,.5,.4,.4,.6,.8,.6,1.4,0,.4-.1,.8-.4,1.1-.2,.2-.3,.3-.5,.4,.1,0,.3,.1,.5,.3,.4,.3,.5,.8,.5,1.3,0,.6-.2,1.1-.6,1.6-.4,.5-1,.7-1.8,.7-1,0-1.7-.3-2.1-1-.2-.3-.3-.8-.3-1.4h1.4c0,.3,0,.5,.1,.7,.2,.3,.5,.5,.9,.5,.3,0,.5-.1,.7-.3s.3-.5,.3-.8c0-.5-.2-.8-.6-.9-.2-.1-.6-.1-1-.1v-1c.5,0,.8-.1,.9-.1,.3-.1,.5-.4,.5-.8,0-.3-.1-.5-.2-.7s-.4-.3-.7-.3c-.1,.1-.4,.2-.5,.4Z"/>
    </g>
    <path class="cls-5" d="M72.6,81.9h1.1l1.2,1.8,1.2-1.8h1.1l-1.8,2.5,1.8,2.7h-1.1l-1.3-2-1.3,2h-1.1l1.8-2.7s-1.6-2.5-1.6-2.5Z"/>
    <path class="cls-5" d="M70.4,58.4h1.1l1.2,1.8,1.2-1.8h1.1l-1.8,2.5,1.8,2.7h-1.1l-1.3-2-1.3,2h-1.1l1.8-2.7s-1.6-2.5-1.6-2.5Z"/>
    <path class="cls-5" d="M70.4,37.5h1.1l1.2,1.8,1.2-1.8h1.1l-1.8,2.5,1.8,2.7h-1.1l-1.3-2-1.3,2h-1.1l1.8-2.7s-1.6-2.5-1.6-2.5Z"/>
  </g>
</svg>