<?xml version="1.0" encoding="UTF-8"?>
<svg id="_レイヤー_1" data-name=" レイヤー 1" xmlns="http://www.w3.org/2000/svg" viewBox="0 0 110.8 126.8">
  <defs>
    <style>
      .cls-1 {
        fill: #fff;
      }

      .cls-2 {
        fill: #333330;
      }

      .cls-3 {
        fill: #ccc;
      }

      .cls-4 {
        fill: #d83523;
      }

      .cls-5 {
        fill: #898880;
      }

      .cls-6 {
        fill: #fbfbf9;
        stroke: #b0afa7;
        stroke-width: .8px;
      }

      .cls-7 {
        fill: none;
        stroke: #d8d6cf;
        stroke-dasharray: 0 0 0 0 0 0 3 3;
        stroke-width: .4px;
      }
    </style>
  </defs>
  <path class="cls-6" d="M3.4,.4H107.4c1.7,0,3,1.3,3,3V107.4c0,1.7-1.3,3-3,3H3.4c-1.7,0-3-1.3-3-3V3.4c0-1.7,1.3-3,3-3Z"/>
  <line class="cls-7" x1="55.4" y1=".4" x2="55.4" y2="110.4"/>
  <line class="cls-7" x1=".4" y1="55.4" x2="110.4" y2="55.4"/>
  <path class="cls-3" d="M34.1,68.8c12.4-1.2,29.7-2.2,40.8-2.3,1.5,0,2.7-.2,3.9-.6,.2-.1,.6-.1,.9-.1,.8,0,1.9,.2,3,.6,2.6,1.1,4.1,2.6,4.1,4,0,1.3-.9,1.8-2.3,1.8-.4,0-.9,0-1.4-.1-4.1-.6-8.8-.8-14-.8-1.8,0-3.5,0-5.4,.1-11.2,.3-24.1,1.4-29.4,2.2-2.3,.3-4.2,.6-5.4,1-.3,.1-.6,.2-.9,.2-.7,0-1.1-.3-1.6-.9-1.2-1.6-2-3.2-2-3.8,0-.4,.3-.6,1-.6,2.8-.2,5.5-.4,8.7-.7h0Zm2.2-29.4c3.4-.1,6.2-.2,11.8-.7,5.3-.5,9.9-1.2,15.2-2.2,1.4-.2,3-1.3,4.2-1.3,1.9,0,2.8,.2,3.9,.9,1.3,.8,1.7,1.8,1.7,2.6,0,1.1-1.6,1.9-5,2.4-9.1,1.3-16.9,2.3-26.1,3.1-1,.1-1.6,.2-1.8,.2-1,0-1.6-.3-2.2-.8-1.3-1.1-2.7-3-2.7-3.6,.1-.4,.4-.6,1-.6Z"/>
  <path class="cls-2" d="M53.4,125.9c1.9-.2,4.4-.3,6.1-.3,.2,0,.4,0,.6-.1h.1c.1,0,.3,0,.4,.1,.4,.2,.6,.4,.6,.6s-.1,.3-.3,.3h-.2c-.6-.1-1.3-.1-2.1-.1h-.8c-1.7,0-3.6,.2-4.4,.3-.3,0-.6,.1-.8,.1h-.1c-.1,0-.2,0-.2-.1-.2-.2-.3-.5-.3-.6s0-.1,.2-.1c.3,0,.7,0,1.2-.1Zm.4-4.4c.5,0,.9,0,1.8-.1,.8-.1,1.5-.2,2.3-.3,.2,0,.4-.2,.6-.2,.3,0,.4,0,.6,.1,.2,.1,.3,.3,.3,.4,0,.2-.2,.3-.8,.4-1.4,.2-2.5,.3-3.9,.5h-.3c-.13,0-.23-.03-.3-.1-.2-.2-.4-.5-.4-.5-.1-.2,0-.2,.1-.2Z"/>
  <g id="_ニ" data-name=" ニ">
    <g>
      <circle class="cls-4" cx="27.9" cy="40.1" r="5.3"/>
      <path class="cls-1" d="M28.8,43.7h-1.4v-4.9h-1.7v-.9c.4,0,.7,0,.9-.1,.3-.1,.5-.2,.7-.4,.1-.1,.2-.3,.3-.5,0-.1,.1-.2,.1-.3h1.2v7.1s-.1,0-.1,0Z"/>
    </g>
    <g>
      <circle class="cls-4" cx="17.4" cy="71.6" r="5.3"/>
      <path class="cls-1" d="M18.1,68.9c-.2-.2-.4-.3-.7-.3-.4,0-.7,.2-.9,.5-.1,.2-.1,.5-.2,.9h-1.4c0-.6,.1-1.1,.3-1.5,.4-.7,1-1.1,2-1.1,.7,0,1.3,.2,1.8,.6,.4,.4,.7,1,.7,1.6,0,.5-.2,1-.5,1.4-.2,.3-.5,.6-1,.9l-.6,.4c-.3,.2-.6,.4-.7,.5s-.2,.2-.3,.4h3.1v1.2h-4.8c0-.5,.1-1,.3-1.4,.2-.5,.7-1,1.4-1.5,.6-.5,1.1-.8,1.2-1,.3-.3,.4-.6,.4-1,.1-.2,0-.4-.1-.6Z"/>
    </g>
    <path class="cls-5" d="M75.3,34.9h1.1l1.2,1.8,1.2-1.8h1.1l-1.8,2.5,1.8,2.7h-1.1l-1.3-2-1.3,2h-1.1l1.8-2.7s-1.6-2.5-1.6-2.5Z"/>
    <path class="cls-5" d="M88.7,66.3h1.1l1.2,1.8,1.2-1.8h1.1l-1.8,2.5,1.8,2.7h-1.1l-1.3-2-1.3,2h-1.1l1.8-2.7s-1.6-2.5-1.6-2.5Z"/>
  </g>
</svg>