<?xml version="1.0" encoding="UTF-8"?>
<svg id="_レイヤー_1" data-name=" レイヤー 1" xmlns="http://www.w3.org/2000/svg" viewBox="0 0 110.8 128">
  <defs>
    <style>
      .cls-1 {
        fill: #fff;
      }

      .cls-2 {
        fill: #333330;
      }

      .cls-3 {
        fill: #ccc;
      }

      .cls-4 {
        fill: #d83523;
      }

      .cls-5 {
        fill: #898880;
      }

      .cls-6 {
        fill: #fbfbf9;
        stroke: #b0afa7;
        stroke-width: .8px;
      }

      .cls-7 {
        fill: none;
        stroke: #d8d6cf;
        stroke-dasharray: 0 0 0 0 0 0 3 3;
        stroke-width: .4px;
      }
    </style>
  </defs>
  <path class="cls-6" d="M3.4,.4H107.4c1.7,0,3,1.3,3,3V107.4c0,1.7-1.3,3-3,3H3.4c-1.7,0-3-1.3-3-3V3.4c0-1.7,1.3-3,3-3Z"/>
  <line class="cls-7" x1="55.4" y1=".4" x2="55.4" y2="110.4"/>
  <line class="cls-7" x1=".4" y1="55.4" x2="110.4" y2="55.4"/>
  <path class="cls-3" d="M66.7,29.4c1,0,4.6,2.2,6.4,4.6,.4,.5,.6,1,.6,1.8,0,.9-.6,1.7-1.3,2.4-1,1-2.2,3.5-3.4,6-2.4,5-7,12.6-13,19.7-5.8,6.9-13,13.1-21.5,18.2-.3,.2-.6,.2-.8,.2-.6,0-1-.6-1-1.1,0-.3,.2-.7,.5-1,8.4-7.1,15-14.5,20.4-21.8,4.9-6.7,8.6-13.5,11.1-19.4,.8-2,1.1-3.5,1.1-4.8,0-1.6-.6-3.2-.6-3.4,.2-.9,.8-1.4,1.5-1.4Z"/>
  <path class="cls-2" d="M56.8,120c.2,0,.7,.3,1,.7,.1,.1,.1,.2,.1,.3s-.1,.3-.2,.4c-.1,.2-.3,.5-.5,.9-.4,.7-1,1.9-1.9,3-.9,1-1.9,2-3.2,2.7h-.1c-.1,0-.1-.1-.1-.2,0,0,0-.1,.1-.1,1.3-1.1,2.3-2.2,3.1-3.3,.7-1,1.3-2,1.7-2.9,.1-.3,.2-.5,.2-.7s-.1-.5-.1-.5c-.3-.2-.2-.3-.1-.3Z"/>
  <g id="_ノ" data-name=" ノ">
    <path class="cls-5" d="M28.5,79.8c2,0,3.6,1.6,3.6,3.6s-1.6,3.6-3.6,3.6-3.6-1.6-3.6-3.6,1.6-3.6,3.6-3.6Z"/>
    <g>
      <circle class="cls-4" cx="71.4" cy="22.3" r="5.3"/>
      <path class="cls-1" d="M72.4,25.9h-1.4v-4.9h-1.7v-.9c.4,0,.7,0,.9-.1,.3-.1,.5-.2,.7-.4,.1-.1,.2-.3,.3-.5,0-.1,.1-.2,.1-.3h1.2v7.1s-.1,0-.1,0Z"/>
    </g>
  </g>
</svg>