<?xml version="1.0" encoding="UTF-8"?>
<svg id="_レイヤー_1" data-name=" レイヤー 1" xmlns="http://www.w3.org/2000/svg" viewBox="0 0 110.8 128.4">
  <defs>
    <style>
      .cls-1 {
        fill: #fff;
      }

      .cls-2 {
        fill: #333330;
      }

      .cls-3 {
        fill: #ccc;
      }

      .cls-4 {
        fill: #d83523;
      }

      .cls-5 {
        fill: #898880;
      }

      .cls-6 {
        fill: #fbfbf9;
        stroke: #b0afa7;
        stroke-width: .8px;
      }

      .cls-7 {
        stroke: #e7211a;
        stroke-width: .5px;
      }

      .cls-7, .cls-8 {
        fill: none;
      }

      .cls-8 {
        stroke: #d8d6cf;
        stroke-dasharray: 0 0 0 0 0 0 3 3;
        stroke-width: .4px;
      }
    </style>
  </defs>
  <path class="cls-6" d="M3.4,.4H107.4c1.7,0,3,1.3,3,3V107.4c0,1.7-1.3,3-3,3H3.4c-1.7,0-3-1.3-3-3V3.4c0-1.7,1.3-3,3-3Z"/>
  <line class="cls-8" x1="55.4" y1=".4" x2="55.4" y2="110.4"/>
  <line class="cls-8" x1=".4" y1="55.4" x2="110.4" y2="55.4"/>
  <path class="cls-3" d="M72.4,47.8c-10.9,.9-19.5,1.8-28.2,2.9-2.2,.3-5.4,.8-10.2,1.5-.4,.1-.7,.2-1,.2-.4,0-.6-.1-1-.4-1.6-1.7-2.2-3.2-2.2-3.8,0-.3,.2-.5,.8-.6,3-.2,6.4-.5,9.1-.8,10.2-1.2,21.7-2.2,31.4-3,1.3-.1,2.3-.3,3.2-.7,.4-.2,.8-.2,1.1-.2,.8,0,2.2,.6,4,2.1,1,.9,1.8,1.7,1.8,2.6,0,.3-.2,.7-.5,1.1-.9,1-1.6,3-2.2,4.6-2.5,6.3-5.7,12.8-10.6,18.8-4.8,5.9-11.4,11.5-20.6,15.6-.2,.1-.6,.2-.8,.2-.6,0-1.1-.3-1.1-1,0-.4,.2-.8,.7-1.1,8.3-5.4,14-11,18.3-17.2,4.1-5.8,6.8-12.2,9.1-19.5,.1-.2,.1-.4,.1-.6,0-.4-.3-.6-.9-.6h-.3s0-.1,0-.1ZM38.4,31.4c5,0,9.6-.4,14.6-.8,3.7-.3,7.8-.7,9.6-1,2.2-.3,3-.6,3.5-1,.4-.2,.9-.5,1.8-.5,1.5,0,3.1,.3,4.2,1,1.3,.9,1.5,1.6,1.5,2.6,0,1.4-.9,1.6-3.5,1.8-8.6,.6-20.6,1.8-27.5,2.6-.5,.1-.9,.1-1.3,.1-.9,0-1.3-.2-1.8-.7-1.1-1-2.1-3-2.1-3.4s.4-.7,1-.7Z"/>
  <path class="cls-2" d="M58.6,122.6c-1.6,.1-2.9,.3-4.2,.4-.3,0-.8,.1-1.5,.2h-.1c-.07,0-.1-.03-.1-.1-.2-.3-.3-.5-.3-.6,0,0,0-.1,.1-.1,.5,0,1-.1,1.4-.1,1.5-.2,3.3-.3,4.7-.5,.2,0,.3,0,.5-.1h.2c.1,0,.3,.1,.6,.3,.2,.1,.3,.3,.3,.4,0,0,0,.1-.1,.2s-.2,.4-.3,.7c-.4,.9-.9,1.9-1.6,2.8-.7,.9-1.7,1.7-3.1,2.3h-.1c-.1,0-.2,0-.2-.1s0-.1,.1-.2c1.2-.8,2.1-1.7,2.7-2.6,.6-.9,1-1.8,1.4-2.9v-.1c-.2,.1-.3,.1-.4,.1h0Zm-5.1-2.4c.7,0,1.4-.1,2.2-.1,.6,0,1.2-.1,1.4-.2,.3,0,.4-.1,.5-.1s.1-.1,.3-.1,.5,0,.6,.2c.2,.1,.2,.2,.2,.4s-.1,.2-.5,.3c-1.3,.1-3.1,.3-4.1,.4h-.2c-.1,0-.2,0-.3-.1-.2-.2-.3-.5-.3-.5,0,0,.1-.2,.2-.2h0Z"/>
  <g id="_ラ" data-name=" ラ">
    <path class="cls-5" d="M40.1,85.3c2,0,3.6,1.6,3.6,3.6s-1.6,3.6-3.6,3.6-3.6-1.6-3.6-3.6,1.7-3.6,3.6-3.6Z"/>
    <path class="cls-5" d="M76.3,28.1h1.1l1.2,1.8,1.2-1.8h1.1l-1.8,2.5,1.8,2.7h-1.1l-1.3-2-1.3,2h-1.1l1.8-2.7s-1.6-2.5-1.6-2.5Z"/>
    <polyline class="cls-7" points="66.9 40.1 88.9 39 83.7 51 86.9 47.5"/>
    <g>
      <circle class="cls-4" cx="30.9" cy="32.4" r="5.2"/>
      <path class="cls-1" d="M31.8,35.9h-1.4v-4.8h-1.6v-.9c.4,0,.7,0,.9-.1,.3-.1,.5-.2,.7-.4,.1-.1,.2-.3,.3-.5,0-.1,.1-.2,.1-.3h1.1v7h-.1Z"/>
    </g>
    <g>
      <circle class="cls-4" cx="22.4" cy="50.2" r="5.2"/>
      <path class="cls-1" d="M23.1,47.5c-.2-.2-.4-.3-.7-.3-.4,0-.7,.2-.9,.5-.1,.2-.1,.5-.2,.9h-1.3c0-.6,.1-1.1,.3-1.4,.4-.7,1-1,2-1,.7,0,1.3,.2,1.8,.6,.4,.4,.7,1,.7,1.6,0,.5-.2,1-.5,1.4-.2,.3-.5,.6-1,.9l-.6,.4c-.3,.2-.6,.4-.7,.5s-.2,.2-.3,.4h3.1v1.2h-4.8c0-.5,.1-1,.3-1.4,.2-.5,.7-1,1.4-1.5,.6-.5,1-.8,1.2-1,.3-.3,.4-.6,.4-1,.1-.3,0-.6-.2-.8Z"/>
    </g>
  </g>
</svg>