<?xml version="1.0" encoding="UTF-8"?>
<svg id="_レイヤー_1" data-name=" レイヤー 1" xmlns="http://www.w3.org/2000/svg" viewBox="0 0 110.8 127.1">
  <defs>
    <style>
      .cls-1 {
        fill: #fff;
      }

      .cls-2 {
        fill: #333330;
      }

      .cls-3 {
        fill: #ccc;
      }

      .cls-4 {
        fill: #d83523;
      }

      .cls-5 {
        fill: #898880;
      }

      .cls-6 {
        fill: #fbfbf9;
        stroke: #b0afa7;
        stroke-width: .8px;
      }

      .cls-7 {
        stroke: #e7211a;
        stroke-width: .5px;
      }

      .cls-7, .cls-8 {
        fill: none;
      }

      .cls-8 {
        stroke: #d8d6cf;
        stroke-dasharray: 0 0 0 0 0 0 3 3;
        stroke-width: .4px;
      }
    </style>
  </defs>
  <path class="cls-6" d="M3.4,.4H107.4c1.7,0,3,1.3,3,3V107.4c0,1.7-1.3,3-3,3H3.4c-1.7,0-3-1.3-3-3V3.4c0-1.7,1.3-3,3-3Z"/>
  <line class="cls-8" x1="55.4" y1=".4" x2="55.4" y2="110.4"/>
  <line class="cls-8" x1=".4" y1="55.4" x2="110.4" y2="55.4"/>
  <path class="cls-3" d="M70.8,37.5c2.2-.1,3.6-.4,4.1-.7s1-.5,1.5-.5c.8,0,2.2,.6,5.1,2.6,1.2,.9,1.9,1.7,1.9,2.6,0,.6-.2,1.2-.7,1.8-.6,.8-1.1,1.5-1.8,3.4-1.8,6.5-3.4,13-5.4,19.9,.6,.1,1.1,.4,1.4,.6,.7,.5,1,1.3,1,1.9,0,1.3-.7,2-2.2,2-13.4,.1-24.7,.7-37.3,1.9,0,2.2-.3,3.4-2.1,3.4-.8,0-1.8-.4-2.3-1.8-.8-1.8-1-3.5-1.2-6.3-.6-6.9-1.6-16.2-2.4-21.6-.4-3-1.1-5.3-1.7-6.2-.5-.8-.8-1.3-.8-1.8,0-.6,.5-1.1,1.4-1.1,1,0,2.6,.8,5.6,2.6,13.6-1.1,26.4-2.2,35.9-2.7Zm2.2,4.2c-10.2,.3-25.4,1.6-37,3,.8,8,1.3,15,2.1,24.1,10.8-1,22.5-1.7,32.4-2.1,2.1-10.1,3.4-17.8,4.2-23.4,.1-.6,.1-.7,.1-.9,0-.6-.3-.7-1.2-.7h-.6Z"/>
  <path class="cls-2" d="M58.9,121.2c.3,0,.5-.1,.6-.1s.1-.1,.2-.1,.3,.1,.8,.4c.2,.1,.3,.3,.3,.4s0,.2-.1,.3-.2,.2-.3,.5c-.3,1-.5,1.9-.8,3,.1,0,.2,.1,.2,.1,.1,.1,.2,.2,.2,.3,0,.2-.1,.3-.3,.3-2,0-3.7,.1-5.6,.3,0,.3,0,.5-.3,.5-.1,0-.3-.1-.3-.3-.1-.3-.2-.5-.2-.9-.1-1-.2-2.4-.4-3.2-.1-.4-.2-.8-.3-.9s-.1-.2-.1-.3,.1-.2,.2-.2,.4,.1,.8,.4c2.1-.2,4-.4,5.4-.5h0Zm.3,.7c-1.5,0-3.8,.2-5.5,.4,.1,1.2,.2,2.3,.3,3.6,1.6-.2,3.4-.3,4.9-.3,.3-1.5,.5-2.7,.6-3.5v-.1c0-.07-.1-.1-.3-.1h0Z"/>
  <g id="_ロ" data-name=" ロ">
    <path class="cls-5" d="M78,72.9h1.1l1.2,1.8,1.2-1.8h1.1l-1.8,2.5,1.8,2.7h-1.1l-1.3-2-1.3,2h-1.1l1.8-2.7s-1.6-2.5-1.6-2.5Z"/>
    <g>
      <circle class="cls-4" cx="21.9" cy="39.3" r="5.2"/>
      <path class="cls-1" d="M22.8,42.8h-1.4v-4.8h-1.6v-.9c.4,0,.7,0,.9-.1,.3-.1,.5-.2,.7-.4,.1-.1,.2-.3,.3-.5,0-.1,.1-.2,.1-.3h1.1v7h-.1Z"/>
    </g>
    <g>
      <circle class="cls-4" cx="38.1" cy="33.3" r="5.2"/>
      <path class="cls-1" d="M38.8,30.6c-.2-.2-.4-.3-.7-.3-.4,0-.7,.2-.9,.5-.1,.2-.1,.5-.2,.9h-1.3c0-.6,.1-1.1,.3-1.4,.4-.7,1-1,2-1,.7,0,1.3,.2,1.8,.6,.4,.4,.7,1,.7,1.6,0,.5-.2,1-.5,1.4-.2,.3-.5,.6-1,.9l-.5,.4c-.3,.2-.6,.4-.7,.5s-.2,.2-.3,.4h3.1v1.2h-4.8c0-.5,.1-1,.3-1.4,.2-.5,.7-1,1.4-1.5,.6-.5,1-.8,1.2-1,.3-.3,.4-.6,.4-1,0-.3-.1-.6-.3-.8Z"/>
    </g>
    <g>
      <circle class="cls-4" cx="40.7" cy="83.3" r="5.2"/>
      <path class="cls-1" d="M39.9,81.2c-.2,.2-.2,.5-.2,.8h-1.3c0-.3,.1-.7,.2-1,.1-.3,.3-.5,.5-.8,.2-.2,.4-.3,.6-.4s.6-.1,.9-.1c.7,0,1.2,.2,1.6,.5,.4,.3,.6,.8,.6,1.4,0,.4-.1,.8-.4,1-.2,.2-.3,.3-.5,.4,.1,0,.3,.1,.5,.3,.4,.3,.5,.8,.5,1.3,0,.6-.2,1.1-.6,1.6s-1,.7-1.8,.7c-1,0-1.7-.3-2.1-1-.2-.3-.3-.8-.3-1.4h1.4c0,.3,0,.5,.1,.7,.2,.3,.5,.5,.9,.5,.3,0,.5-.1,.7-.3s.3-.5,.3-.8c0-.5-.2-.8-.6-.9-.2-.1-.5-.1-1-.1v-1c.4,0,.8,0,.9-.1,.3-.1,.5-.4,.5-.8,0-.3-.1-.5-.2-.7-.2-.2-.4-.3-.7-.3-.1,.2-.4,.3-.5,.5Z"/>
    </g>
    <path class="cls-5" d="M71.4,73h1.1l1.2,1.8,1.2-1.8h1.1l-1.7,2.5,1.8,2.7h-1.1l-1.3-1.9-1.2,1.9h-1.1l1.8-2.7-1.8-2.5Z"/>
    <path class="cls-5" d="M27.4,73h1.1l1.2,1.8,1.2-1.8h1.1l-1.7,2.5,1.8,2.7h-1.1l-1.3-1.9-1.2,1.9h-1.1l1.8-2.7s-1.8-2.5-1.8-2.5Z"/>
    <polyline class="cls-7" points="62.4 33.7 87.8 32.4 80.3 71.6 82.4 68.9"/>
    <polyline class="cls-7" points="39.3 75.6 67.8 74.6 64.5 73"/>
  </g>
</svg>