<?xml version="1.0" encoding="UTF-8"?>
<svg id="_レイヤー_1" data-name=" レイヤー 1" xmlns="http://www.w3.org/2000/svg" viewBox="0 0 110.8 128">
  <defs>
    <style>
      .cls-1 {
        fill: #fff;
      }

      .cls-2 {
        fill: #333330;
      }

      .cls-3 {
        fill: #ccc;
      }

      .cls-4 {
        fill: #d83523;
      }

      .cls-5 {
        fill: #898880;
      }

      .cls-6 {
        fill: #fbfbf9;
        stroke: #b0afa7;
        stroke-width: .8px;
      }

      .cls-7 {
        fill: none;
        stroke: #d8d6cf;
        stroke-dasharray: 0 0 0 0 0 0 3 3;
        stroke-width: .4px;
      }
    </style>
  </defs>
  <path class="cls-6" d="M3.4,.4H107.4c1.7,0,3,1.3,3,3V107.4c0,1.7-1.3,3-3,3H3.4c-1.7,0-3-1.3-3-3V3.4c0-1.7,1.3-3,3-3Z"/>
  <line class="cls-7" x1="55.4" y1=".4" x2="55.4" y2="110.4"/>
  <line class="cls-7" x1=".4" y1="55.4" x2="110.4" y2="55.4"/>
  <path class="cls-3" d="M42.8,37.4c0-.8,.6-1.3,1.5-1.3,1.3,0,3.8,1.4,5.5,2.9,.8,.6,1,1.3,1,1.9,0,.2,0,.5-.1,.7-.5,1.7-.6,3.9-.8,5.9-1.4,13.8-6.4,26.5-14.1,32.5-.3,.2-.6,.4-1,.4-.6,0-1-.4-1-1,0-.3,.1-.6,.4-1,6.6-9.6,9.3-17.9,10.2-31.9,.07-.93,.1-1.5,.1-1.7,0-3.2-.6-5-1.5-6.6,0-.2-.2-.5-.2-.8Zm18.9-9.7c0-.5,.5-.9,1.3-.9,.6,0,2.6,.6,4.9,2,1.6,1,2.3,1.8,2.3,2.6,0,.6-.1,1-.3,1.5-.3,.7-.7,1.9-.9,5.5-.2,6.6-.3,19.9-.4,36.2,10.8-6.6,16.9-12.7,23.7-20.9,.2-.3,.6-.5,1-.5,.6,0,1,.2,1,1,0,.2-.1,.5-.2,.8-6.1,10.8-13,17.4-22.9,24.6-1.4,1-1.9,1.6-3,2.6-.4,.4-.9,.7-1.4,.7s-1-.2-1.8-.9c-1.4-1.2-2.2-2.9-2.2-3.5,0-.4,.1-.9,.3-1.2,.4-.6,.4-1.1,.5-3.8,.2-5.3,.2-12,.2-18.6s-.1-13.3-.2-18.2c0-2.9-.3-5.5-1.2-7.1-.6-.8-.7-1.3-.7-1.9h0Z"/>
  <path class="cls-2" d="M53.2,121.2c0-.1,.1-.2,.2-.2,.2,0,.6,.2,.8,.4,.1,.1,.2,.2,.2,.3v.1c-.1,.3-.1,.6-.1,.9-.2,2.1-1,4-2.1,4.9l-.1,.1c-.1,0-.1-.1-.1-.1,0,0,0-.1,.1-.2,1-1.4,1.4-2.7,1.5-4.8v-.3c0-.5-.1-.7-.2-1-.13,0-.2-.03-.2-.1Zm2.9-1.4c0-.1,.1-.1,.2-.1s.4,.1,.7,.3c.2,.1,.3,.3,.3,.4v.2c0,.1-.1,.3-.1,.8,0,1,0,3-.1,5.4,1.6-1,2.5-1.9,3.5-3.1l.1-.1c.07,0,.1,.03,.1,.1v.1c-.9,1.6-2,2.6-3.4,3.7-.2,.1-.3,.2-.4,.4-.07,.07-.13,.1-.2,.1-.1,0-.2,0-.3-.1-.2-.2-.3-.4-.3-.5v-.2c.1-.1,.1-.2,.1-.6v-5.5c0-.4,0-.8-.2-1.1v-.2h0Z"/>
  <g id="_ル" data-name=" ル">
    <path class="cls-5" d="M29.7,79.8c2,0,3.6,1.6,3.6,3.6s-1.6,3.6-3.6,3.6-3.6-1.6-3.6-3.6,1.6-3.6,3.6-3.6Z"/>
    <path class="cls-5" d="M97.5,45.1c2,0,3.6,1.6,3.6,3.6s-1.6,3.6-3.6,3.6-3.6-1.6-3.6-3.6,1.6-3.6,3.6-3.6Z"/>
    <g>
      <circle class="cls-4" cx="45.8" cy="27.2" r="5.2"/>
      <path class="cls-1" d="M46.6,30.7h-1.4v-4.8h-1.6v-.9c.4,0,.7,0,.9-.1,.3-.1,.5-.2,.7-.4,.1-.1,.2-.3,.3-.5,0-.1,.1-.2,.1-.3h1.1v7s-.1,0-.1,0Z"/>
    </g>
    <g>
      <circle class="cls-4" cx="66.4" cy="19.7" r="5.2"/>
      <path class="cls-1" d="M67.1,17c-.2-.2-.4-.3-.7-.3-.4,0-.7,.2-.9,.5-.1,.2-.1,.5-.2,.9h-1.3c0-.6,.1-1.1,.3-1.4,.4-.7,1-1,2-1,.7,0,1.3,.2,1.8,.6,.4,.4,.7,1,.7,1.6,0,.5-.2,1-.5,1.4-.2,.3-.5,.6-1,.9l-.6,.4c-.3,.2-.6,.4-.7,.5s-.2,.2-.3,.4h3.1v1.2h-4.8c0-.5,.1-1,.3-1.4,.2-.5,.7-1,1.4-1.5,.6-.5,1-.8,1.2-1,.3-.3,.4-.6,.4-1,.1-.3,0-.6-.2-.8Z"/>
    </g>
    <path class="cls-5" d="M68.7,85.2l-2,5.4h-.8l-2-5.4h.9l1.1,3.1c.2,.5,.3,.9,.4,1.4h0c.1-.4,.3-.9,.4-1.4l1.1-3.1h.9Z"/>
  </g>
</svg>