<?xml version="1.0" encoding="UTF-8"?>
<svg id="_レイヤー_1" data-name=" レイヤー 1" xmlns="http://www.w3.org/2000/svg" viewBox="0 0 110.8 128.4">
  <defs>
    <style>
      .cls-1 {
        fill: #fff;
      }

      .cls-2 {
        fill: #333330;
      }

      .cls-3 {
        fill: #ccc;
      }

      .cls-4 {
        fill: #d83523;
      }

      .cls-5 {
        fill: #898880;
      }

      .cls-6 {
        fill: #fbfbf9;
        stroke: #b0afa7;
        stroke-width: .8px;
      }

      .cls-7 {
        fill: none;
        stroke: #d8d6cf;
        stroke-dasharray: 0 0 0 0 0 0 3 3;
        stroke-width: .4px;
      }
    </style>
  </defs>
  <path class="cls-6" d="M3.4,.4H107.4c1.7,0,3,1.3,3,3V107.4c0,1.7-1.3,3-3,3H3.4c-1.7,0-3-1.3-3-3V3.4c0-1.7,1.3-3,3-3Z"/>
  <line class="cls-7" x1="55.4" y1=".4" x2="55.4" y2="110.4"/>
  <line class="cls-7" x1=".4" y1="55.4" x2="110.4" y2="55.4"/>
  <path class="cls-3" d="M68.1,34.2c-.1-3.4,.1-5.8-1.3-8.2-.2-.3-.3-.7-.3-1,0-.7,.6-1,1.3-1,.9,0,3.1,.9,5.2,2.2,1,.6,1.4,1.4,1.4,2,0,.4-.1,.6-.2,1-.4,.8-.6,1.8-.6,4.7,0,2.5-.1,4.7-.2,7.4,2.6-.2,4.4-.4,5.8-.7,1.5-.3,2.6-.6,3.5-.6,1,0,1.9,.4,2.7,.9,1.4,.9,2.3,1.8,2.3,3,0,.8-.4,1.4-3.2,1.5-4.4,.2-7.8,.2-11.4,.4-1.5,24-8.2,34.6-19.7,41.1-.3,.2-.6,.2-.9,.2-.6,0-1-.2-1-1,0-.2,.1-.5,.3-.7,8.3-7.4,14.6-16.5,15.8-39.4-3.8,.2-8.4,.6-12.7,1.1-3.9,.5-7.6,.9-10.9,1.3,.1,2.8,.2,5.9,.2,9.9s-.7,4.7-2.2,4.7c-1.7,0-2.9-1.4-2.9-4,0-1.8-.1-3.8-.1-5.7,0-1.3,0-2.7-.1-4.2-1.1,.2-2.2,.3-3.1,.5-2.1,.4-4.3,.8-6.5,1.3-.4,.1-.9,.2-1.3,.2s-.8-.2-1.4-.6c-1.1-.8-2.6-2.7-2.6-3.2,0-.3,.3-.6,1.1-.6,1.4-.1,2.7-.3,4.6-.6,2.8-.4,5.9-.9,9-1.3-.1-3-.1-6-.2-8.2-.2-3.8-.6-5.3-1.9-6.9-.3-.4-.5-.6-.5-.9,0-.6,.6-1,1.2-1,1,0,3.4,.6,5.2,1.8,1.2,.7,1.8,1.5,1.8,2.4,0,.5-.1,1-.2,1.3-.4,.9-.4,2.4-.4,4.5,0,1.7,0,3.9,.1,6.2,8.2-1,16.6-1.9,24-2.6v-7.2s.3,0,.3,0Z"/>
  <path class="cls-2" d="M58.5,120.7c0-.5,0-.9-.2-1.2v-.2c0-.1,.1-.2,.2-.2s.5,.1,.8,.3c.1,.1,.2,.2,.2,.3v.1c-.1,.1-.1,.3-.1,.7v1.1c.4,0,.7-.1,.9-.1s.4-.1,.5-.1,.3,.1,.4,.1c.2,.1,.3,.3,.3,.4s-.1,.2-.5,.2c-.7,0-1.2,0-1.7,.1-.2,3.6-1.2,5.2-3,6.2h-.1c-.07,0-.1-.03-.1-.1v-.1c1.2-1.1,2.2-2.5,2.4-5.9-.6,0-1.3,.1-1.9,.2-.6,.1-1.1,.1-1.6,.2v1.5c0,.6-.1,.7-.3,.7-.3,0-.4-.2-.4-.6v-1.5c-.2,0-.3,0-.5,.1-.3,.1-.6,.1-1,.2h-.2c-.07,0-.13-.03-.2-.1-.2-.1-.4-.4-.4-.5,0,0,0-.1,.2-.1s.4,0,.7-.1c.4-.1,.9-.1,1.3-.2v-1.2c0-.6-.1-.8-.3-1,0-.1-.1-.1-.1-.1,0-.1,.1-.1,.2-.1s.5,.1,.8,.3c.2,.1,.3,.2,.3,.4v.2c-.1,.1-.1,.4-.1,.7v.9c1.2-.2,2.5-.3,3.6-.4v-1.1h-.1Z"/>
  <g id="_サ" data-name=" サ">
    <path class="cls-5" d="M47.2,85.3c2,0,3.6,1.6,3.6,3.6s-1.6,3.6-3.6,3.6-3.6-1.6-3.6-3.6,1.6-3.6,3.6-3.6Z"/>
    <g>
      <circle class="cls-4" cx="16.8" cy="48.6" r="5.3"/>
      <path class="cls-1" d="M17.7,52.2h-1.4v-4.9h-1.7v-.9c.4,0,.7,0,.9-.1,.3-.1,.5-.2,.7-.4,.1-.1,.2-.3,.3-.5,0-.1,.1-.2,.1-.3h1.2v7.1s-.1,0-.1,0Z"/>
    </g>
    <g>
      <circle class="cls-4" cx="39.6" cy="20.5" r="5.3"/>
      <path class="cls-1" d="M40.3,17.8c-.2-.2-.4-.3-.7-.3-.4,0-.7,.2-.9,.5-.1,.2-.1,.5-.2,.9h-1.4c0-.6,.1-1.1,.3-1.5,.4-.7,1-1.1,2-1.1,.7,0,1.3,.2,1.8,.6,.4,.4,.7,1,.7,1.6,0,.5-.2,1-.5,1.4-.2,.3-.5,.6-1,.9l-.6,.4c-.3,.2-.6,.4-.7,.5s-.2,.2-.3,.4h3.1v1.2h-4.8c0-.5,.1-1,.3-1.4,.2-.5,.7-1,1.4-1.5,.6-.5,1.1-.8,1.2-1,.3-.3,.4-.6,.4-1,.1-.1,0-.4-.1-.6Z"/>
    </g>
    <g>
      <circle class="cls-4" cx="70.4" cy="17.3" r="5.3"/>
      <path class="cls-1" d="M69.6,15.1c-.2,.2-.2,.5-.2,.8h-1.3c0-.4,.1-.7,.2-1s.3-.5,.5-.8c.2-.2,.4-.3,.6-.4s.6-.1,.9-.1c.7,0,1.2,.2,1.6,.5,.4,.4,.6,.8,.6,1.4,0,.4-.1,.8-.4,1.1-.2,.2-.3,.3-.5,.4,.1,0,.3,.1,.5,.3,.4,.3,.5,.8,.5,1.3,0,.6-.2,1.1-.6,1.6s-1,.7-1.8,.7c-1,0-1.7-.3-2.1-1-.2-.3-.3-.8-.3-1.4h1.4c0,.3,0,.5,.1,.7,.2,.3,.5,.5,.9,.5,.3,0,.5-.1,.7-.3,.2-.2,.3-.5,.3-.8,0-.5-.2-.8-.6-.9-.2-.1-.6-.1-1-.1v-1c.5,0,.8-.1,.9-.1,.3-.1,.5-.4,.5-.8,0-.3-.1-.5-.2-.7s-.4-.3-.7-.3c-.1,0-.3,.2-.5,.4Z"/>
    </g>
    <path class="cls-5" d="M89,39.8h1.1l1.2,1.8,1.2-1.8h1.1l-1.8,2.5,1.8,2.7h-1.1l-1.3-2-1.3,2h-1.1l1.8-2.7s-1.6-2.5-1.6-2.5Z"/>
    <path class="cls-5" d="M39,64.2h1.1l1.2,1.8,1.2-1.8h1.1l-1.8,2.5,1.8,2.7h-1.1l-1.3-2-1.3,2h-1.1l1.8-2.7s-1.6-2.5-1.6-2.5Z"/>
  </g>
</svg>