<?xml version="1.0" encoding="UTF-8"?>
<svg id="_レイヤー_1" data-name=" レイヤー 1" xmlns="http://www.w3.org/2000/svg" viewBox="0 0 110.8 127.9">
  <defs>
    <style>
      .cls-1 {
        fill: #fff;
      }

      .cls-2 {
        fill: #333330;
      }

      .cls-3 {
        fill: #ccc;
      }

      .cls-4 {
        fill: #d83523;
      }

      .cls-5 {
        fill: #898880;
      }

      .cls-6 {
        fill: #fbfbf9;
        stroke: #b0afa7;
        stroke-width: .8px;
      }

      .cls-7 {
        stroke: #e7211a;
        stroke-width: .5px;
      }

      .cls-7, .cls-8 {
        fill: none;
      }

      .cls-8 {
        stroke: #d8d6cf;
        stroke-dasharray: 0 0 0 0 0 0 3 3;
        stroke-width: .4px;
      }
    </style>
  </defs>
  <path class="cls-6" d="M3.4,.4H107.4c1.7,0,3,1.3,3,3V107.4c0,1.7-1.3,3-3,3H3.4c-1.7,0-3-1.3-3-3V3.4c0-1.7,1.3-3,3-3Z"/>
  <line class="cls-8" x1="55.4" y1=".4" x2="55.4" y2="110.4"/>
  <line class="cls-8" x1=".4" y1="55.4" x2="110.4" y2="55.4"/>
  <path class="cls-3" d="M44.8,33.4c0-3-.2-5.3-1.3-7.2-.2-.3-.2-.6-.2-.8,0-.6,.6-.9,1-.9,.8,0,3.9,1.3,5.9,2.8,.8,.6,1.1,1.2,1.1,2,0,.5-.1,1-.3,1.5-.6,1.5-.8,2.7-.9,4.5-.2,3.4-.2,5.8-.3,9.2,7.6-2.4,15.8-4.8,23.9-7.4,1.2-.4,2.4-.9,3.4-1.5,.6-.5,1.3-.8,2-.8,.5,0,3,.7,4.9,2.2,.8,.6,1.3,1.2,1.3,1.7s-.3,1-.9,1.7c-.8,.9-2,2.3-3.1,3.6-4.4,5.3-11.5,11.4-17.1,14.2-.2,.1-.4,.2-.6,.2-.6,0-1-.5-1-1,0-.3,.2-.6,.5-.9,4.9-4.6,10.3-10.6,12.8-14.9,.2-.2,.2-.4,.2-.6s-.1-.2-.2-.2c-.13,0-.3,.03-.5,.1-7.9,2.4-16.5,5.3-25.7,8.6,0,2.6-.1,5-.1,7.4s.1,4.6,.1,7c.1,7.2,3.3,9.4,9,9.7,1.2,.1,2.4,.1,3.5,.1,3.3,0,6.2-.2,7.3-.3,1.4-.2,3.5-.3,5.1-.8,.9-.3,1.8-.5,2.8-.5,.6,0,1.4,.1,2,.2,2.8,.7,4.1,1.6,4.1,3s-.7,2.1-3.5,2.5c-3.4,.5-8.6,.9-14,.9-2.3,0-4.7-.1-7-.2-8.3-.6-13.8-5-14.1-14.8-.1-3.1-.1-7.6-.1-12.4-3.3,1.2-6.5,2.4-9.6,3.6-1.4,.5-2.1,.9-2.7,.9-.3,0-.6-.1-1.4-.6-1.6-1-3.4-2.5-3.4-3.1,0-.3,.4-.6,1.2-.7,1.8-.3,3.4-.8,5.3-1.4,3.8-1.2,7.6-2.4,10.7-3.4v-13.2h-.1Z"/>
  <path class="cls-2" d="M54.4,121c0-.5,0-.8-.2-1.1v-.1c0-.1,.1-.1,.2-.1s.6,.2,.9,.4c.1,.1,.2,.2,.2,.3v.2c-.1,.2-.1,.4-.1,.7v1.4c1.1-.4,2.4-.7,3.6-1.1,.2-.1,.4-.1,.5-.2s.2-.1,.3-.1,.5,.1,.7,.3c.1,.1,.2,.2,.2,.3s0,.2-.1,.3-.3,.3-.5,.5c-.7,.8-1.7,1.7-2.6,2.1h-.1c-.1,0-.2-.1-.2-.2,0,0,0-.1,.1-.1,.7-.7,1.5-1.6,1.9-2.2v-.1h-.1c-1.2,.4-2.5,.8-3.8,1.3v2.2c0,1.1,.5,1.4,1.4,1.5h1.6c.2,0,.5,0,.8-.1,.1,0,.3-.1,.4-.1h.3c.4,.1,.6,.2,.6,.4s-.1,.3-.5,.4c-.5,.1-1.3,.1-2.1,.1h-1.1c-1.2-.1-2.1-.8-2.1-2.2v-1.9c-.5,.2-1,.4-1.4,.5-.2,.1-.3,.1-.4,.1,0,0-.1,0-.2-.1-.2-.2-.5-.4-.5-.5,0,0,.1-.1,.2-.1,.3,0,.5-.1,.8-.2,.6-.2,1.1-.4,1.6-.5v-2h-.3Z"/>
  <g id="_セ" data-name=" セ">
    <g id="_セ-2" data-name=" セ-2">
      <g>
        <circle class="cls-4" cx="21.6" cy="53.7" r="5.3"/>
        <path class="cls-1" d="M22.5,57.2h-1.4v-4.9h-1.7v-.9c.4,0,.7,0,.9-.1,.3-.1,.5-.2,.7-.4,.1-.1,.2-.3,.3-.5,0-.1,.1-.2,.1-.3h1.2v7.1s-.1,0-.1,0Z"/>
      </g>
      <g>
        <circle class="cls-4" cx="45.8" cy="17.3" r="5.3"/>
        <path class="cls-1" d="M46.5,14.7c-.2-.2-.4-.3-.7-.3-.4,0-.7,.2-.9,.5-.1,.2-.1,.5-.2,.9h-1.3c0-.6,.1-1.1,.3-1.5,.4-.7,1-1.1,2-1.1,.7,0,1.3,.2,1.8,.6,.4,.4,.7,1,.7,1.6,0,.5-.2,1-.5,1.4-.2,.3-.5,.6-1,.9l-.6,.4c-.3,.2-.6,.4-.7,.5s-.2,.2-.3,.4h3.1v1.2h-4.8c0-.5,.1-1,.3-1.4,.2-.5,.7-1,1.4-1.5,.6-.5,1.1-.8,1.2-1,.3-.3,.4-.6,.4-1,0-.2-.1-.5-.2-.6Z"/>
      </g>
      <path class="cls-5" d="M59.4,58c2,0,3.6,1.6,3.6,3.6s-1.6,3.6-3.6,3.6-3.6-1.6-3.6-3.6,1.6-3.6,3.6-3.6Z"/>
      <path class="cls-5" d="M84.9,73.8h1.1l1.2,1.8,1.2-1.8h1.1l-1.8,2.5,1.8,2.7h-1.1l-1.3-2-1.3,2h-1.1l1.8-2.7s-1.6-2.5-1.6-2.5Z"/>
      <path class="cls-7" d="M66.5,36.9l24.9-6.7s-4.6,9.3-6.5,12"/>
    </g>
    <path class="cls-7" d="M40.6,61.9s-.5,11.1,.5,13.8c.9,2.7,1.6,4.4,6,5.9s9.9,2,9.9,2l-3.6-2"/>
  </g>
</svg>