<?xml version="1.0" encoding="UTF-8"?>
<svg id="_レイヤー_1" data-name=" レイヤー 1" xmlns="http://www.w3.org/2000/svg" viewBox="0 0 110.8 128.8">
  <defs>
    <style>
      .cls-1 {
        fill: #fff;
      }

      .cls-2 {
        fill: #333330;
      }

      .cls-3 {
        fill: #ccc;
      }

      .cls-4 {
        fill: #d83523;
      }

      .cls-5 {
        fill: #898880;
      }

      .cls-6 {
        fill: #fbfbf9;
        stroke: #b0afa7;
        stroke-width: .8px;
      }

      .cls-7 {
        fill: none;
        stroke: #d8d6cf;
        stroke-dasharray: 0 0 0 0 0 0 3 3;
        stroke-width: .4px;
      }
    </style>
  </defs>
  <path class="cls-6" d="M3.4,.4H107.4c1.7,0,3,1.3,3,3V107.4c0,1.7-1.3,3-3,3H3.4c-1.7,0-3-1.3-3-3V3.4c0-1.7,1.3-3,3-3Z"/>
  <line class="cls-7" x1="55.4" y1=".4" x2="55.4" y2="110.4"/>
  <line class="cls-7" x1=".4" y1="55.4" x2="110.4" y2="55.4"/>
  <path class="cls-3" d="M45.2,31.3c0-3.9-.4-6.8-1.4-8.7-.2-.3-.2-.5-.2-.7,0-.5,.3-1,1-1,1,0,4.3,1.2,6.3,2.6,.8,.6,1.1,1.3,1.1,1.9,0,.5-.2,1-.5,1.5-.7,1.4-1.2,4.1-1.2,7.7,0,2.2-.1,5.4-.1,9.2,6.6,1,12.9,3.3,17.9,6.3,2.5,1.7,3.6,3.4,3.6,5.2,0,1.4-.9,2.4-2.3,2.4-1.1,0-2.2-.6-3.2-1.3-5.4-4.2-10.4-7.2-16-9.8,0,9.2,0,21,.1,31.5,0,5.3-1,6.6-2.4,6.6-1.6,0-2.4-.9-3.2-3.2-.4-1.2-.6-2.2-.6-3.1,0-.8,.2-1.5,.4-2.2,.2-.6,.3-2.6,.4-4.7,.2-9.8,.2-20.5,.2-29.2v-11h.1Z"/>
  <path class="cls-2" d="M53.6,120.7c0-.6-.1-1-.2-1.3v-.1c0-.07,.07-.1,.2-.1,.2,0,.6,.2,.9,.4,.1,.1,.2,.2,.2,.3s0,.2-.1,.2c-.1,.2-.2,.6-.2,1.2v1.4c1,.2,1.9,.5,2.7,.9,.4,.3,.5,.5,.5,.8,0,.2-.1,.4-.3,.4s-.3-.1-.5-.2c-.8-.6-1.6-1.1-2.4-1.5v4.7c0,.8-.1,1-.4,1-.2,0-.4-.1-.5-.5-.1-.2-.1-.3-.1-.5,0-.1,0-.2,.1-.3,0-.1,0-.4,.1-.7v-6.1Z"/>
  <g id="_ト" data-name=" ト">
    <g>
      <circle class="cls-4" cx="48" cy="13.9" r="5.3"/>
      <path class="cls-1" d="M48.9,17.5h-1.4v-4.9h-1.7v-.9c.4,0,.7,0,.9-.1,.3-.1,.5-.2,.7-.4,.1-.1,.2-.3,.3-.5,0-.1,.1-.2,.1-.3h1.2v7.1h-.1Z"/>
    </g>
    <g>
      <circle class="cls-4" cx="38.5" cy="43.8" r="5.3"/>
      <path class="cls-1" d="M39.2,41.1c-.2-.2-.4-.3-.7-.3-.4,0-.7,.2-.9,.5-.1,.2-.1,.5-.2,.9h-1.4c0-.6,.1-1.1,.3-1.5,.4-.7,1-1.1,2-1.1,.7,0,1.3,.2,1.8,.6,.4,.4,.7,1,.7,1.6,0,.5-.2,1-.5,1.4-.2,.3-.5,.6-1,.9l-.6,.4c-.3,.2-.6,.4-.7,.5-.1,.1-.2,.2-.3,.4h3.1v1.2h-4.8c0-.5,.1-1,.3-1.4,.2-.5,.7-1,1.4-1.5,.6-.5,1.1-.8,1.2-1,.3-.3,.4-.6,.4-1,.1-.1,0-.4-.1-.6Z"/>
    </g>
    <path class="cls-5" d="M72.5,56.8h1.1l1.2,1.8,1.2-1.8h1.1l-1.7,2.6,1.8,2.7h-1.1l-1.3-2-1.3,2h-1.1l1.8-2.7-1.7-2.6Z"/>
    <path class="cls-5" d="M44.8,86.3h1.1l1.2,1.8,1.2-1.8h1.1l-1.8,2.5,1.8,2.7h-1l-1.3-2-1.3,2h-1.1l1.8-2.7-1.7-2.5Z"/>
  </g>
</svg>