<?xml version="1.0" encoding="UTF-8"?>
<svg id="_レイヤー_1" data-name=" レイヤー 1" xmlns="http://www.w3.org/2000/svg" viewBox="0 0 110.8 128.1">
  <defs>
    <style>
      .cls-1 {
        fill: #fff;
      }

      .cls-2 {
        fill: #333330;
      }

      .cls-3 {
        fill: #ccc;
      }

      .cls-4 {
        fill: #d83523;
      }

      .cls-5 {
        fill: #898880;
      }

      .cls-6 {
        fill: #fbfbf9;
        stroke: #b0afa7;
        stroke-width: .8px;
      }

      .cls-7 {
        stroke: #e7211a;
        stroke-width: .5px;
      }

      .cls-7, .cls-8 {
        fill: none;
      }

      .cls-8 {
        stroke: #d8d6cf;
        stroke-dasharray: 0 0 0 0 0 0 3 3;
        stroke-width: .4px;
      }
    </style>
  </defs>
  <path class="cls-6" d="M3.4,.4H107.4c1.7,0,3,1.3,3,3V107.4c0,1.7-1.3,3-3,3H3.4c-1.7,0-3-1.3-3-3V3.4c0-1.7,1.3-3,3-3Z"/>
  <line class="cls-8" x1="55.4" y1=".4" x2="55.4" y2="110.4"/>
  <line class="cls-8" x1=".4" y1="55.4" x2="110.4" y2="55.4"/>
  <path class="cls-3" d="M39.4,51.5c.1,1.2,.1,1.4,.1,1.7,0,2.2-.9,3.1-3,3.1-1.8,0-2.2-1.8-2.4-3.4-.6-8.5-.9-10.2-1.4-13.2-.2-1.3-.5-3.2-1.9-5.1-.3-.4-.4-.7-.4-1,0-.6,.6-1,1.2-1,.7,0,3.3,1,5.7,2.6,13-1.3,25.2-2.2,35.8-2.8,1.4-.1,2.8-.2,3.8-.7,.4-.2,.9-.4,1.4-.4,.7,0,2.5,.9,4.2,2.2,1.8,1.4,2.6,2.2,2.6,3.4,0,.4-.2,1-.6,1.4-1,1.1-1.6,2-2.3,5.2-2.4,9.7-6.5,18.2-11.8,25.1-5.2,6.9-11.8,12.3-19.2,16.2-.3,.2-.5,.2-.6,.2-.6,0-1.2-.4-1.2-1.1,0-.5,.1-.7,.6-1.1,6.3-4.7,12-10.6,16.5-17.3,5.4-8.2,9.1-17.5,10.4-27.3,.1-.7,.1-.9,.1-1,0-.7-.2-1-1.2-1-14.6,.6-26.1,1.8-37.4,3,.2,2.4,.6,7.8,1,12.3Z"/>
  <path class="cls-2" d="M53.6,123.2v.3c0,.3-.1,.5-.4,.5s-.3-.3-.4-.5c-.1-1.3-.1-1.5-.2-2,0-.2-.1-.5-.3-.8,0-.1-.1-.1-.1-.2s.1-.2,.2-.2,.5,.2,.9,.4c1.9-.2,3.8-.3,5.4-.4,.2,0,.4,0,.6-.1,.1,0,.1-.1,.2-.1s.4,.1,.6,.3c.3,.2,.4,.3,.4,.5,0,.1,0,.2-.1,.2-.2,.2-.2,.3-.3,.8-.4,1.5-1,2.7-1.8,3.8-.8,1-1.8,1.8-2.9,2.4h-.1c-.1,0-.2-.1-.2-.2s0-.1,.1-.2c.9-.7,1.8-1.6,2.5-2.6,.8-1.2,1.4-2.6,1.6-4.1v-.2c0-.1,0-.2-.2-.2-2.2,.1-3.9,.3-5.6,.5,0,.6,.1,1.4,.1,2.1h0Z"/>
  <g id="_ワ" data-name=" ワ">
    <g id="_ワ-2" data-name=" ワ-2">
      <path class="cls-5" d="M44.8,83.1c2,0,3.6,1.6,3.6,3.6s-1.6,3.6-3.6,3.6-3.6-1.6-3.6-3.6,1.6-3.6,3.6-3.6Z"/>
      <path class="cls-5" d="M34.3,58.6h1.1l1.2,1.8,1.2-1.8h1.1l-1.8,2.5,1.8,2.7h-1.1l-1.3-2-1.3,2h-1.1l1.8-2.7s-1.6-2.5-1.6-2.5Z"/>
      <polyline class="cls-7" points="71.1 27.8 93.1 26.7 87.9 38.7 91.1 35.2"/>
      <g>
        <circle class="cls-4" cx="23.9" cy="32.9" r="5.2"/>
        <path class="cls-1" d="M24.8,36.4h-1.4v-4.8h-1.6v-.9c.4,0,.7,0,.9-.1,.3-.1,.5-.2,.7-.4,.1-.1,.2-.3,.3-.5,0-.1,.1-.2,.1-.3h1.1v7h-.1Z"/>
      </g>
      <g>
        <circle class="cls-4" cx="40.4" cy="26.2" r="5.2"/>
        <path class="cls-1" d="M41.1,23.5c-.2-.2-.4-.3-.7-.3-.4,0-.7,.2-.9,.5-.1,.2-.1,.5-.2,.9h-1.3c0-.6,.1-1.1,.3-1.4,.4-.7,1-1,2-1,.7,0,1.3,.2,1.8,.6,.4,.4,.7,1,.7,1.6,0,.5-.2,1-.5,1.4-.2,.3-.5,.6-1,.9l-.6,.4c-.3,.2-.6,.4-.7,.5-.1,.1-.2,.2-.3,.4h3.1v1.2h-4.8c0-.5,.1-1,.3-1.4,.2-.5,.7-1,1.4-1.5,.6-.5,1-.8,1.2-1,.3-.3,.4-.6,.4-1,.1-.3,0-.6-.2-.8Z"/>
      </g>
    </g>
    <polyline class="cls-7" points="29.1 38.7 30.9 54 28.1 50.8"/>
  </g>
</svg>