<?xml version="1.0" encoding="UTF-8"?>
<svg id="_レイヤー_1" data-name=" レイヤー 1" xmlns="http://www.w3.org/2000/svg" viewBox="0 0 110.8 128.5">
  <defs>
    <style>
      .cls-1 {
        fill: #fff;
      }

      .cls-2 {
        fill: #333330;
      }

      .cls-3 {
        fill: #ccc;
      }

      .cls-4 {
        fill: #d83523;
      }

      .cls-5 {
        fill: #898880;
      }

      .cls-6 {
        fill: #fbfbf9;
        stroke: #b0afa7;
        stroke-width: .8px;
      }

      .cls-7 {
        stroke: #e7211a;
        stroke-width: .5px;
      }

      .cls-7, .cls-8 {
        fill: none;
      }

      .cls-8 {
        stroke: #d8d6cf;
        stroke-dasharray: 0 0 0 0 0 0 3 3;
        stroke-width: .4px;
      }
    </style>
  </defs>
  <path class="cls-6" d="M3.4,.4H107.4c1.7,0,3,1.3,3,3V107.4c0,1.7-1.3,3-3,3H3.4c-1.7,0-3-1.3-3-3V3.4c0-1.7,1.3-3,3-3Z"/>
  <line class="cls-8" x1="55.4" y1=".4" x2="55.4" y2="110.4"/>
  <line class="cls-8" x1=".4" y1="55.4" x2="110.4" y2="55.4"/>
  <path class="cls-3" d="M54.1,54.3c2.6,10.6,4.3,17.6,6.7,27.6,.2,.9,.2,1.5,.2,2.1,0,1.7-.6,2.6-2.1,2.6-.9,0-1.6-.3-2.5-1.4-1.7-1.9-2-3.3-2-5.3,0-1.4-.2-3-1.3-7.8-1.4-5.7-2.9-12.6-4.6-19.9-.2-1.1-.5-2.2-.9-3.3-2.1,.6-4.1,1.2-5.8,1.8-4.2,1.4-6.1,2.2-7.1,2.7-.6,.3-1.1,.6-1.7,.6-.5,0-1.1-.2-2.1-.9-2-1.4-3.1-2.6-3.1-3.2s.3-1,.9-1c1.4-.2,4-.4,7-1.2,2-.6,5.8-1.4,11-2.7-.9-3.5-1.7-7-2.5-10.6-.9-3.4-2-6.2-3.3-7.9-.2-.2-.2-.5-.2-.7,0-.6,.3-1,1.2-1,.6,0,3.2,.5,5.9,1.6,1.3,.6,1.7,1.4,1.7,2.2s-.3,1-.3,2.2c0,1.3,.2,2.6,.5,4.3,.6,3,1.2,6,1.8,8.6,8.4-2.1,17.3-4.2,25.3-5.9,1.4-.3,2.2-.6,2.9-1.3,.3-.3,.8-.5,1.5-.5,.9,0,3.5,1.4,5.3,3.4,.6,.7,1.1,1.3,1.1,1.9,0,.5-.1,1-.7,1.5-.6,.4-1.8,1.2-2.8,2.2-4.4,5.2-9.9,10.4-16.5,14.4-.2,.2-.5,.2-.7,.2-.6,0-1-.3-1-.9,0-.3,.2-.7,.6-1,5.8-5.8,10.3-12,12.3-15.8,.2-.3,.2-.5,.2-.6s-.2-.2-.4-.2-.6,.1-.9,.2c-8.8,2.2-17.8,4.5-25.2,6.5,.6,2.2,1.1,4.6,1.6,6.5Z"/>
  <path class="cls-2" d="M55.8,123.7c.4,1.6,.6,2.6,1,4.1v.3c0,.3-.1,.4-.3,.4-.1,0-.2,0-.4-.2-.3-.3-.3-.5-.3-.8,0-.2,0-.5-.2-1.2-.2-.9-.4-1.9-.7-3,0-.2-.1-.3-.1-.5-.3,.1-.6,.2-.9,.3-.6,.2-.9,.3-1.1,.4-.1,0-.2,.1-.3,.1s-.2,0-.3-.1c-.3-.2-.5-.4-.5-.5s0-.1,.1-.2c.2,0,.6-.1,1.1-.2,.3-.1,.9-.2,1.6-.4-.1-.5-.3-1.1-.4-1.6-.1-.5-.3-.9-.5-1.2v-.1c0-.1,0-.2,.2-.2,.1,0,.5,.1,.9,.2,.2,.1,.3,.2,.3,.3v.3c0,.2,0,.4,.1,.6,.1,.5,.2,.9,.3,1.3,1.3-.3,2.6-.6,3.8-.9,.2,0,.3-.1,.4-.2,0,0,.1-.1,.2-.1s.5,.2,.8,.5c.1,.1,.2,.2,.2,.3s0,.2-.1,.2c-.1,.1-.3,.2-.4,.3-.7,.8-1.5,1.6-2.5,2.2h-.1c-.1,0-.2,0-.2-.1,0,0,0-.1,.1-.2,.9-.9,1.5-1.8,1.8-2.4v-.1h-.2c-1.3,.3-2.7,.7-3.8,1,.3,.8,.3,1.1,.4,1.4h0Z"/>
  <g id="_ヤ" data-name=" ヤ">
    <path class="cls-5" d="M62.4,58.1c2,0,3.6,1.6,3.6,3.6s-1.6,3.6-3.6,3.6-3.6-1.6-3.6-3.6,1.6-3.6,3.6-3.6Z"/>
    <path class="cls-5" d="M57.4,89h1.1l1.2,1.8,1.2-1.8h1.1l-1.8,2.5,1.8,2.7h-1.1l-1.3-2-1.3,2h-1.1l1.8-2.7s-1.6-2.5-1.6-2.5Z"/>
    <polyline class="cls-7" points="71.6 33.8 93.6 32.7 88.4 44.7 91.6 41.2"/>
    <g>
      <circle class="cls-4" cx="20.4" cy="50.5" r="5.3"/>
      <path class="cls-1" d="M21.3,54h-1.4v-4.9h-1.7v-.9c.4,0,.7,0,.9-.1,.3-.1,.5-.2,.7-.4,.1-.1,.2-.3,.3-.5,0-.1,.1-.2,.1-.3h1.2v7.1s-.1,0-.1,0Z"/>
    </g>
    <g>
      <circle class="cls-4" cx="41" cy="17.1" r="5.3"/>
      <path class="cls-1" d="M41.7,14.4c-.2-.2-.4-.3-.7-.3-.4,0-.7,.2-.9,.5-.1,.2-.1,.5-.2,.9h-1.4c0-.6,.1-1.1,.3-1.5,.4-.7,1-1.1,2-1.1,.7,0,1.3,.2,1.8,.6,.4,.4,.7,1,.7,1.6,0,.5-.2,1-.5,1.4-.2,.3-.5,.6-1,.9l-.6,.4c-.3,.2-.6,.4-.7,.5s-.2,.2-.3,.4h3.2v1.2h-4.8c0-.5,.1-1,.3-1.4,.2-.5,.7-1,1.4-1.5,.6-.5,1.1-.8,1.2-1,.3-.3,.4-.6,.4-1,0-.1,0-.4-.2-.6Z"/>
    </g>
  </g>
</svg>