<?xml version="1.0" encoding="UTF-8"?>
<svg id="_レイヤー_1" data-name=" レイヤー 1" xmlns="http://www.w3.org/2000/svg" viewBox="0 0 110.8 127.2">
  <defs>
    <style>
      .cls-1 {
        fill: #fff;
      }

      .cls-2 {
        fill: #333330;
      }

      .cls-3 {
        fill: #ccc;
      }

      .cls-4 {
        fill: #d83523;
      }

      .cls-5 {
        fill: #898880;
      }

      .cls-6 {
        fill: #fbfbf9;
        stroke: #b0afa7;
        stroke-width: .8px;
      }

      .cls-7 {
        stroke: #e7211a;
        stroke-width: .5px;
      }

      .cls-7, .cls-8 {
        fill: none;
      }

      .cls-8 {
        stroke: #d8d6cf;
        stroke-dasharray: 0 0 0 0 0 0 3 3;
        stroke-width: .4px;
      }
    </style>
  </defs>
  <path class="cls-6" d="M3.4,.4H107.4c1.7,0,3,1.3,3,3V107.4c0,1.7-1.3,3-3,3H3.4c-1.7,0-3-1.3-3-3V3.4c0-1.7,1.3-3,3-3Z"/>
  <line class="cls-8" x1="55.4" y1=".4" x2="55.4" y2="110.4"/>
  <line class="cls-8" x1=".4" y1="55.4" x2="110.4" y2="55.4"/>
  <path class="cls-3" d="M37.7,58.4c-1.1,.2-1.7,.3-2.2,.3-.4,0-.6-.1-1-.4-.8-.7-1.8-1.8-2.3-2.8-.1-.2-.2-.4-.2-.6,0-.3,.2-.6,.5-.6,2.4-.2,4-.3,5.9-.5,7.4-.7,19.5-1.9,30.4-2.8,.5-4.5,.9-8.8,1.1-11.7,.1-1,.1-1.1,.1-1.3,0-.8-.2-1-1-1-.2,0-.4,0-1.5,.1-9,.6-21,1.8-29.2,2.8-.5,.1-.9,.2-1.2,.2-.4,0-.9-.2-1.3-.5-.6-.6-1.7-1.8-2.2-2.7-.2-.3-.3-.6-.3-.7,0-.3,.2-.6,.8-.6,1.8-.1,3.6-.2,6.3-.4,8.6-.7,16-1.4,25-2.3,1.7-.2,3.1-.6,4.2-1,.5-.2,.8-.3,1.2-.3s.9,.1,1.4,.4c1.8,1,3.2,2.2,4.3,3.4,.4,.5,.8,1.1,.8,1.8s-.3,1.1-.8,1.6c-.7,.6-.9,1.8-1.1,4.2-.8,7-2.2,18.1-3.9,29.8,.2,.1,.4,.2,.6,.2,1.4,.8,1.4,1.7,1.4,2.7,0,.9-.8,1.5-2.2,1.5-1.8-.1-3.3-.2-5.2-.2-1.1,0-2.5,0-4,.1-7.4,.4-15,1-22,1.7-1.4,.2-3,.4-4.6,.6-.6,.1-.7,.1-1,.1-.5,0-.8-.1-1.2-.5-.9-1-1.6-2-2.1-3-.2-.3-.2-.4-.2-.6,0-.3,.3-.5,1-.6,9.7-.8,22.7-1.8,32.3-2.3,.8-.1,1.6-.1,2.2-.2,.7-5.4,1.4-11.2,2-16.9-11.4,.7-21,1.7-30.8,3Z"/>
  <path class="cls-2" d="M53.4,124.3h-.3c-.07,0-.1-.03-.1-.1-.1-.1-.3-.3-.3-.4v-.1s0-.1,.1-.1c.4,0,.6,0,.9-.1,1.1-.1,2.9-.3,4.6-.4,.1-.7,.1-1.3,.2-1.8v-.2c0-.1,0-.2-.2-.2h-.2c-1.4,.1-3.1,.3-4.4,.4h-.2c-.07,0-.13-.03-.2-.1-.1-.1-.3-.3-.3-.4v-.1s0-.1,.1-.1c.3,0,.5,0,.9-.1,1.3-.1,2.4-.2,3.8-.3,.3,0,.5-.1,.6-.2h.2c.07,0,.13,.03,.2,.1,.3,.2,.5,.3,.6,.5,.1,.1,.1,.2,.1,.3s0,.2-.1,.2c-.1,.1-.1,.3-.2,.6-.1,1-.3,2.7-.6,4.5h.1c.2,.1,.2,.3,.2,.4s-.1,.2-.3,.2h-1.4c-1.1,.1-2.2,.1-3.3,.3-.2,0-.4,.1-.7,.1h-.2c-.07,0-.13-.03-.2-.1-.1-.1-.2-.3-.3-.4v-.1s0-.1,.2-.1c1.5-.1,3.4-.3,4.8-.3h.3c.1-.8,.2-1.7,.3-2.5-1.8,.3-3.2,.5-4.7,.6Z"/>
  <g id="_ヨ" data-name=" ヨ">
    <g>
      <circle class="cls-4" cx="23.5" cy="77.7" r="5.3"/>
      <path class="cls-1" d="M22.7,75.4c-.2,.2-.2,.5-.2,.8h-1.3c0-.4,.1-.7,.2-1s.3-.5,.5-.8c.2-.2,.4-.3,.6-.4s.6-.1,.9-.1c.7,0,1.2,.2,1.6,.5,.4,.4,.6,.8,.6,1.4,0,.4-.1,.8-.4,1.1-.2,.2-.3,.3-.5,.4,.1,0,.3,.1,.5,.3,.4,.3,.5,.8,.5,1.3,0,.6-.2,1.1-.6,1.6s-1,.7-1.8,.7c-1,0-1.7-.3-2.1-1-.2-.3-.3-.8-.3-1.4h1.4c0,.3,0,.5,.1,.7,.2,.3,.5,.5,.9,.5,.3,0,.5-.1,.7-.3,.2-.2,.3-.5,.3-.8,0-.5-.2-.8-.6-.9-.2-.1-.6-.1-1-.1v-1c.5,0,.8-.1,.9-.1,.3-.1,.5-.4,.5-.8,0-.3-.1-.5-.2-.7s-.4-.3-.7-.3c-.1,.1-.3,.2-.5,.4Z"/>
    </g>
    <path class="cls-5" d="M62.2,56.4h1.1l1.2,1.8,1.2-1.8h1.1l-1.8,2.5,1.8,2.7h-1.1l-1.3-2-1.3,2h-1.1l1.8-2.7s-1.6-2.5-1.6-2.5Z"/>
    <path class="cls-5" d="M74,75.9h1.1l1.2,1.8,1.2-1.8h1.1l-1.8,2.5,1.8,2.7h-1.1l-1.3-2-1.3,2h-1.1l1.8-2.7s-1.6-2.5-1.6-2.5Z"/>
    <path class="cls-5" d="M66.2,79.1h1.1l1.2,1.8,1.2-1.8h1.1l-1.8,2.5,1.8,2.7h-1.1l-1.3-2-1.3,2h-1.1l1.8-2.7s-1.6-2.5-1.6-2.5Z"/>
    <g>
      <circle class="cls-4" cx="26.4" cy="38" r="5.3"/>
      <path class="cls-1" d="M27.3,41.5h-1.4v-4.9h-1.7v-.9c.4,0,.7,0,.9-.1,.3-.1,.5-.2,.7-.4,.1-.1,.2-.3,.3-.5,0-.1,.1-.2,.1-.3h1.2v7.1s-.1,0-.1,0Z"/>
    </g>
    <g>
      <circle class="cls-4" cx="23.6" cy="56.3" r="5.3"/>
      <path class="cls-1" d="M24.3,53.7c-.2-.2-.4-.3-.7-.3-.4,0-.7,.2-.9,.5-.1,.2-.1,.5-.2,.9h-1.4c0-.6,.1-1.1,.3-1.5,.4-.7,1-1.1,2-1.1,.7,0,1.3,.2,1.8,.6,.4,.4,.7,1,.7,1.6,0,.5-.2,1-.5,1.4-.2,.3-.5,.6-1,.9l-.6,.4c-.3,.2-.6,.4-.7,.5s-.2,.2-.3,.4h3.1v1.2h-4.8c0-.5,.1-1,.3-1.4,.2-.5,.7-1,1.4-1.5,.6-.5,1.1-.8,1.2-1,.3-.3,.4-.6,.4-1,.1-.2,0-.4-.1-.6Z"/>
    </g>
    <polyline class="cls-7" points="56.3 29.7 81.7 28.1 74.2 74.8 76.3 71.6"/>
  </g>
</svg>