<?xml version="1.0" encoding="UTF-8"?>
<svg id="_レイヤー_1" data-name=" レイヤー 1" xmlns="http://www.w3.org/2000/svg" viewBox="0 0 110.8 126.9">
  <defs>
    <style>
      .cls-1 {
        fill: #fff;
      }

      .cls-2 {
        fill: #333330;
      }

      .cls-3 {
        fill: #ccc;
      }

      .cls-4 {
        fill: #d83523;
      }

      .cls-5 {
        fill: #898880;
      }

      .cls-6 {
        fill: #fbfbf9;
        stroke: #b0afa7;
        stroke-width: .8px;
      }

      .cls-7 {
        stroke: #e7211a;
        stroke-width: .5px;
      }

      .cls-7, .cls-8 {
        fill: none;
      }

      .cls-8 {
        stroke: #d8d6cf;
        stroke-dasharray: 0 0 0 0 0 0 0 0 0 0 0 0;
        stroke-width: .4px;
      }
    </style>
  </defs>
  <path class="cls-6" d="M3.4,.4H107.4c1.7,0,3,1.3,3,3V107.4c0,1.7-1.3,3-3,3H3.4c-1.7,0-3-1.3-3-3V3.4C.4,1.7,1.7,.4,3.4,.4Z"/>
  <line class="cls-8" x1="55.4" y1=".4" x2="55.4" y2="110.4"/>
  <line class="cls-8" x1=".4" y1="55.4" x2="110.4" y2="55.4"/>
  <path class="cls-3" d="M79,66.9c1.8,0,3.5-.2,4.2-.5,.6-.2,1.2-.3,1.8-.3,.8,0,1.7,.2,2.6,.6,2.8,1,4.2,2.3,4.2,4,0,.9-.7,1.5-1.7,1.5-.6,0-1.2-.1-2-.2-3.3-.3-7.4-.5-11.6-.5-7.5,0-22.7,.8-30.6,1.8-6.1,.7-8.2,1-9.8,1.3-1,.2-2.6,.5-3.4,.7-.3,.1-.6,.2-1,.2-.6,0-1-.2-1.5-.7-1.4-1.4-2.2-3.1-2.2-3.5s.2-.6,.6-.6c2.6-.2,4.7-.5,6.9-.7,6.2-.7,13.3-1.4,20.3-2,3.2-.3,6.4-.4,9.8-.6,1.2-7.9,2.6-18.2,3.2-25.1,.1-1,.1-1.1,.1-1.3,0-.6-.1-.9-.6-.9-.13,0-.43,.03-.9,.1-6.9,.7-15,1.6-19.6,2.2-1.6,.2-2.2,.3-3.2,.6-.5,.1-.8,.2-1.1,.2-.6,0-1-.2-1.5-.7-1.3-1.4-2.4-3.6-2.4-4.1,0-.3,.2-.6,.7-.6,1.4,.1,2.6,.2,3.6,.2,.7,0,2.1-.1,4-.2,6.4-.5,14.8-1.2,18.7-1.6,1.2-.2,1.8-.5,2.6-1,.2-.2,.6-.2,.9-.2,1,0,1.8,.3,4.1,2.1,1.7,1.4,2.2,2.2,2.2,3.1,0,.6-.2,1-.5,1.4-.7,.9-1.2,1.5-1.4,2.9-1.1,7.5-2.2,15.2-3.2,23,2.4-.5,5-.6,7.7-.6h0Z"/>
  <path class="cls-2" d="M59.6,125.6c.3,0,.5,0,.6-.1h.3c.1,0,.3,0,.4,.1,.4,.2,.6,.3,.6,.6,0,.1-.1,.2-.3,.2h-.3c-.5,0-1.1-.1-1.7-.1-1.1,0-3.4,.1-4.6,.3-.9,.1-1.2,.2-1.5,.2-.1,0-.4,.1-.5,.1h-.1c-.1,0-.2,0-.2-.1-.2-.2-.3-.5-.3-.5,0-.07,.03-.1,.1-.1,.4,0,.7-.1,1-.1,.9-.1,2-.2,3-.3,.5,0,1-.1,1.5-.1,.2-1.2,.4-2.7,.5-3.8v-.2c0-.07-.03-.1-.1-.1h-.1c-1,.1-2.3,.2-2.9,.3-.2,0-.3,0-.5,.1h-.2c-.1,0-.2,0-.2-.1-.2-.2-.4-.5-.4-.6,0,0,0-.1,.1-.1h1.1c1-.1,2.2-.2,2.8-.2,.2,0,.3-.1,.4-.2h.1c.1,0,.3,0,.6,.3,.3,.2,.3,.3,.3,.5,0,.07-.03,.13-.1,.2-.1,.1-.2,.2-.2,.4-.2,1.1-.3,2.3-.5,3.4h1.3Z"/>
  <g id="_ユ" data-name=" ユ">
    <path class="cls-5" d="M94,67.8h1.1l1.2,1.8,1.2-1.8h1.1l-1.8,2.5,1.8,2.7h-1.1l-1.3-2-1.3,2h-1.1l1.8-2.7s-1.6-2.5-1.6-2.5Z"/>
    <path class="cls-5" d="M65.3,74h1.1l1.2,1.8,1.2-1.8h1.1l-1.8,2.5,1.8,2.7h-1.1l-1.3-2-1.3,2h-1.1l1.8-2.7s-1.6-2.5-1.6-2.5Z"/>
    <g>
      <circle class="cls-4" cx="32.1" cy="39.7" r="5.3"/>
      <path class="cls-1" d="M32.9,43.2h-1.4v-4.8h-1.7v-1c.4,0,.7,0,.9-.1,.3-.1,.5-.2,.7-.4,.1-.1,.2-.3,.3-.5,0-.1,.1-.2,.1-.3h1.2v7.1h-.1Z"/>
    </g>
    <g>
      <circle class="cls-4" cx="21.5" cy="73.1" r="5.3"/>
      <path class="cls-1" d="M22.2,70.4c-.2-.2-.4-.3-.7-.3-.4,0-.7,.2-.9,.5-.1,.2-.1,.5-.2,.9h-1.4c0-.6,.1-1.1,.3-1.5,.4-.7,1-1.1,2-1.1,.7,0,1.3,.2,1.8,.6,.4,.4,.7,1,.7,1.6,0,.5-.2,1-.5,1.4-.2,.3-.5,.6-1,.9l-.6,.4c-.3,.2-.6,.4-.7,.5s-.2,.2-.3,.4h3.1v1.2h-4.8c0-.5,.1-1,.3-1.4,.2-.5,.7-1,1.4-1.5,.6-.5,1.1-.8,1.2-1,.3-.3,.4-.6,.4-1,.1-.2,0-.4-.1-.6Z"/>
    </g>
    <polyline class="cls-7" points="61 32.7 80.8 31.7 77.1 47.7 79.5 44.7"/>
  </g>
</svg>